<svg preserveAspectRatio="none" width="100%" height="100%" overflow="visible" style="display: block;" viewBox="0 0 63 200" fill="none" xmlns="http://www.w3.org/2000/svg">
<path id="Vector 532" d="M24.9231 200L29.5962 199.116L28.9038 195.933L27 194.518L24.9231 193.634L21.6346 190.451L19.9038 186.914V183.201L17.6538 179.841V177.011L17.1346 172.591L17.6538 165.164V154.73L18.6923 149.956L20.4231 147.126V143.059L23.1923 139.523L24.4038 132.98L26.6538 120.071L31.6731 133.687L32.5385 138.285L33.9231 140.937L32.8846 143.059L32.5385 148.011L31.6731 152.608L32.5385 171.353L33.9231 177.542L33.4038 184.085L32.5385 195.933L33.0577 198.585H39.2885L47.25 199.293L54.8654 199.116L63 197.347L61.0962 193.634L57.9808 192.75H53.6538L49.1538 189.567L46.3846 183.201V177.011L44.8269 171.353L46.3846 163.042L47.5962 151.017V146.419L48.6346 141.468L47.5962 127.144V116.004L49.5 115.119L51.9231 108.046L49.5 101.503V99.2042L48.9808 93.5455L46.9038 83.466L44.1346 68.0813V53.7577V47.3917V41.3793L39.8077 33.2449L33.5769 28.4704V26.702L38.25 25.4642V23.1653L38.7692 20.1592L38.25 17.6835L39.8077 16.9761L38.25 13.2626L38.7692 12.3784V9.37224L37.3846 6.71972L38.7692 4.0672L35.8269 1.76835L30.8077 0H25.4423L21.4615 1.76835L19.0385 4.77454L17.8269 15.0309L21.4615 21.397L17.8269 26.702L4.5 33.7754L0.519231 49.8674L0 74.0937L5.71154 90.7162V96.0212L8.48077 105.924L7.78846 132.98L6.92308 137.931L4.5 150.486V165.164L6.23077 183.731L8.48077 188.152V192.75L7.61539 197.701L8.48077 200H17.1346H24.9231Z" fill="var(--fill-0, #DB1C2E)"/>
</svg>
