<svg preserveAspectRatio="none" width="100%" height="100%" overflow="visible" style="display: block;" viewBox="0 0 86.5195 134" fill="none" xmlns="http://www.w3.org/2000/svg">
<g id="Group 2136139081">
<path id="Vector 516" d="M78.3656 73.6982C68.2987 85.0072 48.1649 112.149 48.1649 130.243L44.3868 134L40.6118 122.691L2.86373 58.6066C-0.911369 48.5541 -3.93144 24.6822 14.189 9.61383C19.2225 4.58761 35.3295 -3.95698 59.4901 2.07449C74.5905 12.1269 99.5061 40.5251 78.3656 73.6982Z" fill="var(--fill-0, #FFC400)"/>
<path id="Ellipse 479" d="M42.0562 63.347C52.011 63.347 60.0811 54.6207 60.0811 43.8561C60.0811 33.0916 52.011 24.3652 42.0562 24.3652C32.1013 24.3652 24.0312 33.0916 24.0312 43.8561C24.0312 54.6207 32.1013 63.347 42.0562 63.347Z" fill="var(--fill-0, #F5002D)"/>
</g>
</svg>
