<svg preserveAspectRatio="none" width="100%" height="100%" overflow="visible" style="display: block;" viewBox="0 0 58 48" fill="none" xmlns="http://www.w3.org/2000/svg">
<path id="&#38;" d="M58 37.7201C52.3589 44.5194 45.526 48 37.8192 48C33.1315 48 28.0466 46.3002 23.2 42.8196C19.1479 45.5717 15.4932 46.9477 11.9973 46.9477C4.92603 46.9477 0 41.9292 0 34.968C0 28.1686 4.44931 22.8263 13.3479 18.86C13.8247 13.2749 15.4932 9.22765 18.989 5.42327C22.2466 1.94266 26.3781 0 29.3178 0C32.4959 0 34.7205 2.10455 34.7205 4.9376C34.7205 8.09443 31.9397 11.0894 26.4575 14.0843C25.3452 14.6509 22.5644 15.946 18.1151 17.8887C18.274 26.3879 20.9753 33.2681 26.3781 39.0152C32.0192 33.43 35.3562 28.8971 37.6603 26.3879C41.0767 22.7454 44.0164 20.8836 47.1151 20.8836C50.3726 20.8836 52.5178 22.9072 52.5178 25.4165C52.5178 26.7116 51.8027 28.0877 50.5315 29.4637C49.5781 26.6307 47.6712 25.0927 44.9699 25.0927C39.4082 25.0927 35.1973 31.1636 26.9342 39.6627C31.8603 43.7909 36.5479 45.8954 41.474 45.8954C47.7507 45.8954 52.2794 43.1433 57.5233 37.3153L58 37.7201ZM18.1151 17.0793C26.1397 14.2462 30.4301 8.66104 30.4301 4.69477C30.4301 2.7521 29.0795 1.29511 27.2521 1.29511C23.6767 1.29511 18.9096 6.96121 18.1151 17.0793ZM13.3479 19.6695C7.7863 23.3929 5.08493 27.3592 5.08493 32.3777C5.08493 39.5008 9.85205 44.7622 15.7315 44.7622C18.0356 44.7622 20.1808 43.8718 22.4849 42.2529C16.2082 36.5868 13.3479 29.9494 13.3479 21.3693V19.6695Z" fill="var(--fill-0, #E8263F)"/>
</svg>
