<svg preserveAspectRatio="none" width="100%" height="100%" overflow="visible" style="display: block;" viewBox="0 0 291.727 153" fill="none" xmlns="http://www.w3.org/2000/svg">
<g id="Union">
<mask id="path-1-outside-1_0_4" maskUnits="userSpaceOnUse" x="0" y="0" width="292" height="153" fill="black">
<rect fill="white" width="292" height="153"/>
<path d="M122.75 1C123.467 1 123.825 1.19987 123.825 1.59961C123.825 2.27938 122.076 3.35938 118.576 4.83887C115.119 6.27841 111.155 7.57767 106.686 8.7373C96.1866 15.8551 85.793 28.5518 75.5049 46.8262L74.4932 48.625C74.9991 48.7049 75.5892 48.7451 76.2637 48.7451C81.4076 48.7451 86.1513 47.246 90.4941 44.2471C92.5841 42.8039 94.2772 41.2156 95.5762 39.4854V28.752H104.035L135.022 74.4287H135.348C135.293 73.8104 135.239 72.9599 135.185 71.8779C135.13 70.7445 135.077 69.5075 135.022 68.168C134.968 66.777 134.914 65.3604 134.859 63.918C134.805 62.4753 134.778 61.135 134.778 59.8984V28.752H141.609V78.0898C143.766 77.9042 145.902 77.8105 148.019 77.8105C149.115 77.8106 150.149 77.8319 151.121 77.8721V28.752H159.579L190.566 74.4287H190.892C190.837 73.8104 190.783 72.9599 190.729 71.8779C190.674 70.7445 190.621 69.5075 190.566 68.168C190.512 66.777 190.458 65.3604 190.403 63.918C190.349 62.4753 190.322 61.135 190.322 59.8984V28.752H197.154V83.9346H188.614L157.546 38.1035H157.221C157.275 39.031 157.329 40.0618 157.383 41.1953C157.491 42.3288 157.573 43.5657 157.627 44.9053C157.681 46.1933 157.736 47.5328 157.79 48.9238C157.844 50.315 157.871 51.7065 157.871 53.0977V78.6914C160.988 79.4602 162.546 80.7322 162.546 82.5088C162.546 84.4755 160.158 86.1512 155.382 87.5352C150.605 88.8827 144.767 89.5566 137.868 89.5566C130.925 89.5566 122.301 88.7731 111.997 87.207C106.557 89.538 101.581 92.9979 97.0703 97.5869C96.5513 98.1107 96.0288 98.6609 95.501 99.2354C95.622 99.2028 95.7627 99.1866 95.9219 99.1865H116.763C130.373 99.1865 138.625 103.994 138.625 113.469C138.625 121.201 133.096 125.869 124.079 127.332L139.476 147.048C139.9 147.535 139.56 147.953 138.795 147.953H131.564C131.054 147.953 130.713 147.884 130.458 147.466L124.759 139.732L115.487 127.89H103.067L103.408 147.187C103.408 147.744 103.068 147.953 102.473 147.953H95.9219C95.3267 147.953 94.9863 147.744 94.9863 147.187L95.4121 122.804L94.9863 99.9531C94.9863 99.8954 94.9899 99.8414 94.9971 99.791C91.0847 104.145 86.9328 109.875 82.543 116.981C77.3688 125.358 73.5652 130.948 71.1328 133.753C68.7446 136.521 65.4495 139.217 61.248 141.839C50.1475 148.613 38.6264 152 26.6855 152C20.3174 152 15.0989 150.889 11.0303 148.668C7.00591 146.446 4.99331 143.569 4.99316 140.036C4.99316 138.252 5.63446 136.721 6.91699 135.446C8.19942 134.172 9.72534 133.534 11.4941 133.534C14.3688 133.534 15.8066 134.773 15.8066 137.25C15.8065 138.415 15.3638 139.416 14.4795 140.254C13.5951 141.092 12.5119 141.511 11.2295 141.511C9.15102 141.511 8.11145 140.673 8.11133 138.998C8.11133 138.124 7.93388 137.687 7.58008 137.687C6.82859 137.687 6.45316 138.579 6.45312 140.363C6.45312 143.313 8.28831 145.808 11.959 147.848C15.6738 149.887 20.2287 150.907 25.624 150.907C37.4764 150.907 48.1132 146.5 57.5332 137.687C61.9557 133.571 67.6609 126.779 74.6484 117.31C86.0585 101.94 97.9771 91.8333 110.404 86.9893C108.016 86.6615 104.434 86.0605 99.6582 85.1865C88.4251 83.1834 79.823 82.1817 73.8525 82.1816C73.2334 82.1816 71.3758 82.2537 68.2803 82.3994C70.3589 85.6044 71.3975 89.2653 71.3975 93.3809C71.3974 101.393 67.7049 108.914 60.3193 115.943C52.9337 122.973 45.0395 126.487 36.6367 126.487C33.143 126.487 30.2904 125.54 28.0791 123.646C25.9121 121.716 24.8282 119.24 24.8281 116.217C24.8281 112.065 26.7298 107.475 30.5332 102.449C34.3808 97.3867 39.3347 92.9799 45.3936 89.2285C51.4966 85.4409 58.1749 82.8008 65.4277 81.3076C62.0476 77.5374 57.2804 75.5905 51.127 75.4678C43.143 80.177 35.0177 82.8831 26.749 83.5869C24.1042 85.449 21.6494 87.5827 19.3887 89.9932C18.7695 90.6852 18.3491 91.0312 18.1279 91.0312C17.8629 91.0311 17.6861 90.9223 17.5977 90.7041C17.5977 90.0849 19.4106 88.2814 23.0371 85.2949C23.7123 84.7417 24.3913 84.2115 25.0713 83.7012C24.1749 83.748 23.2766 83.7744 22.377 83.7744C16.1791 83.7744 11.0564 82.5347 7.00879 80.0557C3.00316 77.5764 1 74.3974 1 70.5186C1.00001 68.4393 1.61127 66.6798 2.83398 65.2402C4.09887 63.7608 5.61688 63.0206 7.3877 63.0205C10.1284 63.0205 11.499 64.3805 11.499 67.0996C11.499 68.4192 11.035 69.5393 10.1074 70.459C9.22201 71.3785 8.12534 71.8379 6.81836 71.8379C4.83686 71.8378 3.8457 70.938 3.8457 69.1387V67.9395C3.8457 67.5797 3.71965 67.3799 3.4668 67.3398C2.70786 67.3398 2.32815 68.3592 2.32812 70.3984C2.32812 73.8373 4.09902 76.7365 7.64062 79.0957C11.1824 81.415 15.5889 82.5752 20.8594 82.5752C23.0932 82.5752 25.2879 82.3875 27.4434 82.0146C32.7042 78.4792 38.1051 76.2068 43.6475 75.1963C47.6425 72.4206 51.4738 68.8626 55.1396 64.5205C58.1333 60.9616 62.16 55.463 67.2197 48.0254C60.0518 45.0663 56.4678 40.2874 56.4678 33.6895C56.468 25.6922 61.2114 19.7537 70.6982 15.875C75.505 13.8757 83.0734 12.0564 93.4033 10.417L100.36 9.33789L106.306 8.1377C108.582 6.53824 111.534 4.95888 115.16 3.39941C118.828 1.79996 121.359 1.00005 122.75 1ZM220.861 98.1357C232.633 98.1357 242.711 102.545 245.591 115.073C245.675 115.563 245.336 115.913 244.743 115.913H238.646C238.138 115.913 237.799 115.703 237.63 115.213C235.851 106.954 229.33 103.315 220.692 103.314C208.328 103.314 201.383 111.154 201.383 123.472C201.383 136.91 208.667 143.769 220.692 143.769C230.431 143.768 236.783 139.289 238.054 130.82C238.139 130.401 238.477 130.121 238.984 130.121H245.167C245.76 130.121 246.098 130.471 246.014 131.03C243.642 143.208 234.242 148.948 220.861 148.948C203.5 148.948 193.168 139.359 193.168 123.472C193.168 108.004 203.754 98.1358 220.861 98.1357ZM172.525 99.1865C173.037 99.1865 173.377 99.3965 173.548 99.8145L194.091 147.048C194.346 147.535 194.005 147.953 193.323 147.953H186.76C186.248 147.953 185.908 147.744 185.737 147.326L179.855 133.254H155.563L149.768 147.326C149.597 147.744 149.256 147.953 148.744 147.953H142.437C141.755 147.953 141.499 147.535 141.755 147.048L162.468 99.8145C162.638 99.3965 162.979 99.1865 163.49 99.1865H172.525ZM288.321 99.1865C288.919 99.1866 289.261 99.4657 289.261 99.9531V103.437C289.261 103.924 288.919 104.203 288.321 104.203H259.868L259.44 119.46H286.271C286.868 119.46 287.21 119.739 287.21 120.227V123.64C287.21 124.127 286.868 124.406 286.271 124.406H259.44L259.868 142.938H289.005C289.603 142.938 289.944 143.216 289.944 143.703V147.187C289.944 147.674 289.603 147.953 289.005 147.953H252.349C251.751 147.953 251.409 147.744 251.409 147.187L251.922 122.734L251.409 99.9531C251.409 99.396 251.751 99.1865 252.349 99.1865H288.321ZM157.694 127.959H177.64L167.582 103.785L157.694 127.959ZM66.3564 82.6182C56.45 83.9657 47.2288 88.1727 38.6934 95.2383C30.1579 102.304 25.8896 109.26 25.8896 116.107C25.8897 118.73 26.8627 120.933 28.8086 122.718C30.7986 124.502 33.231 125.394 36.1055 125.395C43.5795 125.395 50.899 121.607 58.0635 114.031C65.2279 106.419 68.8105 98.6437 68.8105 90.7041C68.8105 87.7904 67.9928 85.0948 66.3564 82.6182ZM102.982 123.013H117.613C125.354 123.013 130.799 120.226 130.799 113.538C130.799 107.338 125.865 104.133 117.443 104.133H103.323L102.982 123.013ZM148.283 78.8486C146.042 78.8486 143.818 78.9412 141.609 79.125V83.9346H133.07L130.918 80.7598C127.489 81.5293 124.1 82.5313 120.753 83.7656C121.859 83.9113 124.8 84.3487 129.576 85.0771C136.652 86.2062 142.932 86.7705 148.416 86.7705C151.998 86.7705 155.073 86.3696 157.638 85.5684C160.203 84.7307 161.485 83.7472 161.485 82.6182C161.485 81.5857 160.28 80.7104 157.871 79.9912V83.9346H151.121V78.9229C150.22 78.8734 149.274 78.8486 148.283 78.8486ZM239.058 34.8574H213.94V52.0928H237.594V58.1211H213.94V77.8291H239.058V83.9346H206.625V28.752H239.058V34.8574ZM264.467 28.752C269.287 28.752 273.24 29.3442 276.327 30.5293C279.468 31.6628 281.797 33.3894 283.313 35.708C284.83 38.0266 285.588 40.9379 285.588 44.4414C285.588 47.3781 285.019 49.8253 283.882 51.7832C282.745 53.7411 281.282 55.313 279.495 56.498C277.762 57.6316 275.92 58.5333 273.971 59.2031L289.894 83.9346H281.363L267.31 61.1357H255.774V83.9346H248.463V28.752H264.467ZM101.677 38.1035C101.731 39.031 101.785 40.0618 101.839 41.1953C101.947 42.3288 102.029 43.5657 102.083 44.9053C102.137 46.1933 102.192 47.5328 102.246 48.9238C102.3 50.315 102.327 51.7065 102.327 53.0977V80.6396C106.325 81.2763 111.737 82.1712 118.564 83.3281C122.541 81.8962 126.458 80.7437 130.314 79.8691L102.002 38.1035H101.677ZM41.3848 76.6738C38.9308 77.3215 36.4636 78.2283 33.9834 79.3955C32.6247 80.0311 31.3059 80.7237 30.0273 81.4736C33.9467 80.5085 37.7323 78.9087 41.3848 76.6738ZM95.3008 41.248C90.3254 46.9261 83.8953 49.7646 76.0107 49.7646C75.2518 49.7646 74.5137 49.7255 73.7969 49.6455L72.0264 52.9443C68.9484 58.5425 66.2284 62.7008 63.8672 65.4199C61.6747 67.9791 58.6814 70.5385 54.8867 73.0977C54.0867 73.6357 53.2833 74.1511 52.4805 74.6484C58.8337 75.0237 63.7466 77.1341 67.2188 80.9795C72.5699 79.7048 78.717 79.0674 85.6602 79.0674C89.2424 79.0674 92.5154 79.2491 95.4785 79.6133C95.5106 79.6174 95.5432 79.6217 95.5762 79.626V40.9316C95.4855 41.0361 95.3947 41.1428 95.3008 41.248ZM255.774 55.2617H264.467C267.608 55.2617 270.18 54.8753 272.184 54.1025C274.187 53.2782 275.65 52.0926 276.57 50.5469C277.545 49.0011 278.033 47.0686 278.033 44.75C278.033 42.3286 277.518 40.3967 276.489 38.9541C275.514 37.5114 273.998 36.455 271.94 35.7852C269.882 35.1153 267.256 34.7803 264.061 34.7803H255.774V55.2617ZM104.788 9.21777C103.818 9.41771 102.385 9.73691 100.487 10.1768C98.9272 10.5766 96.6499 11.1171 93.6562 11.7969C83.3683 14.1162 75.1675 17.5352 69.0537 22.0537C62.9821 26.5323 59.9463 31.3906 59.9463 36.6289C59.9463 41.6674 62.5393 45.2263 67.7256 47.3057C78.8991 30.391 91.2533 17.6951 104.788 9.21777Z"/>
</mask>
<path d="M122.75 1C123.467 1 123.825 1.19987 123.825 1.59961C123.825 2.27938 122.076 3.35938 118.576 4.83887C115.119 6.27841 111.155 7.57767 106.686 8.7373C96.1866 15.8551 85.793 28.5518 75.5049 46.8262L74.4932 48.625C74.9991 48.7049 75.5892 48.7451 76.2637 48.7451C81.4076 48.7451 86.1513 47.246 90.4941 44.2471C92.5841 42.8039 94.2772 41.2156 95.5762 39.4854V28.752H104.035L135.022 74.4287H135.348C135.293 73.8104 135.239 72.9599 135.185 71.8779C135.13 70.7445 135.077 69.5075 135.022 68.168C134.968 66.777 134.914 65.3604 134.859 63.918C134.805 62.4753 134.778 61.135 134.778 59.8984V28.752H141.609V78.0898C143.766 77.9042 145.902 77.8105 148.019 77.8105C149.115 77.8106 150.149 77.8319 151.121 77.8721V28.752H159.579L190.566 74.4287H190.892C190.837 73.8104 190.783 72.9599 190.729 71.8779C190.674 70.7445 190.621 69.5075 190.566 68.168C190.512 66.777 190.458 65.3604 190.403 63.918C190.349 62.4753 190.322 61.135 190.322 59.8984V28.752H197.154V83.9346H188.614L157.546 38.1035H157.221C157.275 39.031 157.329 40.0618 157.383 41.1953C157.491 42.3288 157.573 43.5657 157.627 44.9053C157.681 46.1933 157.736 47.5328 157.79 48.9238C157.844 50.315 157.871 51.7065 157.871 53.0977V78.6914C160.988 79.4602 162.546 80.7322 162.546 82.5088C162.546 84.4755 160.158 86.1512 155.382 87.5352C150.605 88.8827 144.767 89.5566 137.868 89.5566C130.925 89.5566 122.301 88.7731 111.997 87.207C106.557 89.538 101.581 92.9979 97.0703 97.5869C96.5513 98.1107 96.0288 98.6609 95.501 99.2354C95.622 99.2028 95.7627 99.1866 95.9219 99.1865H116.763C130.373 99.1865 138.625 103.994 138.625 113.469C138.625 121.201 133.096 125.869 124.079 127.332L139.476 147.048C139.9 147.535 139.56 147.953 138.795 147.953H131.564C131.054 147.953 130.713 147.884 130.458 147.466L124.759 139.732L115.487 127.89H103.067L103.408 147.187C103.408 147.744 103.068 147.953 102.473 147.953H95.9219C95.3267 147.953 94.9863 147.744 94.9863 147.187L95.4121 122.804L94.9863 99.9531C94.9863 99.8954 94.9899 99.8414 94.9971 99.791C91.0847 104.145 86.9328 109.875 82.543 116.981C77.3688 125.358 73.5652 130.948 71.1328 133.753C68.7446 136.521 65.4495 139.217 61.248 141.839C50.1475 148.613 38.6264 152 26.6855 152C20.3174 152 15.0989 150.889 11.0303 148.668C7.00591 146.446 4.99331 143.569 4.99316 140.036C4.99316 138.252 5.63446 136.721 6.91699 135.446C8.19942 134.172 9.72534 133.534 11.4941 133.534C14.3688 133.534 15.8066 134.773 15.8066 137.25C15.8065 138.415 15.3638 139.416 14.4795 140.254C13.5951 141.092 12.5119 141.511 11.2295 141.511C9.15102 141.511 8.11145 140.673 8.11133 138.998C8.11133 138.124 7.93388 137.687 7.58008 137.687C6.82859 137.687 6.45316 138.579 6.45312 140.363C6.45312 143.313 8.28831 145.808 11.959 147.848C15.6738 149.887 20.2287 150.907 25.624 150.907C37.4764 150.907 48.1132 146.5 57.5332 137.687C61.9557 133.571 67.6609 126.779 74.6484 117.31C86.0585 101.94 97.9771 91.8333 110.404 86.9893C108.016 86.6615 104.434 86.0605 99.6582 85.1865C88.4251 83.1834 79.823 82.1817 73.8525 82.1816C73.2334 82.1816 71.3758 82.2537 68.2803 82.3994C70.3589 85.6044 71.3975 89.2653 71.3975 93.3809C71.3974 101.393 67.7049 108.914 60.3193 115.943C52.9337 122.973 45.0395 126.487 36.6367 126.487C33.143 126.487 30.2904 125.54 28.0791 123.646C25.9121 121.716 24.8282 119.24 24.8281 116.217C24.8281 112.065 26.7298 107.475 30.5332 102.449C34.3808 97.3867 39.3347 92.9799 45.3936 89.2285C51.4966 85.4409 58.1749 82.8008 65.4277 81.3076C62.0476 77.5374 57.2804 75.5905 51.127 75.4678C43.143 80.177 35.0177 82.8831 26.749 83.5869C24.1042 85.449 21.6494 87.5827 19.3887 89.9932C18.7695 90.6852 18.3491 91.0312 18.1279 91.0312C17.8629 91.0311 17.6861 90.9223 17.5977 90.7041C17.5977 90.0849 19.4106 88.2814 23.0371 85.2949C23.7123 84.7417 24.3913 84.2115 25.0713 83.7012C24.1749 83.748 23.2766 83.7744 22.377 83.7744C16.1791 83.7744 11.0564 82.5347 7.00879 80.0557C3.00316 77.5764 1 74.3974 1 70.5186C1.00001 68.4393 1.61127 66.6798 2.83398 65.2402C4.09887 63.7608 5.61688 63.0206 7.3877 63.0205C10.1284 63.0205 11.499 64.3805 11.499 67.0996C11.499 68.4192 11.035 69.5393 10.1074 70.459C9.22201 71.3785 8.12534 71.8379 6.81836 71.8379C4.83686 71.8378 3.8457 70.938 3.8457 69.1387V67.9395C3.8457 67.5797 3.71965 67.3799 3.4668 67.3398C2.70786 67.3398 2.32815 68.3592 2.32812 70.3984C2.32812 73.8373 4.09902 76.7365 7.64062 79.0957C11.1824 81.415 15.5889 82.5752 20.8594 82.5752C23.0932 82.5752 25.2879 82.3875 27.4434 82.0146C32.7042 78.4792 38.1051 76.2068 43.6475 75.1963C47.6425 72.4206 51.4738 68.8626 55.1396 64.5205C58.1333 60.9616 62.16 55.463 67.2197 48.0254C60.0518 45.0663 56.4678 40.2874 56.4678 33.6895C56.468 25.6922 61.2114 19.7537 70.6982 15.875C75.505 13.8757 83.0734 12.0564 93.4033 10.417L100.36 9.33789L106.306 8.1377C108.582 6.53824 111.534 4.95888 115.16 3.39941C118.828 1.79996 121.359 1.00005 122.75 1ZM220.861 98.1357C232.633 98.1357 242.711 102.545 245.591 115.073C245.675 115.563 245.336 115.913 244.743 115.913H238.646C238.138 115.913 237.799 115.703 237.63 115.213C235.851 106.954 229.33 103.315 220.692 103.314C208.328 103.314 201.383 111.154 201.383 123.472C201.383 136.91 208.667 143.769 220.692 143.769C230.431 143.768 236.783 139.289 238.054 130.82C238.139 130.401 238.477 130.121 238.984 130.121H245.167C245.76 130.121 246.098 130.471 246.014 131.03C243.642 143.208 234.242 148.948 220.861 148.948C203.5 148.948 193.168 139.359 193.168 123.472C193.168 108.004 203.754 98.1358 220.861 98.1357ZM172.525 99.1865C173.037 99.1865 173.377 99.3965 173.548 99.8145L194.091 147.048C194.346 147.535 194.005 147.953 193.323 147.953H186.76C186.248 147.953 185.908 147.744 185.737 147.326L179.855 133.254H155.563L149.768 147.326C149.597 147.744 149.256 147.953 148.744 147.953H142.437C141.755 147.953 141.499 147.535 141.755 147.048L162.468 99.8145C162.638 99.3965 162.979 99.1865 163.49 99.1865H172.525ZM288.321 99.1865C288.919 99.1866 289.261 99.4657 289.261 99.9531V103.437C289.261 103.924 288.919 104.203 288.321 104.203H259.868L259.44 119.46H286.271C286.868 119.46 287.21 119.739 287.21 120.227V123.64C287.21 124.127 286.868 124.406 286.271 124.406H259.44L259.868 142.938H289.005C289.603 142.938 289.944 143.216 289.944 143.703V147.187C289.944 147.674 289.603 147.953 289.005 147.953H252.349C251.751 147.953 251.409 147.744 251.409 147.187L251.922 122.734L251.409 99.9531C251.409 99.396 251.751 99.1865 252.349 99.1865H288.321ZM157.694 127.959H177.64L167.582 103.785L157.694 127.959ZM66.3564 82.6182C56.45 83.9657 47.2288 88.1727 38.6934 95.2383C30.1579 102.304 25.8896 109.26 25.8896 116.107C25.8897 118.73 26.8627 120.933 28.8086 122.718C30.7986 124.502 33.231 125.394 36.1055 125.395C43.5795 125.395 50.899 121.607 58.0635 114.031C65.2279 106.419 68.8105 98.6437 68.8105 90.7041C68.8105 87.7904 67.9928 85.0948 66.3564 82.6182ZM102.982 123.013H117.613C125.354 123.013 130.799 120.226 130.799 113.538C130.799 107.338 125.865 104.133 117.443 104.133H103.323L102.982 123.013ZM148.283 78.8486C146.042 78.8486 143.818 78.9412 141.609 79.125V83.9346H133.07L130.918 80.7598C127.489 81.5293 124.1 82.5313 120.753 83.7656C121.859 83.9113 124.8 84.3487 129.576 85.0771C136.652 86.2062 142.932 86.7705 148.416 86.7705C151.998 86.7705 155.073 86.3696 157.638 85.5684C160.203 84.7307 161.485 83.7472 161.485 82.6182C161.485 81.5857 160.28 80.7104 157.871 79.9912V83.9346H151.121V78.9229C150.22 78.8734 149.274 78.8486 148.283 78.8486ZM239.058 34.8574H213.94V52.0928H237.594V58.1211H213.94V77.8291H239.058V83.9346H206.625V28.752H239.058V34.8574ZM264.467 28.752C269.287 28.752 273.24 29.3442 276.327 30.5293C279.468 31.6628 281.797 33.3894 283.313 35.708C284.83 38.0266 285.588 40.9379 285.588 44.4414C285.588 47.3781 285.019 49.8253 283.882 51.7832C282.745 53.7411 281.282 55.313 279.495 56.498C277.762 57.6316 275.92 58.5333 273.971 59.2031L289.894 83.9346H281.363L267.31 61.1357H255.774V83.9346H248.463V28.752H264.467ZM101.677 38.1035C101.731 39.031 101.785 40.0618 101.839 41.1953C101.947 42.3288 102.029 43.5657 102.083 44.9053C102.137 46.1933 102.192 47.5328 102.246 48.9238C102.3 50.315 102.327 51.7065 102.327 53.0977V80.6396C106.325 81.2763 111.737 82.1712 118.564 83.3281C122.541 81.8962 126.458 80.7437 130.314 79.8691L102.002 38.1035H101.677ZM41.3848 76.6738C38.9308 77.3215 36.4636 78.2283 33.9834 79.3955C32.6247 80.0311 31.3059 80.7237 30.0273 81.4736C33.9467 80.5085 37.7323 78.9087 41.3848 76.6738ZM95.3008 41.248C90.3254 46.9261 83.8953 49.7646 76.0107 49.7646C75.2518 49.7646 74.5137 49.7255 73.7969 49.6455L72.0264 52.9443C68.9484 58.5425 66.2284 62.7008 63.8672 65.4199C61.6747 67.9791 58.6814 70.5385 54.8867 73.0977C54.0867 73.6357 53.2833 74.1511 52.4805 74.6484C58.8337 75.0237 63.7466 77.1341 67.2188 80.9795C72.5699 79.7048 78.717 79.0674 85.6602 79.0674C89.2424 79.0674 92.5154 79.2491 95.4785 79.6133C95.5106 79.6174 95.5432 79.6217 95.5762 79.626V40.9316C95.4855 41.0361 95.3947 41.1428 95.3008 41.248ZM255.774 55.2617H264.467C267.608 55.2617 270.18 54.8753 272.184 54.1025C274.187 53.2782 275.65 52.0926 276.57 50.5469C277.545 49.0011 278.033 47.0686 278.033 44.75C278.033 42.3286 277.518 40.3967 276.489 38.9541C275.514 37.5114 273.998 36.455 271.94 35.7852C269.882 35.1153 267.256 34.7803 264.061 34.7803H255.774V55.2617ZM104.788 9.21777C103.818 9.41771 102.385 9.73691 100.487 10.1768C98.9272 10.5766 96.6499 11.1171 93.6562 11.7969C83.3683 14.1162 75.1675 17.5352 69.0537 22.0537C62.9821 26.5323 59.9463 31.3906 59.9463 36.6289C59.9463 41.6674 62.5393 45.2263 67.7256 47.3057C78.8991 30.391 91.2533 17.6951 104.788 9.21777Z" fill="var(--fill-0, #DB1C2E)"/>
<path d="M122.75 1V0H122.75L122.75 1ZM123.825 1.59961H124.825V1.5993L123.825 1.59961ZM118.576 4.83887L118.961 5.76206L118.966 5.75993L118.576 4.83887ZM106.686 8.7373L106.434 7.76936L106.267 7.81271L106.124 7.90959L106.686 8.7373ZM75.5049 46.8262L74.6335 46.3356L74.6333 46.336L75.5049 46.8262ZM74.4932 48.625L73.6216 48.1348L72.9166 49.3883L74.3371 49.6127L74.4932 48.625ZM76.2637 48.7451V49.7451V49.7451V48.7451ZM90.4941 44.2471L91.0624 45.0699L91.0624 45.0699L90.4941 44.2471ZM95.5762 39.4854L96.3759 40.0857L96.5762 39.819V39.4854H95.5762ZM95.5762 28.752V27.752H94.5762V28.752H95.5762ZM104.035 28.752L104.863 28.1905L104.565 27.752H104.035V28.752ZM135.022 74.4287L134.195 74.9901L134.492 75.4287H135.022V74.4287ZM135.348 74.4287V75.4287H136.439L136.344 74.3414L135.348 74.4287ZM135.185 71.8779L134.186 71.9257L134.186 71.928L135.185 71.8779ZM135.022 68.168L134.023 68.2069L134.023 68.2084L135.022 68.168ZM134.859 63.918L133.86 63.9555V63.9555L134.859 63.918ZM134.778 28.752V27.752H133.778V28.752H134.778ZM141.609 28.752H142.609V27.752H141.609V28.752ZM141.609 78.0898H140.609V79.1796L141.695 79.0862L141.609 78.0898ZM148.019 77.8105V76.8105V76.8105V77.8105ZM151.121 77.8721L151.08 78.8712L152.121 78.9142V77.8721H151.121ZM151.121 28.752V27.752H150.121V28.752H151.121ZM159.579 28.752L160.407 28.1905L160.109 27.752H159.579V28.752ZM190.566 74.4287L189.739 74.9901L190.036 75.4287H190.566V74.4287ZM190.892 74.4287V75.4287H191.983L191.888 74.3414L190.892 74.4287ZM190.729 71.8779L189.73 71.9257L189.73 71.928L190.729 71.8779ZM190.566 68.168L189.567 68.2069L189.567 68.2084L190.566 68.168ZM190.403 63.918L189.404 63.9555V63.9555L190.403 63.918ZM190.322 28.752V27.752H189.322V28.752H190.322ZM197.154 28.752H198.154V27.752H197.154V28.752ZM197.154 83.9346V84.9346H198.154V83.9346H197.154ZM188.614 83.9346L187.787 84.4957L188.084 84.9346H188.614V83.9346ZM157.546 38.1035L158.374 37.5424L158.076 37.1035H157.546V38.1035ZM157.221 38.1035V37.1035H156.161L156.222 38.1619L157.221 38.1035ZM157.383 41.1953L156.384 41.2431L156.385 41.2669L156.387 41.2905L157.383 41.1953ZM157.627 44.9053L156.628 44.9457L156.628 44.9473L157.627 44.9053ZM157.79 48.9238L158.789 48.8849L157.79 48.9238ZM157.871 78.6914H156.871V79.4747L157.632 79.6623L157.871 78.6914ZM162.546 82.5088H163.546V82.5087L162.546 82.5088ZM155.382 87.5352L155.653 88.4976L155.66 88.4956L155.382 87.5352ZM137.868 89.5566V90.5566V90.5566V89.5566ZM111.997 87.207L112.147 86.2184L111.865 86.1755L111.603 86.2879L111.997 87.207ZM97.0703 97.5869L97.7807 98.2908L97.7835 98.2879L97.0703 97.5869ZM95.501 99.2354L94.7646 98.5588L92.4329 101.097L95.7608 100.201L95.501 99.2354ZM95.9219 99.1865V98.1865H95.9217L95.9219 99.1865ZM138.625 113.469L139.625 113.469V113.469H138.625ZM124.079 127.332L123.919 126.345L122.251 126.616L123.291 127.948L124.079 127.332ZM139.476 147.048L138.687 147.663L138.704 147.685L138.722 147.705L139.476 147.048ZM138.795 147.953V148.953H138.795L138.795 147.953ZM130.458 147.466L131.311 146.945L131.289 146.908L131.263 146.873L130.458 147.466ZM124.759 139.732L125.564 139.139L125.555 139.127L125.546 139.116L124.759 139.732ZM115.487 127.89L116.275 127.273L115.974 126.89H115.487V127.89ZM103.067 127.89V126.89H102.05L102.068 127.907L103.067 127.89ZM103.408 147.187H104.408V147.178L104.408 147.169L103.408 147.187ZM102.473 147.953V148.953H102.473L102.473 147.953ZM95.9219 147.953L95.9217 148.953H95.9219V147.953ZM94.9863 147.187L93.9865 147.169L93.9863 147.178V147.187H94.9863ZM95.4121 122.804L96.412 122.821L96.4123 122.803L96.4119 122.785L95.4121 122.804ZM94.9863 99.9531L93.9863 99.953V99.9624L93.9865 99.9718L94.9863 99.9531ZM94.9971 99.791L95.987 99.9327L96.4532 96.6742L94.2532 99.1227L94.9971 99.791ZM82.543 116.981L81.6922 116.456V116.456L82.543 116.981ZM71.1328 133.753L70.3774 133.098L70.3757 133.1L71.1328 133.753ZM61.248 141.839L61.769 142.693L61.7775 142.687L61.248 141.839ZM26.6855 152L26.6855 153H26.6855V152ZM11.0303 148.668L10.547 149.543L10.551 149.546L11.0303 148.668ZM4.99316 140.036H3.99316V140.036L4.99316 140.036ZM6.91699 135.446L6.21207 134.737L6.21205 134.737L6.91699 135.446ZM11.4941 133.534V132.534H11.4941L11.4941 133.534ZM15.8066 137.25L16.8066 137.25V137.25H15.8066ZM14.4795 140.254L15.1671 140.98H15.1671L14.4795 140.254ZM11.2295 141.511V142.511H11.2296L11.2295 141.511ZM8.11133 138.998H7.11133V138.998L8.11133 138.998ZM7.58008 137.687V136.687H7.57959L7.58008 137.687ZM6.45312 140.363L5.45312 140.363V140.363H6.45312ZM11.959 147.848L11.4733 148.722L11.4777 148.724L11.959 147.848ZM25.624 150.907L25.624 151.907H25.624V150.907ZM57.5332 137.687L56.852 136.954L56.85 136.956L57.5332 137.687ZM74.6484 117.31L73.8455 116.713L73.8438 116.716L74.6484 117.31ZM110.404 86.9893L110.767 87.921L114.356 86.5223L110.54 85.9985L110.404 86.9893ZM99.6582 85.1865L99.8382 84.2029L99.8338 84.2021L99.6582 85.1865ZM73.8525 82.1816L73.8525 81.1816H73.8525V82.1816ZM68.2803 82.3994L68.2333 81.4005L66.4937 81.4824L67.4413 82.9435L68.2803 82.3994ZM71.3975 93.3809L72.3975 93.3809V93.3809H71.3975ZM60.3193 115.943L61.0087 116.668V116.668L60.3193 115.943ZM36.6367 126.487V127.487H36.6367L36.6367 126.487ZM28.0791 123.646L27.414 124.393L27.4212 124.4L27.4286 124.406L28.0791 123.646ZM24.8281 116.217H23.8281V116.217L24.8281 116.217ZM30.5332 102.449L29.737 101.844L29.7358 101.846L30.5332 102.449ZM45.3936 89.2285L45.92 90.0787L45.9209 90.0782L45.3936 89.2285ZM65.4277 81.3076L65.6294 82.2871L67.3342 81.9361L66.1723 80.6401L65.4277 81.3076ZM51.127 75.4678L51.1469 74.468L50.8633 74.4623L50.6189 74.6064L51.127 75.4678ZM26.749 83.5869L26.6642 82.5905L26.3946 82.6135L26.1733 82.7692L26.749 83.5869ZM19.3887 89.9932L18.6593 89.3091L18.6513 89.3176L18.6434 89.3264L19.3887 89.9932ZM18.1279 91.0312L18.1276 92.0312H18.1279V91.0312ZM17.5977 90.7041H16.5977V90.8991L16.6709 91.0797L17.5977 90.7041ZM23.0371 85.2949L22.4033 84.5214L22.4014 84.523L23.0371 85.2949ZM25.0713 83.7012L25.6716 84.501L28.296 82.5313L25.0191 82.7025L25.0713 83.7012ZM22.377 83.7744L22.3769 84.7744H22.377V83.7744ZM7.00879 80.0557L6.4825 80.906L6.48649 80.9084L7.00879 80.0557ZM1 70.5186L0 70.5185V70.5186H1ZM2.83398 65.2402L2.0739 64.5904L2.07181 64.5929L2.83398 65.2402ZM7.3877 63.0205V62.0205H7.38766L7.3877 63.0205ZM11.499 67.0996H12.499V67.0996L11.499 67.0996ZM10.1074 70.459L9.40335 69.7489L9.39511 69.757L9.38707 69.7654L10.1074 70.459ZM6.81836 71.8379L6.81831 72.8379H6.81836V71.8379ZM3.4668 67.3398L3.6233 66.3522L3.54553 66.3398H3.4668V67.3398ZM2.32812 70.3984L1.32812 70.3984V70.3984H2.32812ZM7.64062 79.0957L7.08621 79.928L7.0928 79.9323L7.64062 79.0957ZM20.8594 82.5752L20.8594 83.5752H20.8594V82.5752ZM27.4434 82.0146L27.6138 83L27.8241 82.9636L28.0011 82.8446L27.4434 82.0146ZM43.6475 75.1963L43.8268 76.1801L44.04 76.1412L44.218 76.0175L43.6475 75.1963ZM55.1396 64.5205L55.9038 65.1656L55.9049 65.1642L55.1396 64.5205ZM67.2197 48.0254L68.0465 48.5879L68.7386 47.5706L67.6013 47.1011L67.2197 48.0254ZM56.4678 33.6895L55.4678 33.6894V33.6895H56.4678ZM70.6982 15.875L71.0767 16.8006L71.0823 16.7983L70.6982 15.875ZM93.4033 10.417L93.25 9.4288L93.2466 9.42935L93.4033 10.417ZM100.36 9.33789L100.514 10.3261L100.536 10.3226L100.558 10.3181L100.36 9.33789ZM106.306 8.1377L106.504 9.11792L106.709 9.07645L106.881 8.95597L106.306 8.1377ZM115.16 3.39941L115.555 4.31807L115.56 4.31606L115.16 3.39941ZM220.861 98.1357V97.1357V97.1357V98.1357ZM245.591 115.073L246.576 114.903L246.572 114.876L246.565 114.849L245.591 115.073ZM237.63 115.213L236.652 115.423L236.665 115.483L236.685 115.54L237.63 115.213ZM220.692 103.314L220.692 102.314H220.692V103.314ZM201.383 123.472L200.383 123.472V123.472H201.383ZM220.692 143.769V144.769H220.692L220.692 143.769ZM238.054 130.82L237.074 130.622L237.069 130.647L237.065 130.672L238.054 130.82ZM238.984 130.121V129.121H238.984L238.984 130.121ZM246.014 131.03L246.995 131.221L246.999 131.201L247.002 131.18L246.014 131.03ZM220.861 148.948V149.948V149.948V148.948ZM193.168 123.472L192.168 123.472V123.472H193.168ZM173.548 99.8145L172.622 100.192L172.626 100.203L172.631 100.213L173.548 99.8145ZM194.091 147.048L193.174 147.447L193.188 147.48L193.205 147.512L194.091 147.048ZM193.323 147.953V148.953V148.953V147.953ZM186.76 147.953L186.76 148.953H186.76V147.953ZM185.737 147.326L186.663 146.949L186.66 146.941L185.737 147.326ZM179.855 133.254L180.778 132.868L180.521 132.254H179.855V133.254ZM155.563 133.254V132.254H154.894L154.639 132.873L155.563 133.254ZM149.768 147.326L148.843 146.945L148.842 146.949L149.768 147.326ZM142.437 147.953L142.436 148.953H142.437V147.953ZM141.755 147.048L142.641 147.512L142.657 147.481L142.671 147.449L141.755 147.048ZM162.468 99.8145L163.384 100.216L163.389 100.204L163.394 100.192L162.468 99.8145ZM163.49 99.1865V98.1865H163.49L163.49 99.1865ZM288.321 99.1865L288.322 98.1865H288.321V99.1865ZM289.261 99.9531H290.261V99.9529L289.261 99.9531ZM288.321 104.203V105.203H288.322L288.321 104.203ZM259.868 104.203V103.203H258.896L258.869 104.175L259.868 104.203ZM259.44 119.46L258.441 119.432L258.412 120.46H259.44V119.46ZM286.271 119.46L286.271 118.46H286.271V119.46ZM286.271 124.406V125.406H286.271L286.271 124.406ZM259.44 124.406V123.406H258.417L258.441 124.429L259.44 124.406ZM259.868 142.938L258.868 142.961L258.891 143.938H259.868V142.938ZM289.005 142.938L289.005 141.938H289.005V142.938ZM289.944 143.703H290.944V143.703L289.944 143.703ZM289.005 147.953V148.953H289.005L289.005 147.953ZM252.349 147.953L252.349 148.953H252.349V147.953ZM251.409 147.187L250.409 147.166L250.409 147.176V147.187H251.409ZM251.922 122.734L252.922 122.755L252.922 122.734L252.922 122.712L251.922 122.734ZM251.409 99.9531L250.409 99.953V99.9643L250.409 99.9756L251.409 99.9531ZM252.349 99.1865V98.1865H252.349L252.349 99.1865ZM157.694 127.959L156.769 127.58L156.205 128.959H157.694V127.959ZM177.64 127.959V128.959H179.139L178.563 127.575L177.64 127.959ZM167.582 103.785L168.505 103.401L167.574 101.163L166.656 103.407L167.582 103.785ZM66.3564 82.6182L67.1908 82.0669L66.8444 81.5426L66.2217 81.6273L66.3564 82.6182ZM38.6934 95.2383L38.0557 94.468V94.468L38.6934 95.2383ZM25.8896 116.107H24.8896V116.107L25.8896 116.107ZM28.8086 122.718L28.1326 123.455L28.141 123.462L28.8086 122.718ZM36.1055 125.395L36.1054 126.395H36.1055V125.395ZM58.0635 114.031L58.79 114.718L58.7917 114.717L58.0635 114.031ZM68.8105 90.7041L69.8105 90.7041V90.7041H68.8105ZM102.982 123.013L101.983 122.995L101.964 124.013H102.982V123.013ZM130.799 113.538H131.799V113.538L130.799 113.538ZM103.323 104.133V103.133H102.341L102.323 104.115L103.323 104.133ZM148.283 78.8486V77.8486V77.8486V78.8486ZM141.609 79.125L141.526 78.1284L140.609 78.2048V79.125H141.609ZM141.609 83.9346V84.9346H142.609V83.9346H141.609ZM133.07 83.9346L132.243 84.4957L132.54 84.9346H133.07V83.9346ZM130.918 80.7598L131.746 80.1986L131.364 79.6349L130.699 79.784L130.918 80.7598ZM120.753 83.7656L120.407 82.8274L120.622 84.7571L120.753 83.7656ZM129.576 85.0771L129.734 84.0896L129.727 84.0886L129.576 85.0771ZM148.416 86.7705V87.7705V87.7705V86.7705ZM157.638 85.5684L157.936 86.523L157.948 86.5189L157.638 85.5684ZM161.485 82.6182H162.485V82.618L161.485 82.6182ZM157.871 79.9912L158.157 79.033L156.871 78.649V79.9912H157.871ZM157.871 83.9346V84.9346H158.871V83.9346H157.871ZM151.121 83.9346H150.121V84.9346H151.121V83.9346ZM151.121 78.9229H152.121V77.9762L151.176 77.9244L151.121 78.9229ZM239.058 34.8574V35.8574H240.058V34.8574H239.058ZM213.94 34.8574V33.8574H212.94V34.8574H213.94ZM213.94 52.0928H212.94V53.0928H213.94V52.0928ZM237.594 52.0928H238.594V51.0928H237.594V52.0928ZM237.594 58.1211V59.1211H238.594V58.1211H237.594ZM213.94 58.1211V57.1211H212.94V58.1211H213.94ZM213.94 77.8291H212.94V78.8291H213.94V77.8291ZM239.058 77.8291H240.058V76.8291H239.058V77.8291ZM239.058 83.9346V84.9346H240.058V83.9346H239.058ZM206.625 83.9346H205.625V84.9346H206.625V83.9346ZM206.625 28.752V27.752H205.625V28.752H206.625ZM239.058 28.752H240.058V27.752H239.058V28.752ZM264.467 28.752V27.752V27.752V28.752ZM276.327 30.5293L275.969 31.4629L275.978 31.4665L275.988 31.4699L276.327 30.5293ZM283.313 35.708L284.15 35.1607V35.1607L283.313 35.708ZM285.588 44.4414L286.588 44.4414V44.4414H285.588ZM283.882 51.7832L284.747 52.2855V52.2855L283.882 51.7832ZM279.495 56.498L280.043 57.3349L280.048 57.3315L279.495 56.498ZM273.971 59.2031L273.646 58.2574L272.439 58.6719L273.13 59.7445L273.971 59.2031ZM289.894 83.9346V84.9346H291.727L290.734 83.3932L289.894 83.9346ZM281.363 83.9346L280.512 84.4593L280.805 84.9346H281.363V83.9346ZM267.31 61.1357L268.161 60.611L267.868 60.1357H267.31V61.1357ZM255.774 61.1357V60.1357H254.774V61.1357H255.774ZM255.774 83.9346V84.9346H256.774V83.9346H255.774ZM248.463 83.9346H247.463V84.9346H248.463V83.9346ZM248.463 28.752V27.752H247.463V28.752H248.463ZM101.677 38.1035V37.1035H100.617L100.678 38.1619L101.677 38.1035ZM101.839 41.1953L100.84 41.2431L100.841 41.2669L100.843 41.2905L101.839 41.1953ZM102.083 44.9053L101.084 44.9457L101.084 44.9473L102.083 44.9053ZM102.246 48.9238L103.245 48.8849L102.246 48.9238ZM102.327 80.6396H101.327V81.493L102.17 81.6272L102.327 80.6396ZM118.564 83.3281L118.397 84.3141L118.656 84.3579L118.903 84.269L118.564 83.3281ZM130.314 79.8691L130.536 80.8444L131.964 80.5204L131.142 79.308L130.314 79.8691ZM102.002 38.1035L102.83 37.5424L102.532 37.1035H102.002V38.1035ZM41.3848 76.6738L41.9067 77.5268L41.1296 75.7069L41.3848 76.6738ZM33.9834 79.3955L34.4071 80.3013L34.4092 80.3003L33.9834 79.3955ZM30.0273 81.4736L29.5214 80.6111L30.2664 82.4446L30.0273 81.4736ZM95.3008 41.248L94.5546 40.5823L94.5487 40.589L95.3008 41.248ZM76.0107 49.7646V50.7646V50.7646V49.7646ZM73.7969 49.6455L73.9078 48.6517L73.2356 48.5767L72.9158 49.1726L73.7969 49.6455ZM72.0264 52.9443L72.9027 53.4262L72.9075 53.4172L72.0264 52.9443ZM63.8672 65.4199L63.1121 64.7642L63.1078 64.7693L63.8672 65.4199ZM54.8867 73.0977L55.4448 73.9274L55.4459 73.9267L54.8867 73.0977ZM52.4805 74.6484L51.9539 73.7983L49.2706 75.4606L52.4215 75.6467L52.4805 74.6484ZM67.2188 80.9795L66.4765 81.6497L66.8738 82.0896L67.4505 81.9523L67.2188 80.9795ZM85.6602 79.0674V78.0674V78.0674V79.0674ZM95.4785 79.6133L95.6051 78.6213L95.6005 78.6208L95.4785 79.6133ZM95.5762 79.626L95.448 80.6177L96.5762 80.7635V79.626H95.5762ZM95.5762 40.9316H96.5762V38.2552L94.8212 40.2759L95.5762 40.9316ZM255.774 55.2617H254.774V56.2617H255.774V55.2617ZM264.467 55.2617V56.2617V56.2617V55.2617ZM272.184 54.1025L272.543 55.0356L272.554 55.0316L272.564 55.0273L272.184 54.1025ZM276.57 50.5469L275.724 50.0134L275.718 50.0242L275.711 50.0351L276.57 50.5469ZM278.033 44.75H279.033V44.75L278.033 44.75ZM276.489 38.9541L275.661 39.514L275.668 39.5245L275.675 39.5348L276.489 38.9541ZM271.94 35.7852L272.25 34.8343V34.8343L271.94 35.7852ZM264.061 34.7803V33.7803V33.7803V34.7803ZM255.774 34.7803V33.7803H254.774V34.7803H255.774ZM104.788 9.21777L105.319 10.0653L104.586 8.23837L104.788 9.21777ZM100.487 10.1768L100.261 9.20259L100.25 9.2052L100.239 9.20807L100.487 10.1768ZM93.6562 11.7969L93.8762 12.7724L93.8777 12.772L93.6562 11.7969ZM69.0537 22.0537L69.6473 22.8585L69.6481 22.8579L69.0537 22.0537ZM59.9463 36.6289L58.9463 36.6289V36.6289H59.9463ZM67.7256 47.3057L67.3534 48.2338L68.1104 48.5373L68.56 47.8568L67.7256 47.3057ZM122.75 1V2C122.886 2 122.979 2.00968 123.038 2.02063C123.098 2.03195 123.1 2.04044 123.069 2.02327C123.033 2.00285 122.959 1.95051 122.9 1.85047C122.839 1.74908 122.825 1.65404 122.825 1.59992L123.825 1.59961L124.825 1.5993C124.825 1.34531 124.766 1.07538 124.616 0.824095C124.467 0.574144 124.259 0.396885 124.043 0.276532C123.642 0.0526811 123.169 0 122.75 0V1ZM123.825 1.59961H122.825C122.825 1.35791 122.96 1.30666 122.788 1.4794C122.649 1.61929 122.396 1.81651 121.988 2.06836C121.178 2.56785 119.922 3.18429 118.187 3.9178L118.576 4.83887L118.966 5.75993C120.73 5.01396 122.098 4.35065 123.038 3.77033C123.505 3.48227 123.908 3.18957 124.206 2.88954C124.472 2.62236 124.825 2.1812 124.825 1.59961H123.825ZM118.576 4.83887L118.192 3.91569C114.786 5.3336 110.868 6.61889 106.434 7.76936L106.686 8.7373L106.937 9.70525C111.441 8.53646 115.451 7.22321 118.961 5.76204L118.576 4.83887ZM106.686 8.7373L106.124 7.90959C95.4398 15.1533 84.9539 28.0039 74.6335 46.3356L75.5049 46.8262L76.3763 47.3168C86.6322 29.0997 96.9334 16.557 107.247 9.56502L106.686 8.7373ZM75.5049 46.8262L74.6333 46.336L73.6216 48.1348L74.4932 48.625L75.3648 49.1152L76.3765 47.3164L75.5049 46.8262ZM74.4932 48.625L74.3371 49.6127C74.9076 49.7029 75.552 49.7451 76.2637 49.7451V48.7451V47.7451C75.6264 47.7451 75.0905 47.707 74.6492 47.6373L74.4932 48.625ZM76.2637 48.7451V49.7451C81.6161 49.7451 86.557 48.1811 91.0624 45.0699L90.4941 44.2471L89.9259 43.4242C85.7455 46.311 81.1992 47.7451 76.2637 47.7451V48.7451ZM90.4941 44.2471L91.0624 45.0699C93.2264 43.5755 95.0024 41.9152 96.3759 40.0857L95.5762 39.4854L94.7765 38.885C93.5519 40.516 91.9417 42.0322 89.9259 43.4242L90.4941 44.2471ZM95.5762 39.4854H96.5762V28.752H95.5762H94.5762V39.4854H95.5762ZM95.5762 28.752V29.752H104.035V28.752V27.752H95.5762V28.752ZM104.035 28.752L103.208 29.3134L134.195 74.9901L135.022 74.4287L135.85 73.8673L104.863 28.1905L104.035 28.752ZM135.022 74.4287V75.4287H135.348V74.4287V73.4287H135.022V74.4287ZM135.348 74.4287L136.344 74.3414C136.291 73.7411 136.237 72.9047 136.183 71.8279L135.185 71.8779L134.186 71.928C134.24 73.0152 134.296 73.8798 134.351 74.5161L135.348 74.4287ZM135.185 71.8779L136.183 71.8301C136.129 70.6998 136.076 69.4654 136.022 68.1275L135.022 68.168L134.023 68.2084C134.078 69.5496 134.131 70.7891 134.186 71.9257L135.185 71.8779ZM135.022 68.168L136.022 68.129C135.967 66.7383 135.913 65.3222 135.859 63.8804L134.859 63.918L133.86 63.9555C133.914 65.3986 133.969 66.8158 134.023 68.2069L135.022 68.168ZM134.859 63.918L135.859 63.8804C135.805 62.4484 135.778 61.1208 135.778 59.8984H134.778H133.778C133.778 61.1493 133.805 62.5022 133.86 63.9555L134.859 63.918ZM134.778 59.8984H135.778V28.752H134.778H133.778V59.8984H134.778ZM134.778 28.752V29.752H141.609V28.752V27.752H134.778V28.752ZM141.609 28.752H140.609V78.0898H141.609H142.609V28.752H141.609ZM141.609 78.0898L141.695 79.0862C143.824 78.9029 145.932 78.8105 148.019 78.8105V77.8105V76.8105C145.873 76.8105 143.708 76.9055 141.524 77.0935L141.609 78.0898ZM148.019 77.8105V78.8105C149.102 78.8105 150.122 78.8317 151.08 78.8712L151.121 77.8721L151.162 76.8729C150.176 76.8322 149.128 76.8105 148.019 76.8105V77.8105ZM151.121 77.8721H152.121V28.752H151.121H150.121V77.8721H151.121ZM151.121 28.752V29.752H159.579V28.752V27.752H151.121V28.752ZM159.579 28.752L158.752 29.3134L189.739 74.9901L190.566 74.4287L191.394 73.8673L160.407 28.1905L159.579 28.752ZM190.566 74.4287V75.4287H190.892V74.4287V73.4287H190.566V74.4287ZM190.892 74.4287L191.888 74.3414C191.835 73.7411 191.781 72.9047 191.727 71.8279L190.729 71.8779L189.73 71.928C189.784 73.0152 189.84 73.8798 189.895 74.5161L190.892 74.4287ZM190.729 71.8779L191.727 71.8301C191.673 70.6998 191.62 69.4654 191.566 68.1275L190.566 68.168L189.567 68.2084C189.622 69.5496 189.675 70.7891 189.73 71.9257L190.729 71.8779ZM190.566 68.168L191.566 68.129C191.511 66.7383 191.457 65.3222 191.403 63.8804L190.403 63.918L189.404 63.9555C189.458 65.3986 189.513 66.8158 189.567 68.2069L190.566 68.168ZM190.403 63.918L191.403 63.8804C191.349 62.4484 191.322 61.1208 191.322 59.8984H190.322H189.322C189.322 61.1493 189.349 62.5022 189.404 63.9555L190.403 63.918ZM190.322 59.8984H191.322V28.752H190.322H189.322V59.8984H190.322ZM190.322 28.752V29.752H197.154V28.752V27.752H190.322V28.752ZM197.154 28.752H196.154V83.9346H197.154H198.154V28.752H197.154ZM197.154 83.9346V82.9346H188.614V83.9346V84.9346H197.154V83.9346ZM188.614 83.9346L189.442 83.3735L158.374 37.5424L157.546 38.1035L156.718 38.6646L187.787 84.4957L188.614 83.9346ZM157.546 38.1035V37.1035H157.221V38.1035V39.1035H157.546V38.1035ZM157.221 38.1035L156.222 38.1619C156.276 39.0848 156.33 40.1119 156.384 41.2431L157.383 41.1953L158.382 41.1475C158.327 40.0116 158.273 38.9771 158.219 38.0452L157.221 38.1035ZM157.383 41.1953L156.387 41.2905C156.494 42.4031 156.574 43.6214 156.628 44.9457L157.627 44.9053L158.626 44.8648C158.571 43.5099 158.489 42.2546 158.378 41.1001L157.383 41.1953ZM157.627 44.9053L156.628 44.9473C156.682 46.2344 156.737 47.5729 156.791 48.9628L157.79 48.9238L158.789 48.8849C158.735 47.4927 158.68 46.1521 158.626 44.8632L157.627 44.9053ZM157.79 48.9238L156.791 48.9628C156.845 50.3408 156.871 51.7193 156.871 53.0977H157.871H158.871C158.871 51.6936 158.844 50.2892 158.789 48.8849L157.79 48.9238ZM157.871 53.0977H156.871V78.6914H157.871H158.871V53.0977H157.871ZM157.871 78.6914L157.632 79.6623C159.122 80.03 160.129 80.4939 160.745 80.9968C161.326 81.4714 161.546 81.9629 161.546 82.5089L162.546 82.5088L163.546 82.5087C163.546 81.278 162.987 80.2453 162.01 79.4476C161.067 78.6782 159.736 78.1216 158.111 77.7205L157.871 78.6914ZM162.546 82.5088H161.546C161.546 83.0297 161.244 83.676 160.181 84.4219C159.119 85.1671 157.449 85.8949 155.104 86.5747L155.382 87.5352L155.66 88.4956C158.091 87.7914 160.004 86.9894 161.329 86.0591C162.654 85.1294 163.546 83.9546 163.546 82.5088H162.546ZM155.382 87.5352L155.11 86.5727C150.449 87.8878 144.708 88.5566 137.868 88.5566V89.5566V90.5566C144.826 90.5566 150.762 89.8777 155.653 88.4976L155.382 87.5352ZM137.868 89.5566V88.5566C130.993 88.5566 122.424 87.7802 112.147 86.2184L111.997 87.207L111.847 88.1957C122.179 89.7659 130.856 90.5566 137.868 90.5566V89.5566ZM111.997 87.207L111.603 86.2879C106.034 88.6743 100.951 92.2122 96.3572 96.8859L97.0703 97.5869L97.7835 98.2879C102.211 93.7836 107.081 90.4016 112.391 88.1262L111.997 87.207ZM97.0703 97.5869L96.36 96.8831C95.8308 97.4171 95.2996 97.9765 94.7646 98.5588L95.501 99.2354L96.2373 99.9119C96.758 99.3453 97.2718 98.8044 97.7807 98.2908L97.0703 97.5869ZM95.501 99.2354L95.7608 100.201C95.7775 100.197 95.8275 100.187 95.9221 100.187L95.9219 99.1865L95.9217 98.1865C95.698 98.1866 95.4666 98.209 95.2411 98.2697L95.501 99.2354ZM95.9219 99.1865V100.187H116.763V99.1865V98.1865H95.9219V99.1865ZM116.763 99.1865V100.187C123.476 100.187 128.724 101.376 132.262 103.619C135.74 105.824 137.625 109.078 137.625 113.469H138.625H139.625C139.625 108.385 137.384 104.498 133.333 101.93C129.343 99.4005 123.66 98.1865 116.763 98.1865V99.1865ZM138.625 113.469L137.625 113.469C137.625 117.071 136.349 119.899 134.055 122.017C131.736 124.158 128.306 125.633 123.919 126.345L124.079 127.332L124.239 128.319C128.869 127.568 132.712 125.978 135.411 123.486C138.137 120.971 139.625 117.599 139.625 113.469L138.625 113.469ZM124.079 127.332L123.291 127.948L138.687 147.663L139.476 147.048L140.264 146.432L124.867 126.717L124.079 127.332ZM139.476 147.048L138.722 147.705C138.744 147.731 138.687 147.678 138.667 147.541C138.643 147.379 138.688 147.204 138.79 147.072C138.834 147.016 138.877 146.981 138.906 146.962C138.92 146.952 138.932 146.946 138.94 146.942C138.947 146.939 138.951 146.937 138.952 146.937C138.952 146.937 138.949 146.938 138.942 146.94C138.935 146.941 138.925 146.943 138.911 146.945C138.884 146.95 138.845 146.953 138.795 146.953L138.795 147.953L138.795 148.953C139.291 148.953 139.962 148.827 140.373 148.294C140.602 147.997 140.701 147.626 140.645 147.249C140.593 146.897 140.419 146.608 140.229 146.391L139.476 147.048ZM138.795 147.953V146.953H131.564V147.953V148.953H138.795V147.953ZM131.564 147.953V146.953C131.456 146.953 131.384 146.949 131.332 146.943C131.283 146.937 131.269 146.931 131.275 146.933C131.285 146.937 131.303 146.946 131.319 146.96C131.334 146.973 131.33 146.974 131.311 146.945L130.458 147.466L129.605 147.987C129.835 148.365 130.149 148.643 130.557 148.8C130.918 148.939 131.287 148.953 131.564 148.953V147.953ZM130.458 147.466L131.263 146.873L125.564 139.139L124.759 139.732L123.954 140.326L129.653 148.059L130.458 147.466ZM124.759 139.732L125.546 139.116L116.275 127.273L115.487 127.89L114.7 128.506L123.971 140.349L124.759 139.732ZM115.487 127.89V126.89H103.067V127.89V128.89H115.487V127.89ZM103.067 127.89L102.068 127.907L102.408 147.204L103.408 147.187L104.408 147.169L104.067 127.872L103.067 127.89ZM103.408 147.187H102.408C102.408 147.227 102.402 147.206 102.424 147.154C102.435 147.127 102.452 147.096 102.477 147.064C102.501 147.032 102.529 147.005 102.556 146.984C102.61 146.943 102.646 146.937 102.632 146.94C102.616 146.944 102.567 146.953 102.473 146.953L102.473 147.953L102.473 148.953C102.853 148.953 103.353 148.893 103.771 148.573C104.245 148.21 104.408 147.681 104.408 147.187H103.408ZM102.473 147.953V146.953H95.9219V147.953V148.953H102.473V147.953ZM95.9219 147.953L95.9221 146.953C95.8279 146.953 95.7791 146.944 95.7627 146.94C95.7481 146.937 95.7845 146.943 95.8384 146.984C95.8657 147.005 95.8931 147.032 95.9176 147.064C95.9421 147.095 95.9593 147.127 95.9706 147.154C95.9927 147.206 95.9863 147.227 95.9863 147.187H94.9863H93.9863C93.9863 147.681 94.1492 148.21 94.6234 148.573C95.0412 148.893 95.5411 148.953 95.9217 148.953L95.9219 147.953ZM94.9863 147.187L95.9862 147.204L96.412 122.821L95.4121 122.804L94.4123 122.786L93.9865 147.169L94.9863 147.187ZM95.4121 122.804L96.4119 122.785L95.9862 99.9345L94.9863 99.9531L93.9865 99.9718L94.4123 122.822L95.4121 122.804ZM94.9863 99.9531L95.9863 99.9533C95.9863 99.9357 95.9874 99.9295 95.987 99.9327L94.9971 99.791L94.0071 99.6494C93.9923 99.7533 93.9863 99.8552 93.9863 99.953L94.9863 99.9531ZM94.9971 99.791L94.2532 99.1227C90.2883 103.535 86.1013 109.318 81.6922 116.456L82.543 116.981L83.3937 117.507C87.7642 110.432 91.8812 104.755 95.7409 100.459L94.9971 99.791ZM82.543 116.981L81.6922 116.456C76.5148 124.838 72.7498 130.362 70.3774 133.098L71.1328 133.753L71.8883 134.408C74.3806 131.535 78.2228 125.878 83.3937 117.507L82.543 116.981ZM71.1328 133.753L70.3757 133.1C68.0717 135.77 64.8628 138.404 60.7186 140.991L61.248 141.839L61.7775 142.687C66.0361 140.029 69.4175 137.272 71.89 134.406L71.1328 133.753ZM61.248 141.839L60.7271 140.985C49.769 147.673 38.4263 151 26.6855 151V152V153C38.8264 153 50.526 149.554 61.769 142.692L61.248 141.839ZM26.6855 152L26.6856 151C20.4252 151 15.3864 149.907 11.5095 147.79L11.0303 148.668L10.551 149.546C14.8113 151.872 20.2096 153 26.6855 153L26.6855 152ZM11.0303 148.668L11.5136 147.793C7.69673 145.685 5.99329 143.093 5.99316 140.036L4.99316 140.036L3.99316 140.036C3.99333 144.044 6.31508 147.207 10.547 149.543L11.0303 148.668ZM4.99316 140.036H5.99316C5.99316 138.522 6.52554 137.245 7.62194 136.156L6.91699 135.446L6.21205 134.737C4.74337 136.197 3.99316 137.981 3.99316 140.036H4.99316ZM6.91699 135.446L7.62192 136.156C8.72166 135.063 9.99602 134.534 11.4942 134.534L11.4941 133.534L11.4941 132.534C9.45465 132.534 7.67717 133.281 6.21207 134.737L6.91699 135.446ZM11.4941 133.534V134.534C12.8106 134.534 13.6116 134.821 14.0756 135.221C14.5111 135.596 14.8066 136.208 14.8066 137.25H15.8066H16.8066C16.8066 135.815 16.3832 134.569 15.3812 133.706C14.4075 132.867 13.0523 132.534 11.4941 132.534V133.534ZM15.8066 137.25L14.8066 137.25C14.8066 138.127 14.4872 138.869 13.7919 139.528L14.4795 140.254L15.1671 140.98C16.2404 139.963 16.8065 138.704 16.8066 137.25L15.8066 137.25ZM14.4795 140.254L13.7919 139.528C13.1035 140.18 12.2707 140.511 11.2294 140.511L11.2295 141.511L11.2296 142.511C12.7531 142.511 14.0866 142.003 15.1671 140.98L14.4795 140.254ZM11.2295 141.511V140.511C10.2984 140.511 9.78524 140.319 9.51846 140.104C9.29293 139.922 9.11137 139.617 9.11133 138.998L8.11133 138.998L7.11133 138.998C7.1114 140.054 7.44969 141.005 8.26359 141.661C9.03625 142.284 10.0821 142.511 11.2295 142.511V141.511ZM8.11133 138.998H9.11133C9.11133 138.523 9.06732 138.039 8.90518 137.639C8.82046 137.43 8.68178 137.189 8.448 136.997C8.19713 136.79 7.89328 136.687 7.58008 136.687V137.687V138.687C7.44378 138.687 7.29479 138.638 7.17669 138.54C7.07569 138.457 7.04771 138.381 7.05158 138.39C7.05471 138.398 7.07202 138.447 7.08709 138.558C7.1017 138.666 7.11133 138.811 7.11133 138.998H8.11133ZM7.58008 137.687L7.57959 136.687C7.17749 136.687 6.79195 136.812 6.46607 137.07C6.15532 137.316 5.95062 137.641 5.81314 137.968C5.54677 138.601 5.45314 139.431 5.45312 140.363L6.45312 140.363L7.45312 140.363C7.45314 139.511 7.54725 139.003 7.65648 138.744C7.70679 138.624 7.73686 138.615 7.70786 138.638C7.66373 138.673 7.60692 138.687 7.58056 138.687L7.58008 137.687ZM6.45312 140.363H5.45312C5.45312 143.821 7.63549 146.589 11.4733 148.722L11.959 147.848L12.4447 146.974C8.94113 145.027 7.45312 142.806 7.45312 140.363H6.45312ZM11.959 147.848L11.4777 148.724C15.3749 150.864 20.1054 151.907 25.624 151.907L25.624 150.907L25.624 149.907C20.3521 149.907 15.9727 148.91 12.4402 146.971L11.959 147.848ZM25.624 150.907V151.907C37.7536 151.907 48.629 147.387 58.2164 138.417L57.5332 137.687L56.85 136.956C47.5974 145.614 37.1993 149.907 25.624 149.907V150.907ZM57.5332 137.687L58.2144 138.419C62.7069 134.238 68.4564 127.385 75.4531 117.903L74.6484 117.31L73.8438 116.716C66.8655 126.173 61.2045 132.904 56.852 136.954L57.5332 137.687ZM74.6484 117.31L75.4514 117.906C86.7956 102.625 98.576 92.6731 110.767 87.921L110.404 86.9893L110.041 86.0575C97.3782 90.9934 85.3214 101.255 73.8455 116.713L74.6484 117.31ZM110.404 86.9893L110.54 85.9985C108.175 85.6739 104.611 85.0763 99.8382 84.2029L99.6582 85.1865L99.4782 86.1702C104.257 87.0448 107.857 87.649 110.268 87.98L110.404 86.9893ZM99.6582 85.1865L99.8338 84.2021C88.5849 82.1961 79.9131 81.1817 73.8525 81.1816L73.8525 82.1816L73.8525 83.1816C79.7328 83.1817 88.2653 84.1707 99.4827 86.171L99.6582 85.1865ZM73.8525 82.1816V81.1816C73.2039 81.1816 71.317 81.2554 68.2333 81.4005L68.2803 82.3994L68.3273 83.3983C71.4346 83.2521 73.2629 83.1816 73.8525 83.1816V82.1816ZM68.2803 82.3994L67.4413 82.9435C69.4065 85.9738 70.3975 89.4427 70.3975 93.3809H71.3975H72.3975C72.3975 89.088 71.3112 85.2351 69.1193 81.8553L68.2803 82.3994ZM71.3975 93.3809L70.3975 93.3809C70.3974 101.05 66.8744 108.324 59.6299 115.219L60.3193 115.943L61.0087 116.668C68.5355 109.504 72.3974 101.737 72.3975 93.3809L71.3975 93.3809ZM60.3193 115.943L59.6299 115.219C52.3882 122.111 44.7302 125.487 36.6367 125.487L36.6367 126.487L36.6367 127.487C45.3488 127.487 53.4792 123.834 61.0087 116.668L60.3193 115.943ZM36.6367 126.487V125.487C33.3316 125.487 30.725 124.596 28.7296 122.887L28.0791 123.646L27.4286 124.406C29.8557 126.485 32.9543 127.487 36.6367 127.487V126.487ZM28.0791 123.646L28.7442 122.9C26.8001 121.168 25.8282 118.968 25.8281 116.217L24.8281 116.217L23.8281 116.217C23.8282 119.511 25.0242 122.264 27.414 124.393L28.0791 123.646ZM24.8281 116.217H25.8281C25.8281 112.37 27.5942 107.99 31.3306 103.053L30.5332 102.449L29.7358 101.846C25.8654 106.96 23.8281 111.76 23.8281 116.217H24.8281ZM30.5332 102.449L31.3294 103.054C35.0944 98.1005 39.9527 93.7734 45.92 90.0787L45.3936 89.2285L44.8671 88.3783C38.7166 92.1864 33.6672 96.673 29.7371 101.844L30.5332 102.449ZM45.3936 89.2285L45.9209 90.0782C51.9207 86.3546 58.4882 83.7573 65.6294 82.2871L65.4277 81.3076L65.2261 80.3282C57.8616 81.8444 51.0725 84.5271 44.8662 88.3788L45.3936 89.2285ZM65.4277 81.3076L66.1723 80.6401C62.5682 76.62 57.5132 74.5949 51.1469 74.468L51.127 75.4678L51.107 76.4676C57.0477 76.586 61.5271 78.4548 64.6832 81.9752L65.4277 81.3076ZM51.127 75.4678L50.6189 74.6064C42.7489 79.2484 34.7668 81.9009 26.6642 82.5905L26.749 83.5869L26.8338 84.5833C35.2686 83.8654 43.5372 81.1055 51.635 76.3291L51.127 75.4678ZM26.749 83.5869L26.1733 82.7692C23.4722 84.671 20.966 86.8495 18.6593 89.3091L19.3887 89.9932L20.1181 90.6773C22.3328 88.3158 24.7361 86.2271 27.3247 84.4046L26.749 83.5869ZM19.3887 89.9932L18.6434 89.3264C18.3477 89.6569 18.1266 89.8736 17.9734 89.9997C17.937 90.0297 17.9084 90.0512 17.887 90.0662C17.8653 90.0814 17.8554 90.0868 17.8564 90.0863C17.8564 90.0862 17.8772 90.0748 17.916 90.0624C17.9538 90.0503 18.0277 90.0312 18.1279 90.0312V91.0312V92.0312C18.4234 92.0312 18.6636 91.9232 18.8059 91.8465C18.9636 91.7614 19.1115 91.6534 19.2447 91.5437C19.5118 91.3238 19.8105 91.0214 20.1339 90.66L19.3887 89.9932ZM18.1279 91.0312L18.1283 90.0312C18.1302 90.0312 18.2139 90.032 18.3214 90.0983C18.4378 90.17 18.4998 90.2677 18.5244 90.3285L17.5977 90.7041L16.6709 91.0797C16.784 91.3587 16.9786 91.6199 17.2717 91.8007C17.5561 91.976 17.8606 92.0312 18.1276 92.0312L18.1279 91.0312ZM17.5977 90.7041H18.5977C18.5977 90.8495 18.5514 90.9155 18.5788 90.8602C18.5989 90.8196 18.6458 90.7404 18.7382 90.6169C18.9227 90.3704 19.2238 90.0327 19.6626 89.5963C20.5359 88.7279 21.8674 87.5537 23.6728 86.0669L23.0371 85.2949L22.4014 84.523C20.5804 86.0227 19.1921 87.2435 18.2523 88.1782C17.7846 88.6434 17.4058 89.0593 17.137 89.4185C17.0028 89.5978 16.8797 89.7844 16.7865 89.9726C16.7006 90.1461 16.5977 90.4039 16.5977 90.7041H17.5977ZM23.0371 85.2949L23.6709 86.0684C24.3342 85.525 25.0019 85.0036 25.6716 84.501L25.0713 83.7012L24.471 82.9014C23.7807 83.4195 23.0905 83.9584 22.4033 84.5214L23.0371 85.2949ZM25.0713 83.7012L25.0191 82.7025C24.1379 82.7486 23.2571 82.7744 22.377 82.7744V83.7744V84.7744C23.2961 84.7744 24.212 84.7475 25.1235 84.6998L25.0713 83.7012ZM22.377 83.7744L22.377 82.7744C16.3083 82.7744 11.3803 81.5605 7.53108 79.2029L7.00879 80.0557L6.48649 80.9084C10.7325 83.509 16.0499 84.7744 22.3769 84.7744L22.377 83.7744ZM7.00879 80.0557L7.53508 79.2054C3.75058 76.863 2 73.9727 2 70.5186H1H0C0 74.822 2.25574 78.2899 6.4825 80.906L7.00879 80.0557ZM1 70.5186L2 70.5186C2.00001 68.6507 2.54284 67.1277 3.59616 65.8876L2.83398 65.2402L2.07181 64.5929C0.679706 66.2318 1.00732e-05 68.2278 0 70.5185L1 70.5186ZM2.83398 65.2402L3.59406 65.8901C4.6903 64.6078 5.94059 64.0206 7.38773 64.0205L7.3877 63.0205L7.38766 62.0205C5.29318 62.0206 3.50743 62.9137 2.0739 64.5904L2.83398 65.2402ZM7.3877 63.0205V64.0205C8.6058 64.0205 9.33545 64.3223 9.76678 64.7503C10.1967 65.1768 10.499 65.8962 10.499 67.0996L11.499 67.0996L12.499 67.0996C12.499 65.5838 12.116 64.2637 11.1754 63.3305C10.2363 62.3987 8.91028 62.0205 7.3877 62.0205V63.0205ZM11.499 67.0996H10.499C10.499 68.1556 10.1394 69.0191 9.40335 69.7489L10.1074 70.459L10.8115 71.1691C11.9307 70.0595 12.499 68.6828 12.499 67.0996H11.499ZM10.1074 70.459L9.38707 69.7654C8.69541 70.4837 7.86122 70.8379 6.81836 70.8379V71.8379V72.8379C8.38946 72.8379 9.74861 72.2734 10.8278 71.1526L10.1074 70.459ZM6.81836 71.8379L6.81841 70.8379C5.95925 70.8378 5.50135 70.6407 5.26118 70.4226C5.03934 70.2212 4.8457 69.8579 4.8457 69.1387H3.8457H2.8457C2.8457 70.2188 3.14764 71.205 3.91675 71.9034C4.66754 72.585 5.69596 72.8378 6.81831 72.8379L6.81836 71.8379ZM3.8457 69.1387H4.8457V67.9395H3.8457H2.8457V69.1387H3.8457ZM3.8457 67.9395H4.8457C4.8457 67.6623 4.80043 67.3085 4.59651 66.9857C4.3659 66.6206 4.00737 66.413 3.6233 66.3522L3.4668 67.3398L3.3103 68.3275C3.25797 68.3192 3.18076 68.2973 3.09789 68.2448C3.01316 68.1912 2.94889 68.1223 2.90563 68.0538C2.82795 67.9309 2.8457 67.8568 2.8457 67.9395H3.8457ZM3.4668 67.3398V66.3398C3.02907 66.3398 2.626 66.4956 2.30166 66.786C1.99827 67.0576 1.80475 67.409 1.67572 67.7555C1.42243 68.4358 1.32814 69.345 1.32812 70.3984L2.32812 70.3984L3.32812 70.3985C3.32814 69.4126 3.42371 68.7926 3.55002 68.4534C3.61079 68.2901 3.6545 68.2592 3.63575 68.276C3.59606 68.3115 3.52505 68.3398 3.4668 68.3398V67.3398ZM2.32812 70.3984H1.32812C1.32812 74.253 3.34144 77.4334 7.08622 79.928L7.64062 79.0957L8.19503 78.2635C4.85659 76.0396 3.32812 73.4215 3.32812 70.3984H2.32812ZM7.64062 79.0957L7.0928 79.9323C10.8332 82.3816 15.4419 83.5752 20.8594 83.5752L20.8594 82.5752L20.8594 81.5752C15.7358 81.5752 11.5317 80.4484 8.18845 78.2591L7.64062 79.0957ZM20.8594 82.5752V83.5752C23.1495 83.5752 25.4012 83.3828 27.6138 83L27.4434 82.0146L27.2729 81.0293C25.1745 81.3923 23.0369 81.5752 20.8594 81.5752V82.5752ZM27.4434 82.0146L28.0011 82.8446C33.162 79.3763 38.4358 77.1629 43.8268 76.1801L43.6475 75.1963L43.4681 74.2125C37.7744 75.2506 32.2463 77.582 26.8856 81.1847L27.4434 82.0146ZM43.6475 75.1963L44.218 76.0175C48.2958 73.1844 52.1905 69.5638 55.9038 65.1656L55.1396 64.5205L54.3755 63.8754C50.7571 68.1613 46.9892 71.6568 43.0769 74.375L43.6475 75.1963ZM55.1396 64.5205L55.9049 65.1642C58.9322 61.5653 62.9819 56.0328 68.0465 48.5879L67.2197 48.0254L66.3929 47.4629C61.3382 54.8932 57.3344 60.3579 54.3744 63.8768L55.1396 64.5205ZM67.2197 48.0254L67.6013 47.1011C64.135 45.6701 61.6123 43.8308 59.9558 41.622C58.3072 39.4239 57.4678 36.7959 57.4678 33.6895H56.4678H55.4678C55.4678 37.181 56.4203 40.2414 58.3558 42.822C60.2832 45.3919 63.1365 47.4216 66.8381 48.9497L67.2197 48.0254ZM56.4678 33.6895L57.4678 33.6895C57.4679 29.9049 58.5844 26.6441 60.8068 23.8619C63.0415 21.0644 66.4383 18.6971 71.0767 16.8006L70.6982 15.875L70.3198 14.9494C65.4714 16.9317 61.753 19.4729 59.2442 22.6136C56.7231 25.7697 55.4679 29.4767 55.4678 33.6894L56.4678 33.6895ZM70.6982 15.875L71.0823 16.7983C75.7749 14.8465 83.2465 13.0415 93.5601 11.4046L93.4033 10.417L93.2466 9.42935C82.9003 11.0714 75.235 12.9049 70.3142 14.9517L70.6982 15.875ZM93.4033 10.417L93.5566 11.4052L100.514 10.3261L100.36 9.33789L100.207 8.34971L93.25 9.42881L93.4033 10.417ZM100.36 9.33789L100.558 10.3181L106.504 9.11792L106.306 8.1377L106.108 7.15747L100.162 8.35766L100.36 9.33789ZM106.306 8.1377L106.881 8.95597C109.083 7.40869 111.968 5.86067 115.555 4.31806L115.16 3.39941L114.765 2.48077C111.1 4.0571 108.082 5.66779 105.731 7.31942L106.306 8.1377ZM115.16 3.39941L115.56 4.31606C117.376 3.52407 118.891 2.93893 120.11 2.55342C121.349 2.16172 122.211 2.00002 122.75 2L122.75 1L122.75 0C121.897 3.18885e-05 120.798 0.23831 119.507 0.646443C118.197 1.06076 116.612 1.6753 114.76 2.48276L115.16 3.39941ZM220.861 98.1357V99.1357C226.636 99.1357 231.897 100.219 236.038 102.759C240.149 105.28 243.234 109.282 244.616 115.297L245.591 115.073L246.565 114.849C245.069 108.337 241.674 103.87 237.083 101.054C232.523 98.2569 226.858 97.1357 220.861 97.1357V98.1357ZM245.591 115.073L244.605 115.243C244.604 115.235 244.599 115.195 244.616 115.135C244.634 115.073 244.668 115.015 244.713 114.971C244.802 114.882 244.853 114.913 244.743 114.913V115.913V116.913C245.226 116.913 245.743 116.769 246.129 116.383C246.534 115.977 246.667 115.427 246.576 114.903L245.591 115.073ZM244.743 115.913V114.913H238.646V115.913V116.913H244.743V115.913ZM238.646 115.913V114.913C238.587 114.913 238.557 114.907 238.547 114.904C238.54 114.902 238.55 114.904 238.569 114.917C238.577 114.922 238.585 114.929 238.591 114.935C238.597 114.941 238.601 114.945 238.601 114.946C238.603 114.948 238.591 114.933 238.575 114.886L237.63 115.213L236.685 115.54C236.824 115.943 237.066 116.317 237.454 116.577C237.834 116.832 238.258 116.913 238.646 116.913V115.913ZM237.63 115.213L238.607 115.002C237.667 110.637 235.452 107.43 232.286 105.333C229.142 103.251 225.142 102.315 220.692 102.314L220.692 103.314L220.692 104.314C224.881 104.314 228.46 105.198 231.181 107C233.88 108.788 235.814 111.53 236.652 115.423L237.63 115.213ZM220.692 103.314V102.314C214.292 102.314 209.179 104.35 205.671 108.09C202.173 111.821 200.383 117.13 200.383 123.472L201.383 123.472L202.383 123.472C202.383 117.495 204.066 112.726 207.13 109.458C210.187 106.199 214.728 104.314 220.692 104.314V103.314ZM201.383 123.472H200.383C200.383 130.366 202.253 135.724 205.813 139.359C209.376 142.997 214.492 144.769 220.692 144.769V143.769V142.769C214.867 142.769 210.328 141.111 207.242 137.96C204.154 134.806 202.383 130.016 202.383 123.472H201.383ZM220.692 143.769L220.692 144.769C225.707 144.768 229.957 143.616 233.141 141.276C236.344 138.922 238.373 135.435 239.043 130.969L238.054 130.82L237.065 130.672C236.464 134.674 234.682 137.661 231.957 139.664C229.212 141.681 225.417 142.769 220.692 142.769L220.692 143.769ZM238.054 130.82L239.034 131.019C239.034 131.02 239.031 131.033 239.019 131.052C239.007 131.072 238.99 131.09 238.971 131.105C238.952 131.12 238.938 131.125 238.936 131.126C238.935 131.126 238.949 131.121 238.985 131.121L238.984 130.121L238.984 129.121C238.545 129.121 238.11 129.244 237.75 129.522C237.387 129.802 237.16 130.194 237.074 130.622L238.054 130.82ZM238.984 130.121V131.121H245.167V130.121V129.121H238.984V130.121ZM245.167 130.121V131.121C245.277 131.121 245.211 131.152 245.116 131.051C245.071 131.003 245.044 130.948 245.033 130.905C245.022 130.865 245.029 130.853 245.025 130.881L246.014 131.03L247.002 131.18C247.08 130.669 246.977 130.11 246.572 129.68C246.181 129.265 245.649 129.121 245.167 129.121V130.121ZM246.014 131.03L245.032 130.839C243.892 136.695 241.083 140.936 237.001 143.731C232.897 146.541 227.419 147.948 220.861 147.948V148.948V149.948C227.685 149.948 233.597 148.486 238.131 145.381C242.687 142.262 245.764 137.543 246.995 131.221L246.014 131.03ZM220.861 148.948V147.948C212.359 147.948 205.703 145.602 201.182 141.433C196.671 137.273 194.168 131.191 194.168 123.472H193.168H192.168C192.168 131.64 194.831 138.296 199.826 142.903C204.811 147.5 212.002 149.948 220.861 149.948V148.948ZM193.168 123.472L194.168 123.472C194.168 115.976 196.726 109.924 201.276 105.739C205.836 101.546 212.497 99.1357 220.861 99.1357V98.1357V97.1357C212.119 97.1357 204.933 99.6594 199.923 104.267C194.903 108.884 192.168 115.5 192.168 123.472L193.168 123.472ZM172.525 99.1865V100.187C172.647 100.187 172.666 100.211 172.641 100.196C172.629 100.188 172.619 100.179 172.613 100.171C172.607 100.165 172.612 100.169 172.622 100.192L173.548 99.8145L174.474 99.4368C174.319 99.0578 174.063 98.7221 173.688 98.4918C173.322 98.2669 172.916 98.1865 172.525 98.1865V99.1865ZM173.548 99.8145L172.631 100.213L193.174 147.447L194.091 147.048L195.008 146.649L174.465 99.4156L173.548 99.8145ZM194.091 147.048L193.205 147.512C193.199 147.501 193.17 147.438 193.176 147.333C193.183 147.222 193.228 147.118 193.292 147.041C193.409 146.901 193.488 146.953 193.323 146.953V147.953V148.953C193.84 148.953 194.431 148.796 194.825 148.326C195.269 147.796 195.258 147.12 194.977 146.584L194.091 147.048ZM193.323 147.953V146.953H186.76V147.953V148.953H193.323V147.953ZM186.76 147.953L186.76 146.953C186.638 146.953 186.618 146.928 186.643 146.944C186.655 146.951 186.666 146.961 186.672 146.968C186.678 146.975 186.673 146.972 186.663 146.949L185.737 147.326L184.811 147.704C184.966 148.083 185.223 148.419 185.598 148.649C185.964 148.873 186.37 148.953 186.76 148.953L186.76 147.953ZM185.737 147.326L186.66 146.941L180.778 132.868L179.855 133.254L178.933 133.64L184.815 147.712L185.737 147.326ZM179.855 133.254V132.254H155.563V133.254V134.254H179.855V133.254ZM155.563 133.254L154.639 132.873L148.843 146.945L149.768 147.326L150.692 147.707L156.488 133.635L155.563 133.254ZM149.768 147.326L148.842 146.949C148.832 146.971 148.827 146.975 148.833 146.968C148.839 146.96 148.85 146.951 148.861 146.944C148.886 146.928 148.866 146.953 148.744 146.953V147.953V148.953C149.134 148.953 149.54 148.873 149.906 148.649C150.281 148.419 150.538 148.084 150.694 147.704L149.768 147.326ZM148.744 147.953V146.953H142.437V147.953V148.953H148.744V147.953ZM142.437 147.953L142.437 146.953C142.267 146.953 142.416 146.902 142.56 147.105C142.632 147.207 142.659 147.319 142.658 147.407C142.657 147.488 142.634 147.524 142.641 147.512L141.755 147.048L140.869 146.584C140.628 147.044 140.527 147.695 140.928 148.261C141.306 148.795 141.924 148.953 142.436 148.953L142.437 147.953ZM141.755 147.048L142.671 147.449L163.384 100.216L162.468 99.8145L161.552 99.4128L140.839 146.646L141.755 147.048ZM162.468 99.8145L163.394 100.192C163.403 100.169 163.408 100.165 163.403 100.171C163.397 100.179 163.387 100.188 163.375 100.196C163.35 100.211 163.369 100.187 163.49 100.187L163.49 99.1865L163.49 98.1865C163.1 98.1865 162.693 98.2669 162.327 98.4918C161.953 98.7221 161.696 99.0578 161.542 99.4368L162.468 99.8145ZM163.49 99.1865V100.187H172.525V99.1865V98.1865H163.49V99.1865ZM288.321 99.1865L288.321 100.187C288.48 100.187 288.461 100.225 288.383 100.162C288.341 100.128 288.304 100.08 288.282 100.028C288.26 99.9789 288.261 99.9485 288.261 99.9533L289.261 99.9531L290.261 99.9529C290.261 99.4567 290.075 98.9612 289.647 98.6124C289.25 98.2875 288.76 98.1866 288.322 98.1865L288.321 99.1865ZM289.261 99.9531H288.261V103.437H289.261H290.261V99.9531H289.261ZM289.261 103.437H288.261C288.261 103.441 288.26 103.411 288.282 103.362C288.304 103.31 288.341 103.262 288.383 103.228C288.461 103.164 288.48 103.203 288.321 103.203L288.321 104.203L288.322 105.203C288.76 105.203 289.249 105.102 289.648 104.777C290.075 104.428 290.261 103.933 290.261 103.437H289.261ZM288.321 104.203V103.203H259.868V104.203V105.203H288.321V104.203ZM259.868 104.203L258.869 104.175L258.441 119.432L259.44 119.46L260.44 119.488L260.868 104.231L259.868 104.203ZM259.44 119.46V120.46H286.271V119.46V118.46H259.44V119.46ZM286.271 119.46L286.27 120.46C286.43 120.46 286.41 120.499 286.332 120.435C286.29 120.401 286.254 120.353 286.231 120.301C286.209 120.252 286.21 120.222 286.21 120.227H287.21H288.21C288.21 119.73 288.024 119.235 287.597 118.886C287.199 118.561 286.709 118.46 286.271 118.46L286.271 119.46ZM287.21 120.227H286.21V123.64H287.21H288.21V120.227H287.21ZM287.21 123.64H286.21C286.21 123.645 286.209 123.614 286.231 123.565C286.254 123.513 286.29 123.465 286.332 123.431C286.41 123.368 286.43 123.406 286.27 123.406L286.271 124.406L286.271 125.406C286.709 125.406 287.199 125.305 287.597 124.98C288.024 124.632 288.21 124.136 288.21 123.64H287.21ZM286.271 124.406V123.406H259.44V124.406V125.406H286.271V124.406ZM259.44 124.406L258.441 124.429L258.868 142.961L259.868 142.938L260.868 142.914L260.44 124.383L259.44 124.406ZM259.868 142.938V143.938H289.005V142.938V141.938H259.868V142.938ZM289.005 142.938L289.005 143.938C289.079 143.938 289.116 143.946 289.125 143.949C289.133 143.951 289.106 143.945 289.067 143.913C289.025 143.879 288.988 143.831 288.965 143.779C288.944 143.729 288.944 143.699 288.944 143.704L289.944 143.703L290.944 143.703C290.944 143.206 290.758 142.711 290.33 142.362C289.932 142.038 289.443 141.938 289.005 141.938L289.005 142.938ZM289.944 143.703H288.944V147.187H289.944H290.944V143.703H289.944ZM289.944 147.187H288.944C288.944 147.191 288.944 147.161 288.965 147.112C288.988 147.06 289.025 147.012 289.066 146.978C289.144 146.914 289.164 146.953 289.005 146.953L289.005 147.953L289.005 148.953C289.444 148.953 289.933 148.852 290.331 148.527C290.759 148.178 290.944 147.683 290.944 147.187H289.944ZM289.005 147.953V146.953H252.349V147.953V148.953H289.005V147.953ZM252.349 147.953L252.349 146.953C252.253 146.953 252.204 146.944 252.187 146.94C252.171 146.936 252.207 146.942 252.261 146.983C252.288 147.004 252.315 147.031 252.34 147.062C252.364 147.094 252.382 147.126 252.393 147.153C252.416 147.206 252.409 147.226 252.409 147.187H251.409H250.409C250.409 147.682 250.573 148.212 251.049 148.574C251.467 148.893 251.967 148.953 252.349 148.953L252.349 147.953ZM251.409 147.187L252.409 147.207L252.922 122.755L251.922 122.734L250.922 122.713L250.409 147.166L251.409 147.187ZM251.922 122.734L252.922 122.712L252.409 99.9306L251.409 99.9531L250.409 99.9756L250.922 122.757L251.922 122.734ZM251.409 99.9531L252.409 99.9533C252.409 99.9135 252.416 99.9343 252.393 99.9872C252.382 100.014 252.365 100.046 252.34 100.077C252.315 100.109 252.288 100.136 252.261 100.156C252.207 100.197 252.171 100.203 252.187 100.199C252.204 100.195 252.254 100.187 252.349 100.187L252.349 99.1865L252.349 98.1865C251.967 98.1865 251.467 98.2468 251.049 98.5655C250.573 98.9278 250.409 99.4578 250.409 99.953L251.409 99.9531ZM252.349 99.1865V100.187H288.321V99.1865V98.1865H252.349V99.1865ZM157.694 127.959V128.959H177.64V127.959V126.959H157.694V127.959ZM177.64 127.959L178.563 127.575L168.505 103.401L167.582 103.785L166.659 104.169L176.716 128.343L177.64 127.959ZM167.582 103.785L166.656 103.407L156.769 127.58L157.694 127.959L158.62 128.338L168.508 104.164L167.582 103.785ZM66.3564 82.6182L66.2217 81.6273C56.1106 83.0027 46.7188 87.2967 38.0557 94.468L38.6934 95.2383L39.331 96.0086C47.7388 89.0487 56.7894 84.9288 66.4912 83.609L66.3564 82.6182ZM38.6934 95.2383L38.0557 94.468C29.4308 101.608 24.8896 108.819 24.8896 116.107H25.8896H26.8896C26.8896 109.702 30.8849 103 39.331 96.0086L38.6934 95.2383ZM25.8896 116.107L24.8896 116.107C24.8897 119.012 25.9819 121.482 28.1327 123.455L28.8086 122.718L29.4845 121.981C27.7435 120.384 26.8897 118.447 26.8896 116.107L25.8896 116.107ZM28.8086 122.718L28.141 123.462C30.329 125.424 33.0048 126.394 36.1054 126.395L36.1055 125.395L36.1055 124.395C33.4572 124.394 31.2683 123.58 29.4762 121.973L28.8086 122.718ZM36.1055 125.395V126.395C43.9488 126.395 51.5132 122.413 58.79 114.718L58.0635 114.031L57.3369 113.344C50.2849 120.801 43.2102 124.395 36.1055 124.395V125.395ZM58.0635 114.031L58.7917 114.717C66.0738 106.98 69.8104 98.9708 69.8105 90.7041L68.8105 90.7041L67.8105 90.7041C67.8105 98.3166 64.382 105.859 57.3353 113.346L58.0635 114.031ZM68.8105 90.7041H69.8105C69.8105 87.5907 68.9331 84.7039 67.1908 82.0669L66.3564 82.6182L65.5221 83.1694C67.0525 85.4856 67.8105 87.9902 67.8105 90.7041H68.8105ZM102.982 123.013V124.013H117.613V123.013V122.013H102.982V123.013ZM117.613 123.013V124.013C121.577 124.013 125.098 123.304 127.659 121.619C130.282 119.892 131.799 117.202 131.799 113.538H130.799H129.799C129.799 116.562 128.594 118.609 126.559 119.948C124.462 121.328 121.39 122.013 117.613 122.013V123.013ZM130.799 113.538L131.799 113.538C131.799 110.131 130.421 107.462 127.847 105.687C125.327 103.95 121.757 103.133 117.443 103.133V104.133V105.133C121.552 105.133 124.659 105.919 126.711 107.334C128.709 108.711 129.799 110.745 129.799 113.538L130.799 113.538ZM117.443 104.133V103.133H103.323V104.133V105.133H117.443V104.133ZM103.323 104.133L102.323 104.115L101.983 122.995L102.982 123.013L103.982 123.031L104.323 104.151L103.323 104.133ZM148.283 78.8486V77.8486C146.015 77.8486 143.763 77.9424 141.526 78.1284L141.609 79.125L141.692 80.1216C143.873 79.9401 146.07 79.8486 148.283 79.8486V78.8486ZM141.609 79.125H140.609V83.9346H141.609H142.609V79.125H141.609ZM141.609 83.9346V82.9346H133.07V83.9346V84.9346H141.609V83.9346ZM133.07 83.9346L133.898 83.3734L131.746 80.1986L130.918 80.7598L130.09 81.3209L132.243 84.4957L133.07 83.9346ZM130.918 80.7598L130.699 79.784C127.226 80.5634 123.795 81.578 120.407 82.8274L120.753 83.7656L121.099 84.7039C124.406 83.4846 127.752 82.4952 131.137 81.7355L130.918 80.7598ZM120.753 83.7656L120.622 84.7571C121.715 84.9011 124.645 85.3366 129.425 86.0657L129.576 85.0771L129.727 84.0886C124.955 83.3608 122.002 82.9215 120.884 82.7742L120.753 83.7656ZM129.576 85.0771L129.419 86.0647C136.532 87.1996 142.866 87.7705 148.416 87.7705V86.7705V85.7705C142.998 85.7705 136.772 85.2127 129.734 84.0896L129.576 85.0771ZM148.416 86.7705V87.7705C152.068 87.7705 155.248 87.3624 157.936 86.5229L157.638 85.5684L157.34 84.6138C154.897 85.3768 151.929 85.7705 148.416 85.7705V86.7705ZM157.638 85.5684L157.948 86.5189C159.276 86.0852 160.361 85.5874 161.132 84.9961C161.908 84.4011 162.485 83.6119 162.485 82.6182H161.485H160.485C160.485 82.7534 160.421 83.0205 159.915 83.4089C159.403 83.801 158.564 84.2138 157.327 84.6178L157.638 85.5684ZM161.485 82.6182L162.485 82.618C162.485 81.6566 161.909 80.9159 161.169 80.3783C160.434 79.8437 159.406 79.4059 158.157 79.033L157.871 79.9912L157.585 80.9494C158.745 81.2958 159.524 81.6552 159.994 81.9962C160.459 82.3341 160.485 82.5473 160.485 82.6183L161.485 82.6182ZM157.871 79.9912H156.871V83.9346H157.871H158.871V79.9912H157.871ZM157.871 83.9346V82.9346H151.121V83.9346V84.9346H157.871V83.9346ZM151.121 83.9346H152.121V78.9229H151.121H150.121V83.9346H151.121ZM151.121 78.9229L151.176 77.9244C150.255 77.8738 149.291 77.8486 148.283 77.8486V78.8486V79.8486C149.257 79.8486 150.185 79.873 151.066 79.9213L151.121 78.9229ZM239.058 34.8574V33.8574H213.94V34.8574V35.8574H239.058V34.8574ZM213.94 34.8574H212.94V52.0928H213.94H214.94V34.8574H213.94ZM213.94 52.0928V53.0928H237.594V52.0928V51.0928H213.94V52.0928ZM237.594 52.0928H236.594V58.1211H237.594H238.594V52.0928H237.594ZM237.594 58.1211V57.1211H213.94V58.1211V59.1211H237.594V58.1211ZM213.94 58.1211H212.94V77.8291H213.94H214.94V58.1211H213.94ZM213.94 77.8291V78.8291H239.058V77.8291V76.8291H213.94V77.8291ZM239.058 77.8291H238.058V83.9346H239.058H240.058V77.8291H239.058ZM239.058 83.9346V82.9346H206.625V83.9346V84.9346H239.058V83.9346ZM206.625 83.9346H207.625V28.752H206.625H205.625V83.9346H206.625ZM206.625 28.752V29.752H239.058V28.752V27.752H206.625V28.752ZM239.058 28.752H238.058V34.8574H239.058H240.058V28.752H239.058ZM264.467 28.752V29.752C269.215 29.752 273.036 30.3369 275.969 31.4629L276.327 30.5293L276.686 29.5957C273.445 28.3515 269.358 27.752 264.467 27.752V28.752ZM276.327 30.5293L275.988 31.4699C278.968 32.5453 281.102 34.1532 282.477 36.2554L283.313 35.708L284.15 35.1607C282.492 32.6256 279.969 30.7804 276.667 29.5887L276.327 30.5293ZM283.313 35.708L282.477 36.2553C283.861 38.373 284.588 41.081 284.588 44.4414H285.588H286.588C286.588 40.7947 285.798 37.6801 284.15 35.1607L283.313 35.708ZM285.588 44.4414L284.588 44.4414C284.588 47.2528 284.043 49.5145 283.017 51.2809L283.882 51.7832L284.747 52.2855C285.995 50.1362 286.588 47.5035 286.588 44.4414L285.588 44.4414ZM283.882 51.7832L283.017 51.2809C281.953 53.1137 280.594 54.5693 278.942 55.6646L279.495 56.498L280.048 57.3315C281.97 56.0567 283.537 54.3686 284.747 52.2855L283.882 51.7832ZM279.495 56.498L278.948 55.6612C277.284 56.7495 275.517 57.6146 273.646 58.2574L273.971 59.2031L274.296 60.1489C276.324 59.452 278.24 58.5136 280.043 57.3349L279.495 56.498ZM273.971 59.2031L273.13 59.7445L289.053 84.4759L289.894 83.9346L290.734 83.3932L274.812 58.6618L273.971 59.2031ZM289.894 83.9346V82.9346H281.363V83.9346V84.9346H289.894V83.9346ZM281.363 83.9346L282.215 83.4098L268.161 60.611L267.31 61.1357L266.458 61.6605L280.512 84.4593L281.363 83.9346ZM267.31 61.1357V60.1357H255.774V61.1357V62.1357H267.31V61.1357ZM255.774 61.1357H254.774V83.9346H255.774H256.774V61.1357H255.774ZM255.774 83.9346V82.9346H248.463V83.9346V84.9346H255.774V83.9346ZM248.463 83.9346H249.463V28.752H248.463H247.463V83.9346H248.463ZM248.463 28.752V29.752H264.467V28.752V27.752H248.463V28.752ZM101.677 38.1035L100.678 38.1619C100.732 39.0848 100.786 40.1119 100.84 41.2431L101.839 41.1953L102.838 41.1475C102.783 40.0116 102.73 38.9771 102.675 38.0452L101.677 38.1035ZM101.839 41.1953L100.843 41.2905C100.95 42.403 101.03 43.6214 101.084 44.9457L102.083 44.9053L103.082 44.8648C103.027 43.51 102.945 42.2546 102.834 41.1001L101.839 41.1953ZM102.083 44.9053L101.084 44.9473C101.138 46.2344 101.193 47.5729 101.247 48.9628L102.246 48.9238L103.245 48.8849C103.191 47.4927 103.136 46.1521 103.082 44.8632L102.083 44.9053ZM102.246 48.9238L101.247 48.9628C101.301 50.3408 101.327 51.7193 101.327 53.0977H102.327H103.327C103.327 51.6936 103.3 50.2892 103.245 48.8849L102.246 48.9238ZM102.327 53.0977H101.327V80.6396H102.327H103.327V53.0977H102.327ZM102.327 80.6396L102.17 81.6272C106.163 82.2631 111.572 83.1574 118.397 84.3141L118.564 83.3281L118.732 82.3422C111.903 81.185 106.487 80.2894 102.484 79.6521L102.327 80.6396ZM118.564 83.3281L118.903 84.269C122.844 82.85 126.722 81.7093 130.536 80.8444L130.314 79.8691L130.093 78.8939C126.195 79.778 122.239 80.9424 118.226 82.3873L118.564 83.3281ZM130.314 79.8691L131.142 79.308L102.83 37.5424L102.002 38.1035L101.174 38.6646L129.487 80.4303L130.314 79.8691ZM102.002 38.1035V37.1035H101.677V38.1035V39.1035H102.002V38.1035ZM41.3848 76.6738L41.1296 75.7069C38.6127 76.3712 36.0885 77.2997 33.5576 78.4907L33.9834 79.3955L34.4092 80.3003C36.8388 79.157 39.249 78.2718 41.64 77.6407L41.3848 76.6738ZM33.9834 79.3955L33.5597 78.4897C32.1733 79.1382 30.8271 79.8452 29.5214 80.6111L30.0273 81.4736L30.5333 82.3362C31.7847 81.6021 33.076 80.9239 34.4071 80.3013L33.9834 79.3955ZM30.0273 81.4736L30.2664 82.4446C34.2915 81.4535 38.1719 79.812 41.9067 77.5268L41.3848 76.6738L40.8628 75.8208C37.2927 78.0053 33.6019 79.5636 29.7882 80.5026L30.0273 81.4736ZM95.3008 41.248L94.5487 40.589C89.7726 46.0396 83.6218 48.7646 76.0107 48.7646V49.7646V50.7646C84.1688 50.7646 90.8782 47.8125 96.0529 41.9071L95.3008 41.248ZM76.0107 49.7646V48.7646C75.2861 48.7646 74.5852 48.7273 73.9078 48.6517L73.7969 49.6455L73.686 50.6393C74.4422 50.7237 75.2174 50.7646 76.0107 50.7646V49.7646ZM73.7969 49.6455L72.9158 49.1726L71.1452 52.4714L72.0264 52.9443L72.9075 53.4172L74.678 50.1184L73.7969 49.6455ZM72.0264 52.9443L71.1501 52.4625C68.0844 58.0383 65.4044 62.1245 63.1121 64.7643L63.8672 65.4199L64.6222 66.0756C67.0523 63.2771 69.8124 59.0467 72.9026 53.4261L72.0264 52.9443ZM63.8672 65.4199L63.1078 64.7693C60.9903 67.2409 58.0724 69.7431 54.3276 72.2686L54.8867 73.0977L55.4459 73.9267C59.2904 71.334 62.3591 68.7172 64.6266 66.0705L63.8672 65.4199ZM54.8867 73.0977L54.3286 72.2679C53.5405 72.7979 52.7477 73.3065 51.9539 73.7983L52.4805 74.6484L53.0071 75.4985C53.819 74.9956 54.633 74.4734 55.4448 73.9274L54.8867 73.0977ZM52.4805 74.6484L52.4215 75.6467C58.5762 76.0103 63.2187 78.0416 66.4765 81.6497L67.2188 80.9795L67.961 80.3093C64.2746 76.2266 59.0912 74.0372 52.5394 73.6502L52.4805 74.6484ZM67.2188 80.9795L67.4505 81.9523C72.709 80.6997 78.7757 80.0674 85.6602 80.0674V79.0674V78.0674C78.6583 78.0674 72.4308 78.71 66.987 80.0067L67.2188 80.9795ZM85.6602 79.0674V80.0674C89.2095 80.0674 92.441 80.2475 95.3565 80.6058L95.4785 79.6133L95.6005 78.6208C92.5898 78.2507 89.2753 78.0674 85.6602 78.0674V79.0674ZM95.4785 79.6133L95.352 80.6052C95.385 80.6095 95.4078 80.6125 95.448 80.6177L95.5762 79.626L95.7043 78.6342C95.6785 78.6309 95.6362 78.6253 95.6051 78.6213L95.4785 79.6133ZM95.5762 79.626H96.5762V40.9316H95.5762H94.5762V79.626H95.5762ZM95.5762 40.9316L94.8212 40.2759C94.7213 40.3909 94.6428 40.4835 94.5546 40.5823L95.3008 41.248L96.047 41.9138C96.1466 41.8022 96.2496 41.6813 96.3312 41.5874L95.5762 40.9316ZM255.774 55.2617V56.2617H264.467V55.2617V54.2617H255.774V55.2617ZM264.467 55.2617V56.2617C267.679 56.2617 270.385 55.868 272.543 55.0356L272.184 54.1025L271.824 53.1695C269.975 53.8825 267.536 54.2617 264.467 54.2617V55.2617ZM272.184 54.1025L272.564 55.0273C274.726 54.1379 276.377 52.8256 277.429 51.0586L276.57 50.5469L275.711 50.0351C274.922 51.3596 273.649 52.4185 271.803 53.1777L272.184 54.1025ZM276.57 50.5469L277.416 51.0803C278.515 49.3372 279.033 47.2073 279.033 44.75H278.033H277.033C277.033 46.9299 276.575 48.665 275.724 50.0134L276.57 50.5469ZM278.033 44.75L279.033 44.75C279.033 42.1948 278.49 40.0375 277.303 38.3734L276.489 38.9541L275.675 39.5348C276.546 40.756 277.033 42.4623 277.033 44.75L278.033 44.75ZM276.489 38.9541L277.318 38.3942C276.191 36.7261 274.467 35.5559 272.25 34.8343L271.94 35.7852L271.631 36.7361C273.53 37.354 274.838 38.2968 275.661 39.514L276.489 38.9541ZM271.94 35.7852L272.25 34.8343C270.057 34.1204 267.316 33.7803 264.061 33.7803V34.7803V35.7803C267.196 35.7803 269.708 36.1103 271.631 36.7361L271.94 35.7852ZM264.061 34.7803V33.7803H255.774V34.7803V35.7803H264.061V34.7803ZM255.774 34.7803H254.774V55.2617H255.774H256.774V34.7803H255.774ZM104.788 9.21777L104.586 8.23837C103.604 8.44081 102.161 8.76221 100.261 9.20259L100.487 10.1768L100.713 11.1509C102.608 10.7116 104.032 10.3946 104.99 10.1972L104.788 9.21777ZM100.487 10.1768L100.239 9.20807C98.6924 9.60448 96.4258 10.1425 93.4348 10.8217L93.6562 11.7969L93.8777 12.772C96.8741 12.0916 99.162 11.5488 100.736 11.1454L100.487 10.1768ZM93.6562 11.7969L93.4363 10.8214C83.062 13.1601 74.719 16.6231 68.4594 21.2495L69.0537 22.0537L69.6481 22.8579C75.6159 18.4472 83.6745 15.0722 93.8762 12.7724L93.6562 11.7969ZM69.0537 22.0537L68.4601 21.249C62.2518 25.8284 58.9463 30.9497 58.9463 36.6289L59.9463 36.6289L60.9463 36.6289C60.9463 31.8315 63.7123 27.2362 69.6473 22.8585L69.0537 22.0537ZM59.9463 36.6289H58.9463C58.9463 39.328 59.6442 41.6913 61.0829 43.6658C62.5162 45.633 64.6324 47.1429 67.3534 48.2338L67.7256 47.3057L68.0977 46.3775C65.6325 45.3891 63.8591 44.0798 62.6993 42.4881C61.5449 40.9036 60.9463 38.9682 60.9463 36.6289H59.9463ZM67.7256 47.3057L68.56 47.8568C79.6752 31.0305 91.9334 18.4492 105.319 10.0653L104.788 9.21777L104.257 8.37029C90.5733 16.9411 78.1231 29.7515 66.8912 46.7545L67.7256 47.3057Z" fill="var(--stroke-0, #FFC800)" mask="url(#path-1-outside-1_0_4)"/>
</g>
</svg>
