<svg preserveAspectRatio="none" width="100%" height="100%" overflow="visible" style="display: block;" viewBox="0 0 124.635 32.8578" fill="none" xmlns="http://www.w3.org/2000/svg">
<g id="Frame 123264">
<path id="Vector" d="M123.492 10.3223C123.624 10.3223 123.738 10.3525 123.819 10.419C123.902 10.4872 123.944 10.587 123.944 10.7042V12.1495C123.944 12.2666 123.902 12.3655 123.819 12.4337C123.738 12.5002 123.624 12.5313 123.492 12.5313H111.806L111.634 18.7345H122.645C122.778 18.7345 122.891 18.7654 122.972 18.8321C123.056 18.9003 123.097 18.9991 123.097 19.1163V20.5323C123.097 20.6495 123.055 20.7483 122.972 20.8165C122.891 20.8832 122.778 20.9141 122.645 20.9141H111.634L111.807 28.4766H123.774C123.907 28.4766 124.02 28.5076 124.101 28.5743C124.184 28.6425 124.226 28.7413 124.226 28.8585V30.3038C124.226 30.4209 124.184 30.5198 124.101 30.588C124.02 30.6546 123.907 30.6856 123.774 30.6856H108.639C108.511 30.6856 108.397 30.6628 108.314 30.5997C108.228 30.5337 108.188 30.433 108.188 30.3038V30.3028L108.399 20.1583L108.188 10.7052V10.7042C108.188 10.5748 108.228 10.4733 108.314 10.4073C108.397 10.3441 108.511 10.3224 108.639 10.3223H123.492Z" fill="var(--fill-0, #DB1C2E)" stroke="var(--stroke-0, #DB1C2E)" stroke-width="0.127794"/>
<path id="Vector_2" d="M94.406 9.90092C96.8515 9.90092 99.1281 10.359 100.944 11.4742C102.648 12.5207 103.943 14.143 104.593 16.4957L104.714 16.9761L104.715 16.98C104.735 17.0993 104.704 17.2085 104.627 17.2867C104.55 17.3635 104.435 17.4028 104.301 17.4029H101.774C101.66 17.4029 101.559 17.379 101.475 17.3228C101.391 17.2663 101.331 17.1814 101.293 17.0699L101.29 17.0621V17.0611C100.924 15.3638 100.074 14.1448 98.8747 13.3492C97.6734 12.5525 96.1165 12.1773 94.3357 12.1773C91.7886 12.1774 89.8067 12.9852 88.4616 14.4214C87.1161 15.8583 86.4001 17.9319 86.4001 20.4751C86.4002 23.2512 87.1514 25.3383 88.5134 26.731C89.8752 28.1235 91.8568 28.8305 94.3357 28.8306C96.3436 28.8306 97.9958 28.3684 99.2097 27.4751C100.422 26.5827 101.205 25.2559 101.466 23.5142V23.5113C101.486 23.4102 101.538 23.3231 101.617 23.2623C101.696 23.2016 101.798 23.1695 101.915 23.1695H104.475C104.61 23.1695 104.727 23.2088 104.803 23.2906C104.881 23.3732 104.909 23.489 104.889 23.6197V23.6226C104.395 26.1634 103.167 28.0369 101.363 29.274C99.5599 30.5101 97.1863 31.107 94.406 31.107C90.7986 31.1069 87.9134 30.1097 85.9294 28.2779C83.9448 26.4454 82.8699 23.7847 82.8699 20.4751C82.8699 17.2517 83.9712 14.6055 85.9685 12.7662C87.9652 10.9274 90.8504 9.90097 94.406 9.90092Z" fill="var(--fill-0, #DB1C2E)" stroke="var(--stroke-0, #DB1C2E)" stroke-width="0.127794"/>
<path id="Vector_3" d="M73.4619 10.3223C73.5762 10.3223 73.6767 10.3455 73.7597 10.3966C73.8428 10.4476 73.9036 10.5235 73.9433 10.6202L82.4404 30.2159C82.503 30.3357 82.4966 30.4589 82.4199 30.5509C82.3463 30.639 82.2187 30.6856 82.0664 30.6856H79.3515C79.2372 30.6856 79.1357 30.6625 79.0527 30.6114C78.9901 30.5729 78.9401 30.5201 78.9023 30.4552L78.8691 30.3858L76.4521 24.586H66.4873L64.1054 30.3858C64.0657 30.4833 64.0044 30.5601 63.9209 30.6114C63.8379 30.6623 63.7372 30.6856 63.623 30.6856H61.0136C60.8617 30.6856 60.7399 30.639 60.6748 30.547C60.6082 30.4527 60.6147 30.3309 60.6748 30.2159L69.2422 10.6202C69.2818 10.5235 69.3428 10.4477 69.4257 10.3966C69.5087 10.3456 69.6094 10.3224 69.7236 10.3223H73.4619ZM67.4209 22.2608H75.4814L71.416 12.461L67.4209 22.2608Z" fill="var(--fill-0, #DB1C2E)" stroke="var(--stroke-0, #DB1C2E)" stroke-width="0.127794"/>
<path id="Vector_4" d="M43.5309 20.2081H49.5173C51.1121 20.2081 52.4616 19.9202 53.4098 19.294C54.3539 18.6704 54.9069 17.708 54.9069 16.3409C54.9069 15.074 54.4053 14.1189 53.4782 13.4776C52.5476 12.834 51.1818 12.502 49.447 12.502H43.6696L43.5309 20.2081ZM43.7057 30.3038C43.7057 30.4329 43.6656 30.5337 43.5798 30.5997C43.4973 30.6629 43.383 30.6856 43.2546 30.6856H40.5456C40.4173 30.6856 40.3038 30.6629 40.2214 30.5997C40.1354 30.5337 40.0954 30.433 40.0954 30.3038V30.3028L40.2712 20.1866L40.0954 10.7052V10.7042C40.0954 10.5749 40.1353 10.4733 40.2214 10.4073C40.3038 10.3442 40.4174 10.3224 40.5456 10.3223H49.1657C51.9861 10.3224 54.2605 10.8211 55.8317 11.8204C57.4067 12.8221 58.2711 14.324 58.2712 16.3116C58.2712 17.9328 57.6929 19.2371 56.6413 20.211C55.611 21.1652 54.1304 21.7971 52.3063 22.1085L58.61 30.2061H58.6081C58.6566 30.2624 58.6881 30.3212 58.697 30.3809C58.706 30.4427 58.6908 30.501 58.654 30.5489C58.5831 30.641 58.4434 30.6856 58.278 30.6856H55.2868C55.18 30.6856 55.082 30.6789 54.9958 30.6456C54.9077 30.6115 54.8369 30.5513 54.778 30.4561V30.4571L52.4225 27.2501L48.6071 22.3604H43.5661L43.7057 30.3028V30.3038Z" fill="var(--fill-0, #DB1C2E)" stroke="var(--stroke-0, #DB1C2E)" stroke-width="0.127794"/>
<path id="Stroke" d="M123.499 10.0415L123.569 10.0434H123.571C123.745 10.0543 123.924 10.1048 124.067 10.2221C124.232 10.3577 124.293 10.5374 124.293 10.7075V12.145L124.29 12.2036V12.2065C124.279 12.3192 124.24 12.433 124.161 12.5327L124.067 12.6274C123.904 12.7613 123.693 12.808 123.497 12.8081H112.287L112.132 18.3901H122.66C122.856 18.3901 123.067 18.4369 123.23 18.5708C123.395 18.7062 123.456 18.8861 123.456 19.0561V20.4624C123.456 20.6325 123.395 20.8122 123.23 20.9477C123.067 21.0816 122.856 21.1283 122.66 21.1284H112.131L112.29 28.059H123.775C123.972 28.0591 124.183 28.1057 124.346 28.2397C124.511 28.3752 124.572 28.555 124.572 28.7251V30.1626L124.569 30.2211V30.2241C124.555 30.3744 124.49 30.5267 124.346 30.645C124.183 30.779 123.971 30.8266 123.775 30.8266H108.816C108.648 30.8266 108.43 30.7982 108.255 30.6645C108.073 30.5243 108.02 30.3318 108.02 30.1596V30.1538L108.229 20.0903L108.02 10.7143V10.7045L108.022 10.645V10.642C108.035 10.4877 108.096 10.3249 108.255 10.2026C108.43 10.0689 108.648 10.0415 108.816 10.0415H123.499ZM108.773 10.4555L108.774 10.4565C108.672 10.4614 108.605 10.4852 108.563 10.5219C108.523 10.5568 108.497 10.6124 108.497 10.7075H108.496L108.706 20.0883V20.0903L108.496 30.1616L108.498 30.1958C108.504 30.2795 108.535 30.3289 108.581 30.3598C108.63 30.3932 108.707 30.4116 108.816 30.4116H123.773L123.816 30.4106L123.88 30.4028C123.94 30.3917 123.985 30.3703 124.018 30.3432C124.061 30.3082 124.087 30.2586 124.093 30.1909L124.095 30.1596V28.7251C124.095 28.6458 124.069 28.5885 124.027 28.5493C123.983 28.509 123.914 28.4811 123.816 28.4751V28.4741L123.773 28.4731H111.822L111.821 28.4116L111.646 20.7797L111.644 20.7143H122.658L122.7 20.7124C122.798 20.7063 122.868 20.6785 122.912 20.6381C122.954 20.5988 122.979 20.5416 122.979 20.4624V19.0561C122.979 18.9718 122.95 18.9123 122.902 18.8725C122.852 18.8313 122.772 18.8052 122.66 18.8051H111.644L111.646 18.7387L111.821 12.4555L111.822 12.394H123.495L123.537 12.392C123.629 12.3864 123.695 12.3617 123.739 12.3256C123.781 12.291 123.807 12.242 123.814 12.1753L123.816 12.142V10.7075C123.816 10.6282 123.791 10.571 123.749 10.5317C123.705 10.4913 123.635 10.4635 123.537 10.4575V10.4565L123.495 10.4555H108.773Z" fill="var(--fill-0, #DB1C2E)" stroke="var(--stroke-0, #DB1C2E)" stroke-width="0.127794"/>
<path id="Stroke_2" d="M94.4951 9.62014C97.0076 9.62017 99.3806 10.084 101.287 11.2383C103.025 12.2908 104.34 13.8955 105.029 16.169L105.159 16.6319V16.6328L105.219 16.876L105.221 16.8828L105.222 16.8897L105.223 16.8946L105.231 17.0323C105.226 17.1706 105.172 17.3091 105.057 17.4239C104.901 17.5776 104.678 17.6446 104.456 17.6446H101.913C101.738 17.6445 101.552 17.6076 101.391 17.501C101.253 17.4095 101.165 17.2874 101.11 17.1592L101.109 17.1573L101.09 17.1065L101.089 17.1035L101.084 17.0899L101.082 17.084V17.083L101.079 17.0694V17.0684C100.723 15.4377 99.9027 14.2956 98.7744 13.5576C97.6422 12.8173 96.1587 12.4561 94.4248 12.4561C91.9601 12.4561 90.0712 13.2235 88.789 14.5733C87.4974 15.9331 86.7871 17.9212 86.7871 20.4053L86.79 20.6573L86.8066 21.1348C86.9295 23.4831 87.6533 25.2402 88.8359 26.4326C90.129 27.7363 92.0161 28.4112 94.4248 28.4112C96.3806 28.4111 97.9538 27.9676 99.0976 27.1377C100.24 26.3087 100.997 25.0627 101.252 23.3867V23.3858L101.253 23.3789L101.254 23.375L101.256 23.3692C101.287 23.2188 101.369 23.0718 101.515 22.961C101.664 22.8476 101.854 22.791 102.055 22.791H104.633C104.856 22.791 105.085 22.8585 105.241 23.0225C105.394 23.1823 105.428 23.3822 105.4 23.5635L105.399 23.5674L105.397 23.5772C104.889 26.152 103.62 28.0807 101.724 29.3623C99.8302 30.6421 97.3545 31.248 94.4951 31.2481C90.7807 31.248 87.7727 30.2333 85.6972 28.3438C83.6256 26.4577 82.5274 23.7403 82.5273 20.4053C82.5273 17.1522 83.6557 14.4505 85.7383 12.5596C87.824 10.666 90.8291 9.62017 94.4951 9.62014ZM94.4941 10.0362C90.9386 10.0363 88.0681 11.0488 86.0869 12.8477C84.1062 14.6461 83.0078 17.2361 83.0078 20.4053L83.0107 20.708C83.0765 23.8732 84.1759 26.4019 86.1396 28.1397C88.1043 29.8782 90.9419 30.832 94.4951 30.8321C97.2338 30.832 99.5652 30.2613 101.343 29.0908C103.119 27.9215 104.346 26.1502 104.875 23.7383L104.923 23.5078C104.937 23.4139 104.917 23.3449 104.878 23.2979C104.838 23.2503 104.771 23.2165 104.674 23.209V23.208L104.631 23.2071H102.019L102.02 23.208C101.857 23.2195 101.756 23.3107 101.728 23.4405C101.461 25.1992 100.659 26.5489 99.4072 27.4571C98.1569 28.3641 96.4647 28.8271 94.4248 28.8272H94.4238L94.1904 28.8252H94.1894C91.7781 28.7823 89.8286 28.0731 88.4707 26.7041C87.1978 25.4207 86.4524 23.5643 86.3262 21.1533L86.3086 20.6631L86.3066 20.4063V20.4053C86.3066 17.8571 87.0341 15.7645 88.417 14.3086C89.8003 12.8523 91.8324 12.0401 94.4248 12.0401L94.5928 12.042H94.5937C96.3614 12.0653 97.9159 12.4546 99.122 13.2637C100.328 14.0727 101.181 15.2982 101.55 16.9834L101.576 17.0449C101.605 17.1017 101.641 17.1427 101.684 17.1709C101.741 17.2088 101.816 17.2285 101.913 17.2285H104.456C104.568 17.2285 104.648 17.1956 104.694 17.1494C104.739 17.1053 104.76 17.042 104.747 16.961C104.16 14.4378 102.852 12.723 101.095 11.6309C99.3358 10.5376 97.1221 10.0652 94.7236 10.0371V10.0362H94.4941Z" fill="var(--fill-0, #DB1C2E)" stroke="var(--stroke-0, #DB1C2E)" stroke-width="0.127794"/>
<path id="Stroke_3" d="M73.2921 10.0415C73.4667 10.0415 73.6455 10.0775 73.8009 10.1723C73.9379 10.256 74.0279 10.3693 74.086 10.4897H74.089L74.1056 10.5288L82.5968 29.9809L82.6358 30.0708H82.63C82.6803 30.2342 82.661 30.4135 82.5323 30.5669C82.3781 30.7504 82.1278 30.8266 81.8888 30.8266H79.1759C79.0013 30.8266 78.8225 30.7896 78.6671 30.6948C78.5134 30.6009 78.4169 30.4712 78.3604 30.3344L76.0274 24.7729H66.5763L64.2784 30.3335C64.222 30.4707 64.1248 30.6007 63.9708 30.6948C63.8154 30.7896 63.6366 30.8266 63.462 30.8266H60.8546C60.6142 30.8265 60.3567 30.7485 60.212 30.5454C60.0763 30.3545 60.1031 30.1398 60.1856 29.9741L68.7442 10.5278C68.8009 10.393 68.8964 10.265 69.0479 10.1723C69.2034 10.0774 69.383 10.0415 69.5577 10.0415H73.2921ZM69.4874 10.4585L69.4884 10.4594C69.4128 10.4678 69.3529 10.4904 69.3058 10.5249C69.2587 10.5594 69.2204 10.6083 69.1934 10.6743V10.6762L60.6319 30.1284L60.63 30.1323C60.5872 30.2135 60.5904 30.2769 60.6153 30.3188C60.6408 30.3614 60.7003 30.4008 60.8097 30.4096H60.8087L60.8575 30.4116H63.462C63.5591 30.4116 63.6345 30.3913 63.6925 30.3559C63.7499 30.3208 63.7945 30.2679 63.8253 30.1928H63.8263L66.2218 24.3969L66.2374 24.3579H76.3643L76.3809 24.3969L78.8116 30.1928H78.8126C78.8396 30.2587 78.8769 30.3077 78.9239 30.3422C78.971 30.3768 79.031 30.3992 79.1065 30.4077H79.1056L79.1788 30.4116H81.8868L81.9347 30.4096C82.0466 30.4008 82.117 30.3604 82.1505 30.3139C82.1817 30.2705 82.19 30.2092 82.1495 30.1323L82.1476 30.1284L73.6563 10.6753L73.6554 10.6743C73.6284 10.6085 73.5911 10.5594 73.544 10.5249C73.4969 10.4903 73.4369 10.4679 73.3614 10.4594V10.4585L73.2892 10.4555H69.5606L69.4874 10.4585ZM71.3077 12.2612L75.4649 22.2163L75.502 22.3051H67.0665L67.1026 22.2172L71.1895 12.2612L71.2481 12.1186L71.3077 12.2612ZM67.7462 21.8901H74.8184L71.252 13.3501L67.7462 21.8901Z" fill="var(--fill-0, #DB1C2E)" stroke="var(--stroke-0, #DB1C2E)" stroke-width="0.127794"/>
<path id="Stroke_4" d="M40.1782 10.4555L40.1791 10.4565C40.0755 10.4614 40.0064 10.485 39.9633 10.5219C39.9227 10.5569 39.896 10.6128 39.8959 10.7075L40.0727 20.1167V20.1196L39.8959 30.1606L39.895 30.1596L39.8969 30.1958C39.9038 30.2792 39.9351 30.3287 39.9819 30.3598C40.0324 30.3932 40.1103 30.4115 40.2211 30.4116H42.9516C43.0627 30.4116 43.1412 30.3933 43.1918 30.3598C43.2387 30.3287 43.2699 30.2792 43.2768 30.1958L43.2778 30.1616L43.1362 22.2133L43.1352 22.1489H48.4086L48.4272 22.1733L52.2924 27.0503L52.2944 27.0522L54.6694 30.2368L54.6733 30.2407C54.7142 30.3069 54.7585 30.3455 54.809 30.3696C54.861 30.3943 54.9244 30.4059 55.0063 30.4096H55.0053L55.0805 30.4116H58.0912L58.1469 30.4096C58.2782 30.4003 58.3511 30.3581 58.3774 30.3169C58.3983 30.2838 58.4023 30.2275 58.3295 30.145L58.3266 30.142V30.1411L51.9086 22.0229L51.8412 21.937L51.9487 21.9204C53.7912 21.625 55.2769 21.0117 56.309 20.0932C57.3391 19.1764 57.9223 17.9516 57.9575 16.4213L57.9584 16.2739L57.9496 15.9233C57.8539 14.1976 57.0431 12.8793 55.6323 11.9692C54.1239 10.9961 51.9252 10.4879 49.1733 10.4575L48.9086 10.4555H40.1782ZM49.1928 12.3647C50.9543 12.3647 52.3607 12.6958 53.3286 13.3549C54.3 14.0166 54.8236 15.0056 54.8237 16.3022C54.8236 17.6999 54.2466 18.6959 53.2573 19.3393C52.2718 19.9801 50.8833 20.268 49.2641 20.268H43.1L43.101 20.2026L43.2426 12.4272L43.2436 12.3647H49.1928ZM43.5893 19.853H49.2641C50.8269 19.853 52.0957 19.5746 52.9653 19.0092C53.8175 18.4551 54.3422 17.5895 54.3422 16.3022C54.3422 15.1115 53.8672 14.2513 53.0287 13.6801C52.1768 13.0999 50.8927 12.7797 49.1928 12.7797H43.7192L43.5893 19.853ZM43.7602 30.1626L43.7582 30.2221V30.2251C43.7453 30.3796 43.6827 30.5422 43.5209 30.6645C43.3441 30.798 43.1227 30.8266 42.9516 30.8266H40.2211C40.0501 30.8266 39.8294 30.7978 39.6528 30.6645C39.4675 30.5245 39.4135 30.3321 39.4135 30.1596V30.1547L39.5903 20.1235L39.4135 10.7133V10.7045L39.4155 10.645V10.642C39.4284 10.4874 39.4911 10.3248 39.6528 10.2026C39.8294 10.0693 40.0501 10.0415 40.2211 10.0415H48.9096C51.7957 10.0415 54.1758 10.5436 55.8442 11.5883C57.5307 12.6445 58.4409 14.2252 58.4409 16.2739L58.4399 16.4282V16.4292C58.4032 18.0268 57.7994 19.3395 56.7084 20.3344C55.7055 21.249 54.3152 21.8709 52.644 22.2153L58.7241 29.9067L58.726 29.9086L58.7787 29.9751L58.7758 29.976C58.8222 30.0462 58.8566 30.1253 58.8686 30.2094C58.8849 30.3245 58.8589 30.4456 58.7719 30.5571C58.6098 30.7646 58.3237 30.8266 58.0932 30.8266H55.0795C54.9605 30.8266 54.7959 30.8204 54.6352 30.7592C54.465 30.6944 54.3442 30.5865 54.2582 30.4545V30.4536L51.8989 27.2905L51.8881 27.2778L48.1518 22.5629H43.6254L43.7602 30.1547V30.1626Z" fill="var(--fill-0, #DB1C2E)" stroke="var(--stroke-0, #DB1C2E)" stroke-width="0.127794"/>
<path id="T" d="M19.2428 0.345197C22.2941 0.345197 24.6276 1.22177 26.234 2.98289C28.4455 2.45945 30.9823 2.19874 33.8434 2.19871C35.3275 2.19871 36.6848 2.27416 37.9137 2.42527L39.2428 2.61473C40.9224 2.86889 43.6587 3.31759 47.4508 3.96043C51.6775 2.43964 55.7415 1.67921 59.6422 1.67918C61.6473 1.67918 63.158 1.84126 64.1695 2.16844C65.1784 2.49483 65.7163 2.99541 65.7164 3.68699C65.7164 4.12354 65.4512 4.51801 64.9488 4.87059C64.5092 5.17911 63.8809 5.46195 63.067 5.7202L62.7066 5.8286C60.7232 6.38842 58.3011 6.66844 55.443 6.66844C52.5704 6.66841 49.0058 6.34323 44.7496 5.69676C42.6533 6.59768 40.7243 7.90677 38.9615 9.62352L38.61 9.97313C36.7484 11.8526 34.7474 14.5239 32.608 17.9888C30.4676 21.4553 28.8916 23.7739 27.8815 24.9389L27.8805 24.938C26.8871 26.0897 25.5196 27.2099 23.7779 28.2973H23.777C19.1754 31.1067 14.3978 32.5122 9.44493 32.5122C6.96819 32.5122 4.90566 32.1074 3.26036 31.2934L2.93712 31.1255C1.25883 30.1986 0.406843 28.9891 0.406843 27.4966C0.406922 26.7408 0.67888 26.0916 1.2213 25.5522C1.76352 25.0131 2.4107 24.7427 3.15977 24.7427C3.76212 24.7427 4.22605 24.8718 4.53966 25.1421C4.85499 25.4139 5.00734 25.8184 5.00743 26.3432C5.00743 26.8439 4.81691 27.2752 4.43907 27.6333C4.06064 27.9918 3.59631 28.1713 3.0504 28.1714C2.61351 28.1714 2.27374 28.0833 2.04259 27.897C1.80887 27.7084 1.69591 27.4275 1.69591 27.0669C1.69588 26.8886 1.67798 26.7629 1.6461 26.6841C1.63044 26.6454 1.61298 26.6217 1.5963 26.6079C1.58065 26.595 1.56287 26.5884 1.54063 26.5884C1.47667 26.5884 1.42301 26.6073 1.37657 26.644C1.32911 26.6816 1.28571 26.7409 1.24962 26.8266C1.17696 26.9993 1.13831 27.2658 1.13829 27.6323C1.13829 28.8209 1.87545 29.8361 3.38341 30.6743H3.38243C4.90763 31.512 6.78129 31.933 9.00548 31.9331C13.8913 31.9331 18.2771 30.1159 22.1637 26.478L22.5123 26.146C24.2858 24.4231 26.5274 21.7256 29.2369 18.0522C33.8943 11.7763 38.7607 7.61317 43.8375 5.56981C42.854 5.42838 41.449 5.19209 39.6236 4.85789C34.9773 4.029 31.4229 3.61571 28.9586 3.6157C28.7116 3.6157 27.9809 3.64372 26.7643 3.70067C27.5921 5.01615 28.0074 6.51163 28.0074 8.18699C28.0074 11.5252 26.4685 14.6539 23.4039 17.5718C20.3393 20.4897 17.0582 21.9535 13.5621 21.9536C12.1047 21.9536 10.9087 21.5577 9.98009 20.7622L9.97911 20.7612C9.06832 19.9496 8.6129 18.9067 8.6129 17.6382C8.61297 15.9003 9.40821 13.9876 10.9859 11.9018C12.583 9.79962 14.6385 7.97078 17.151 6.41453C19.6511 4.86225 22.3836 3.77436 25.3482 3.15086C23.9218 1.60977 21.9087 0.834455 19.2975 0.834455C17.0576 0.834509 14.7887 1.37472 12.4908 2.45652C10.2116 3.52313 8.2047 4.97892 6.47227 6.82664L6.47325 6.82762C6.34435 6.97173 6.23466 7.08215 6.14415 7.15672C6.09906 7.19386 6.05715 7.22308 6.01915 7.24363C5.98214 7.26361 5.94299 7.27869 5.90489 7.27879C5.84142 7.27879 5.78309 7.26515 5.73399 7.23485C5.68432 7.20415 5.64828 7.15906 5.62559 7.10301L5.62071 7.09129V7.0786C5.6208 7.03244 5.63746 6.98211 5.6627 6.93113C5.68848 6.87915 5.7259 6.82064 5.77403 6.75633C5.8705 6.62743 6.01428 6.46918 6.20274 6.28172C6.57995 5.90654 7.14458 5.40983 7.89512 4.79149C11.5088 1.82943 15.2916 0.345231 19.2428 0.345197ZM25.8248 3.80125C21.755 4.36322 17.9651 6.09751 14.4537 9.00535C10.9281 11.925 9.1793 14.7875 9.1793 17.5932C9.17932 18.6605 9.57485 19.5551 10.3668 20.2817H10.3658C11.1765 21.009 12.1676 21.3735 13.3424 21.3735C16.4109 21.3734 19.4236 19.8177 22.3805 16.6899C25.3368 13.5475 26.8092 10.3437 26.8092 7.0786C26.8091 5.8985 26.4805 4.80685 25.8248 3.80125ZM59.7525 2.23582C55.93 2.23582 52.221 2.88464 48.6256 4.18016C49.2079 4.26212 50.3404 4.43042 52.0221 4.68699H52.0231C54.948 5.15387 57.5427 5.38719 59.8072 5.38719C61.1 5.38718 62.2299 5.26043 63.1979 5.00828L63.6031 4.89207C64.1303 4.71977 64.5201 4.53438 64.777 4.33738C65.0334 4.14063 65.1499 3.93898 65.15 3.73289C65.15 3.54347 65.0377 3.35866 64.7857 3.18016C64.5966 3.04623 64.334 2.91934 63.9957 2.80125L63.6315 2.68602C62.6148 2.38688 61.3224 2.23584 59.7525 2.23582Z" fill="var(--fill-0, #DB1C2E)" stroke="var(--stroke-0, #DB1C2E)" stroke-width="0.127794"/>
<g id="T (Stroke)">
<mask id="path-10-outside-1_0_18" maskUnits="userSpaceOnUse" x="-0.872206" y="-0.872206" width="68" height="34" fill="black">
<rect fill="white" x="-0.872206" y="-0.872206" width="68" height="34"/>
<path d="M1.08759 27.627C1.08759 26.8887 1.24387 26.5196 1.55645 26.5196C1.70355 26.5196 1.77709 26.7004 1.77709 27.062C1.77709 27.755 2.20918 28.1016 3.07336 28.1016C3.60658 28.1016 4.05706 27.9283 4.4248 27.5818C4.79253 27.2353 4.9764 26.8209 4.9764 26.3388C4.9764 25.3143 4.37883 24.802 3.18369 24.802C2.44821 24.802 1.81387 25.0657 1.28065 25.593C0.747431 26.1203 0.480822 26.7531 0.480822 27.4914C0.480822 28.9528 1.31742 30.1431 2.99062 31.0621C4.68221 31.9812 6.85186 32.4407 9.49956 32.4407C14.464 32.4407 19.2538 31.0395 23.8689 28.2372C25.6156 27.1524 26.9854 26.0375 27.9783 24.8924C28.9896 23.7323 30.5709 21.4196 32.7221 17.9544C34.8734 14.4891 36.8867 11.8148 38.7622 9.9315C40.6377 8.03313 42.7062 6.60182 44.9678 5.63758C49.2519 6.28543 52.8373 6.60936 55.724 6.60936C58.5924 6.60936 61.0195 6.33063 63.0052 5.77317C64.991 5.20065 65.9839 4.5076 65.9839 3.69401C65.9839 2.3983 63.9705 1.75045 59.9438 1.75045C56.0274 1.75045 51.9456 2.5113 47.6982 4.033C42.605 3.17422 39.4057 2.66196 38.1003 2.49623C36.8684 2.34557 35.5077 2.27024 34.0184 2.27024C31.1317 2.27024 28.5759 2.5339 26.3511 3.06122C24.7514 1.29845 22.4163 0.417069 19.3457 0.417069C15.3925 0.417069 11.6049 1.89358 7.98265 4.84659C6.47493 6.08203 5.72107 6.82782 5.72107 7.08395C5.75784 7.17435 5.83139 7.21955 5.94171 7.21955C6.03364 7.21955 6.20832 7.07642 6.46573 6.79015C8.21248 4.93699 10.235 3.47555 12.5334 2.40583C14.8501 1.32105 17.1393 0.778663 19.4009 0.778663C22.0853 0.778663 24.1539 1.58471 25.6064 3.19682C22.591 3.81454 19.8146 4.90685 17.2772 6.47376C14.7582 8.0256 12.6989 9.84863 11.0992 11.9429C9.51795 14.022 8.72731 15.9204 8.72731 17.638C8.72731 18.8885 9.17779 19.913 10.0787 20.7115C10.9981 21.495 12.184 21.8867 13.6366 21.8867C17.1301 21.8867 20.4121 20.4328 23.4827 17.525C26.5533 14.6171 28.0886 11.5059 28.0886 8.19133C28.0886 6.48883 27.6566 4.97465 26.7924 3.64881C28.0795 3.58855 28.8517 3.55841 29.1091 3.55841C31.5913 3.55841 35.1676 3.97274 39.8378 4.80139C41.8236 5.16298 43.3129 5.41158 44.3058 5.54718C39.1391 7.55101 34.1839 11.7319 29.4401 18.09C26.535 22.0072 24.1631 24.8171 22.3244 26.5196C18.408 30.1657 13.9859 31.9887 9.05828 31.9887V31.6994C13.864 31.6994 18.195 29.9258 22.0593 26.3283L22.0599 26.3278C23.8769 24.6454 26.2356 21.8538 29.1384 17.9397L29.1388 17.9391C33.6124 11.9432 38.2979 7.84168 43.2081 5.67769C42.2996 5.53448 41.1501 5.33678 39.7613 5.08389V5.0836C35.0984 4.25631 31.5524 3.84769 29.1091 3.84769C28.9004 3.84769 28.3174 3.86912 27.3488 3.91294C28.0796 5.18701 28.4417 6.61495 28.4417 8.19133C28.4417 11.5864 26.8663 14.7628 23.7496 17.7142C20.6362 20.6625 17.2646 22.176 13.6366 22.176C12.1462 22.176 10.8971 21.7836 9.91809 20.99L9.82432 20.9121L9.8219 20.9101L9.81949 20.9078C8.84922 20.0479 8.37429 18.9496 8.37429 17.638C8.37429 15.8479 9.19759 13.8962 10.7996 11.7897L10.8 11.7895L10.9534 11.5909C12.5545 9.54845 14.5926 7.76571 17.0648 6.24268L17.3068 6.09522C19.6662 4.67419 22.2289 3.6518 24.9935 3.02958C23.6382 1.7249 21.7872 1.06794 19.4009 1.06794C17.211 1.06794 14.9816 1.59265 12.7085 2.65697L12.7078 2.65725C10.4534 3.70653 8.46546 5.14171 6.74498 6.967C6.61426 7.11206 6.4958 7.23107 6.39127 7.31672C6.33873 7.35977 6.28099 7.40184 6.21958 7.43481C6.16592 7.4636 6.06729 7.50882 5.94171 7.50882C5.8259 7.50882 5.70147 7.48419 5.59213 7.41701C5.51128 7.36732 5.45559 7.30474 5.41803 7.24017L5.38631 7.17548L5.36804 7.13084V7.08395C5.36804 6.99883 5.39767 6.91944 5.42941 6.85569C5.46271 6.7888 5.50854 6.71913 5.56179 6.64834C5.66831 6.50677 5.82132 6.33912 6.01445 6.14804C6.40187 5.76477 6.97651 5.26198 7.73305 4.64206L7.73374 4.6415C11.4019 1.65105 15.2742 0.127794 19.3457 0.127794C22.4175 0.127794 24.8145 0.988976 26.4859 2.73014C28.6936 2.22977 31.2056 1.98096 34.0184 1.98096C35.5219 1.98096 36.9002 2.05694 38.1523 2.21006L38.1544 2.21035C39.461 2.37622 42.6335 2.88409 47.6603 3.7313C51.9072 2.22103 56.0026 1.46117 59.9438 1.46117C61.9699 1.46117 63.5335 1.62304 64.6028 1.96712C65.1403 2.14008 65.5744 2.36563 65.8756 2.65641C66.1824 2.95257 66.3369 3.30275 66.3369 3.69401C66.3369 4.2103 66.017 4.66123 65.4681 5.04434C64.9247 5.42365 64.1342 5.75437 63.1224 6.04606L63.1197 6.04691C61.0863 6.61772 58.6181 6.89863 55.724 6.89863C52.8354 6.89863 49.2675 6.57732 45.025 5.93984C42.854 6.88233 40.8571 8.2707 39.0366 10.1134L39.0356 10.1143C37.1826 11.975 35.1826 14.6291 33.0369 18.0854C30.8872 21.5481 29.2947 23.8792 28.2658 25.0597L28.2662 25.0599C27.2477 26.2345 25.85 27.3698 24.0823 28.4677L24.0792 28.4697C19.4132 31.3029 14.5512 32.73 9.49956 32.73C6.80332 32.73 4.56015 32.2618 2.79549 31.3031L2.79411 31.3025C1.03793 30.3379 0.127794 29.063 0.127794 27.4914C0.127794 26.6914 0.418792 25.9919 1.00864 25.4085C1.59866 24.8251 2.32799 24.5128 3.18369 24.5128C3.83977 24.5128 4.3957 24.654 4.78334 24.9862C5.16814 25.3161 5.32943 25.7851 5.32943 26.3388C5.32943 26.8869 5.11784 27.3697 4.69129 27.7716C4.2604 28.1777 3.71455 28.3908 3.07336 28.3908C2.58878 28.3908 2.16015 28.2937 1.85432 28.0485C1.62575 27.8652 1.49906 27.626 1.44923 27.3538C1.44356 27.4357 1.44061 27.5266 1.44061 27.627C1.44061 28.728 2.11938 29.6789 3.57429 30.4833C5.04936 31.2886 6.87089 31.6994 9.05828 31.6994V31.9887C6.81508 31.9887 4.92124 31.5668 3.37675 30.7231C1.85064 29.8794 1.08759 28.8474 1.08759 27.627ZM26.66 7.08395C26.66 5.997 26.3726 4.99068 25.7995 4.06069C21.8623 4.64216 18.1764 6.33478 14.7419 9.16368C11.2291 12.057 9.52163 14.8656 9.52163 17.5928C9.52163 18.6122 9.89866 19.4519 10.6421 20.1315C11.4044 20.8117 12.3223 21.1454 13.416 21.1454V21.4347C12.2208 21.4347 11.2095 21.0656 10.3821 20.3273C9.57311 19.5891 9.1686 18.6775 9.1686 17.5928C9.1686 14.7603 10.9429 11.8826 14.4916 8.95972C18.0402 6.03683 21.8739 4.29667 25.9925 3.73921C26.6729 4.76372 27.013 5.87864 27.013 7.08395C27.013 10.3684 25.5237 13.5851 22.545 16.734C19.5663 19.8678 16.5233 21.4347 13.416 21.4347V21.1454C16.3648 21.1454 19.3167 19.6596 22.2665 16.5563C25.2074 13.4472 26.66 10.2913 26.66 7.08395ZM65.1896 3.73921C65.1896 3.6285 65.128 3.50117 64.9193 3.35417C64.7316 3.22192 64.443 3.08806 64.0357 2.95952L63.8537 2.90472L63.8519 2.90415C62.8733 2.61776 61.6114 2.46911 60.0541 2.46911C56.5575 2.46911 53.1561 3.01147 49.8477 4.09741C50.4709 4.18936 51.3022 4.31414 52.3406 4.47172L52.3437 4.47228C55.2699 4.93685 57.8576 5.1675 60.1093 5.1675V5.45678C57.8293 5.45678 55.2184 5.22325 52.2765 4.75619C50.2907 4.45486 49.068 4.27407 48.6083 4.2138C52.3041 2.85783 56.1194 2.17984 60.0541 2.17984C61.6354 2.17984 62.9409 2.3305 63.9705 2.63183C65.0186 2.93316 65.5426 3.30228 65.5426 3.73921C65.5426 4.20627 65.0094 4.61306 63.943 4.95959C62.8765 5.29105 61.5986 5.45678 60.1093 5.45678V5.1675C61.5657 5.1675 62.797 5.00543 63.8123 4.69065C64.3254 4.52393 64.6807 4.35188 64.9021 4.18301C65.1181 4.01819 65.1896 3.87147 65.1896 3.73921Z"/>
</mask>
<path d="M1.08759 27.627C1.08759 26.8887 1.24387 26.5196 1.55645 26.5196C1.70355 26.5196 1.77709 26.7004 1.77709 27.062C1.77709 27.755 2.20918 28.1016 3.07336 28.1016C3.60658 28.1016 4.05706 27.9283 4.4248 27.5818C4.79253 27.2353 4.9764 26.8209 4.9764 26.3388C4.9764 25.3143 4.37883 24.802 3.18369 24.802C2.44821 24.802 1.81387 25.0657 1.28065 25.593C0.747431 26.1203 0.480822 26.7531 0.480822 27.4914C0.480822 28.9528 1.31742 30.1431 2.99062 31.0621C4.68221 31.9812 6.85186 32.4407 9.49956 32.4407C14.464 32.4407 19.2538 31.0395 23.8689 28.2372C25.6156 27.1524 26.9854 26.0375 27.9783 24.8924C28.9896 23.7323 30.5709 21.4196 32.7221 17.9544C34.8734 14.4891 36.8867 11.8148 38.7622 9.9315C40.6377 8.03313 42.7062 6.60182 44.9678 5.63758C49.2519 6.28543 52.8373 6.60936 55.724 6.60936C58.5924 6.60936 61.0195 6.33063 63.0052 5.77317C64.991 5.20065 65.9839 4.5076 65.9839 3.69401C65.9839 2.3983 63.9705 1.75045 59.9438 1.75045C56.0274 1.75045 51.9456 2.5113 47.6982 4.033C42.605 3.17422 39.4057 2.66196 38.1003 2.49623C36.8684 2.34557 35.5077 2.27024 34.0184 2.27024C31.1317 2.27024 28.5759 2.5339 26.3511 3.06122C24.7514 1.29845 22.4163 0.417069 19.3457 0.417069C15.3925 0.417069 11.6049 1.89358 7.98265 4.84659C6.47493 6.08203 5.72107 6.82782 5.72107 7.08395C5.75784 7.17435 5.83139 7.21955 5.94171 7.21955C6.03364 7.21955 6.20832 7.07642 6.46573 6.79015C8.21248 4.93699 10.235 3.47555 12.5334 2.40583C14.8501 1.32105 17.1393 0.778663 19.4009 0.778663C22.0853 0.778663 24.1539 1.58471 25.6064 3.19682C22.591 3.81454 19.8146 4.90685 17.2772 6.47376C14.7582 8.0256 12.6989 9.84863 11.0992 11.9429C9.51795 14.022 8.72731 15.9204 8.72731 17.638C8.72731 18.8885 9.17779 19.913 10.0787 20.7115C10.9981 21.495 12.184 21.8867 13.6366 21.8867C17.1301 21.8867 20.4121 20.4328 23.4827 17.525C26.5533 14.6171 28.0886 11.5059 28.0886 8.19133C28.0886 6.48883 27.6566 4.97465 26.7924 3.64881C28.0795 3.58855 28.8517 3.55841 29.1091 3.55841C31.5913 3.55841 35.1676 3.97274 39.8378 4.80139C41.8236 5.16298 43.3129 5.41158 44.3058 5.54718C39.1391 7.55101 34.1839 11.7319 29.4401 18.09C26.535 22.0072 24.1631 24.8171 22.3244 26.5196C18.408 30.1657 13.9859 31.9887 9.05828 31.9887V31.6994C13.864 31.6994 18.195 29.9258 22.0593 26.3283L22.0599 26.3278C23.8769 24.6454 26.2356 21.8538 29.1384 17.9397L29.1388 17.9391C33.6124 11.9432 38.2979 7.84168 43.2081 5.67769C42.2996 5.53448 41.1501 5.33678 39.7613 5.08389V5.0836C35.0984 4.25631 31.5524 3.84769 29.1091 3.84769C28.9004 3.84769 28.3174 3.86912 27.3488 3.91294C28.0796 5.18701 28.4417 6.61495 28.4417 8.19133C28.4417 11.5864 26.8663 14.7628 23.7496 17.7142C20.6362 20.6625 17.2646 22.176 13.6366 22.176C12.1462 22.176 10.8971 21.7836 9.91809 20.99L9.82432 20.9121L9.8219 20.9101L9.81949 20.9078C8.84922 20.0479 8.37429 18.9496 8.37429 17.638C8.37429 15.8479 9.19759 13.8962 10.7996 11.7897L10.8 11.7895L10.9534 11.5909C12.5545 9.54845 14.5926 7.76571 17.0648 6.24268L17.3068 6.09522C19.6662 4.67419 22.2289 3.6518 24.9935 3.02958C23.6382 1.7249 21.7872 1.06794 19.4009 1.06794C17.211 1.06794 14.9816 1.59265 12.7085 2.65697L12.7078 2.65725C10.4534 3.70653 8.46546 5.14171 6.74498 6.967C6.61426 7.11206 6.4958 7.23107 6.39127 7.31672C6.33873 7.35977 6.28099 7.40184 6.21958 7.43481C6.16592 7.4636 6.06729 7.50882 5.94171 7.50882C5.8259 7.50882 5.70147 7.48419 5.59213 7.41701C5.51128 7.36732 5.45559 7.30474 5.41803 7.24017L5.38631 7.17548L5.36804 7.13084V7.08395C5.36804 6.99883 5.39767 6.91944 5.42941 6.85569C5.46271 6.7888 5.50854 6.71913 5.56179 6.64834C5.66831 6.50677 5.82132 6.33912 6.01445 6.14804C6.40187 5.76477 6.97651 5.26198 7.73305 4.64206L7.73374 4.6415C11.4019 1.65105 15.2742 0.127794 19.3457 0.127794C22.4175 0.127794 24.8145 0.988976 26.4859 2.73014C28.6936 2.22977 31.2056 1.98096 34.0184 1.98096C35.5219 1.98096 36.9002 2.05694 38.1523 2.21006L38.1544 2.21035C39.461 2.37622 42.6335 2.88409 47.6603 3.7313C51.9072 2.22103 56.0026 1.46117 59.9438 1.46117C61.9699 1.46117 63.5335 1.62304 64.6028 1.96712C65.1403 2.14008 65.5744 2.36563 65.8756 2.65641C66.1824 2.95257 66.3369 3.30275 66.3369 3.69401C66.3369 4.2103 66.017 4.66123 65.4681 5.04434C64.9247 5.42365 64.1342 5.75437 63.1224 6.04606L63.1197 6.04691C61.0863 6.61772 58.6181 6.89863 55.724 6.89863C52.8354 6.89863 49.2675 6.57732 45.025 5.93984C42.854 6.88233 40.8571 8.2707 39.0366 10.1134L39.0356 10.1143C37.1826 11.975 35.1826 14.6291 33.0369 18.0854C30.8872 21.5481 29.2947 23.8792 28.2658 25.0597L28.2662 25.0599C27.2477 26.2345 25.85 27.3698 24.0823 28.4677L24.0792 28.4697C19.4132 31.3029 14.5512 32.73 9.49956 32.73C6.80332 32.73 4.56015 32.2618 2.79549 31.3031L2.79411 31.3025C1.03793 30.3379 0.127794 29.063 0.127794 27.4914C0.127794 26.6914 0.418792 25.9919 1.00864 25.4085C1.59866 24.8251 2.32799 24.5128 3.18369 24.5128C3.83977 24.5128 4.3957 24.654 4.78334 24.9862C5.16814 25.3161 5.32943 25.7851 5.32943 26.3388C5.32943 26.8869 5.11784 27.3697 4.69129 27.7716C4.2604 28.1777 3.71455 28.3908 3.07336 28.3908C2.58878 28.3908 2.16015 28.2937 1.85432 28.0485C1.62575 27.8652 1.49906 27.626 1.44923 27.3538C1.44356 27.4357 1.44061 27.5266 1.44061 27.627C1.44061 28.728 2.11938 29.6789 3.57429 30.4833C5.04936 31.2886 6.87089 31.6994 9.05828 31.6994V31.9887C6.81508 31.9887 4.92124 31.5668 3.37675 30.7231C1.85064 29.8794 1.08759 28.8474 1.08759 27.627ZM26.66 7.08395C26.66 5.997 26.3726 4.99068 25.7995 4.06069C21.8623 4.64216 18.1764 6.33478 14.7419 9.16368C11.2291 12.057 9.52163 14.8656 9.52163 17.5928C9.52163 18.6122 9.89866 19.4519 10.6421 20.1315C11.4044 20.8117 12.3223 21.1454 13.416 21.1454V21.4347C12.2208 21.4347 11.2095 21.0656 10.3821 20.3273C9.57311 19.5891 9.1686 18.6775 9.1686 17.5928C9.1686 14.7603 10.9429 11.8826 14.4916 8.95972C18.0402 6.03683 21.8739 4.29667 25.9925 3.73921C26.6729 4.76372 27.013 5.87864 27.013 7.08395C27.013 10.3684 25.5237 13.5851 22.545 16.734C19.5663 19.8678 16.5233 21.4347 13.416 21.4347V21.1454C16.3648 21.1454 19.3167 19.6596 22.2665 16.5563C25.2074 13.4472 26.66 10.2913 26.66 7.08395ZM65.1896 3.73921C65.1896 3.6285 65.128 3.50117 64.9193 3.35417C64.7316 3.22192 64.443 3.08806 64.0357 2.95952L63.8537 2.90472L63.8519 2.90415C62.8733 2.61776 61.6114 2.46911 60.0541 2.46911C56.5575 2.46911 53.1561 3.01147 49.8477 4.09741C50.4709 4.18936 51.3022 4.31414 52.3406 4.47172L52.3437 4.47228C55.2699 4.93685 57.8576 5.1675 60.1093 5.1675V5.45678C57.8293 5.45678 55.2184 5.22325 52.2765 4.75619C50.2907 4.45486 49.068 4.27407 48.6083 4.2138C52.3041 2.85783 56.1194 2.17984 60.0541 2.17984C61.6354 2.17984 62.9409 2.3305 63.9705 2.63183C65.0186 2.93316 65.5426 3.30228 65.5426 3.73921C65.5426 4.20627 65.0094 4.61306 63.943 4.95959C62.8765 5.29105 61.5986 5.45678 60.1093 5.45678V5.1675C61.5657 5.1675 62.797 5.00543 63.8123 4.69065C64.3254 4.52393 64.6807 4.35188 64.9021 4.18301C65.1181 4.01819 65.1896 3.87147 65.1896 3.73921Z" fill="var(--fill-0, #DB1C2E)"/>
<path d="M2.99062 31.0621L2.9291 31.1741L2.92961 31.1744L2.99062 31.0621ZM23.8689 28.2372L23.9352 28.3464L23.9363 28.3457L23.8689 28.2372ZM27.9783 24.8924L27.882 24.8085L27.8818 24.8087L27.9783 24.8924ZM38.7622 9.9315L38.8528 10.0217L38.8531 10.0213L38.7622 9.9315ZM44.9678 5.63757L44.9869 5.51122L44.951 5.50579L44.9176 5.52002L44.9678 5.63757ZM63.0052 5.77317L63.0398 5.89621L63.0406 5.89597L63.0052 5.77317ZM47.6982 4.033L47.6769 4.15902L47.7099 4.16457L47.7413 4.15331L47.6982 4.033ZM38.1003 2.49623L38.1164 2.36945L38.1158 2.36938L38.1003 2.49623ZM26.3511 3.06122L26.2565 3.1471L26.3072 3.20297L26.3806 3.18557L26.3511 3.06122ZM7.98265 4.84659L7.9019 4.74754L7.90165 4.74774L7.98265 4.84659ZM5.72107 7.08395H5.59327V7.10895L5.60269 7.1321L5.72107 7.08395ZM6.46573 6.79015L6.37271 6.70248L6.37071 6.7047L6.46573 6.79015ZM12.5334 2.40583L12.5873 2.52169L12.5876 2.52157L12.5334 2.40583ZM25.6064 3.19682L25.6321 3.32201L25.8509 3.27719L25.7014 3.11127L25.6064 3.19682ZM17.2772 6.47376L17.3442 6.58256L17.3443 6.58249L17.2772 6.47376ZM11.0992 11.9429L10.9977 11.8653L10.9975 11.8655L11.0992 11.9429ZM10.0787 20.7115L9.99397 20.8072L9.99586 20.8088L10.0787 20.7115ZM26.7924 3.64881L26.7864 3.52116L26.5634 3.5316L26.6853 3.71859L26.7924 3.64881ZM39.8378 4.80139L39.8607 4.67566L39.8602 4.67556L39.8378 4.80139ZM44.3058 5.54718L44.352 5.66632L44.8132 5.48748L44.3231 5.42056L44.3058 5.54718ZM29.4401 18.09L29.3376 18.0135L29.3374 18.0138L29.4401 18.09ZM22.3244 26.5196L22.2375 26.4258L22.2373 26.4261L22.3244 26.5196ZM22.0593 26.3284L21.9781 26.2293L21.9722 26.2348L22.0593 26.3284ZM22.0599 26.3278L22.1411 26.4268L22.1468 26.4216L22.0599 26.3278ZM29.1384 17.9397L29.2415 18.0161L29.2475 18.0062L29.1384 17.9397ZM29.1388 17.9391L29.0359 17.8623L29.0297 17.8725L29.1388 17.9391ZM43.2081 5.67769L43.2597 5.79463L43.6578 5.61919L43.228 5.55145L43.2081 5.67769ZM39.7613 5.08388H39.6335V5.19051L39.7384 5.20961L39.7613 5.08388ZM39.7613 5.0836H39.8891V4.97649L39.7836 4.95777L39.7613 5.0836ZM27.3488 3.91294L27.343 3.78528L27.1337 3.79475L27.2379 3.97653L27.3488 3.91294ZM23.7496 17.7142L23.8375 17.807V17.807L23.7496 17.7142ZM9.91809 20.99L9.83638 21.0883L9.83762 21.0893L9.91809 20.99ZM9.82432 20.9121L9.90602 20.8138L9.90532 20.8132L9.82432 20.9121ZM9.82191 20.9101L9.73436 21.0036L9.74091 21.0089L9.82191 20.9101ZM9.81949 20.9078L9.90688 20.8145L9.90426 20.8122L9.81949 20.9078ZM10.7996 11.7897L10.7186 11.6909L10.707 11.7004L10.6979 11.7124L10.7996 11.7897ZM10.8 11.7895L10.881 11.8883L10.8922 11.8791L10.9011 11.8676L10.8 11.7895ZM10.9534 11.5909L10.8528 11.512L10.8523 11.5127L10.9534 11.5909ZM17.0648 6.24268L16.9983 6.13355L16.9978 6.13388L17.0648 6.24268ZM17.3068 6.09522L17.2409 5.98574L17.2403 5.98608L17.3068 6.09522ZM24.9935 3.02958L25.0215 3.15426L25.2531 3.10214L25.0821 2.93752L24.9935 3.02958ZM12.7085 2.65697L12.757 2.77537L12.7627 2.77271L12.7085 2.65697ZM12.7078 2.65725L12.6593 2.53887L12.6539 2.54139L12.7078 2.65725ZM6.74498 6.967L6.65197 6.87932L6.65005 6.88145L6.74498 6.967ZM6.39127 7.31672L6.31027 7.21788L6.39127 7.31672ZM6.21958 7.43481L6.28001 7.54741L6.28003 7.5474L6.21958 7.43481ZM5.59213 7.41701L5.52522 7.52589L5.52523 7.5259L5.59213 7.41701ZM5.41803 7.24017L5.30299 7.29657L5.30757 7.30443L5.41803 7.24017ZM5.38631 7.17548L5.26778 7.224L5.27157 7.23174L5.38631 7.17548ZM5.36804 7.13084H5.24025V7.15599L5.24977 7.17926L5.36804 7.13084ZM5.42941 6.85569L5.31501 6.79874L5.315 6.79874L5.42941 6.85569ZM5.56179 6.64834L5.45968 6.57151L5.45967 6.57151L5.56179 6.64834ZM6.01445 6.14804L5.92458 6.05719L5.92457 6.05719L6.01445 6.14804ZM7.73374 4.6415L7.65299 4.54245L7.65274 4.54265L7.73374 4.6415ZM26.4859 2.73014L26.3937 2.81864L26.4437 2.87073L26.5141 2.85477L26.4859 2.73014ZM38.1523 2.21006L38.1696 2.08343L38.1678 2.08322L38.1523 2.21006ZM38.1544 2.21035L38.1371 2.33697L38.1383 2.33712L38.1544 2.21035ZM47.6603 3.7313L47.639 3.85732L47.6718 3.86284L47.7031 3.85171L47.6603 3.7313ZM64.6028 1.96712L64.642 1.84547V1.84547L64.6028 1.96712ZM65.8756 2.65641L65.9644 2.56446V2.56446L65.8756 2.65641ZM65.4681 5.04434L65.5413 5.14913V5.14913L65.4681 5.04434ZM63.1224 6.04606L63.087 5.92325L63.0849 5.92391L63.1224 6.04606ZM63.1197 6.04691L63.1542 6.16999L63.1572 6.16907L63.1197 6.04691ZM45.025 5.93984L45.044 5.81347L45.0077 5.80802L44.9741 5.82262L45.025 5.93984ZM39.0366 10.1134L39.1181 10.2128L39.1275 10.2032L39.0366 10.1134ZM39.0356 10.1143L38.9542 10.0149L38.945 10.0241L39.0356 10.1143ZM33.0369 18.0854L32.9283 18.018V18.018L33.0369 18.0854ZM28.2658 25.0597L28.1695 24.9757L28.0829 25.075L28.1849 25.1585L28.2658 25.0597ZM28.2662 25.0599L28.3627 25.1437L28.4488 25.0444L28.3472 24.9611L28.2662 25.0599ZM24.0823 28.4677L24.0148 28.3591L24.0136 28.3599L24.0823 28.4677ZM24.0792 28.4697L24.1455 28.5789L24.1479 28.5774L24.0792 28.4697ZM2.79549 31.3031L2.85687 31.1901L2.84394 31.1848L2.79549 31.3031ZM2.79411 31.3025L2.73259 31.4145L2.73895 31.418L2.74567 31.4208L2.79411 31.3025ZM1.00864 25.4085L0.918778 25.3177L0.918773 25.3177L1.00864 25.4085ZM4.78334 24.9862L4.86651 24.8892L4.8665 24.8892L4.78334 24.9862ZM4.69129 27.7716L4.77893 27.8646L4.77893 27.8646L4.69129 27.7716ZM1.85432 28.0485L1.77436 28.1482L1.77437 28.1482L1.85432 28.0485ZM1.44923 27.3538L1.57494 27.3308L1.32174 27.345L1.44923 27.3538ZM3.57429 30.4833L3.51246 30.5951L3.51305 30.5954L3.57429 30.4833ZM3.37675 30.7231L3.31491 30.835L3.31548 30.8353L3.37675 30.7231ZM25.7995 4.06069L25.9083 3.99364L25.8641 3.92196L25.7808 3.93427L25.7995 4.06069ZM14.7419 9.16368L14.6606 9.06503V9.06503L14.7419 9.16368ZM10.6421 20.1315L10.5558 20.2259L10.557 20.2269L10.6421 20.1315ZM10.3821 20.3273L10.296 20.4217L10.297 20.4227L10.3821 20.3273ZM25.9925 3.73921L26.099 3.66852L26.0547 3.60183L25.9754 3.61257L25.9925 3.73921ZM22.545 16.734L22.6376 16.822L22.6379 16.8218L22.545 16.734ZM22.2665 16.5563L22.3591 16.6443L22.3593 16.6441L22.2665 16.5563ZM64.9193 3.35417L64.9929 3.24969V3.24969L64.9193 3.35417ZM64.0357 2.95952L64.0742 2.83764L64.0725 2.83715L64.0357 2.95952ZM63.8537 2.90472L63.8139 3.02619L63.8168 3.02709L63.8537 2.90472ZM63.8519 2.90415L63.8918 2.78265L63.8878 2.7815L63.8519 2.90415ZM49.8477 4.09741L49.8079 3.97599L49.8291 4.22384L49.8477 4.09741ZM52.3406 4.47172L52.3635 4.34594L52.3598 4.34537L52.3406 4.47172ZM52.3437 4.47228L52.3208 4.59804L52.3237 4.5985L52.3437 4.47228ZM52.2765 4.75619L52.2966 4.62997L52.2957 4.62984L52.2765 4.75619ZM48.6083 4.2138L48.5643 4.09383L48.5917 4.34051L48.6083 4.2138ZM63.9705 2.63183L63.9346 2.75448L63.9352 2.75465L63.9705 2.63183ZM63.943 4.95959L63.9809 5.08163L63.9825 5.08113L63.943 4.95959ZM63.8123 4.69065L63.8501 4.81273L63.8518 4.81219L63.8123 4.69065ZM64.9021 4.18301L64.9796 4.28462L64.9796 4.28461L64.9021 4.18301ZM1.08759 27.627H1.21538C1.21538 27.263 1.25448 27.0069 1.32248 26.8463C1.35592 26.7673 1.39353 26.7182 1.43037 26.6892C1.46532 26.6617 1.50551 26.6474 1.55645 26.6474V26.5196V26.3918C1.4511 26.3918 1.35454 26.4236 1.27227 26.4884C1.1919 26.5517 1.13183 26.641 1.08712 26.7466C0.998837 26.9551 0.959792 27.2527 0.959792 27.627H1.08759ZM1.55645 26.5196V26.6474C1.5647 26.6474 1.56801 26.6491 1.57198 26.6523C1.57811 26.6574 1.59038 26.671 1.60356 26.7034C1.63086 26.7705 1.6493 26.8861 1.6493 27.062H1.77709H1.90489C1.90489 26.8763 1.88655 26.7207 1.84031 26.607C1.81671 26.549 1.78301 26.4948 1.73398 26.4546C1.68279 26.4127 1.62175 26.3918 1.55645 26.3918V26.5196ZM1.77709 27.062H1.6493C1.6493 27.4366 1.76747 27.7379 2.02121 27.9414C2.26956 28.1405 2.62756 28.2294 3.07336 28.2294V28.1016V27.9738C2.65498 27.9738 2.36486 27.8893 2.18111 27.742C2.00276 27.5989 1.90489 27.3804 1.90489 27.062H1.77709ZM3.07336 28.1016V28.2294C3.63718 28.2294 4.11959 28.045 4.51244 27.6748L4.4248 27.5818L4.33715 27.4888C3.99453 27.8116 3.57599 27.9738 3.07336 27.9738V28.1016ZM4.4248 27.5818L4.51244 27.6748C4.90442 27.3054 5.1042 26.858 5.1042 26.3388H4.9764H4.84861C4.84861 26.7839 4.68065 27.1651 4.33715 27.4888L4.4248 27.5818ZM4.9764 26.3388H5.1042C5.1042 25.8013 4.94651 25.3765 4.61139 25.0892C4.28005 24.8052 3.79655 24.6742 3.18369 24.6742V24.802V24.9298C3.76596 24.9298 4.17882 25.055 4.44505 25.2832C4.70751 25.5082 4.84861 25.8518 4.84861 26.3388H4.9764ZM3.18369 24.802V24.6742C2.41383 24.6742 1.7474 24.9517 1.19079 25.5021L1.28065 25.593L1.37051 25.6839C1.88033 25.1797 2.48259 24.9298 3.18369 24.9298V24.802ZM1.28065 25.593L1.19079 25.5021C0.633728 26.0531 0.353027 26.7184 0.353027 27.4914H0.480822H0.608616C0.608616 26.7879 0.861134 26.1876 1.37051 25.6839L1.28065 25.593ZM0.480822 27.4914H0.353027C0.353027 29.0139 1.22952 30.2406 2.9291 31.1741L2.99062 31.0621L3.05215 30.9501C1.40533 30.0455 0.608616 28.8917 0.608616 27.4914H0.480822ZM2.99062 31.0621L2.92961 31.1744C4.64564 32.1067 6.83816 32.5685 9.49956 32.5685V32.4407V32.3129C6.86556 32.3129 4.71879 31.8556 3.05163 30.9498L2.99062 31.0621ZM9.49956 32.4407V32.5685C14.4894 32.5685 19.3019 31.1598 23.9352 28.3464L23.8689 28.2372L23.8025 28.1279C19.2056 30.9192 14.4386 32.3129 9.49956 32.3129V32.4407ZM23.8689 28.2372L23.9363 28.3457C25.6903 27.2564 27.0712 26.1337 28.0749 24.9761L27.9783 24.8924L27.8818 24.8087C26.8997 25.9413 25.5409 27.0484 23.8014 28.1286L23.8689 28.2372ZM27.9783 24.8924L28.0747 24.9764C29.0936 23.8075 30.6798 21.4864 32.8307 18.0218L32.7221 17.9544L32.6136 17.8869C30.4619 21.3529 28.8856 23.6572 27.882 24.8085L27.9783 24.8924ZM32.7221 17.9544L32.8307 18.0218C34.9792 14.5609 36.9868 11.8955 38.8528 10.0217L38.7622 9.9315L38.6716 9.84132C36.7867 11.7341 34.7675 14.4173 32.6136 17.8869L32.7221 17.9544ZM38.7622 9.9315L38.8531 10.0213C40.7179 8.13374 42.7728 6.71233 45.0179 5.75513L44.9678 5.63757L44.9176 5.52002C42.6395 6.49132 40.5574 7.93252 38.6713 9.84168L38.7622 9.9315ZM44.9678 5.63757L44.9486 5.76393C49.2363 6.41232 52.8286 6.73715 55.724 6.73715V6.60936V6.48156C52.846 6.48156 49.2675 6.15854 44.9869 5.51122L44.9678 5.63757ZM55.724 6.60936V6.73715C58.5999 6.73715 61.0393 6.45778 63.0398 5.89621L63.0052 5.77317L62.9707 5.65013C60.9996 6.20347 58.5849 6.48156 55.724 6.48156V6.60936ZM63.0052 5.77317L63.0406 5.89597C64.0389 5.60816 64.7991 5.28706 65.3124 4.92878C65.8255 4.57064 66.1117 4.16021 66.1117 3.69401H65.9839H65.8561C65.8561 4.04139 65.6459 4.38428 65.1661 4.7192C64.6865 5.05397 63.9573 5.36567 62.9698 5.65038L63.0052 5.77317ZM65.9839 3.69401H66.1117C66.1117 2.95864 65.5338 2.44315 64.513 2.11468C63.4869 1.78451 61.9607 1.62265 59.9438 1.62265V1.75045V1.87824C61.9536 1.87824 63.4475 2.04031 64.4347 2.35799C65.4273 2.67738 65.8561 3.13367 65.8561 3.69401H65.9839ZM59.9438 1.75045V1.62265C56.0107 1.62265 51.9142 2.38678 47.6551 3.9127L47.6982 4.033L47.7413 4.15331C51.9769 2.63582 56.0442 1.87824 59.9438 1.87824V1.75045ZM47.6982 4.033L47.7194 3.90699C42.6272 3.04836 39.425 2.53559 38.1164 2.36945L38.1003 2.49623L38.0842 2.62301C39.3865 2.78834 42.5829 3.30008 47.6769 4.15902L47.6982 4.033ZM38.1003 2.49623L38.1158 2.36938C36.8778 2.21798 35.5119 2.14244 34.0184 2.14244V2.27024V2.39803C35.5035 2.39803 36.8589 2.47316 38.0848 2.62308L38.1003 2.49623ZM34.0184 2.27024V2.14244C31.1242 2.14244 28.5582 2.40675 26.3216 2.93687L26.3511 3.06122L26.3806 3.18557C28.5936 2.66104 31.1391 2.39803 34.0184 2.39803V2.27024ZM26.3511 3.06122L26.4457 2.97534C24.8153 1.17864 22.4413 0.289275 19.3457 0.289275V0.417069V0.544864C22.3914 0.544864 24.6876 1.41826 26.2565 3.1471L26.3511 3.06122ZM19.3457 0.417069V0.289275C15.358 0.289275 11.5426 1.77947 7.9019 4.74754L7.98265 4.84659L8.0634 4.94564C11.6671 2.00768 15.4271 0.544864 19.3457 0.544864V0.417069ZM7.98265 4.84659L7.90165 4.74774C7.1468 5.36628 6.57778 5.86455 6.19659 6.24166C6.00628 6.42994 5.85994 6.59077 5.7603 6.72321C5.7105 6.78939 5.67027 6.85122 5.642 6.90799C5.61469 6.96286 5.59327 7.02331 5.59327 7.08395H5.72107H5.84886C5.84886 7.08055 5.85101 7.06167 5.8708 7.0219C5.88966 6.98404 5.9201 6.93594 5.96453 6.87688C6.05335 6.75883 6.18972 6.60798 6.37634 6.42336C6.74901 6.05469 7.31077 5.56235 8.06364 4.94544L7.98265 4.84659ZM5.72107 7.08395L5.60269 7.1321C5.62993 7.19907 5.67397 7.25585 5.7369 7.29452C5.79868 7.33249 5.8694 7.34734 5.94171 7.34734V7.21955V7.09175C5.9037 7.09175 5.88248 7.084 5.87072 7.07677C5.8601 7.07024 5.84897 7.05923 5.83944 7.03579L5.72107 7.08395ZM5.94171 7.21955V7.34734C5.99524 7.34734 6.04535 7.32746 6.08662 7.3053C6.12984 7.2821 6.1754 7.24978 6.22266 7.21105C6.31729 7.13351 6.43028 7.0207 6.56076 6.8756L6.46573 6.79015L6.37071 6.7047C6.24377 6.84587 6.14072 6.94776 6.06067 7.01335C6.0206 7.04619 5.98916 7.06753 5.96573 7.08012C5.94035 7.09374 5.93415 7.09175 5.94171 7.09175V7.21955ZM6.46573 6.79015L6.55873 6.87781C8.29441 5.03638 10.3037 3.58454 12.5873 2.52169L12.5334 2.40583L12.4795 2.28997C10.1663 3.36656 8.13055 4.83759 6.37274 6.7025L6.46573 6.79015ZM12.5334 2.40583L12.5876 2.52157C14.8896 1.44369 17.1603 0.906457 19.4009 0.906457V0.778663V0.650868C17.1182 0.650868 14.8107 1.19842 12.4792 2.2901L12.5334 2.40583ZM19.4009 0.778663V0.906457C22.0584 0.906457 24.0887 1.70334 25.5115 3.28236L25.6064 3.19682L25.7014 3.11127C24.219 1.46609 22.1123 0.650868 19.4009 0.650868V0.778663ZM25.6064 3.19682L25.5808 3.07162C22.5511 3.69226 19.7606 4.78999 17.21 6.36503L17.2772 6.47376L17.3443 6.58249C19.8685 5.02372 22.6308 3.93682 25.6321 3.32201L25.6064 3.19682ZM17.2772 6.47376L17.2102 6.36496C14.6795 7.924 12.6079 9.75719 10.9977 11.8653L11.0992 11.9429L11.2008 12.0204C12.7898 9.94007 14.8369 8.1272 17.3442 6.58256L17.2772 6.47376ZM11.0992 11.9429L10.9975 11.8655C9.40765 13.9559 8.59952 15.8812 8.59952 17.638H8.72731H8.85511C8.85511 15.9595 9.62824 14.0881 11.2009 12.0202L11.0992 11.9429ZM8.72731 17.638H8.59952C8.59952 18.9234 9.06448 19.9833 9.99398 20.8071L10.0787 20.7115L10.1635 20.6159C9.2911 19.8426 8.85511 18.8535 8.85511 17.638H8.72731ZM10.0787 20.7115L9.99586 20.8088C10.9428 21.6157 12.1601 22.0145 13.6366 22.0145V21.8867V21.7589C12.208 21.7589 11.0534 21.3742 10.1616 20.6142L10.0787 20.7115ZM13.6366 21.8867V22.0145C17.1694 22.0145 20.4816 20.543 23.5706 17.6178L23.4827 17.525L23.3949 17.4322C20.3427 20.3225 17.0908 21.7589 13.6366 21.7589V21.8867ZM23.4827 17.525L23.5706 17.6178C26.6593 14.6928 28.2164 11.5501 28.2164 8.19133H28.0886H27.9608C27.9608 11.4618 26.4474 14.5414 23.3949 17.4322L23.4827 17.525ZM28.0886 8.19133H28.2164C28.2164 6.46601 27.7782 4.92722 26.8994 3.57903L26.7924 3.64881L26.6853 3.71859C27.5349 5.02209 27.9608 6.51164 27.9608 8.19133H28.0886ZM26.7924 3.64881L26.7983 3.77647C28.087 3.71613 28.8555 3.68621 29.1091 3.68621V3.55841V3.43062C28.8479 3.43062 28.0719 3.46096 26.7864 3.52116L26.7924 3.64881ZM29.1091 3.55841V3.68621C31.5799 3.68621 35.1473 4.09892 39.8155 4.92722L39.8378 4.80139L39.8602 4.67556C35.1879 3.84655 31.6028 3.43062 29.1091 3.43062V3.55841ZM39.8378 4.80139L39.8149 4.92712C41.8011 5.28878 43.2927 5.5378 44.2885 5.6738L44.3058 5.54718L44.3231 5.42056C43.3332 5.28536 41.8461 5.03718 39.8607 4.67566L39.8378 4.80139ZM44.3058 5.54718L44.2596 5.42803C39.0629 7.44352 34.0899 11.6442 29.3377 18.0135L29.4401 18.09L29.5425 18.1664C34.2778 11.8197 39.2154 7.6585 44.352 5.66632L44.3058 5.54718ZM29.4401 18.09L29.3374 18.0138C26.4335 21.9295 24.0673 24.7316 22.2375 26.4258L22.3244 26.5196L22.4112 26.6134C24.2588 24.9026 26.6364 22.0849 29.5427 18.1661L29.4401 18.09ZM22.3244 26.5196L22.2373 26.4261C18.3423 30.0522 13.9507 31.8609 9.05828 31.8609V31.9887V32.1165C14.0212 32.1165 18.4736 30.2792 22.4115 26.6131L22.3244 26.5196ZM9.05828 31.9887H9.18607V31.6994H9.05828H8.93048V31.9887H9.05828ZM9.05828 31.6994V31.8272C13.8992 31.8272 18.2607 30.0393 22.1463 26.4219L22.0593 26.3284L21.9722 26.2348C18.1294 29.8124 13.8288 31.5716 9.05828 31.5716V31.6994ZM22.0593 26.3284L22.1403 26.4272L22.1409 26.4266L22.0599 26.3278L21.979 26.2289L21.9783 26.2295L22.0593 26.3284ZM22.0599 26.3278L22.1468 26.4216C23.9726 24.7309 26.3371 21.9315 29.2411 18.0158L29.1384 17.9397L29.0358 17.8635C26.1341 21.7761 23.7811 24.56 21.9731 26.234L22.0599 26.3278ZM29.1384 17.9397L29.2475 18.0062L29.2479 18.0057L29.1388 17.9391L29.0297 17.8725L29.0293 17.8731L29.1384 17.9397ZM29.1388 17.9391L29.2412 18.0155C33.7068 12.0304 38.3762 7.94681 43.2597 5.79463L43.2081 5.67769L43.1566 5.56075C38.2196 7.73655 33.518 11.856 29.0363 17.8627L29.1388 17.9391ZM43.2081 5.67769L43.228 5.55145C42.3209 5.40846 41.1724 5.21095 39.7842 4.95816L39.7613 5.08388L39.7384 5.20961C41.1278 5.46261 42.2784 5.66051 43.1882 5.80393L43.2081 5.67769ZM39.7613 5.08388H39.8891V5.0836H39.7613H39.6335V5.08388H39.7613ZM39.7613 5.0836L39.7836 4.95777C35.1187 4.13013 31.5639 3.71989 29.1091 3.71989V3.84769V3.97548C31.541 3.97548 35.0781 4.3825 39.739 5.20943L39.7613 5.0836ZM29.1091 3.84769V3.71989C28.8968 3.71989 28.3103 3.74152 27.343 3.78528L27.3488 3.91294L27.3546 4.04061C28.3244 3.99673 28.904 3.97548 29.1091 3.97548V3.84769ZM27.3488 3.91294L27.2379 3.97653C27.9567 5.22963 28.3139 6.63533 28.3139 8.19133H28.4417H28.5695C28.5695 6.59457 28.2024 5.14439 27.4597 3.84936L27.3488 3.91294ZM28.4417 8.19133H28.3139C28.3139 11.5422 26.7604 14.6871 23.6617 17.6214L23.7496 17.7142L23.8375 17.807C26.9722 14.8385 28.5695 11.6306 28.5695 8.19133H28.4417ZM23.7496 17.7142L23.6617 17.6214C20.5668 20.5523 17.2253 22.0482 13.6366 22.0482V22.176V22.3038C17.3039 22.3038 20.7057 20.7728 23.8375 17.807L23.7496 17.7142ZM13.6366 22.176V22.0482C12.1692 22.0482 10.9504 21.6623 9.99856 20.8908L9.91809 20.99L9.83762 21.0893C10.8438 21.9049 12.1231 22.3038 13.6366 22.3038V22.176ZM9.91809 20.99L9.99979 20.8918L9.90602 20.8138L9.82432 20.9121L9.74261 21.0103L9.83639 21.0883L9.91809 20.99ZM9.82432 20.9121L9.90532 20.8132L9.9029 20.8112L9.82191 20.9101L9.74091 21.0089L9.74332 21.0109L9.82432 20.9121ZM9.82191 20.9101L9.90926 20.8168L9.90684 20.8146L9.81949 20.9078L9.73214 21.0011L9.73455 21.0034L9.82191 20.9101ZM9.81949 20.9078L9.90426 20.8122C8.96255 19.9775 8.50208 18.9146 8.50208 17.638H8.37429H8.24649C8.24649 18.9845 8.73589 20.1182 9.73473 21.0035L9.81949 20.9078ZM8.37429 17.638H8.50208C8.50208 15.8871 9.30788 13.9623 10.9013 11.8671L10.7996 11.7897L10.6979 11.7124C9.0873 13.8301 8.24649 15.8088 8.24649 17.638H8.37429ZM10.7996 11.7897L10.8806 11.8886L10.881 11.8883L10.8 11.7895L10.719 11.6906L10.7186 11.6909L10.7996 11.7897ZM10.8 11.7895L10.9011 11.8676L11.0545 11.669L10.9534 11.5909L10.8523 11.5127L10.6988 11.7113L10.8 11.7895ZM10.9534 11.5909L11.054 11.6697C12.6446 9.64053 14.671 7.86754 17.1319 6.35148L17.0648 6.24268L16.9978 6.13388C14.5143 7.66387 12.4643 9.45636 10.8528 11.512L10.9534 11.5909ZM17.0648 6.24268L17.1313 6.35181L17.3733 6.20435L17.3068 6.09522L17.2403 5.98608L16.9983 6.13355L17.0648 6.24268ZM17.3068 6.09522L17.3728 6.20469C19.7201 4.79093 22.2699 3.77356 25.0215 3.15426L24.9935 3.02958L24.9654 2.90491C22.1879 3.53005 19.6123 4.55746 17.2409 5.98574L17.3068 6.09522ZM24.9935 3.02958L25.0821 2.93752C23.6974 1.60451 21.8116 0.940143 19.4009 0.940143V1.06794V1.19573C21.7629 1.19573 23.579 1.84529 24.9048 3.12165L24.9935 3.02958ZM19.4009 1.06794V0.940143C17.1899 0.940143 14.9421 1.47002 12.6543 2.54124L12.7085 2.65697L12.7627 2.77271C15.021 1.71529 17.232 1.19573 19.4009 1.19573V1.06794ZM12.7085 2.65697L12.6601 2.53872L12.6594 2.539L12.7078 2.65725L12.7563 2.77551L12.757 2.77523L12.7085 2.65697ZM12.7078 2.65725L12.6539 2.54139C10.3847 3.59754 8.38353 5.04231 6.65199 6.87934L6.74498 6.967L6.83798 7.05465C8.54738 5.2411 10.5221 3.81552 12.7618 2.77311L12.7078 2.65725ZM6.74498 6.967L6.65005 6.88145C6.52106 7.02458 6.40755 7.13817 6.31027 7.21788L6.39127 7.31672L6.47226 7.41557C6.58405 7.32398 6.70745 7.19954 6.83992 7.05255L6.74498 6.967ZM6.39127 7.31672L6.31027 7.21788C6.26123 7.25806 6.21058 7.29459 6.15913 7.32221L6.21958 7.43481L6.28003 7.5474C6.3514 7.50909 6.41623 7.46149 6.47226 7.41557L6.39127 7.31672ZM6.21958 7.43481L6.15915 7.3222C6.1136 7.34665 6.03687 7.38103 5.94171 7.38103V7.50882V7.63662C6.09772 7.63662 6.21824 7.58056 6.28001 7.54741L6.21958 7.43481ZM5.94171 7.50882V7.38103C5.84302 7.38103 5.74335 7.35993 5.65903 7.30813L5.59213 7.41701L5.52523 7.5259C5.6596 7.60845 5.80877 7.63662 5.94171 7.63662V7.50882ZM5.59213 7.41701L5.65904 7.30813C5.59741 7.27026 5.5562 7.22354 5.52849 7.17591L5.41803 7.24017L5.30757 7.30443C5.35498 7.38594 5.42515 7.46439 5.52522 7.52589L5.59213 7.41701ZM5.41803 7.24017L5.53278 7.18391L5.50106 7.11922L5.38631 7.17548L5.27157 7.23174L5.30328 7.29643L5.41803 7.24017ZM5.38631 7.17548L5.50458 7.12706L5.48631 7.08243L5.36804 7.13084L5.24977 7.17926L5.26804 7.22389L5.38631 7.17548ZM5.36804 7.13084H5.49584V7.08395H5.36804H5.24025V7.13084H5.36804ZM5.36804 7.08395H5.49584C5.49584 7.02731 5.51594 6.96864 5.54381 6.91264L5.42941 6.85569L5.315 6.79874C5.27941 6.87024 5.24025 6.97035 5.24025 7.08395H5.36804ZM5.42941 6.85569L5.54381 6.91265C5.57238 6.85525 5.6133 6.79245 5.66391 6.72517L5.56179 6.64834L5.45967 6.57151C5.40379 6.6458 5.35304 6.72235 5.31501 6.79874L5.42941 6.85569ZM5.56179 6.64834L5.66391 6.72518C5.76503 6.59079 5.91306 6.42812 6.10433 6.23889L6.01445 6.14804L5.92457 6.05719C5.72957 6.25011 5.5716 6.42276 5.45968 6.57151L5.56179 6.64834ZM6.01445 6.14804L6.10433 6.23889C6.48748 5.85984 7.05849 5.36002 7.81404 4.74091L7.73305 4.64206L7.65205 4.54321C6.89453 5.16393 6.31626 5.6697 5.92458 6.05719L6.01445 6.14804ZM7.73305 4.64206L7.81404 4.74091L7.81473 4.74035L7.73374 4.6415L7.65274 4.54265L7.65205 4.54321L7.73305 4.64206ZM7.73374 4.6415L7.81449 4.74055C11.4642 1.76514 15.3087 0.255589 19.3457 0.255589V0.127794V5.13683e-09C15.2396 5.13683e-09 11.3396 1.53695 7.65299 4.54245L7.73374 4.6415ZM19.3457 0.127794V0.255589C22.3934 0.255589 24.753 1.1094 26.3937 2.81864L26.4859 2.73014L26.5781 2.64164C24.876 0.868551 22.4415 5.13683e-09 19.3457 5.13683e-09V0.127794ZM26.4859 2.73014L26.5141 2.85477C28.7106 2.35695 31.2128 2.10876 34.0184 2.10876V1.98096V1.85317C31.1983 1.85317 28.6766 2.10259 26.4576 2.6055L26.4859 2.73014ZM34.0184 1.98096V2.10876C35.5177 2.10876 36.8908 2.18452 38.1368 2.33691L38.1523 2.21006L38.1678 2.08322C36.9097 1.92935 35.5261 1.85317 34.0184 1.85317V1.98096ZM38.1523 2.21006L38.135 2.33668L38.1371 2.33697L38.1544 2.21035L38.1717 2.08373L38.1696 2.08345L38.1523 2.21006ZM38.1544 2.21035L38.1383 2.33712C39.4417 2.5026 42.6113 3.00996 47.639 3.85732L47.6603 3.7313L47.6815 3.60528C42.6557 2.75823 39.4802 2.24985 38.1705 2.08357L38.1544 2.21035ZM47.6603 3.7313L47.7031 3.85171C51.9383 2.3456 56.0192 1.58896 59.9438 1.58896V1.46117V1.33338C55.986 1.33338 51.8761 2.09646 47.6175 3.61089L47.6603 3.7313ZM59.9438 1.46117V1.58896C61.9664 1.58896 63.5137 1.75094 64.5637 2.08877L64.6028 1.96712L64.642 1.84547C63.5532 1.49515 61.9735 1.33338 59.9438 1.33338V1.46117ZM64.6028 1.96712L64.5637 2.08877C65.0913 2.25856 65.5051 2.47631 65.7869 2.74835L65.8756 2.65641L65.9644 2.56446C65.6438 2.25494 65.1894 2.02161 64.642 1.84547L64.6028 1.96712ZM65.8756 2.65641L65.7869 2.74835C66.0709 3.02254 66.2091 3.34034 66.2091 3.69401H66.3369H66.4647C66.4647 3.26515 66.294 2.8826 65.9644 2.56446L65.8756 2.65641ZM66.3369 3.69401H66.2091C66.2091 4.15079 65.9273 4.56796 65.395 4.93954L65.4681 5.04434L65.5413 5.14913C66.1067 4.75449 66.4647 4.26981 66.4647 3.69401H66.3369ZM65.4681 5.04434L65.395 4.93954C64.8684 5.3071 64.0934 5.63313 63.087 5.92327L63.1224 6.04606L63.1579 6.16886C64.1749 5.87562 64.981 5.54019 65.5413 5.14913L65.4681 5.04434ZM63.1224 6.04606L63.0849 5.92391L63.0822 5.92475L63.1197 6.04691L63.1572 6.16907L63.16 6.16822L63.1224 6.04606ZM63.1197 6.04691L63.0851 5.92387C61.0665 6.49056 58.6106 6.77084 55.724 6.77084V6.89863V7.02643C58.6256 7.02643 61.1062 6.74487 63.1542 6.16995L63.1197 6.04691ZM55.724 6.89863V6.77084C52.8441 6.77084 49.2829 6.45042 45.044 5.81347L45.025 5.93984L45.006 6.06622C49.252 6.70422 52.8268 7.02643 55.724 7.02643V6.89863ZM45.025 5.93984L44.9741 5.82262C42.787 6.77213 40.7767 8.17027 38.9457 10.0236L39.0366 10.1134L39.1275 10.2032C40.9375 8.37113 42.9211 6.99252 45.0759 6.05707L45.025 5.93984ZM39.0366 10.1134L38.9556 10.0146L38.9546 10.0154L39.0356 10.1143L39.1166 10.2131L39.1176 10.2123L39.0366 10.1134ZM39.0356 10.1143L38.945 10.0241C37.0826 11.8943 35.0768 14.5573 32.9283 18.018L33.0369 18.0854L33.1455 18.1528C35.2885 14.7008 37.2826 12.0557 39.1261 10.2044L39.0356 10.1143ZM33.0369 18.0854L32.9283 18.018C30.7782 21.4814 29.1907 23.804 28.1695 24.9757L28.2658 25.0597L28.3622 25.1436C29.3987 23.9543 30.9962 21.6149 33.1455 18.1528L33.0369 18.0854ZM28.2658 25.0597L28.1849 25.1585L28.1852 25.1588L28.2662 25.0599L28.3472 24.9611L28.3468 24.9608L28.2658 25.0597ZM28.2662 25.0599L28.1696 24.9762C27.1619 26.1384 25.7753 27.2658 24.0148 28.3591L24.0823 28.4677L24.1497 28.5762C25.9247 27.4739 27.3334 26.3307 28.3627 25.1437L28.2662 25.0599ZM24.0823 28.4677L24.0136 28.3599L24.0105 28.3619L24.0792 28.4697L24.1479 28.5774L24.151 28.5755L24.0823 28.4677ZM24.0792 28.4697L24.0128 28.3604C19.365 31.1826 14.5257 32.6022 9.49956 32.6022V32.73V32.8578C14.5766 32.8578 19.4613 31.4232 24.1455 28.5789L24.0792 28.4697ZM9.49956 32.73V32.6022C6.81702 32.6022 4.59672 32.1363 2.8565 31.1908L2.79549 31.3031L2.73448 31.4154C4.52357 32.3874 6.78962 32.8578 9.49956 32.8578V32.73ZM2.79549 31.3031L2.84394 31.1848L2.84256 31.1843L2.79411 31.3025L2.74567 31.4208L2.74704 31.4213L2.79549 31.3031ZM2.79411 31.3025L2.85564 31.1905C1.12579 30.2403 0.255589 29.0019 0.255589 27.4914H0.127794H5.52973e-09C5.52973e-09 29.1242 0.950067 30.4354 2.73259 31.4145L2.79411 31.3025ZM0.127794 27.4914H0.255589C0.255589 26.7262 0.532511 26.0592 1.0985 25.4994L1.00864 25.4085L0.918773 25.3177C0.305073 25.9247 5.52973e-09 26.6567 5.52973e-09 27.4914H0.127794ZM1.00864 25.4085L1.0985 25.4994C1.66515 24.939 2.36242 24.6405 3.18369 24.6405V24.5128V24.385C2.29357 24.385 1.53216 24.7111 0.918778 25.3177L1.00864 25.4085ZM3.18369 24.5128V24.6405C3.82459 24.6405 4.34515 24.779 4.70018 25.0832L4.78334 24.9862L4.8665 24.8892C4.44625 24.529 3.85495 24.385 3.18369 24.385V24.5128ZM4.78334 24.9862L4.70017 25.0832C5.04858 25.3819 5.20163 25.8103 5.20163 26.3388H5.32943H5.45722C5.45722 25.76 5.2877 25.2502 4.86651 24.8892L4.78334 24.9862ZM5.32943 26.3388H5.20163C5.20163 26.8498 5.00593 27.2995 4.60365 27.6786L4.69129 27.7716L4.77893 27.8646C5.22974 27.4398 5.45722 26.9239 5.45722 26.3388H5.32943ZM4.69129 27.7716L4.60365 27.6786C4.19786 28.061 3.68394 28.2631 3.07336 28.2631V28.3908V28.5186C3.74516 28.5186 4.32293 28.2943 4.77893 27.8646L4.69129 27.7716ZM3.07336 28.3908V28.2631C2.60238 28.2631 2.20774 28.168 1.93426 27.9488L1.85432 28.0485L1.77437 28.1482C2.11256 28.4193 2.57518 28.5186 3.07336 28.5186V28.3908ZM1.85432 28.0485L1.93427 27.9488C1.73248 27.7869 1.61991 27.5764 1.57494 27.3308L1.44923 27.3538L1.32353 27.3768C1.37821 27.6755 1.51902 27.9434 1.77436 28.1482L1.85432 28.0485ZM1.44923 27.3538L1.32174 27.345C1.31583 27.4302 1.31282 27.5241 1.31282 27.627H1.44061H1.56841C1.56841 27.529 1.57128 27.4411 1.57672 27.3626L1.44923 27.3538ZM1.44061 27.627H1.31282C1.31282 28.7931 2.03628 29.779 3.51246 30.5951L3.57429 30.4833L3.63612 30.3714C2.20249 29.5788 1.56841 28.6629 1.56841 27.627H1.44061ZM3.57429 30.4833L3.51305 30.5954C5.01136 31.4135 6.85523 31.8272 9.05828 31.8272V31.6994V31.5716C6.88656 31.5716 5.08736 31.1638 3.63553 30.3711L3.57429 30.4833ZM9.05828 31.6994H8.93048V31.9887H9.05828H9.18607V31.6994H9.05828ZM9.05828 31.9887V31.8609C6.83075 31.8609 4.95925 31.442 3.43801 30.611L3.37675 30.7231L3.31548 30.8353C4.88323 31.6917 6.79942 32.1165 9.05828 32.1165V31.9887ZM3.37675 30.7231L3.43858 30.6113C1.93366 29.7793 1.21538 28.7822 1.21538 27.627H1.08759H0.959792C0.959792 28.9125 1.76762 29.9795 3.31492 30.835L3.37675 30.7231ZM26.66 7.08395H26.7878C26.7878 5.97308 26.4937 4.94358 25.9083 3.99364L25.7995 4.06069L25.6907 4.12773C26.2515 5.03778 26.5322 6.02092 26.5322 7.08395H26.66ZM25.7995 4.06069L25.7808 3.93427C21.8182 4.51949 18.1112 6.22298 14.6606 9.06503L14.7419 9.16368L14.8231 9.26232C18.2417 6.44658 21.9063 4.76483 25.8182 4.18711L25.7995 4.06069ZM14.7419 9.16368L14.6606 9.06503C11.1365 11.9677 9.39383 14.809 9.39383 17.5928H9.52162H9.64942C9.64942 14.9223 11.3217 12.1463 14.8231 9.26232L14.7419 9.16368ZM9.52162 17.5928H9.39383C9.39383 18.6484 9.78624 19.5223 10.5558 20.2259L10.6421 20.1315L10.7283 20.0372C10.0111 19.3816 9.64942 18.5759 9.64942 17.5928H9.52162ZM10.6421 20.1315L10.557 20.2269C11.3446 20.9297 12.2935 21.2732 13.416 21.2732V21.1454V21.0176C12.351 21.0176 11.4642 20.6938 10.7272 20.0362L10.6421 20.1315ZM13.416 21.1454H13.2882V21.4347H13.416H13.5438V21.1454H13.416ZM13.416 21.4347V21.3069C12.2495 21.3069 11.2693 20.9476 10.4672 20.232L10.3821 20.3273L10.297 20.4227C11.1498 21.1835 12.1921 21.5625 13.416 21.5625V21.4347ZM10.3821 20.3273L10.4683 20.2329C9.68549 19.5186 9.29639 18.6412 9.29639 17.5928H9.1686H9.0408C9.0408 18.7139 9.46072 19.6595 10.296 20.4217L10.3821 20.3273ZM9.1686 17.5928H9.29639C9.29639 14.817 11.0355 11.9719 14.5728 9.05836L14.4916 8.95972L14.4103 8.86107C10.8503 11.7933 9.0408 14.7036 9.0408 17.5928H9.1686ZM14.4916 8.95972L14.5728 9.05836C18.1052 6.14893 21.917 4.41979 26.0097 3.86585L25.9925 3.73921L25.9754 3.61257C21.8307 4.17355 17.9753 5.92473 14.4103 8.86107L14.4916 8.95972ZM25.9925 3.73921L25.8861 3.8099C26.5528 4.81392 26.8852 5.90433 26.8852 7.08395H27.013H27.1408C27.1408 5.85295 26.7929 4.71353 26.099 3.66852L25.9925 3.73921ZM27.013 7.08395H26.8852C26.8852 10.3264 25.4158 13.5132 22.4522 16.6462L22.545 16.734L22.6379 16.8218C25.6316 13.657 27.1408 10.4104 27.1408 7.08395H27.013ZM22.545 16.734L22.4524 16.6459C19.4882 19.7645 16.4764 21.3069 13.416 21.3069V21.4347V21.5625C16.5703 21.5625 19.6445 19.971 22.6376 16.822L22.545 16.734ZM13.416 21.4347H13.5438V21.1454H13.416H13.2882V21.4347H13.416ZM13.416 21.1454V21.2732C16.4118 21.2732 19.3949 19.7629 22.3591 16.6443L22.2665 16.5563L22.1738 16.4682C19.2386 19.5563 16.3179 21.0176 13.416 21.0176V21.1454ZM22.2665 16.5563L22.3593 16.6441C25.3153 13.519 26.7878 10.3333 26.7878 7.08395H26.66H26.5322C26.5322 10.2493 25.0994 13.3753 22.1736 16.4685L22.2665 16.5563ZM65.1896 3.73921H65.3174C65.3174 3.57021 65.2191 3.40903 64.9929 3.24969L64.9193 3.35417L64.8457 3.45865C65.0369 3.59332 65.0618 3.6868 65.0618 3.73921H65.1896ZM64.9193 3.35417L64.9929 3.24969C64.7899 3.10671 64.4873 2.96806 64.0742 2.83765L64.0357 2.95952L63.9972 3.08139C64.3986 3.20807 64.6732 3.33714 64.8457 3.45865L64.9193 3.35417ZM64.0357 2.95952L64.0725 2.83715L63.8905 2.78235L63.8537 2.90472L63.8168 3.02709L63.9989 3.08189L64.0357 2.95952ZM63.8537 2.90472L63.8935 2.78328L63.8917 2.78272L63.8519 2.90415L63.8121 3.02559L63.8139 3.02616L63.8537 2.90472ZM63.8519 2.90415L63.8878 2.7815C62.8934 2.49049 61.6184 2.34132 60.0541 2.34132V2.46911V2.59691C61.6044 2.59691 62.8532 2.74502 63.8161 3.0268L63.8519 2.90415ZM60.0541 2.46911V2.34132C56.5441 2.34132 53.1292 2.8858 49.8079 3.97599L49.8477 4.09741L49.8876 4.21883C53.1831 3.13713 56.571 2.59691 60.0541 2.59691V2.46911ZM49.8477 4.09741L49.8291 4.22384C50.452 4.31575 51.2831 4.4405 52.3215 4.59807L52.3406 4.47172L52.3598 4.34537C51.3213 4.18778 50.4898 4.06297 49.8664 3.97099L49.8477 4.09741ZM52.3406 4.47172L52.3177 4.59745L52.3208 4.59801L52.3437 4.47228L52.3666 4.34656L52.3635 4.34599L52.3406 4.47172ZM52.3437 4.47228L52.3237 4.5985C55.2546 5.06381 57.8493 5.2953 60.1093 5.2953V5.1675V5.03971C57.866 5.03971 55.2852 4.80988 52.3638 4.34607L52.3437 4.47228ZM60.1093 5.1675H59.9815V5.45678H60.1093H60.2371V5.1675H60.1093ZM60.1093 5.45678V5.32898C57.8377 5.32898 55.2337 5.09628 52.2966 4.62998L52.2765 4.75619L52.2565 4.8824C55.2031 5.35022 57.821 5.58457 60.1093 5.58457V5.45678ZM52.2765 4.75619L52.2957 4.62984C50.3105 4.3286 49.0862 4.14756 48.625 4.08709L48.6083 4.2138L48.5917 4.34051C49.0498 4.40057 50.271 4.58113 52.2573 4.88254L52.2765 4.75619ZM48.6083 4.2138L48.6524 4.33377C52.334 2.98297 56.1344 2.30763 60.0541 2.30763V2.17984V2.05204C56.1043 2.05204 52.2742 2.73268 48.5643 4.09383L48.6083 4.2138ZM60.0541 2.17984V2.30763C61.6284 2.30763 62.9207 2.45776 63.9346 2.75448L63.9705 2.63183L64.0064 2.50918C62.961 2.20324 61.6424 2.05204 60.0541 2.05204V2.17984ZM63.9705 2.63183L63.9352 2.75465C64.4538 2.90373 64.831 3.06657 65.076 3.23915C65.3208 3.4116 65.4148 3.5793 65.4148 3.73921H65.5426H65.6704C65.6704 3.46219 65.5024 3.22687 65.2232 3.03019C64.9442 2.83364 64.5354 2.66126 64.0059 2.50901L63.9705 2.63183ZM65.5426 3.73921H65.4148C65.4148 3.91761 65.3146 4.10269 65.0652 4.29299C64.8152 4.48373 64.4309 4.66666 63.9035 4.83805L63.943 4.95959L63.9825 5.08113C64.5215 4.90598 64.937 4.71226 65.2202 4.4962C65.504 4.27971 65.6704 4.02787 65.6704 3.73921H65.5426ZM63.943 4.95959L63.905 4.83755C62.8542 5.16416 61.5898 5.32898 60.1093 5.32898V5.45678V5.58457C61.6075 5.58457 62.8989 5.41793 63.9809 5.08162L63.943 4.95959ZM60.1093 5.45678H60.2371V5.1675H60.1093H59.9815V5.45678H60.1093ZM60.1093 5.1675V5.2953C61.5745 5.2953 62.8193 5.13231 63.8501 4.81271L63.8123 4.69065L63.7745 4.56859C62.7748 4.87854 61.5568 5.03971 60.1093 5.03971V5.1675ZM63.8123 4.69065L63.8518 4.81219C64.3706 4.64362 64.7415 4.46618 64.9796 4.28462L64.9021 4.18301L64.8246 4.0814C64.6198 4.23757 64.2802 4.40425 63.7728 4.56911L63.8123 4.69065ZM64.9021 4.18301L64.9796 4.28461C65.2131 4.10648 65.3174 3.92634 65.3174 3.73921H65.1896H65.0618C65.0618 3.81659 65.0231 3.9299 64.8245 4.08141L64.9021 4.18301Z" fill="var(--stroke-0, #DB1C2E)" mask="url(#path-10-outside-1_0_18)"/>
</g>
</g>
</svg>
