<svg preserveAspectRatio="none" width="100%" height="100%" overflow="visible" style="display: block;" viewBox="0 0 130.406 31.312" fill="none" xmlns="http://www.w3.org/2000/svg">
<g id="Frame 123265">
<path id="Vector" d="M118.823 9.62006C120.877 9.62006 122.566 9.83697 123.887 10.2744H123.886C125.231 10.6928 126.235 11.3316 126.89 12.1953C127.545 13.0586 127.871 14.1408 127.871 15.4365C127.871 16.5229 127.627 17.4342 127.134 18.165C126.706 18.8003 126.171 19.3263 125.529 19.7421L125.247 19.914C124.531 20.3175 123.772 20.6396 122.97 20.8837L129.689 29.8808L129.765 29.9833H125.977L125.958 29.957L120 21.623H115.19V29.9833H111.953V9.62006H118.823ZM115.19 19.3408H118.823C120.154 19.3408 121.24 19.199 122.084 18.9189C122.927 18.6197 123.537 18.1923 123.919 17.6396L123.92 17.6376C124.325 17.0839 124.529 16.3892 124.529 15.5498C124.529 14.6725 124.313 13.9802 123.887 13.4658L123.886 13.4638C123.483 12.9488 122.851 12.5674 121.985 12.3242C121.117 12.0807 120.006 11.958 118.65 11.958H115.19V19.3408Z" fill="var(--fill-0, #DB1C2E)" stroke="var(--stroke-0, #DB1C2E)" stroke-width="0.127794"/>
<path id="Vector_2" d="M106.776 9.62006V11.9863H96.0433V18.1787H106.151V20.5175H96.0433V27.6162H106.776V29.9833H92.7904V9.62006H106.776Z" fill="var(--fill-0, #DB1C2E)" stroke="var(--stroke-0, #DB1C2E)" stroke-width="0.127794"/>
<path id="Vector_3" d="M70.1232 9.62006L70.1417 9.64448L83.2511 26.3691H83.2882C83.2674 26.1486 83.2464 25.8594 83.2257 25.5019C83.2027 25.086 83.1794 24.632 83.1564 24.1406C83.1334 23.6305 83.11 23.111 83.0871 22.582C83.0641 22.0523 83.0529 21.5599 83.0529 21.1054V9.62006H86.0753V29.9833H82.3625L82.3429 29.9589L69.1994 13.1767H69.1603C69.1817 13.4982 69.2034 13.8523 69.2248 14.2392C69.2709 14.6563 69.3052 15.1113 69.3283 15.6035C69.3512 16.0759 69.3746 16.5679 69.3976 17.0781C69.4206 17.5891 69.4318 18.1003 69.4318 18.6113V29.9833H66.4445V9.62006H70.1232Z" fill="var(--fill-0, #DB1C2E)" stroke="var(--stroke-0, #DB1C2E)" stroke-width="0.127794"/>
<path id="Vector_4" d="M44.4592 9.62006L44.4777 9.64448L57.5871 26.3691H57.6242C57.6034 26.1486 57.5824 25.8594 57.5617 25.5019C57.5387 25.086 57.5153 24.632 57.4924 24.1406C57.4694 23.6305 57.446 23.111 57.423 22.582C57.4 22.0523 57.3888 21.5599 57.3888 21.1054V9.62006H60.4113V29.9833H56.6984L56.6789 29.9589L43.5353 13.1767H43.4963C43.5177 13.4982 43.5393 13.8523 43.5607 14.2392C43.6068 14.6563 43.6412 15.1113 43.6642 15.6035C43.6872 16.0759 43.7106 16.5679 43.7336 17.0781C43.7566 17.5891 43.7678 18.1003 43.7678 18.6113V29.9833H40.7804V9.62006H44.4592Z" fill="var(--fill-0, #DB1C2E)" stroke="var(--stroke-0, #DB1C2E)" stroke-width="0.127794"/>
<path id="Stroke" d="M118.785 9.33918C120.85 9.3392 122.574 9.55621 123.942 10.0072H123.941C125.208 10.4008 126.202 10.9896 126.896 11.7825L127.031 11.9447L127.097 12.0286L127.098 12.0296C127.791 12.9428 128.124 14.073 128.124 15.3978V15.3988L128.121 15.6029V15.6038C128.092 16.628 127.841 17.5127 127.349 18.2425C126.839 18.9979 126.179 19.6098 125.369 20.0726L125.366 20.0755C124.748 20.4237 124.097 20.711 123.415 20.9437L130.202 30.0218L130.278 30.1243H125.7L125.682 30.097L119.757 21.8216H115.517V30.1243H111.61V9.33918H118.785ZM112.081 29.7152H115.045V21.4124H120.02L120.039 21.4388L125.964 29.7152H129.41L122.753 20.8109L122.698 20.7376L122.786 20.7113C123.555 20.4839 124.283 20.1828 124.972 19.8079L125.108 19.7318C125.809 19.3317 126.39 18.8097 126.851 18.1654L126.942 18.0345C127.385 17.3783 127.622 16.566 127.65 15.5941L127.653 15.3978L127.649 15.1624C127.612 14.0025 127.296 13.0342 126.704 12.2552C126.073 11.4245 125.101 10.8029 123.781 10.3929L123.78 10.3919C122.717 10.0404 121.405 9.83232 119.846 9.76887L119.162 9.75032L118.784 9.74836H112.081V29.7152ZM118.613 11.8157C119.968 11.8158 121.085 11.9379 121.963 12.1839C122.841 12.4302 123.497 12.8205 123.92 13.3597H123.919C124.365 13.8994 124.586 14.6184 124.586 15.5101C124.586 16.3649 124.377 17.0826 123.955 17.6585L123.954 17.6575C123.555 18.2337 122.926 18.6728 122.07 18.9759H122.067L121.906 19.0277H121.905C121.075 19.2774 120.034 19.4017 118.785 19.4017H115.045V11.8157H118.613ZM115.517 18.9925H118.785C119.919 18.9925 120.849 18.8868 121.589 18.6868L121.894 18.595C122.674 18.3181 123.215 17.9316 123.552 17.4456L123.554 17.4427L123.557 17.4398L123.558 17.4378C123.92 16.9427 124.114 16.3068 124.114 15.5101C124.114 14.6739 123.907 14.0473 123.535 13.598V13.597L123.532 13.5941V13.5931L123.529 13.5902V13.5892C123.2 13.17 122.689 12.8415 121.965 12.6165V12.6156L121.817 12.5726V12.5736C121.054 12.3596 120.071 12.2399 118.858 12.2259V12.2249H115.517V18.9925Z" fill="var(--fill-0, #DB1C2E)" stroke="var(--stroke-0, #DB1C2E)" stroke-width="0.127794"/>
<path id="Stroke_2" d="M106.946 9.33918V12.2532H96.4746V17.8382H106.337V20.7239H96.4746V27.2103H106.946V30.1243H92.6191V9.33918H106.946ZM93.085 29.7152H106.479V27.6195H96.0078V20.3148H105.87V18.2474H96.0078V11.8441H106.479V9.74836H93.085V29.7152Z" fill="var(--fill-0, #DB1C2E)" stroke="var(--stroke-0, #DB1C2E)" stroke-width="0.127794"/>
<path id="Stroke_3" d="M70.3151 9.33918L70.3337 9.3636L70.4352 9.4925L82.8737 25.2542C82.8649 25.0936 82.857 24.9276 82.8483 24.7562L82.8131 24.0511V24.0501L82.7448 22.5023C82.7217 21.9734 82.7096 21.4809 82.7096 21.0257V9.33918H86.4206V30.1243H82.1764L82.1569 30.0999L82.0544 29.971L69.57 14.138C69.5711 14.1572 69.5728 14.1764 69.5739 14.1956L69.6344 14.847C69.6517 15.073 69.6659 15.3082 69.6774 15.5521L69.7458 17.0159C69.7689 17.5269 69.7809 18.0382 69.7809 18.5491V30.1243H66.1051V9.33918H70.3151ZM66.5768 29.7152H69.3083V18.5491C69.3083 18.1702 69.3016 17.7914 69.2887 17.4124L69.2741 17.0325C69.2511 16.5262 69.2287 16.0385 69.2057 15.5697C69.1828 15.083 69.148 14.6332 69.1022 14.222V14.2191C69.0793 13.8066 69.0558 13.4314 69.0329 13.0941L69.029 13.0257H69.2653L69.2848 13.0501L82.4264 29.7152H85.9479V9.74836H83.1823V21.0257L83.1842 21.3704C83.1885 21.7213 83.1993 22.0934 83.2165 22.4866C83.2394 23.0119 83.2628 23.528 83.2858 24.0345C83.3088 24.5221 83.3312 24.9726 83.3542 25.3851C83.3771 25.7785 83.3997 26.0872 83.4225 26.3109L83.4303 26.3812H83.1901L83.1715 26.3568L70.0651 9.74836H66.5768V29.7152Z" fill="var(--fill-0, #DB1C2E)" stroke="var(--stroke-0, #DB1C2E)" stroke-width="0.127794"/>
<path id="Stroke_4" d="M44.6511 9.33918L44.6696 9.3636L44.7712 9.4925L57.2096 25.2542C57.2009 25.0936 57.193 24.9276 57.1843 24.7562L57.1491 24.0511V24.0501L57.0807 22.5023C57.0576 21.9734 57.0456 21.4809 57.0456 21.0257V9.33918H60.7565V30.1243H56.5124L56.4928 30.0999L56.3903 29.971L43.9059 14.138C43.907 14.1572 43.9088 14.1764 43.9098 14.1956L43.9704 14.847C43.9877 15.073 44.0019 15.3082 44.0134 15.5521L44.0817 17.0159C44.1049 17.5269 44.1169 18.0382 44.1169 18.5491V30.1243H40.4411V9.33918H44.6511ZM40.9128 29.7152H43.6442V18.5491C43.6442 18.1702 43.6376 17.7914 43.6247 17.4124L43.61 17.0325C43.5871 16.5262 43.5646 16.0385 43.5417 15.5697C43.5188 15.083 43.4839 14.6332 43.4382 14.222V14.2191C43.4152 13.8066 43.3918 13.4314 43.3688 13.0941L43.3649 13.0257H43.6012L43.6208 13.0501L56.7624 29.7152H60.2839V9.74836H57.5182V21.0257L57.5202 21.3704C57.5245 21.7213 57.5352 22.0934 57.5524 22.4866C57.5754 23.0119 57.5988 23.528 57.6218 24.0345C57.6447 24.5221 57.6672 24.9726 57.6901 25.3851C57.7131 25.7785 57.7357 26.0872 57.7585 26.3109L57.7663 26.3812H57.5261L57.5075 26.3568L44.4011 9.74836H40.9128V29.7152Z" fill="var(--fill-0, #DB1C2E)" stroke="var(--stroke-0, #DB1C2E)" stroke-width="0.127794"/>
<path id="I" d="M52.0209 0.485654C52.1755 0.485654 52.3011 0.50338 52.39 0.5462C52.4353 0.568107 52.4737 0.598329 52.5004 0.637021C52.5273 0.676109 52.5404 0.720735 52.5404 0.768857C52.5404 0.86119 52.4737 0.94928 52.3793 1.03155C52.2813 1.11681 52.1375 1.20901 51.9505 1.3089C51.5761 1.50897 51.0174 1.74535 50.2757 2.0169H50.2748C48.8106 2.5448 47.1334 3.02058 45.2435 3.44561C40.8123 6.04953 36.42 10.6955 32.0687 17.389L32.0677 17.388L31.6976 17.9593C31.8849 17.9798 32.098 17.9935 32.3373 17.9935C34.5039 17.9934 36.5007 17.4464 38.3295 16.3528C40.1588 15.2588 41.2613 13.9443 41.6488 12.4114V12.4085C41.6857 12.2874 41.7315 12.1894 41.7884 12.1214C41.8467 12.0519 41.9197 12.011 42.0052 12.011C42.07 12.0111 42.1296 12.029 42.1722 12.0755C42.2138 12.121 42.2298 12.1833 42.2298 12.2503C42.2298 13.1141 41.6973 14.0782 40.6576 15.14L40.4427 15.3538C38.3225 17.4492 35.5829 18.4954 32.2298 18.4954C31.9203 18.4954 31.6189 18.4805 31.3255 18.4534L30.597 19.6312H30.5961C29.4549 21.4286 28.4288 22.8246 27.517 23.8167L27.1332 24.2171C26.1996 25.1608 24.9267 26.103 23.3168 27.0433C18.8267 29.6584 14.2269 30.9671 9.51891 30.9671C6.88779 30.9671 4.70755 30.5113 2.9818 29.596L2.98082 29.595C1.2728 28.6794 0.403837 27.4961 0.403672 26.0423C0.403672 25.2636 0.668704 24.6021 1.19859 24.0618C1.746 23.5073 2.40494 23.2288 3.17223 23.2288C3.75981 23.2288 4.21253 23.3545 4.51891 23.6175C4.82718 23.8824 4.97691 24.2772 4.97691 24.7884C4.97685 25.2922 4.77131 25.7203 4.36559 26.0687C3.97792 26.4169 3.49809 26.5901 2.93102 26.5901C2.50482 26.5901 2.1735 26.506 1.94762 26.3284C1.71891 26.1486 1.60885 25.8806 1.60875 25.5364V25.096C1.60874 25.0377 1.59632 25.0015 1.58043 24.9798C1.56598 24.96 1.54332 24.9454 1.50426 24.9398C1.44066 24.9411 1.38676 24.9604 1.3402 24.9964C1.29087 25.0347 1.24563 25.0952 1.20836 25.1819C1.13329 25.3568 1.09312 25.6272 1.09312 25.9983C1.09331 27.2279 1.82264 28.2729 3.30992 29.1312C4.7976 29.9748 6.65249 30.3987 8.87633 30.3987C14.2305 30.3987 19.0534 28.2014 23.3461 23.7982C24.6008 22.5064 26.2857 20.514 28.4027 17.8216C26.9201 17.2806 25.7985 16.5781 25.0443 15.7073C24.275 14.819 23.89 13.7608 23.89 12.5364C23.8901 11.054 24.3985 9.76083 25.4134 8.66046C26.4271 7.5615 27.9442 6.65688 29.9584 5.94366C32.0003 5.2081 35.2112 4.5401 39.5863 3.93878L42.5296 3.54327L45.0336 3.10577C46.0009 2.5184 47.2519 1.94029 48.7845 1.36944L49.3461 1.16241C49.8843 0.969614 50.3556 0.817819 50.7591 0.707333C51.2961 0.560355 51.7176 0.485695 52.0209 0.485654ZM44.0375 3.69757C43.6629 3.76803 43.1858 3.85965 42.6068 3.97589L42.6078 3.97686C41.9464 4.12366 40.9818 4.32135 39.7142 4.57061C35.3626 5.42017 31.8985 6.67244 29.3187 8.32354H29.3177C26.7541 9.96125 25.4916 11.7262 25.4916 13.6146C25.4916 14.5246 25.7617 15.2978 26.3002 15.9378C26.8322 16.5701 27.63 17.0753 28.6986 17.4525C33.331 11.3882 38.4445 6.80327 44.0375 3.69757Z" fill="var(--fill-0, #DB1C2E)" stroke="var(--stroke-0, #DB1C2E)" stroke-width="0.127794"/>
<g id="I (Stroke)">
<mask id="path-10-outside-1_0_55" maskUnits="userSpaceOnUse" x="-0.872206" y="-0.872206" width="54" height="33" fill="black">
<rect fill="white" x="-0.872206" y="-0.872206" width="54" height="33"/>
<path d="M1.03592 25.9742C1.03592 25.223 1.19712 24.8474 1.51954 24.8474C1.62701 24.8621 1.68074 24.9358 1.68074 25.0684V25.5102C1.68074 26.1731 2.10167 26.5045 2.94352 26.5045C3.49878 26.5045 3.96448 26.3351 4.34063 25.9963C4.73469 25.6575 4.93172 25.2451 4.93172 24.759C4.93172 23.7574 4.34959 23.2566 3.18533 23.2566C2.43303 23.2566 1.78821 23.5291 1.25086 24.0741C0.731419 24.6044 0.471699 25.2525 0.471699 26.0184C0.471699 27.4472 1.32251 28.6182 3.02412 29.5315C4.74364 30.4447 6.91992 30.9014 9.55294 30.9014C14.2637 30.9014 18.867 29.5904 23.3629 26.9685C24.9749 26.0258 26.2467 25.0831 27.1781 24.1404C28.1811 23.1387 29.3364 21.6068 30.644 19.5447L31.3963 18.3295C31.7008 18.3589 32.0142 18.3736 32.3367 18.3736C35.6861 18.3736 38.4177 17.3278 40.5313 15.2362C41.7134 14.0873 42.3045 13.0635 42.3045 12.165C42.3045 12.0472 42.2508 11.9883 42.1433 11.9883C42.0179 11.9883 41.9194 12.1061 41.8478 12.3418C41.4537 13.9031 40.3342 15.2362 38.4893 16.3409C36.6444 17.4457 34.6294 17.998 32.4441 17.998V17.7152C34.5532 17.7152 36.4979 17.1834 38.2868 16.1122C40.0756 15.0411 41.1372 13.765 41.5109 12.2843L41.5143 12.2733C41.5541 12.1423 41.6087 12.016 41.6919 11.9164C41.7784 11.813 41.9269 11.7054 42.1433 11.7054C42.281 11.7054 42.4341 11.7476 42.5393 11.8629C42.6304 11.9629 42.6484 12.0789 42.6484 12.165C42.6484 13.1621 41.9962 14.2491 40.7956 15.4165L40.7959 15.4168C38.616 17.5741 35.7869 18.6565 32.3367 18.6565C32.085 18.6565 31.838 18.6476 31.5958 18.6302L30.9506 19.6731L30.9489 19.6753C29.6382 21.7425 28.4701 23.2943 27.4447 24.3185C26.4884 25.2864 25.1914 26.2463 23.562 27.1991H23.5617C19.0179 29.849 14.3465 31.1842 9.55294 31.1842C6.87247 31.1842 4.62641 30.7192 2.83739 29.769L2.83605 29.7685C1.05633 28.8133 0.127794 27.5602 0.127794 26.0184C0.127794 25.1965 0.408381 24.4836 0.983191 23.8968L0.983863 23.8959C1.57662 23.2948 2.31465 22.9738 3.18533 22.9738C3.82446 22.9738 4.36602 23.1118 4.74364 23.4367C5.1185 23.7591 5.27562 24.2177 5.27562 24.759C5.27562 25.315 5.04655 25.7981 4.58882 26.1916C4.14871 26.5856 3.59327 26.7873 2.94352 26.7873C2.47328 26.7873 2.05676 26.695 1.75866 26.4603C1.55979 26.3037 1.43984 26.1042 1.38117 25.8778C1.38052 25.909 1.37982 25.9411 1.37982 25.9742C1.37982 27.1297 2.05667 28.1176 3.48826 28.9452C4.9236 29.7602 6.72309 30.1767 8.90812 30.1767V30.4595C6.66915 30.4595 4.79738 30.0323 3.2928 29.178C1.78821 28.3089 1.03592 27.241 1.03592 25.9742ZM52.6485 0.631555C52.6485 0.484256 52.4963 0.410607 52.1918 0.410607C51.6007 0.410607 50.526 0.705204 48.9677 1.2944C47.4273 1.86886 46.1735 2.45069 45.2062 3.03988L42.6807 3.48178L39.7252 3.87948C35.3369 4.48341 32.1217 5.15361 30.0798 5.89011C26.0496 7.3189 24.0346 9.50628 24.0346 12.4522C24.0346 14.8827 25.5571 16.6429 28.6021 17.7329C26.4526 20.4726 24.7421 22.498 23.4703 23.809C19.1536 28.2426 14.2995 30.4595 8.90812 30.4595V30.1767C14.1669 30.1767 18.9306 28.0193 23.202 23.6322C24.4201 22.3765 26.0501 20.4516 28.0963 17.8536C26.711 17.3116 25.6377 16.6163 24.8963 15.7593C24.0886 14.8254 23.6907 13.7185 23.6907 12.4522C23.6907 10.9224 24.2156 9.5781 25.2718 8.43155C26.3245 7.28888 27.8897 6.35877 29.9417 5.63104L30.1402 5.56089C32.2283 4.83785 35.4113 4.1864 39.6685 3.60054L39.6698 3.60026L42.6169 3.20366L45.0632 2.77557C46.047 2.18374 47.3031 1.6045 48.8256 1.03672C49.6103 0.740089 50.2804 0.515025 50.8336 0.36338C51.3801 0.213588 51.8393 0.127794 52.1918 0.127794C52.3665 0.127794 52.5541 0.14722 52.7087 0.221973C52.8916 0.310486 52.9924 0.459425 52.9924 0.631555C52.9924 0.804925 52.8698 0.94486 52.7594 1.04114C52.6397 1.14547 52.4746 1.24965 52.2784 1.35461C51.884 1.56563 51.3072 1.80848 50.5586 2.0829L50.5569 2.08373C49.0855 2.61495 47.4055 3.09304 45.5189 3.51962C41.1383 6.10989 36.7694 10.7324 32.425 17.4238L32.2382 17.7122C32.304 17.7141 32.3726 17.7152 32.4441 17.7152V17.998C32.1575 17.998 31.9068 17.9833 31.6918 17.9538L32.1217 17.291C36.4922 10.5595 40.9074 5.88274 45.3674 3.26083C47.2661 2.83367 48.9498 2.35495 50.4185 1.82467C51.9052 1.27967 52.6485 0.881962 52.6485 0.631555ZM44.5614 3.43759C38.8117 6.56031 33.5636 11.237 28.817 17.4678C26.6139 16.7018 25.5123 15.3908 25.5123 13.5349C25.5123 11.6053 26.8019 9.81561 29.3812 8.16587C31.9784 6.50139 35.4622 5.24199 39.8327 4.38766C41.1044 4.13726 42.0717 3.9384 42.7344 3.7911C43.5404 3.62908 44.1494 3.51124 44.5614 3.43759ZM25.8562 13.5349C25.8562 14.4151 26.1164 15.1485 26.6212 15.7493C27.0836 16.2995 27.7655 16.755 28.6853 17.1095C32.9964 11.4952 37.7265 7.13939 42.8808 4.05293C42.8608 4.05694 42.8406 4.06073 42.8204 4.0648C42.1529 4.2131 41.1829 4.41262 39.9126 4.66274H39.9123C35.7089 5.48442 32.3549 6.67932 29.8339 8.23712L29.5925 8.38902C27.0621 10.0075 25.8562 11.7234 25.8562 13.5349Z"/>
</mask>
<path d="M1.03592 25.9742C1.03592 25.223 1.19712 24.8474 1.51954 24.8474C1.62701 24.8621 1.68074 24.9358 1.68074 25.0684V25.5102C1.68074 26.1731 2.10167 26.5045 2.94352 26.5045C3.49878 26.5045 3.96448 26.3351 4.34063 25.9963C4.73469 25.6575 4.93172 25.2451 4.93172 24.759C4.93172 23.7574 4.34959 23.2566 3.18533 23.2566C2.43303 23.2566 1.78821 23.5291 1.25086 24.0741C0.731419 24.6044 0.471699 25.2525 0.471699 26.0184C0.471699 27.4472 1.32251 28.6182 3.02412 29.5315C4.74364 30.4447 6.91992 30.9014 9.55294 30.9014C14.2637 30.9014 18.867 29.5904 23.3629 26.9685C24.9749 26.0258 26.2467 25.0831 27.1781 24.1404C28.1811 23.1387 29.3364 21.6068 30.644 19.5447L31.3963 18.3295C31.7008 18.3589 32.0142 18.3736 32.3367 18.3736C35.6861 18.3736 38.4177 17.3278 40.5313 15.2362C41.7134 14.0873 42.3045 13.0635 42.3045 12.165C42.3045 12.0472 42.2508 11.9883 42.1433 11.9883C42.0179 11.9883 41.9194 12.1061 41.8478 12.3418C41.4537 13.9031 40.3342 15.2362 38.4893 16.3409C36.6444 17.4457 34.6294 17.998 32.4441 17.998V17.7152C34.5532 17.7152 36.4979 17.1834 38.2868 16.1122C40.0756 15.0411 41.1372 13.765 41.5109 12.2843L41.5143 12.2733C41.5541 12.1423 41.6087 12.016 41.6919 11.9164C41.7784 11.813 41.9269 11.7054 42.1433 11.7054C42.281 11.7054 42.4341 11.7476 42.5393 11.8629C42.6304 11.9629 42.6484 12.0789 42.6484 12.165C42.6484 13.1621 41.9962 14.2491 40.7956 15.4165L40.7959 15.4168C38.616 17.5741 35.7869 18.6565 32.3367 18.6565C32.085 18.6565 31.838 18.6476 31.5958 18.6302L30.9506 19.6731L30.9489 19.6753C29.6382 21.7425 28.4701 23.2943 27.4447 24.3185C26.4884 25.2864 25.1914 26.2463 23.562 27.1991H23.5617C19.0179 29.849 14.3465 31.1842 9.55294 31.1842C6.87247 31.1842 4.62641 30.7192 2.83739 29.769L2.83605 29.7685C1.05633 28.8133 0.127794 27.5602 0.127794 26.0184C0.127794 25.1965 0.408381 24.4836 0.983191 23.8968L0.983863 23.8959C1.57662 23.2948 2.31465 22.9738 3.18533 22.9738C3.82446 22.9738 4.36602 23.1118 4.74364 23.4367C5.1185 23.7591 5.27562 24.2177 5.27562 24.759C5.27562 25.315 5.04655 25.7981 4.58882 26.1916C4.14871 26.5856 3.59327 26.7873 2.94352 26.7873C2.47328 26.7873 2.05676 26.695 1.75866 26.4603C1.55979 26.3037 1.43984 26.1042 1.38117 25.8778C1.38052 25.909 1.37982 25.9411 1.37982 25.9742C1.37982 27.1297 2.05667 28.1176 3.48826 28.9452C4.9236 29.7602 6.72309 30.1767 8.90812 30.1767V30.4595C6.66915 30.4595 4.79738 30.0323 3.2928 29.178C1.78821 28.3089 1.03592 27.241 1.03592 25.9742ZM52.6485 0.631555C52.6485 0.484256 52.4963 0.410607 52.1918 0.410607C51.6007 0.410607 50.526 0.705204 48.9677 1.2944C47.4273 1.86886 46.1735 2.45069 45.2062 3.03988L42.6807 3.48178L39.7252 3.87948C35.3369 4.48341 32.1217 5.15361 30.0798 5.89011C26.0496 7.3189 24.0346 9.50628 24.0346 12.4522C24.0346 14.8827 25.5571 16.6429 28.6021 17.7329C26.4526 20.4726 24.7421 22.498 23.4703 23.809C19.1536 28.2426 14.2995 30.4595 8.90812 30.4595V30.1767C14.1669 30.1767 18.9306 28.0193 23.202 23.6322C24.4201 22.3765 26.0501 20.4516 28.0963 17.8536C26.711 17.3116 25.6377 16.6163 24.8963 15.7593C24.0886 14.8254 23.6907 13.7185 23.6907 12.4522C23.6907 10.9224 24.2156 9.5781 25.2718 8.43155C26.3245 7.28888 27.8897 6.35877 29.9417 5.63104L30.1402 5.56089C32.2283 4.83785 35.4113 4.1864 39.6685 3.60054L39.6698 3.60026L42.6169 3.20366L45.0632 2.77557C46.047 2.18374 47.3031 1.6045 48.8256 1.03672C49.6103 0.740089 50.2804 0.515025 50.8336 0.36338C51.3801 0.213588 51.8393 0.127794 52.1918 0.127794C52.3665 0.127794 52.5541 0.14722 52.7087 0.221973C52.8916 0.310486 52.9924 0.459425 52.9924 0.631555C52.9924 0.804925 52.8698 0.94486 52.7594 1.04114C52.6397 1.14547 52.4746 1.24965 52.2784 1.35461C51.884 1.56563 51.3072 1.80848 50.5586 2.0829L50.5569 2.08373C49.0855 2.61495 47.4055 3.09304 45.5189 3.51962C41.1383 6.10989 36.7694 10.7324 32.425 17.4238L32.2382 17.7122C32.304 17.7141 32.3726 17.7152 32.4441 17.7152V17.998C32.1575 17.998 31.9068 17.9833 31.6918 17.9538L32.1217 17.291C36.4922 10.5595 40.9074 5.88274 45.3674 3.26083C47.2661 2.83367 48.9498 2.35495 50.4185 1.82467C51.9052 1.27967 52.6485 0.881962 52.6485 0.631555ZM44.5614 3.43759C38.8117 6.56031 33.5636 11.237 28.817 17.4678C26.6139 16.7018 25.5123 15.3908 25.5123 13.5349C25.5123 11.6053 26.8019 9.81561 29.3812 8.16587C31.9784 6.50139 35.4622 5.24199 39.8327 4.38766C41.1044 4.13726 42.0717 3.9384 42.7344 3.7911C43.5404 3.62908 44.1494 3.51124 44.5614 3.43759ZM25.8562 13.5349C25.8562 14.4151 26.1164 15.1485 26.6212 15.7493C27.0836 16.2995 27.7655 16.755 28.6853 17.1095C32.9964 11.4952 37.7265 7.13939 42.8808 4.05293C42.8608 4.05694 42.8406 4.06073 42.8204 4.0648C42.1529 4.2131 41.1829 4.41262 39.9126 4.66274H39.9123C35.7089 5.48442 32.3549 6.67932 29.8339 8.23712L29.5925 8.38902C27.0621 10.0075 25.8562 11.7234 25.8562 13.5349Z" fill="var(--fill-0, #DB1C2E)"/>
<path d="M1.51954 24.8474L1.53689 24.7208L1.52825 24.7196H1.51954V24.8474ZM4.34063 25.9963L4.2573 25.8994L4.25511 25.9014L4.34063 25.9963ZM1.25086 24.0741L1.15986 23.9844L1.15957 23.9847L1.25086 24.0741ZM3.02412 29.5315L2.96369 29.6441L2.96418 29.6444L3.02412 29.5315ZM23.3629 26.9685L23.4273 27.0789L23.4274 27.0788L23.3629 26.9685ZM27.1781 24.1404L27.0878 24.0499L27.0872 24.0506L27.1781 24.1404ZM30.644 19.5447L30.7519 19.6131L30.7527 19.6119L30.644 19.5447ZM31.3963 18.3295L31.4086 18.2023L31.3295 18.1946L31.2876 18.2622L31.3963 18.3295ZM40.5313 15.2362L40.4422 15.1445L40.4414 15.1454L40.5313 15.2362ZM41.8478 12.3418L41.7254 12.3046L41.7239 12.3105L41.8478 12.3418ZM38.2868 16.1122L38.3525 16.2219V16.2219L38.2868 16.1122ZM41.5109 12.2843L41.3885 12.2471L41.387 12.2531L41.5109 12.2843ZM41.5143 12.2733L41.6365 12.3105L41.5143 12.2733ZM41.6919 11.9164L41.5939 11.8345L41.5939 11.8345L41.6919 11.9164ZM42.5393 11.8629L42.6337 11.7768L42.6337 11.7768L42.5393 11.8629ZM40.7956 15.4165L40.7065 15.3249L40.6041 15.4245L40.7144 15.5152L40.7956 15.4165ZM40.7959 15.4168L40.8858 15.5076L40.9864 15.408L40.8771 15.3181L40.7959 15.4168ZM31.5958 18.6302L31.6049 18.5027L31.5278 18.4972L31.4871 18.563L31.5958 18.6302ZM30.9506 19.6731L31.0528 19.7508L31.0593 19.7403L30.9506 19.6731ZM30.9489 19.6753L30.8468 19.5977L30.841 19.6069L30.9489 19.6753ZM27.4447 24.3185L27.3544 24.2281L27.3538 24.2287L27.4447 24.3185ZM23.562 27.1991V27.3269H23.5967L23.6265 27.3094L23.562 27.1991ZM23.5617 27.1991V27.0713H23.5272L23.4973 27.0887L23.5617 27.1991ZM2.83739 29.769L2.89762 29.6556L2.88599 29.6508L2.83739 29.769ZM2.83605 29.7685L2.77529 29.8817L2.78745 29.8867L2.83605 29.7685ZM0.983191 23.8968L1.07489 23.9866L1.08246 23.9773L0.983191 23.8968ZM0.983863 23.8959L0.892433 23.8058L0.884591 23.8155L0.983863 23.8959ZM4.74364 23.4367L4.82699 23.3398L4.82698 23.3398L4.74364 23.4367ZM4.58882 26.1916L4.50549 26.0947L4.50359 26.0964L4.58882 26.1916ZM1.75866 26.4603L1.6796 26.5607L1.67961 26.5607L1.75866 26.4603ZM1.38117 25.8778L1.50487 25.8458L1.2534 25.8752L1.38117 25.8778ZM3.48826 28.9452L3.4243 29.0558L3.42516 29.0563L3.48826 28.9452ZM3.2928 29.178L3.22888 29.2886L3.22969 29.2891L3.2928 29.178ZM48.9677 1.2944L49.0123 1.41414L49.0129 1.41393L48.9677 1.2944ZM45.2062 3.03988L45.2282 3.16577L45.2521 3.1616L45.2727 3.14902L45.2062 3.03988ZM42.6807 3.48178L42.6977 3.60853L42.7027 3.60766L42.6807 3.48178ZM39.7252 3.87948L39.7082 3.75283L39.7078 3.75288L39.7252 3.87948ZM30.0798 5.89011L30.1225 6.01056L30.1231 6.01032L30.0798 5.89011ZM28.6021 17.7329L28.7026 17.8118L28.812 17.6723L28.6451 17.6126L28.6021 17.7329ZM23.4703 23.809L23.5619 23.8981L23.5621 23.8979L23.4703 23.809ZM23.202 23.6322L23.2936 23.7213L23.2937 23.7212L23.202 23.6322ZM28.0963 17.8536L28.1967 17.9327L28.3032 17.7973L28.1428 17.7346L28.0963 17.8536ZM24.8963 15.7593L24.7997 15.8429L24.7997 15.8429L24.8963 15.7593ZM25.2718 8.43155L25.1778 8.34497L25.1778 8.34497L25.2718 8.43155ZM29.9417 5.63105L29.8992 5.51055L29.899 5.5106L29.9417 5.63105ZM30.1402 5.56089L30.0984 5.44013L30.0976 5.4404L30.1402 5.56089ZM39.6685 3.60054L39.6859 3.72741L39.6942 3.72571L39.6685 3.60054ZM39.6698 3.60026L39.6527 3.47331L39.6441 3.47508L39.6698 3.60026ZM42.6169 3.20366L42.6339 3.33041L42.6389 3.32954L42.6169 3.20366ZM45.0632 2.77557L45.0852 2.90146L45.1086 2.89735L45.129 2.88508L45.0632 2.77557ZM48.8256 1.03672L48.8703 1.15646L48.8708 1.15625L48.8256 1.03672ZM50.8336 0.36338L50.7999 0.240132L50.7998 0.240132L50.8336 0.36338ZM52.7087 0.221973L52.7643 0.106932L52.7643 0.106923L52.7087 0.221973ZM52.7594 1.04114L52.8433 1.13746L52.8434 1.13746L52.7594 1.04114ZM52.2784 1.35461L52.3387 1.46729L52.3387 1.46729L52.2784 1.35461ZM50.5586 2.0829L50.5143 1.96223L50.502 1.9683L50.5586 2.0829ZM50.5569 2.08373L50.6003 2.20393L50.607 2.2015L50.6134 2.19834L50.5569 2.08373ZM45.5189 3.51962L45.4907 3.39497L45.4711 3.39939L45.4538 3.40961L45.5189 3.51962ZM32.425 17.4238L32.3178 17.3543L32.3177 17.3544L32.425 17.4238ZM32.2382 17.7122L32.131 17.6427L32.0075 17.8334L32.2346 17.8399L32.2382 17.7122ZM31.6918 17.9538L31.5846 17.8843L31.4751 18.0531L31.6745 18.0805L31.6918 17.9538ZM32.1217 17.291L32.0145 17.2214L32.0145 17.2215L32.1217 17.291ZM45.3674 3.26083L45.3394 3.13615L45.3199 3.14054L45.3027 3.15066L45.3674 3.26083ZM50.4185 1.82467L50.4619 1.94487L50.4625 1.94466L50.4185 1.82467ZM44.5614 3.43759L44.6224 3.54989L44.5389 3.31179L44.5614 3.43759ZM28.817 17.4678L28.775 17.5885L28.8625 17.6189L28.9187 17.5452L28.817 17.4678ZM29.3812 8.16587L29.4501 8.27352L29.4502 8.27346L29.3812 8.16587ZM39.8327 4.38766L39.8572 4.51308L39.8574 4.51305L39.8327 4.38766ZM42.7344 3.7911L42.7092 3.66579L42.7067 3.66635L42.7344 3.7911ZM26.6212 15.7493L26.5234 15.8315L26.5234 15.8315L26.6212 15.7493ZM28.6853 17.1095L28.6394 17.2288L28.7285 17.2631L28.7867 17.1874L28.6853 17.1095ZM42.8808 4.05293L42.9465 4.16257L42.8557 3.92763L42.8808 4.05293ZM42.8204 4.0648L42.7952 3.93949L42.7927 3.94005L42.8204 4.0648ZM39.9126 4.66274V4.79054H39.9251L39.9373 4.78813L39.9126 4.66274ZM39.9123 4.66274V4.53495H39.8999L39.8878 4.53732L39.9123 4.66274ZM29.8339 8.23712L29.7668 8.1284L29.7659 8.12895L29.8339 8.23712ZM29.5925 8.38902L29.5244 8.28085L29.5236 8.28137L29.5925 8.38902ZM1.03592 25.9742H1.16371C1.16371 25.6039 1.20403 25.3431 1.27426 25.1795C1.30878 25.0991 1.34774 25.0487 1.38634 25.0188C1.42313 24.9902 1.46571 24.9752 1.51954 24.9752V24.8474V24.7196C1.41216 24.7196 1.31368 24.7516 1.22956 24.8169C1.14726 24.8808 1.08547 24.9713 1.03939 25.0787C0.948407 25.2907 0.908124 25.5934 0.908124 25.9742H1.03592ZM1.51954 24.8474L1.50218 24.974C1.52856 24.9776 1.53465 24.9855 1.5372 24.989C1.54234 24.9961 1.55295 25.0174 1.55295 25.0684H1.68074H1.80854C1.80854 24.9868 1.79228 24.905 1.74368 24.8384C1.69249 24.7682 1.61798 24.7319 1.53689 24.7208L1.51954 24.8474ZM1.68074 25.0684H1.55295V25.5102H1.68074H1.80854V25.0684H1.68074ZM1.68074 25.5102H1.55295C1.55295 25.8706 1.6689 26.1607 1.91738 26.3564C2.16004 26.5474 2.50929 26.6323 2.94352 26.6323V26.5045V26.3767C2.53589 26.3767 2.25375 26.2959 2.07549 26.1555C1.90305 26.0198 1.80854 25.8128 1.80854 25.5102H1.68074ZM2.94352 26.5045V26.6323C3.52706 26.6323 4.02419 26.4533 4.42616 26.0913L4.34063 25.9963L4.25511 25.9014C3.90478 26.2169 3.4705 26.3767 2.94352 26.3767V26.5045ZM4.34063 25.9963L4.42394 26.0932C4.84402 25.7321 5.05951 25.2852 5.05951 24.759H4.93172H4.80392C4.80392 25.205 4.62535 25.583 4.25732 25.8994L4.34063 25.9963ZM4.93172 24.759H5.05951C5.05951 24.2331 4.90578 23.8169 4.57846 23.5353C4.25483 23.2569 3.78284 23.1288 3.18533 23.1288V23.2566V23.3844C3.75207 23.3844 4.15328 23.5067 4.41178 23.7291C4.66659 23.9483 4.80392 24.2833 4.80392 24.759H4.93172ZM3.18533 23.2566V23.1288C2.39816 23.1288 1.72076 23.4155 1.15986 23.9844L1.25086 24.0741L1.34186 24.1638C1.85567 23.6427 2.4679 23.3844 3.18533 23.3844V23.2566ZM1.25086 24.0741L1.15957 23.9847C0.615912 24.5397 0.343905 25.2202 0.343905 26.0184H0.471699H0.599494C0.599494 25.2847 0.846927 24.6691 1.34215 24.1635L1.25086 24.0741ZM0.471699 26.0184H0.343905C0.343905 27.5107 1.23734 28.7176 2.96369 29.6441L3.02412 29.5315L3.08455 29.4189C1.40767 28.5189 0.599494 27.3838 0.599494 26.0184H0.471699ZM3.02412 29.5315L2.96418 29.6444C4.70751 30.5702 6.90605 31.0292 9.55294 31.0292V30.9014V30.7736C6.93378 30.7736 4.77978 30.3192 3.08406 29.4186L3.02412 29.5315ZM9.55294 30.9014V31.0292C14.2887 31.0292 18.914 29.711 23.4273 27.0789L23.3629 26.9685L23.2985 26.8581C18.8201 29.4698 14.2388 30.7736 9.55294 30.7736V30.9014ZM23.3629 26.9685L23.4274 27.0788C25.0455 26.1326 26.3272 25.1834 27.269 24.2302L27.1781 24.1404L27.0872 24.0506C26.1661 24.9828 24.9044 25.919 23.2984 26.8582L23.3629 26.9685ZM27.1781 24.1404L27.2684 24.2308C28.2812 23.2194 29.4424 21.6784 30.7519 19.6131L30.644 19.5447L30.5361 19.4762C29.2305 21.5353 28.0811 23.0581 27.0878 24.0499L27.1781 24.1404ZM30.644 19.5447L30.7527 19.6119L31.5049 18.3967L31.3963 18.3295L31.2876 18.2622L30.5353 19.4774L30.644 19.5447ZM31.3963 18.3295L31.384 18.4567C31.6928 18.4865 32.0103 18.5014 32.3366 18.5014V18.3736V18.2458C32.0181 18.2458 31.7088 18.2313 31.4086 18.2023L31.3963 18.3295ZM32.3366 18.3736V18.5014C35.7152 18.5014 38.4805 17.4454 40.6212 15.327L40.5313 15.2362L40.4414 15.1454C38.3548 17.2102 35.6571 18.2458 32.3366 18.2458V18.3736ZM40.5313 15.2362L40.6203 15.3278C41.8085 14.1731 42.4323 13.1176 42.4323 12.165H42.3045H42.1767C42.1767 13.0095 41.6184 14.0014 40.4422 15.1445L40.5313 15.2362ZM42.3045 12.165H42.4323C42.4323 12.0892 42.4153 12.0084 42.3586 11.9463C42.3 11.882 42.2199 11.8605 42.1433 11.8605V11.9883V12.1161C42.1588 12.1161 42.1669 12.1182 42.17 12.1193C42.1723 12.1202 42.1713 12.1202 42.1698 12.1186C42.1669 12.1154 42.1767 12.123 42.1767 12.165H42.3045ZM42.1433 11.9883V11.8605C42.0343 11.8605 41.9449 11.9139 41.8773 11.9947C41.8124 12.0723 41.7637 12.1791 41.7255 12.3046L41.8478 12.3418L41.97 12.3789C42.0035 12.2688 42.0398 12.1988 42.0734 12.1586C42.1044 12.1216 42.1269 12.1161 42.1433 12.1161V11.9883ZM41.8478 12.3418L41.7239 12.3105C41.3406 13.8292 40.2496 15.1379 38.4237 16.2313L38.4893 16.3409L38.555 16.4506C40.4189 15.3345 41.5669 13.977 41.9717 12.373L41.8478 12.3418ZM38.4893 16.3409L38.4237 16.2313C36.5989 17.3239 34.6066 17.8702 32.4441 17.8702V17.998V18.1258C34.6521 18.1258 36.6899 17.5674 38.555 16.4506L38.4893 16.3409ZM32.4441 17.998H32.5719V17.7152H32.4441H32.3163V17.998H32.4441ZM32.4441 17.7152V17.843C34.576 17.843 36.5434 17.3051 38.3525 16.2219L38.2868 16.1122L38.2212 16.0026C36.4525 17.0617 34.5305 17.5874 32.4441 17.5874V17.7152ZM38.2868 16.1122L38.3525 16.2219C40.1602 15.1394 41.2504 13.8389 41.6348 12.3156L41.5109 12.2843L41.387 12.2531C41.0241 13.6911 39.991 14.9428 38.2212 16.0026L38.2868 16.1122ZM41.5109 12.2843L41.6332 12.3215L41.6365 12.3105L41.5143 12.2733L41.392 12.2361L41.3887 12.2472L41.5109 12.2843ZM41.5143 12.2733L41.6365 12.3105C41.6741 12.1871 41.7224 12.0792 41.79 11.9984L41.6919 11.9164L41.5939 11.8345C41.495 11.9528 41.4341 12.0976 41.392 12.2361L41.5143 12.2733ZM41.6919 11.9164L41.79 11.9984C41.8586 11.9163 41.9738 11.8332 42.1433 11.8332V11.7054V11.5777C41.88 11.5777 41.6982 11.7098 41.5939 11.8345L41.6919 11.9164ZM42.1433 11.7054V11.8332C42.2585 11.8332 42.3717 11.8688 42.4449 11.949L42.5393 11.8629L42.6337 11.7768C42.4966 11.6264 42.3035 11.5777 42.1433 11.5777V11.7054ZM42.5393 11.8629L42.4448 11.949C42.5063 12.0163 42.5206 12.0959 42.5206 12.165H42.6484H42.7762C42.7762 12.062 42.7546 11.9094 42.6337 11.7768L42.5393 11.8629ZM42.6484 12.165H42.5206C42.5206 13.1081 41.9012 14.1633 40.7065 15.3249L40.7956 15.4165L40.8847 15.5082C42.0913 14.3349 42.7762 13.2162 42.7762 12.165H42.6484ZM40.7956 15.4165L40.7144 15.5152L40.7147 15.5155L40.7959 15.4168L40.8771 15.3181L40.8767 15.3178L40.7956 15.4165ZM40.7959 15.4168L40.706 15.326C38.5532 17.4565 35.7578 18.5287 32.3366 18.5287V18.6565V18.7842C35.8159 18.7842 38.6789 17.6916 40.8858 15.5076L40.7959 15.4168ZM32.3366 18.6565V18.5287C32.088 18.5287 31.8441 18.5199 31.6049 18.5027L31.5958 18.6302L31.5867 18.7577C31.832 18.7752 32.082 18.7842 32.3366 18.7842V18.6565ZM31.5958 18.6302L31.4871 18.563L30.8419 19.6059L30.9506 19.6731L31.0593 19.7403L31.7045 18.6974L31.5958 18.6302ZM30.9506 19.6731L30.8489 19.5958L30.8472 19.598L30.9489 19.6753L31.0507 19.7526L31.0524 19.7504L30.9506 19.6731ZM30.9489 19.6753L30.841 19.6069C29.5322 21.671 28.37 23.2136 27.3544 24.2281L27.4447 24.3185L27.5351 24.4089C28.5702 23.3749 29.7441 21.8141 31.0569 19.7437L30.9489 19.6753ZM27.4447 24.3185L27.3538 24.2287C26.4078 25.1862 25.1208 26.1395 23.4975 27.0888L23.562 27.1991L23.6265 27.3094C25.262 26.353 26.569 25.3867 27.5356 24.4083L27.4447 24.3185ZM23.562 27.1991V27.0713H23.5617V27.1991V27.3269H23.562V27.1991ZM23.5617 27.1991L23.4973 27.0887C18.971 29.7284 14.3216 31.0564 9.55294 31.0564V31.1842V31.312C14.3715 31.312 19.0648 29.9695 23.6261 27.3095L23.5617 27.1991ZM9.55294 31.1842V31.0564C6.88633 31.0564 4.66254 30.5937 2.89733 29.6561L2.83739 29.769L2.77745 29.8819C4.59028 30.8447 6.85861 31.312 9.55294 31.312V31.1842ZM2.83739 29.769L2.88599 29.6508L2.88465 29.6503L2.83605 29.7685L2.78745 29.8867L2.78879 29.8872L2.83739 29.769ZM2.83605 29.7685L2.89648 29.6559C1.14144 28.7139 0.255589 27.4967 0.255589 26.0184H0.127794H0C0 27.6237 0.971209 28.9126 2.77561 29.8811L2.83605 29.7685ZM0.127794 26.0184H0.255589C0.255589 25.2287 0.523885 24.5483 1.07448 23.9862L0.983191 23.8968L0.891899 23.8074C0.292877 24.4189 0 25.1642 0 26.0184H0.127794ZM0.983191 23.8968L1.08246 23.9773L1.08313 23.9764L0.983863 23.8959L0.884591 23.8155L0.883919 23.8163L0.983191 23.8968ZM0.983863 23.8959L1.07486 23.9857C1.64411 23.4083 2.34957 23.1016 3.18533 23.1016V22.9738V22.846C2.27973 22.846 1.50913 23.1812 0.892864 23.8062L0.983863 23.8959ZM3.18533 22.9738V23.1016C3.80919 23.1016 4.31531 23.2368 4.66031 23.5335L4.74364 23.4367L4.82698 23.3398C4.41674 22.9869 3.83973 22.846 3.18533 22.846V22.9738ZM4.74364 23.4367L4.6603 23.5335C4.99885 23.8248 5.14783 24.2428 5.14783 24.759H5.27562H5.40342C5.40342 24.1927 5.23815 23.6935 4.82699 23.3398L4.74364 23.4367ZM5.27562 24.759H5.14783C5.14783 25.2748 4.93726 25.7235 4.50551 26.0947L4.58882 26.1916L4.67213 26.2885C5.15584 25.8726 5.40342 25.3551 5.40342 24.759H5.27562ZM4.58882 26.1916L4.50359 26.0964C4.08923 26.4673 3.56506 26.6595 2.94352 26.6595V26.7873V26.9151C3.62147 26.9151 4.2082 26.7038 4.67405 26.2868L4.58882 26.1916ZM2.94352 26.7873V26.6595C2.48646 26.6595 2.10355 26.5692 1.8377 26.3599L1.75866 26.4603L1.67961 26.5607C2.00997 26.8208 2.46009 26.9151 2.94352 26.9151V26.7873ZM1.75866 26.4603L1.83771 26.3599C1.66248 26.2219 1.55709 26.0473 1.50487 25.8458L1.38117 25.8778L1.25746 25.9099C1.32258 26.1612 1.45709 26.3855 1.6796 26.5607L1.75866 26.4603ZM1.38117 25.8778L1.2534 25.8752C1.25276 25.906 1.25203 25.9395 1.25203 25.9742H1.37982H1.50762C1.50762 25.9427 1.50828 25.9119 1.50893 25.8805L1.38117 25.8778ZM1.37982 25.9742H1.25203C1.25203 27.1915 1.96967 28.2149 3.4243 29.0558L3.48826 28.9452L3.55221 28.8345C2.14368 28.0203 1.50762 27.0678 1.50762 25.9742H1.37982ZM3.48826 28.9452L3.42516 29.0563C4.88458 29.885 6.70731 30.3045 8.90812 30.3045V30.1767V30.0489C6.73888 30.0489 4.96262 29.6354 3.55136 28.834L3.48826 28.9452ZM8.90812 30.1767H8.78033V30.4595H8.90812H9.03591V30.1767H8.90812ZM8.90812 30.4595V30.3317C6.68493 30.3317 4.83639 29.9075 3.3559 29.0668L3.2928 29.178L3.22969 29.2891C4.75837 30.1571 6.65338 30.5873 8.90812 30.5873V30.4595ZM3.2928 29.178L3.35671 29.0673C1.87511 28.2115 1.16371 27.179 1.16371 25.9742H1.03592H0.908124C0.908124 27.303 1.70131 28.4063 3.22888 29.2886L3.2928 29.178ZM52.6485 0.631555H52.7763C52.7763 0.571484 52.7604 0.513407 52.7252 0.462378C52.6908 0.412362 52.6429 0.376384 52.59 0.350803C52.4877 0.30132 52.3503 0.282813 52.1918 0.282813V0.410607V0.538402C52.3378 0.538402 52.4287 0.556719 52.4787 0.580885C52.5019 0.592129 52.5112 0.602182 52.5148 0.607402C52.5177 0.611611 52.5207 0.617977 52.5207 0.631555H52.6485ZM52.1918 0.410607V0.282813C51.8788 0.282813 51.4491 0.360154 50.9087 0.508307C50.3661 0.657042 49.7038 0.879468 48.9225 1.17486L48.9677 1.2944L49.0129 1.41393C49.7899 1.12013 50.4441 0.900664 50.9762 0.754803C51.5105 0.608359 51.9137 0.538402 52.1918 0.538402V0.410607ZM48.9677 1.2944L48.923 1.17466C47.3781 1.75081 46.1162 2.33591 45.1397 2.93074L45.2062 3.03988L45.2727 3.14902C46.2307 2.56547 47.4764 1.98691 49.0123 1.41414L48.9677 1.2944ZM45.2062 3.03988L45.1842 2.914L42.6586 3.3559L42.6807 3.48178L42.7027 3.60766L45.2282 3.16577L45.2062 3.03988ZM42.6807 3.48178L42.6636 3.35513L39.7082 3.75283L39.7252 3.87948L39.7423 4.00614L42.6977 3.60843L42.6807 3.48178ZM39.7252 3.87948L39.7078 3.75288C35.3177 4.35704 32.0916 5.02864 30.0364 5.76989L30.0798 5.89011L30.1231 6.01032C32.1519 5.27859 35.356 4.60977 39.7427 4.00608L39.7252 3.87948ZM30.0798 5.89011L30.0371 5.76966C28.0104 6.48816 26.4783 7.40145 25.4519 8.51565C24.4228 9.63269 23.9068 10.9468 23.9068 12.4522H24.0346H24.1624C24.1624 11.0117 24.6538 9.75917 25.6399 8.68882C26.6285 7.61565 28.119 6.72084 30.1225 6.01055L30.0798 5.89011ZM24.0346 12.4522H23.9068C23.9068 13.6967 24.2975 14.7744 25.0798 15.6788C25.86 16.5808 27.0234 17.3035 28.559 17.8532L28.6021 17.7329L28.6451 17.6126C27.1357 17.0722 26.0154 16.3698 25.2731 15.5116C24.5329 14.6558 24.1624 13.6382 24.1624 12.4522H24.0346ZM28.6021 17.7329L28.5015 17.654C26.3529 20.3928 24.6456 22.4139 23.3786 23.72L23.4703 23.809L23.5621 23.8979C24.8386 22.5821 26.5524 20.5525 28.7026 17.8118L28.6021 17.7329ZM23.4703 23.809L23.3788 23.7198C19.0822 28.1328 14.2599 30.3317 8.90812 30.3317V30.4595V30.5873C14.3392 30.5873 19.225 28.3525 23.5619 23.8981L23.4703 23.809ZM8.90812 30.4595H9.03591V30.1767H8.90812H8.78033V30.4595H8.90812ZM8.90812 30.1767V30.3045C14.2066 30.3045 19.002 28.1292 23.2936 23.7213L23.202 23.6322L23.1104 23.543C18.8592 27.9094 14.1273 30.0489 8.90812 30.0489V30.1767ZM23.202 23.6322L23.2937 23.7212C24.5165 22.4606 26.1497 20.5317 28.1967 17.9327L28.0963 17.8536L27.9959 17.7745C25.9505 20.3716 24.3237 22.2923 23.1103 23.5432L23.202 23.6322ZM28.0963 17.8536L28.1428 17.7346C26.7704 17.1976 25.7169 16.5125 24.993 15.6757L24.8963 15.7593L24.7997 15.8429C25.5586 16.7202 26.6516 17.4256 28.0497 17.9726L28.0963 17.8536ZM24.8963 15.7593L24.993 15.6757C24.2063 14.7661 23.8185 13.6893 23.8185 12.4522H23.6907H23.5629C23.5629 13.7478 23.9709 14.8847 24.7997 15.8429L24.8963 15.7593ZM23.6907 12.4522H23.8185C23.8185 10.9549 24.3311 9.64134 25.3658 8.51814L25.2718 8.43155L25.1778 8.34497C24.1001 9.51486 23.5629 10.89 23.5629 12.4522H23.6907ZM25.2718 8.43155L25.3658 8.51814C26.3996 7.39597 27.944 6.47511 29.9845 5.75149L29.9417 5.63105L29.899 5.5106C27.8354 6.24244 26.2494 7.18179 25.1778 8.34497L25.2718 8.43155ZM29.9417 5.63105L29.9843 5.75154L30.1828 5.68138L30.1402 5.56089L30.0976 5.4404L29.8992 5.51055L29.9417 5.63105ZM30.1402 5.56089L30.182 5.68165C32.2578 4.96287 35.4307 4.31274 39.6859 3.72714L39.6685 3.60054L39.6511 3.47394C35.392 4.06006 32.1988 4.71283 30.0984 5.44013L30.1402 5.56089ZM39.6685 3.60054L39.6942 3.72571L39.6956 3.72544L39.6698 3.60026L39.6441 3.47508L39.6427 3.47536L39.6685 3.60054ZM39.6698 3.60026L39.6869 3.72691L42.6339 3.33031L42.6169 3.20366L42.5998 3.07701L39.6528 3.47361L39.6698 3.60026ZM42.6169 3.20366L42.6389 3.32954L45.0852 2.90146L45.0632 2.77557L45.0411 2.64969L42.5948 3.07778L42.6169 3.20366ZM45.0632 2.77557L45.129 2.88508C46.104 2.29863 47.3523 1.72257 48.8703 1.15646L48.8256 1.03672L48.781 0.916978C47.254 1.48643 45.9901 2.06884 44.9973 2.66607L45.0632 2.77557ZM48.8256 1.03672L48.8708 1.15625C49.6533 0.860435 50.3194 0.636843 50.8674 0.486627L50.8336 0.36338L50.7998 0.240132C50.2414 0.393208 49.5672 0.619743 48.7804 0.91718L48.8256 1.03672ZM50.8336 0.36338L50.8674 0.486628C51.4107 0.337691 51.8568 0.255589 52.1918 0.255589V0.127794V0C51.8219 0 51.3494 0.089484 50.7999 0.240132L50.8336 0.36338ZM52.1918 0.127794V0.255589C52.3602 0.255589 52.5246 0.274916 52.653 0.337024L52.7087 0.221973L52.7643 0.106923C52.5835 0.0195242 52.3727 0 52.1918 0V0.127794ZM52.7087 0.221973L52.653 0.337015C52.7999 0.408072 52.8647 0.516767 52.8647 0.631555H52.9924H53.1202C53.1202 0.402083 52.9834 0.2129 52.7643 0.106932L52.7087 0.221973ZM52.9924 0.631555H52.8647C52.8647 0.744935 52.7821 0.851767 52.6754 0.944813L52.7594 1.04114L52.8434 1.13746C52.9575 1.03795 53.1202 0.864914 53.1202 0.631555H52.9924ZM52.7594 1.04114L52.6754 0.944808C52.5664 1.03987 52.411 1.13874 52.2182 1.24193L52.2784 1.35461L52.3387 1.46729C52.5382 1.36056 52.713 1.25108 52.8433 1.13746L52.7594 1.04114ZM52.2784 1.35461L52.2182 1.24192C51.8317 1.44869 51.2615 1.68911 50.5146 1.96292L50.5586 2.0829L50.6026 2.20289C51.3528 1.92786 51.9363 1.68258 52.3387 1.46729L52.2784 1.35461ZM50.5586 2.0829L50.502 1.9683L50.5004 1.96913L50.5569 2.08373L50.6134 2.19834L50.6151 2.19751L50.5586 2.0829ZM50.5569 2.08373L50.5135 1.96353C49.0482 2.49257 47.3734 2.96928 45.4907 3.39497L45.5189 3.51962L45.5471 3.64426C47.4377 3.21679 49.1229 2.73732 50.6003 2.20393L50.5569 2.08373ZM45.5189 3.51962L45.4538 3.40961C41.0495 6.01394 36.6677 10.6545 32.3178 17.3543L32.425 17.4238L32.5322 17.4934C36.8712 10.8103 41.2271 6.20584 45.5839 3.62962L45.5189 3.51962ZM32.425 17.4238L32.3177 17.3544L32.131 17.6427L32.2382 17.7122L32.3455 17.7816L32.5322 17.4933L32.425 17.4238ZM32.2382 17.7122L32.2346 17.8399C32.3014 17.8418 32.3713 17.843 32.4441 17.843V17.7152V17.5874C32.374 17.5874 32.3066 17.5863 32.2419 17.5844L32.2382 17.7122ZM32.4441 17.7152H32.3163V17.998H32.4441H32.5719V17.7152H32.4441ZM32.4441 17.998V17.8702C32.1616 17.8702 31.9169 17.8557 31.7092 17.8272L31.6918 17.9538L31.6745 18.0805C31.8967 18.1109 32.1535 18.1258 32.4441 18.1258V17.998ZM31.6918 17.9538L31.799 18.0234L32.2289 17.3605L32.1217 17.291L32.0145 17.2215L31.5846 17.8843L31.6918 17.9538ZM32.1217 17.291L32.2289 17.3606C36.5939 10.6374 40.9961 5.97883 45.4322 3.371L45.3674 3.26083L45.3027 3.15066C40.8187 5.78665 36.3904 10.4815 32.0145 17.2214L32.1217 17.291ZM45.3674 3.26083L45.3955 3.38551C47.2981 2.95744 48.9871 2.47733 50.4619 1.94487L50.4185 1.82467L50.3751 1.70447C48.9124 2.23256 47.234 2.70989 45.3394 3.13615L45.3674 3.26083ZM50.4185 1.82467L50.4625 1.94466C51.2075 1.67155 51.7717 1.43344 52.1513 1.23032C52.3406 1.12907 52.4896 1.03355 52.5931 0.943302C52.6898 0.859016 52.7763 0.754114 52.7763 0.631555H52.6485H52.5207C52.5207 0.630741 52.521 0.640384 52.5064 0.662943C52.4918 0.685495 52.4662 0.714851 52.4252 0.750656C52.3429 0.822435 52.2132 0.907359 52.0308 1.00496C51.6671 1.19954 51.1162 1.43279 50.3745 1.70469L50.4185 1.82467ZM44.5614 3.43759L44.5004 3.32529C38.7321 6.45816 33.4708 11.148 28.7153 17.3903L28.817 17.4678L28.9187 17.5452C33.6564 11.3261 38.8914 6.66247 44.6224 3.54989L44.5614 3.43759ZM28.817 17.4678L28.859 17.347C27.7716 16.969 26.9678 16.4604 26.4363 15.8279C25.9065 15.1974 25.6401 14.4355 25.6401 13.5349H25.5123H25.3845C25.3845 14.4902 25.6688 15.3118 26.2406 15.9923C26.8107 16.6707 27.6593 17.2006 28.775 17.5885L28.817 17.4678ZM25.5123 13.5349H25.6401C25.6401 11.6701 26.8851 9.91413 29.4501 8.27352L29.3812 8.16587L29.3124 8.05821C26.7188 9.71708 25.3845 11.5405 25.3845 13.5349H25.5123ZM29.3812 8.16587L29.4502 8.27346C32.0292 6.62062 35.4961 5.36558 39.8572 4.51308L39.8327 4.38766L39.8082 4.26224C35.4284 5.11841 31.9276 6.38217 29.3123 8.05827L29.3812 8.16587ZM39.8327 4.38766L39.8574 4.51305C41.1294 4.26259 42.0979 4.0635 42.7621 3.91585L42.7344 3.7911L42.7067 3.66635C42.0455 3.81331 41.0795 4.01192 39.808 4.26228L39.8327 4.38766ZM42.7344 3.7911L42.7596 3.91639C43.5654 3.75441 44.1733 3.63679 44.5839 3.56339L44.5614 3.43759L44.5389 3.31179C44.1255 3.38569 43.5155 3.50374 42.7092 3.66582L42.7344 3.7911ZM25.8562 13.5349H25.7284C25.7284 14.4425 25.9975 15.2057 26.5234 15.8315L26.6212 15.7493L26.7191 15.6671C26.2353 15.0913 25.984 14.3878 25.984 13.5349H25.8562ZM26.6212 15.7493L26.5234 15.8315C27.0034 16.4028 27.7057 16.8689 28.6394 17.2288L28.6853 17.1095L28.7313 16.9903C27.8254 16.6411 27.1638 16.1963 26.7191 15.6671L26.6212 15.7493ZM28.6853 17.1095L28.7867 17.1874C33.0897 11.5835 37.8083 7.2394 42.9465 4.16257L42.8808 4.05293L42.8152 3.94329C37.6448 7.03938 32.9031 11.4069 28.584 17.0317L28.6853 17.1095ZM42.8808 4.05293L42.8557 3.92763C42.8461 3.92955 42.8365 3.93142 42.8263 3.93339C42.8163 3.93534 42.8058 3.93738 42.7952 3.93951L42.8204 4.0648L42.8456 4.19009C42.8552 4.18815 42.8649 4.18626 42.8751 4.18429C42.8851 4.18235 42.8955 4.18032 42.906 4.17822L42.8808 4.05293ZM42.8204 4.0648L42.7927 3.94005C42.1267 4.08801 41.1579 4.28729 39.8879 4.53736L39.9126 4.66274L39.9373 4.78813C41.2079 4.53795 42.1791 4.3382 42.8481 4.18956L42.8204 4.0648ZM39.9126 4.66274V4.53495H39.9123V4.66274V4.79054H39.9126V4.66274ZM39.9123 4.66274L39.8878 4.53732C35.6752 5.36079 32.3052 6.55984 29.7668 8.12841L29.8339 8.23712L29.9011 8.34583C32.4047 6.79879 35.7426 5.60804 39.9368 4.78816L39.9123 4.66274ZM29.8339 8.23712L29.7659 8.12895L29.5244 8.28085L29.5925 8.38902L29.6605 8.49719L29.902 8.34529L29.8339 8.23712ZM29.5925 8.38902L29.5236 8.28137C26.9789 9.90899 25.7284 11.6586 25.7284 13.5349H25.8562H25.984C25.984 11.7882 27.1453 10.106 29.6613 8.49668L29.5925 8.38902Z" fill="var(--stroke-0, #DB1C2E)" mask="url(#path-10-outside-1_0_55)"/>
</g>
</g>
</svg>
