<svg preserveAspectRatio="none" width="100%" height="100%" overflow="visible" style="display: block;" viewBox="0 0 685.83 180.804" fill="none" xmlns="http://www.w3.org/2000/svg">
<g id="Frame 123264">
<path id="Vector" d="M679.538 56.7973C680.267 56.7973 680.891 56.9675 681.339 57.3344C681.796 57.7096 682.025 58.2541 682.025 58.8989V66.852C682.025 67.4968 681.796 68.0413 681.339 68.4164C680.891 68.7833 680.267 68.9536 679.538 68.9536H615.236L614.285 103.087H674.879C675.607 103.087 676.232 103.258 676.679 103.624C677.137 104 677.366 104.544 677.366 105.189V112.983C677.366 113.628 677.137 114.172 676.679 114.547C676.232 114.914 675.607 115.084 674.879 115.084H614.283L615.238 156.695H681.092C681.82 156.695 682.444 156.865 682.891 157.232C683.349 157.607 683.578 158.152 683.578 158.796V166.749C683.578 167.394 683.349 167.939 682.891 168.314C682.444 168.681 681.82 168.851 681.092 168.851H597.811C597.103 168.851 596.475 168.729 596.02 168.381C595.545 168.018 595.324 167.461 595.324 166.749V166.742L596.489 110.923L595.324 58.9067V58.8989C595.324 58.1869 595.545 57.6301 596.02 57.267C596.475 56.9193 597.103 56.7973 597.811 56.7973H679.538Z" fill="var(--fill-0, #DB1C2E)" stroke="var(--stroke-0, #FFC800)" stroke-width="0.703206"/>
<path id="Vector_2" d="M519.478 54.4786C532.935 54.4786 545.459 57.0013 555.452 63.1377C565.142 69.0886 572.426 78.4226 575.873 92.0792L576.196 93.4151L576.198 93.4239L576.199 93.4336C576.312 94.0904 576.144 94.6889 575.715 95.1192C575.294 95.5424 574.663 95.7617 573.922 95.7618H560.022C559.395 95.7618 558.838 95.6327 558.377 95.3233C557.915 95.0121 557.585 94.5424 557.372 93.9278L557.366 93.9073L557.361 93.8868C555.351 84.5437 550.671 77.8351 544.069 73.4561C537.458 69.0719 528.892 67.004 519.092 67.004C505.076 67.004 494.172 71.4512 486.77 79.3545C479.365 87.2614 475.425 98.67 475.425 112.665C475.425 127.941 479.559 139.425 487.054 147.089C494.548 154.752 505.451 158.646 519.092 158.646C530.142 158.646 539.233 156.101 545.913 151.186C552.586 146.275 556.887 138.973 558.323 129.389L558.324 129.38L558.326 129.371C558.438 128.815 558.721 128.339 559.155 128.004C559.587 127.67 560.149 127.491 560.793 127.491H574.887C575.628 127.491 576.265 127.711 576.688 128.161C577.116 128.616 577.274 129.253 577.165 129.973L577.164 129.98L577.163 129.987C574.444 143.969 567.688 154.278 557.758 161.085C547.836 167.887 534.777 171.172 519.478 171.172C499.626 171.172 483.75 165.681 472.832 155.601C461.912 145.517 455.996 130.877 455.996 112.665C455.996 94.9275 462.06 80.3692 473.05 70.2481C484.037 60.1301 499.912 54.4786 519.478 54.4786Z" fill="var(--fill-0, #DB1C2E)" stroke="var(--stroke-0, #FFC800)" stroke-width="0.703206"/>
<path id="Vector_3" d="M404.249 56.7973C404.879 56.7973 405.432 56.9266 405.889 57.2075C406.347 57.489 406.682 57.9073 406.901 58.4409L453.666 166.291C453.998 166.943 453.958 167.608 453.54 168.108C453.135 168.593 452.435 168.851 451.597 168.851H436.656C436.026 168.851 435.473 168.722 435.016 168.441C434.557 168.158 434.221 167.738 434.002 167.203L420.703 135.287H365.871L352.765 167.202L352.764 167.201C352.546 167.737 352.21 168.158 351.75 168.441C351.294 168.722 350.74 168.851 350.111 168.851H335.751C334.915 168.851 334.247 168.593 333.888 168.085C333.526 167.573 333.557 166.917 333.877 166.29L381.027 58.4477C381.245 57.9108 381.582 57.4903 382.041 57.2075C382.498 56.9265 383.052 56.7973 383.681 56.7973H404.249ZM371.009 122.494H415.366L392.998 68.5717L371.009 122.494Z" fill="var(--fill-0, #DB1C2E)" stroke="var(--stroke-0, #FFC800)" stroke-width="0.703206"/>
<path id="Vector_4" d="M239.537 111.2H272.477C281.252 111.2 288.675 109.613 293.894 106.167C299.089 102.736 302.133 97.4406 302.133 89.9174C302.133 82.9463 299.376 77.6894 294.274 74.1606C289.154 70.6185 281.637 68.7944 272.09 68.7944H240.299L239.537 111.2ZM240.498 166.749C240.498 167.461 240.277 168.017 239.804 168.38C239.35 168.728 238.723 168.851 238.017 168.851H223.11C222.404 168.851 221.777 168.728 221.323 168.38C220.85 168.017 220.629 167.461 220.629 166.749V166.744L221.597 111.081L220.629 58.9047V58.8989C220.629 58.1873 220.85 57.6312 221.323 57.268C221.777 56.9199 222.404 56.7973 223.11 56.7973H270.541C286.061 56.7973 298.577 59.5455 307.223 65.0444C315.89 70.5566 320.646 78.8205 320.647 89.7582C320.647 98.6793 317.464 105.854 311.677 111.213C306.008 116.463 297.865 119.948 287.829 121.662L322.496 166.201L322.593 166.319C322.808 166.595 322.947 166.883 322.99 167.173C323.04 167.514 322.955 167.833 322.752 168.097C322.362 168.604 321.593 168.851 320.682 168.851H304.227C303.638 168.851 303.098 168.812 302.623 168.628C302.136 168.44 301.742 168.11 301.417 167.581L288.455 149.937V149.936L267.465 123.039H239.73L240.498 166.744V166.749Z" fill="var(--fill-0, #DB1C2E)" stroke="var(--stroke-0, #FFC800)" stroke-width="0.703206"/>
<path id="Stroke" d="M679.574 55.2517L679.962 55.2644H679.973C680.929 55.3241 681.918 55.6021 682.702 56.2478C683.609 56.9935 683.943 57.9819 683.944 58.9177V66.8201L683.943 66.8279L683.928 67.1492V67.157L683.927 67.1648C683.851 67.9931 683.493 68.8311 682.702 69.4822C681.806 70.2194 680.644 70.4791 679.563 70.4792H617.882L617.031 101.193H674.957C676.039 101.193 677.2 101.453 678.096 102.19L678.259 102.333C679.043 103.059 679.337 103.983 679.337 104.861V112.595C679.337 113.532 679.002 114.52 678.096 115.266C677.2 116.004 676.039 116.263 674.957 116.263H617.022L617.892 154.397H681.098C682.179 154.397 683.341 154.657 684.237 155.394C685.143 156.14 685.478 157.129 685.478 158.065V165.975L685.462 166.295V166.302L685.461 166.31C685.385 167.139 685.028 167.977 684.237 168.629V168.63C683.34 169.367 682.179 169.625 681.098 169.625H598.78C597.852 169.625 596.657 169.469 595.699 168.734V168.733C594.694 167.962 594.4 166.906 594.4 165.959V165.924L595.55 110.552L594.4 58.9548V58.904L594.413 58.574V58.5671L594.414 58.5593C594.484 57.7098 594.822 56.8166 595.699 56.1433C596.657 55.408 597.852 55.2518 598.78 55.2517H679.574ZM598.55 57.5388L598.551 57.5398C597.992 57.5665 597.618 57.6929 597.387 57.8953C597.168 58.087 597.022 58.395 597.022 58.9177L598.172 110.536V110.551L597.022 165.944L597.03 166.162C597.068 166.62 597.237 166.889 597.488 167.058C597.759 167.242 598.179 167.343 598.78 167.343H681.086L681.322 167.336L681.504 167.319C681.916 167.269 682.222 167.142 682.433 166.968C682.667 166.776 682.814 166.501 682.848 166.128L682.856 165.959V158.065C682.856 157.628 682.716 157.314 682.483 157.097C682.243 156.875 681.864 156.72 681.322 156.686V156.685L681.098 156.678V156.679H615.322L615.314 156.336L614.354 114.342L614.346 113.981H674.957L675.181 113.974L675.376 113.957C675.816 113.902 676.132 113.758 676.342 113.563C676.576 113.347 676.715 113.033 676.715 112.595V104.861C676.715 104.396 676.558 104.067 676.292 103.848C676.016 103.621 675.579 103.474 674.957 103.474H614.344L614.354 103.113L615.314 68.5398L615.324 68.198H679.552L679.795 68.1902C680.296 68.1578 680.658 68.0212 680.898 67.824C681.13 67.6331 681.276 67.3623 681.312 66.9949L681.322 66.7956V58.9177C681.321 58.4809 681.181 58.167 680.948 57.9509C680.707 57.729 680.328 57.5742 679.785 57.5408V57.5398L679.552 57.5339H598.788L598.55 57.5388Z" fill="var(--fill-0, #DB1C2E)" stroke="var(--stroke-0, #FFC800)" stroke-width="0.703206"/>
<path id="Stroke_2" d="M519.981 52.9336C533.807 52.9337 546.864 55.4879 557.355 61.8399C567.238 67.824 574.635 77.0519 578.317 90.2325L578.662 91.5206L578.663 91.5245L578.989 92.8643L578.999 92.9004L579.003 92.918L579.005 92.9356L579.01 92.9659L579.039 93.1534C579.153 94.0949 578.896 95.0875 578.099 95.877C577.245 96.7231 576.017 97.0899 574.795 97.0899H560.8C559.836 97.0898 558.81 96.8882 557.923 96.3008C557.164 95.7975 556.683 95.128 556.384 94.4229L556.379 94.4112L556.271 94.1299L556.268 94.1231L556.266 94.1153L556.24 94.0372L556.235 94.0215L556.231 94.0069L556.212 93.9278L556.21 93.9209C554.253 84.9469 549.738 78.6613 543.528 74.6006C537.297 70.5265 529.135 68.5441 519.593 68.544C506.031 68.5441 495.638 72.763 488.583 80.1905C481.475 87.673 477.569 98.6131 477.569 112.282L477.583 113.671C477.83 127.918 481.902 138.451 488.843 145.45C495.958 152.624 506.34 156.337 519.593 156.337C530.356 156.337 539.013 153.897 545.307 149.33C551.595 144.768 555.761 137.91 557.163 128.687L557.164 128.682L557.169 128.648L557.171 128.636L557.174 128.625L557.181 128.593C557.353 127.765 557.804 126.956 558.605 126.346C559.425 125.721 560.475 125.411 561.579 125.411H575.768C576.995 125.411 578.252 125.784 579.113 126.687C579.949 127.564 580.139 128.657 579.988 129.653L579.989 129.654L579.983 129.695L579.98 129.709L579.974 129.735C577.178 143.904 570.193 154.518 559.759 161.57C549.34 168.613 535.716 171.946 519.981 171.946C499.542 171.946 482.993 166.362 471.573 155.965C460.173 145.586 454.126 130.634 454.126 112.282C454.126 94.3816 460.336 79.5164 471.795 69.1114C483.273 58.6909 499.808 52.9338 519.981 52.9336ZM519.979 55.2227C500.413 55.2232 484.616 60.7943 473.713 70.6934C462.814 80.5896 456.772 94.8431 456.772 112.282L456.79 113.95L456.811 114.765C457.342 131.802 463.369 145.431 474.006 154.844C484.817 164.41 500.429 169.657 519.981 169.657C535.051 169.657 547.881 166.516 557.663 160.075C567.436 153.64 574.194 143.892 577.102 130.617L577.364 129.349C577.441 128.835 577.331 128.456 577.115 128.198C576.896 127.937 576.528 127.75 575.996 127.708L575.754 127.7H561.588L561.38 127.705C560.483 127.771 559.933 128.282 559.786 129.005C558.312 138.674 553.895 146.091 547.012 151.085C540.132 156.077 530.819 158.626 519.593 158.626H519.59L518.303 158.613H518.3C505.032 158.377 494.306 154.477 486.834 146.943C479.362 139.41 475.19 128.29 474.936 113.704V113.701L474.922 112.285V112.282C474.922 98.2606 478.927 86.7456 486.537 78.7344C494.149 70.7208 505.329 66.255 519.593 66.2549H519.596L520.52 66.2608H520.523C530.251 66.3885 538.807 68.5315 545.445 72.9844C552.083 77.4381 556.776 84.1851 558.806 93.4639C558.981 93.9552 559.229 94.2785 559.538 94.4834C559.852 94.692 560.264 94.8007 560.8 94.8008H574.795C575.411 94.8008 575.847 94.6221 576.103 94.3682C576.351 94.1232 576.47 93.7707 576.393 93.3184C573.159 79.4398 565.96 70.0081 556.294 64C546.616 57.984 534.438 55.3847 521.241 55.2305V55.2295L519.979 55.2227Z" fill="var(--fill-0, #DB1C2E)" stroke="var(--stroke-0, #FFC800)" stroke-width="0.703206"/>
<path id="Stroke_3" d="M403.309 55.2517C404.27 55.2517 405.254 55.4515 406.108 55.9734C406.865 56.4354 407.367 57.0584 407.687 57.7234H407.692L407.785 57.9343L454.508 164.973L454.723 165.466H454.696C454.974 166.366 454.865 167.356 454.155 168.2C453.307 169.21 451.93 169.625 450.614 169.625H435.686C434.724 169.625 433.739 169.425 432.884 168.903C432.039 168.387 431.511 167.671 431.2 166.919V166.92L418.361 136.314H366.356L353.708 166.912C353.398 167.667 352.867 168.385 352.02 168.903C351.164 169.425 350.179 169.625 349.218 169.625H334.872C333.548 169.625 332.129 169.197 331.333 168.077C330.59 167.032 330.733 165.861 331.182 164.952L378.285 57.9285C378.597 57.1867 379.123 56.4828 379.957 55.9734C380.812 55.4511 381.798 55.2517 382.759 55.2517H403.309ZM403.309 57.533L382.759 57.5339L382.378 57.5525L382.379 57.5535C381.962 57.5997 381.632 57.7244 381.372 57.9148C381.113 58.1049 380.906 58.3741 380.758 58.7371L380.754 58.7449L333.644 165.784L333.639 165.796L333.633 165.806C333.398 166.254 333.415 166.601 333.552 166.832C333.691 167.066 334.016 167.283 334.615 167.333L334.886 167.343H349.218C349.752 167.343 350.169 167.234 350.488 167.039C350.804 166.846 351.05 166.554 351.219 166.14L351.22 166.138L364.402 134.25L364.492 134.032H420.215L420.306 134.248L433.684 166.137L433.685 166.14C433.833 166.503 434.04 166.772 434.299 166.962C434.557 167.151 434.885 167.275 435.297 167.322L435.704 167.343H450.601L450.872 167.333C451.486 167.283 451.872 167.061 452.056 166.806C452.228 166.567 452.27 166.23 452.047 165.806L452.041 165.795L452.036 165.783L405.314 58.7439L405.31 58.7371V58.7361C405.161 58.3737 404.955 58.1048 404.696 57.9148C404.437 57.7241 404.105 57.5998 403.689 57.5535V57.5525L403.309 57.533ZM392.389 67.4656L415.266 122.249L415.469 122.736H369.05L369.249 122.251L391.739 67.4675L392.062 66.6824L392.389 67.4656ZM372.793 120.454H411.708L392.082 73.4617L372.793 120.454Z" fill="var(--fill-0, #DB1C2E)" stroke="var(--stroke-0, #FFC800)" stroke-width="0.703206"/>
<path id="Stroke_4" d="M221.103 57.5388L221.104 57.5398C220.534 57.5666 220.152 57.6936 219.915 57.8972C219.692 58.0895 219.543 58.3967 219.543 58.9177L220.519 110.696V110.709L219.543 165.944L219.552 166.156L219.572 166.32C219.634 166.682 219.792 166.907 220.018 167.056C220.296 167.241 220.725 167.343 221.337 167.343H236.363C236.975 167.343 237.405 167.241 237.684 167.056C237.942 166.885 238.112 166.615 238.15 166.156L238.156 165.947L237.377 122.233L237.37 121.876H266.386L266.491 122.009L287.761 148.847L287.768 148.855L300.841 166.379L300.859 166.404C301.084 166.769 301.329 166.982 301.607 167.114C301.893 167.25 302.24 167.313 302.691 167.334H302.69L303.104 167.343H319.669L319.975 167.333L320.231 167.305C320.793 167.223 321.114 167.021 321.24 166.822C321.356 166.64 321.38 166.331 320.978 165.876L320.972 165.868L320.966 165.861L285.649 121.182L285.278 120.712L285.869 120.617C296.008 118.992 304.179 115.619 309.859 110.565C315.529 105.519 318.738 98.7779 318.93 90.3542L318.939 89.5466L318.926 88.5749C318.653 78.6089 314.157 71.0376 306.136 65.863C297.835 60.5084 285.737 57.7088 270.593 57.5417V57.5408L269.141 57.5339H221.346L221.103 57.5388ZM270.703 68.0388C280.397 68.0388 288.137 69.8603 293.463 73.488C298.808 77.1292 301.69 82.5691 301.691 89.7039C301.691 97.3963 298.512 102.877 293.067 106.418C287.644 109.944 280.004 111.527 271.094 111.527H237.174L237.181 111.17L237.962 68.3845L237.968 68.0388H270.703ZM239.87 109.245H271.094C279.694 109.245 286.676 107.71 291.461 104.598C296.151 101.549 299.035 96.7876 299.035 89.7039C299.035 83.1523 296.425 78.4198 291.812 75.2771C287.124 72.084 280.057 70.321 270.703 70.321H240.582L239.87 109.245ZM240.811 165.972L240.797 166.302V166.31L240.756 166.638C240.631 167.389 240.271 168.146 239.491 168.735C238.518 169.47 237.304 169.625 236.363 169.625H221.337C220.396 169.625 219.183 169.469 218.21 168.735C217.19 167.964 216.889 166.908 216.889 165.959V165.929L217.864 110.732L216.889 58.949V58.904L216.903 58.574V58.5662L216.944 58.238C217.069 57.4874 217.431 56.7298 218.21 56.1414C219.183 55.4074 220.396 55.2518 221.337 55.2517H269.143C285.025 55.2517 298.124 58.0169 307.305 63.7664C316.585 69.5782 321.593 78.2733 321.593 89.5466V89.5505L321.584 90.3972V90.4011C321.383 99.1935 318.063 106.415 312.06 111.89C306.542 116.922 298.895 120.35 289.7 122.245L323.162 164.574L323.453 164.941L323.436 164.947C323.691 165.333 323.88 165.769 323.946 166.232C324.035 166.865 323.892 167.529 323.413 168.142C322.521 169.285 320.95 169.625 319.681 169.625H303.096C302.441 169.625 301.536 169.592 300.652 169.256C299.723 168.902 299.063 168.314 298.591 167.596L285.555 150.121L285.537 150.099L264.979 124.157H240.067L240.811 165.929V165.972Z" fill="var(--fill-0, #DB1C2E)" stroke="var(--stroke-0, #FFC800)" stroke-width="0.703206"/>
<path id="T" d="M105.894 1.89724C122.687 1.89726 135.533 6.72085 144.373 16.4158C156.541 13.5368 170.497 12.0994 186.237 12.0994C194.404 12.0994 201.869 12.515 208.631 13.3465H208.633C215.782 14.259 233.278 17.0755 261.111 21.7937C284.37 13.4252 306.733 9.23806 328.197 9.23806C339.232 9.23807 347.544 10.1298 353.11 11.9304C358.663 13.7267 361.622 16.4834 361.622 20.2898C361.622 22.6919 360.16 24.8585 357.396 26.7986C354.631 28.7389 350.51 30.4937 345.059 32.074L345.056 32.075C334.142 35.1554 320.818 36.6922 305.091 36.6922C289.282 36.6922 269.664 34.9104 246.24 31.3523C233.938 36.641 222.679 44.4808 212.464 54.8767L212.463 54.8777C202.219 65.2199 191.211 79.9184 179.438 98.9842C167.661 118.059 158.987 130.814 153.429 137.225L153.43 137.226C147.963 143.565 140.432 149.725 130.848 155.71L130.844 155.712C105.523 171.17 79.2326 178.905 51.9785 178.905C37.4426 178.905 25.499 176.369 16.169 171.272L16.168 171.271C6.93303 166.171 2.24321 159.518 2.24317 151.305C2.24317 147.146 3.74142 143.572 6.72657 140.604C9.71043 137.637 13.2723 136.147 17.3945 136.147C20.7091 136.147 23.2607 136.861 24.9863 138.348C26.722 139.844 27.5625 142.071 27.5625 144.96C27.5625 147.715 26.5128 150.088 24.4326 152.058C22.3501 154.031 19.7954 155.016 16.791 155.016C14.387 155.016 12.5181 154.533 11.2461 153.508C9.95987 152.47 9.34083 150.925 9.34083 148.941C9.34082 147.959 9.24001 147.268 9.06446 146.834C8.978 146.62 8.88215 146.489 8.79005 146.413C8.70395 146.342 8.60675 146.306 8.48439 146.306C8.13191 146.306 7.8349 146.41 7.57911 146.612C7.31809 146.819 7.08135 147.145 6.88282 147.616C6.48265 148.566 6.26859 150.034 6.26856 152.052C6.26856 158.592 10.3253 164.177 18.6231 168.79H18.6221C27.015 173.399 37.3232 175.714 49.5625 175.714C76.4475 175.714 100.578 165.717 121.964 145.699V145.698C132.007 136.348 144.98 120.9 160.885 99.3377V99.3367C186.507 64.8092 213.279 41.9 241.208 30.6531C235.797 29.8745 228.072 28.5691 218.039 26.7322V26.7312C192.473 22.1704 172.915 19.8953 159.355 19.8953C157.997 19.8953 153.98 20.051 147.291 20.364C151.844 27.6014 154.119 35.8329 154.119 45.0496C154.119 63.4189 145.652 80.6341 128.789 96.6902C111.925 112.747 93.87 120.801 74.6318 120.801C66.6118 120.801 60.0318 118.624 54.9219 114.246L54.916 114.242C49.9043 109.776 47.3984 104.038 47.3984 97.0574C47.3985 87.4944 51.7761 76.9697 60.458 65.492V65.491C69.2463 53.9231 80.5563 43.8583 94.3818 35.2947C108.142 26.751 123.183 20.7651 139.501 17.3347C131.651 8.85184 120.567 4.59158 106.195 4.59158C93.8699 4.59161 81.3863 7.56336 68.7412 13.5164H68.7402C56.1984 19.3854 45.161 27.4019 35.6279 37.5691C34.9184 38.3625 34.3137 38.9692 33.8154 39.3797C33.5666 39.5847 33.3366 39.7479 33.127 39.8611C32.9227 39.9714 32.7074 40.0515 32.4971 40.0515C32.1475 40.0515 31.827 39.9793 31.5567 39.8123C31.2834 39.6434 31.0877 39.3931 30.9629 39.0847L30.9375 39.0213V38.9529C30.9375 38.6984 31.0277 38.4226 31.167 38.1414C31.3088 37.855 31.5161 37.5339 31.7813 37.1795C32.312 36.4702 33.0998 35.5986 34.1367 34.5672C36.2124 32.5026 39.3186 29.7671 43.4492 26.364V26.3631C63.3341 10.0638 84.1515 1.89724 105.894 1.89724ZM142.116 20.9178C119.719 24.0094 98.8611 33.5486 79.5381 49.5506C60.1381 65.6163 50.5186 81.3704 50.5186 96.8094C50.5187 102.681 52.6901 107.605 57.0459 111.602L57.4678 111.971C61.8494 115.727 67.1613 117.609 73.4238 117.609C90.309 117.609 106.886 109.051 123.156 91.8396L123.912 91.0291C139.676 73.9969 147.525 56.6398 147.525 38.9529C147.525 32.4597 145.723 26.4509 142.116 20.9178ZM328.801 12.3054C307.768 12.3055 287.361 15.8709 267.578 22.9988C269.842 23.3174 273.614 23.873 278.895 24.6707L286.267 25.7898L286.269 25.7908C302.364 28.3601 316.642 29.6433 329.104 29.6433C337.234 29.6433 344.194 28.733 349.99 26.9217C352.892 25.9734 355.038 24.9522 356.451 23.8679C357.863 22.7846 358.503 21.6736 358.503 20.5388C358.503 19.4964 357.886 18.4802 356.499 17.4978C355.111 16.5149 353.003 15.6051 350.148 14.7801L350.147 14.7791C344.553 13.1329 337.44 12.3054 328.801 12.3054Z" fill="var(--fill-0, #DB1C2E)" stroke="var(--stroke-0, #FFC800)" stroke-width="0.703206"/>
<g id="T (Stroke)">
<mask id="path-10-outside-1_0_32" maskUnits="userSpaceOnUse" x="-0.296794" y="-0.296794" width="367" height="182" fill="black">
<rect fill="white" x="-0.296794" y="-0.296794" width="367" height="182"/>
<path d="M5.98459 152.021C5.98459 147.959 6.84459 145.928 8.56458 145.928C9.37399 145.928 9.77869 146.923 9.77869 148.912C9.77869 152.726 12.1563 154.633 16.9116 154.633C19.8457 154.633 22.3245 153.679 24.348 151.772C26.3716 149.866 27.3833 147.586 27.3833 144.933C27.3833 139.295 24.0951 136.476 17.5187 136.476C13.4716 136.476 9.98104 137.927 7.04694 140.829C4.11284 143.731 2.64579 147.213 2.64579 151.275C2.64579 159.317 7.24929 165.866 16.4563 170.923C25.7645 175.981 37.7033 178.509 52.2726 178.509C79.5901 178.509 105.946 170.799 131.342 155.379C140.953 149.41 148.491 143.275 153.954 136.974C159.519 130.59 168.22 117.864 180.058 98.7962C191.895 79.7281 202.974 65.0125 213.294 54.6494C223.614 44.2034 234.996 36.3274 247.441 31.0215C271.015 34.5864 290.744 36.3689 306.629 36.3689C322.412 36.3689 335.768 34.8351 346.695 31.7677C357.622 28.6173 363.085 24.8036 363.085 20.3268C363.085 13.197 352.006 9.63206 329.849 9.63206C308.298 9.63206 285.837 13.8188 262.466 22.1921C234.44 17.4666 216.835 14.6478 209.652 13.7358C202.873 12.9068 195.386 12.4923 187.191 12.4923C171.306 12.4923 157.243 13.9431 145 16.8448C136.198 7.14491 123.349 2.29498 106.452 2.29498C84.6995 2.29498 63.8573 10.4197 43.9256 26.669C35.6292 33.4672 31.4809 37.571 31.4809 38.9804C31.6833 39.4778 32.088 39.7265 32.6951 39.7265C33.2009 39.7265 34.1621 38.9389 35.5786 37.3637C45.1903 27.1664 56.3196 19.1247 68.9666 13.2384C81.7148 7.26927 94.3112 4.2847 106.756 4.2847C121.528 4.2847 132.91 8.72011 140.903 17.5909C124.31 20.99 109.032 27.0006 95.07 35.6227C81.2089 44.1619 69.8772 54.1934 61.0749 65.7172C52.3738 77.1581 48.0232 87.6041 48.0232 97.0552C48.0232 103.936 50.502 109.574 55.4596 113.968C60.5184 118.279 67.0443 120.434 75.0372 120.434C94.2606 120.434 112.321 112.434 129.217 96.4334C146.113 80.4328 154.562 63.313 154.562 45.0739C154.562 35.7056 152.184 27.3737 147.429 20.0781C154.511 19.7465 158.76 19.5806 160.177 19.5806C173.836 19.5806 193.514 21.8605 219.213 26.4203C230.14 28.41 238.335 29.7779 243.799 30.5241C215.368 41.5504 188.101 64.5565 161.998 99.5424C146.012 121.098 132.96 136.559 122.843 145.928C101.292 165.991 76.9595 176.022 49.8444 176.022V174.43C76.2885 174.43 100.121 164.671 121.384 144.875L121.388 144.872C131.386 135.615 144.365 120.254 160.338 98.7154L160.34 98.7123C184.957 65.7189 210.739 43.1499 237.759 31.2422C232.759 30.4542 226.434 29.3663 218.792 27.9748V27.9732C193.134 23.4209 173.621 21.1724 160.177 21.1724C159.028 21.1724 155.82 21.2904 150.49 21.5315C154.512 28.5422 156.504 36.3996 156.504 45.0739C156.504 63.7557 147.835 81.2341 130.685 97.4749C113.554 113.698 95.0008 122.026 75.0372 122.026C66.8359 122.026 59.9629 119.867 54.5756 115.501L54.0596 115.071L54.0463 115.061L54.0331 115.048C48.694 110.316 46.0806 104.272 46.0806 97.0552C46.0806 87.2054 50.611 76.4658 59.4264 64.8747L59.4283 64.8731L60.2725 63.7803C69.0826 52.5416 80.298 42.7318 93.9015 34.3512L95.2332 33.5397C108.216 25.7204 122.317 20.0945 137.53 16.6707C130.072 9.49149 119.887 5.87647 106.756 5.87647C94.7056 5.87647 82.4381 8.76378 69.9303 14.6203L69.9266 14.6219C57.5212 20.3957 46.5823 28.2929 37.1152 38.3368C36.3958 39.1351 35.744 39.7899 35.1688 40.2613C34.8797 40.4981 34.562 40.7296 34.2241 40.911C33.9288 41.0695 33.3861 41.3183 32.6951 41.3183C32.0578 41.3183 31.3731 41.1828 30.7714 40.8131C30.3266 40.5397 30.0201 40.1953 29.8134 39.84L29.6389 39.484L29.5384 39.2384V38.9804C29.5384 38.512 29.7014 38.0751 29.876 37.7244C30.0593 37.3563 30.3115 36.9729 30.6045 36.5834C31.1906 35.8044 32.0326 34.8818 33.0953 33.8304C35.2272 31.7214 38.3892 28.9547 42.5521 25.5436L42.5559 25.5405C62.7404 9.08511 84.0482 0.703206 106.452 0.703206C123.355 0.703206 136.545 5.44197 145.742 15.0229C157.89 12.2696 171.713 10.9005 187.191 10.9005C195.464 10.9005 203.048 11.3186 209.938 12.1612L209.95 12.1627C217.139 13.0755 234.597 15.8701 262.257 20.532C285.627 12.2215 308.162 8.04029 329.849 8.04029C340.998 8.04029 349.601 8.93101 355.486 10.8243C358.443 11.7761 360.832 13.0172 362.49 14.6172C364.178 16.2469 365.028 18.1738 365.028 20.3268C365.028 23.1678 363.267 25.649 360.247 27.7571C357.257 29.8443 352.907 31.6642 347.34 33.2693L347.325 33.2739C336.136 36.4149 322.554 37.9606 306.629 37.9606C290.734 37.9606 271.101 36.1926 247.756 32.6848C235.81 37.8709 224.822 45.5106 214.804 55.6505L214.799 55.6551C204.602 65.894 193.597 80.4984 181.79 99.5175C169.961 118.572 161.198 131.398 155.537 137.894L155.539 137.896C149.934 144.359 142.243 150.606 132.516 156.647L132.499 156.658C106.824 172.248 80.0698 180.101 52.2726 180.101C37.4362 180.101 25.0928 177.525 15.3826 172.249L15.375 172.246C5.71135 166.938 0.703206 159.923 0.703206 151.275C0.703206 146.873 2.30446 143.024 5.55017 139.814C8.79682 136.603 12.8101 134.885 17.5187 134.885C21.1289 134.885 24.1879 135.662 26.321 137.49C28.4384 139.305 29.3259 141.886 29.3259 144.933C29.3259 147.949 28.1616 150.605 25.8145 152.817C23.4434 155.051 20.4398 156.224 16.9116 156.224C14.2451 156.224 11.8865 155.69 10.2036 154.34C8.94589 153.332 8.24878 152.016 7.9746 150.518C7.94338 150.968 7.92717 151.469 7.92717 152.021C7.92717 158.08 11.6622 163.312 19.668 167.738C27.7848 172.17 37.808 174.43 49.8444 174.43V176.022C37.5009 176.022 27.0798 173.701 18.581 169.058C10.1834 164.415 5.98459 158.736 5.98459 152.021ZM146.7 38.9804C146.7 32.9993 145.119 27.4619 141.965 22.3445C120.3 25.5441 100.018 34.858 81.1191 50.4244C61.7895 66.3454 52.394 81.8002 52.394 96.8065C52.394 102.416 54.4687 107.037 58.5594 110.777C62.7543 114.519 67.8049 116.355 73.8231 116.355V117.947C67.2467 117.947 61.682 115.916 57.1291 111.854C52.6773 107.791 50.4514 102.776 50.4514 96.8065C50.4514 81.2204 60.2149 65.3856 79.7419 49.302C99.2689 33.2185 120.364 23.643 143.027 20.5755C146.771 26.213 148.643 32.348 148.643 38.9804C148.643 57.0536 140.447 74.7538 124.057 92.0809C107.666 109.325 90.9218 117.947 73.8231 117.947V116.355C90.0497 116.355 106.293 108.18 122.524 91.1032C138.707 73.9948 146.7 56.6294 146.7 38.9804ZM358.714 20.5755C358.714 19.9663 358.376 19.2657 357.227 18.4568C356.194 17.7291 354.606 16.9925 352.365 16.2852L351.363 15.9836L351.354 15.9805C345.969 14.4046 339.025 13.5866 330.456 13.5866C311.215 13.5866 292.499 16.571 274.294 22.5466C277.723 23.0525 282.297 23.7391 288.011 24.6062L288.028 24.6093C304.13 27.1657 318.369 28.4349 330.76 28.4349V30.0267C318.214 30.0267 303.847 28.7416 287.659 26.1716C276.732 24.5135 270.003 23.5186 267.474 23.187C287.81 15.7256 308.804 11.9948 330.456 11.9948C339.157 11.9948 346.341 12.8239 352.006 14.482C357.773 16.1401 360.657 18.1713 360.657 20.5755C360.657 23.1456 357.723 25.384 351.855 27.2908C345.986 29.1147 338.955 30.0267 330.76 30.0267V28.4349C338.773 28.4349 345.549 27.543 351.136 25.8109C353.959 24.8936 355.914 23.9468 357.132 23.0176C358.321 22.1106 358.714 21.3033 358.714 20.5755Z"/>
</mask>
<path d="M5.98459 152.021C5.98459 147.959 6.84459 145.928 8.56458 145.928C9.37399 145.928 9.77869 146.923 9.77869 148.912C9.77869 152.726 12.1563 154.633 16.9116 154.633C19.8457 154.633 22.3245 153.679 24.348 151.772C26.3716 149.866 27.3833 147.586 27.3833 144.933C27.3833 139.295 24.0951 136.476 17.5187 136.476C13.4716 136.476 9.98104 137.927 7.04694 140.829C4.11284 143.731 2.64579 147.213 2.64579 151.275C2.64579 159.317 7.24929 165.866 16.4563 170.923C25.7645 175.981 37.7033 178.509 52.2726 178.509C79.5901 178.509 105.946 170.799 131.342 155.379C140.953 149.41 148.491 143.275 153.954 136.974C159.519 130.59 168.22 117.864 180.058 98.7962C191.895 79.7281 202.974 65.0125 213.294 54.6494C223.614 44.2034 234.996 36.3274 247.441 31.0215C271.015 34.5864 290.744 36.3689 306.629 36.3689C322.412 36.3689 335.768 34.8351 346.695 31.7677C357.622 28.6173 363.085 24.8036 363.085 20.3268C363.085 13.197 352.006 9.63206 329.849 9.63206C308.298 9.63206 285.837 13.8188 262.466 22.1921C234.44 17.4666 216.835 14.6478 209.652 13.7358C202.873 12.9068 195.386 12.4923 187.191 12.4923C171.306 12.4923 157.243 13.9431 145 16.8448C136.198 7.14491 123.349 2.29498 106.452 2.29498C84.6995 2.29498 63.8573 10.4197 43.9256 26.669C35.6292 33.4672 31.4809 37.571 31.4809 38.9804C31.6833 39.4778 32.088 39.7265 32.6951 39.7265C33.2009 39.7265 34.1621 38.9389 35.5786 37.3637C45.1903 27.1664 56.3196 19.1247 68.9666 13.2384C81.7148 7.26927 94.3112 4.2847 106.756 4.2847C121.528 4.2847 132.91 8.72011 140.903 17.5909C124.31 20.99 109.032 27.0006 95.07 35.6227C81.2089 44.1619 69.8772 54.1934 61.0749 65.7172C52.3738 77.1581 48.0232 87.6041 48.0232 97.0552C48.0232 103.936 50.502 109.574 55.4596 113.968C60.5184 118.279 67.0443 120.434 75.0372 120.434C94.2606 120.434 112.321 112.434 129.217 96.4334C146.113 80.4328 154.562 63.313 154.562 45.0739C154.562 35.7056 152.184 27.3737 147.429 20.0781C154.511 19.7465 158.76 19.5806 160.177 19.5806C173.836 19.5806 193.514 21.8605 219.213 26.4203C230.14 28.41 238.335 29.7779 243.799 30.5241C215.368 41.5504 188.101 64.5565 161.998 99.5424C146.012 121.098 132.96 136.559 122.843 145.928C101.292 165.991 76.9595 176.022 49.8444 176.022V174.43C76.2885 174.43 100.121 164.671 121.384 144.875L121.388 144.872C131.386 135.615 144.365 120.254 160.338 98.7154L160.34 98.7123C184.957 65.7189 210.739 43.1499 237.759 31.2422C232.759 30.4542 226.434 29.3663 218.792 27.9748V27.9732C193.134 23.4209 173.621 21.1724 160.177 21.1724C159.028 21.1724 155.82 21.2904 150.49 21.5315C154.512 28.5422 156.504 36.3996 156.504 45.0739C156.504 63.7557 147.835 81.2341 130.685 97.4749C113.554 113.698 95.0008 122.026 75.0372 122.026C66.8359 122.026 59.9629 119.867 54.5756 115.501L54.0596 115.071L54.0463 115.061L54.0331 115.048C48.694 110.316 46.0806 104.272 46.0806 97.0552C46.0806 87.2054 50.611 76.4658 59.4264 64.8747L59.4283 64.8731L60.2725 63.7803C69.0826 52.5416 80.298 42.7318 93.9015 34.3512L95.2332 33.5397C108.216 25.7204 122.317 20.0945 137.53 16.6707C130.072 9.49149 119.887 5.87647 106.756 5.87647C94.7056 5.87647 82.4381 8.76378 69.9303 14.6203L69.9266 14.6219C57.5212 20.3957 46.5823 28.2929 37.1152 38.3368C36.3958 39.1351 35.744 39.7899 35.1688 40.2613C34.8797 40.4981 34.562 40.7296 34.2241 40.911C33.9288 41.0695 33.3861 41.3183 32.6951 41.3183C32.0578 41.3183 31.3731 41.1828 30.7714 40.8131C30.3266 40.5397 30.0201 40.1953 29.8134 39.84L29.6389 39.484L29.5384 39.2384V38.9804C29.5384 38.512 29.7014 38.0751 29.876 37.7244C30.0593 37.3563 30.3115 36.9729 30.6045 36.5834C31.1906 35.8044 32.0326 34.8818 33.0953 33.8304C35.2272 31.7214 38.3892 28.9547 42.5521 25.5436L42.5559 25.5405C62.7404 9.08511 84.0482 0.703206 106.452 0.703206C123.355 0.703206 136.545 5.44197 145.742 15.0229C157.89 12.2696 171.713 10.9005 187.191 10.9005C195.464 10.9005 203.048 11.3186 209.938 12.1612L209.95 12.1627C217.139 13.0755 234.597 15.8701 262.257 20.532C285.627 12.2215 308.162 8.04029 329.849 8.04029C340.998 8.04029 349.601 8.93101 355.486 10.8243C358.443 11.7761 360.832 13.0172 362.49 14.6172C364.178 16.2469 365.028 18.1738 365.028 20.3268C365.028 23.1678 363.267 25.649 360.247 27.7571C357.257 29.8443 352.907 31.6642 347.34 33.2693L347.325 33.2739C336.136 36.4149 322.554 37.9606 306.629 37.9606C290.734 37.9606 271.101 36.1926 247.756 32.6848C235.81 37.8709 224.822 45.5106 214.804 55.6505L214.799 55.6551C204.602 65.894 193.597 80.4984 181.79 99.5175C169.961 118.572 161.198 131.398 155.537 137.894L155.539 137.896C149.934 144.359 142.243 150.606 132.516 156.647L132.499 156.658C106.824 172.248 80.0698 180.101 52.2726 180.101C37.4362 180.101 25.0928 177.525 15.3826 172.249L15.375 172.246C5.71135 166.938 0.703206 159.923 0.703206 151.275C0.703206 146.873 2.30446 143.024 5.55017 139.814C8.79682 136.603 12.8101 134.885 17.5187 134.885C21.1289 134.885 24.1879 135.662 26.321 137.49C28.4384 139.305 29.3259 141.886 29.3259 144.933C29.3259 147.949 28.1616 150.605 25.8145 152.817C23.4434 155.051 20.4398 156.224 16.9116 156.224C14.2451 156.224 11.8865 155.69 10.2036 154.34C8.94589 153.332 8.24878 152.016 7.9746 150.518C7.94338 150.968 7.92717 151.469 7.92717 152.021C7.92717 158.08 11.6622 163.312 19.668 167.738C27.7848 172.17 37.808 174.43 49.8444 174.43V176.022C37.5009 176.022 27.0798 173.701 18.581 169.058C10.1834 164.415 5.98459 158.736 5.98459 152.021ZM146.7 38.9804C146.7 32.9993 145.119 27.4619 141.965 22.3445C120.3 25.5441 100.018 34.858 81.1191 50.4244C61.7895 66.3454 52.394 81.8002 52.394 96.8065C52.394 102.416 54.4687 107.037 58.5594 110.777C62.7543 114.519 67.8049 116.355 73.8231 116.355V117.947C67.2467 117.947 61.682 115.916 57.1291 111.854C52.6773 107.791 50.4514 102.776 50.4514 96.8065C50.4514 81.2204 60.2149 65.3856 79.7419 49.302C99.2689 33.2185 120.364 23.643 143.027 20.5755C146.771 26.213 148.643 32.348 148.643 38.9804C148.643 57.0536 140.447 74.7538 124.057 92.0809C107.666 109.325 90.9218 117.947 73.8231 117.947V116.355C90.0497 116.355 106.293 108.18 122.524 91.1032C138.707 73.9948 146.7 56.6294 146.7 38.9804ZM358.714 20.5755C358.714 19.9663 358.376 19.2657 357.227 18.4568C356.194 17.7291 354.606 16.9925 352.365 16.2852L351.363 15.9836L351.354 15.9805C345.969 14.4046 339.025 13.5866 330.456 13.5866C311.215 13.5866 292.499 16.571 274.294 22.5466C277.723 23.0525 282.297 23.7391 288.011 24.6062L288.028 24.6093C304.13 27.1657 318.369 28.4349 330.76 28.4349V30.0267C318.214 30.0267 303.847 28.7416 287.659 26.1716C276.732 24.5135 270.003 23.5186 267.474 23.187C287.81 15.7256 308.804 11.9948 330.456 11.9948C339.157 11.9948 346.341 12.8239 352.006 14.482C357.773 16.1401 360.657 18.1713 360.657 20.5755C360.657 23.1456 357.723 25.384 351.855 27.2908C345.986 29.1147 338.955 30.0267 330.76 30.0267V28.4349C338.773 28.4349 345.549 27.543 351.136 25.8109C353.959 24.8936 355.914 23.9468 357.132 23.0176C358.321 22.1106 358.714 21.3033 358.714 20.5755Z" fill="var(--fill-0, #DB1C2E)"/>
<path d="M16.4563 170.923L16.1178 171.54L16.1206 171.541L16.4563 170.923ZM131.342 155.379L131.707 155.98L131.713 155.976L131.342 155.379ZM153.954 136.974L153.424 136.512L153.423 136.513L153.954 136.974ZM213.294 54.6494L213.792 55.1456L213.794 55.1436L213.294 54.6494ZM247.441 31.0215L247.546 30.3262L247.349 30.2964L247.165 30.3746L247.441 31.0215ZM346.695 31.7677L346.885 32.4447L346.89 32.4433L346.695 31.7677ZM262.466 22.1921L262.349 22.8856L262.53 22.9161L262.703 22.8541L262.466 22.1921ZM209.652 13.7358L209.74 13.0382L209.737 13.0378L209.652 13.7358ZM145 16.8448L144.48 17.3173L144.759 17.6248L145.163 17.529L145 16.8448ZM43.9256 26.669L43.4812 26.124L43.4799 26.1251L43.9256 26.669ZM31.4809 38.9804H30.7777V39.1179L30.8296 39.2454L31.4809 38.9804ZM35.5786 37.3637L35.0668 36.8814L35.0612 36.8874L35.0557 36.8935L35.5786 37.3637ZM68.9666 13.2384L69.2634 13.876L69.2648 13.8753L68.9666 13.2384ZM140.903 17.5909L141.044 18.2798L142.248 18.0332L141.425 17.1202L140.903 17.5909ZM95.0701 35.6227L95.4389 36.2214L95.4395 36.2211L95.0701 35.6227ZM61.0749 65.7172L60.5161 65.2903L60.5152 65.2915L61.0749 65.7172ZM55.4596 113.968L54.9931 114.494L55.0035 114.503L55.4596 113.968ZM147.429 20.0781L147.396 19.3756L146.169 19.4331L146.839 20.4621L147.429 20.0781ZM219.213 26.4203L219.339 25.7285L219.336 25.7279L219.213 26.4203ZM243.799 30.5241L244.053 31.1797L246.59 30.1956L243.894 29.8273L243.799 30.5241ZM161.998 99.5424L161.434 99.1219L161.433 99.1235L161.998 99.5424ZM122.843 145.928L122.365 145.412L122.364 145.413L122.843 145.928ZM121.384 144.875L120.938 144.331L120.921 144.345L120.905 144.361L121.384 144.875ZM121.388 144.872L121.834 145.416L121.85 145.403L121.866 145.388L121.388 144.872ZM160.338 98.7154L160.903 99.1343L160.922 99.1088L160.938 99.0817L160.338 98.7154ZM160.34 98.7123L159.776 98.2918L159.757 98.318L159.74 98.346L160.34 98.7123ZM237.759 31.2422L238.042 31.8857L240.233 30.9203L237.868 30.5476L237.759 31.2422ZM218.792 27.9748H218.089V28.5615L218.666 28.6666L218.792 27.9748ZM218.792 27.9732H219.495V27.3838L218.915 27.2808L218.792 27.9732ZM150.49 21.5315L150.459 20.829L149.307 20.8811L149.88 21.8814L150.49 21.5315ZM130.685 97.4749L131.169 97.9855V97.9855L130.685 97.4749ZM54.5756 115.501L54.126 116.041L54.1328 116.047L54.5756 115.501ZM54.0596 115.071L54.5092 114.531L54.5053 114.528L54.0596 115.071ZM54.0463 115.061L53.5657 115.574L53.5827 115.59L53.6006 115.605L54.0463 115.061ZM54.0331 115.048L54.5137 114.535L54.5067 114.528L54.4995 114.522L54.0331 115.048ZM59.4264 64.8747L58.9807 64.3308L58.9167 64.3832L58.8667 64.449L59.4264 64.8747ZM59.4283 64.8731L59.874 65.417L59.9359 65.3663L59.9848 65.303L59.4283 64.8731ZM60.2725 63.7803L59.719 63.3465L59.716 63.3504L60.2725 63.7803ZM93.9015 34.3512L93.5356 33.7507L93.5326 33.7525L93.9015 34.3512ZM95.2332 33.5397L94.8704 32.9374L94.8673 32.9392L95.2332 33.5397ZM137.53 16.6707L137.684 17.3567L138.958 17.0699L138.018 16.1641L137.53 16.6707ZM69.9303 14.6203L70.1969 15.2711L70.2129 15.2645L70.2285 15.2572L69.9303 14.6203ZM69.9265 14.6219L69.6599 13.9712L69.6447 13.9774L69.6298 13.9844L69.9265 14.6219ZM37.1152 38.3368L36.6035 37.8545L36.5981 37.8602L36.5928 37.8661L37.1152 38.3368ZM35.1688 40.2613L35.6145 40.8052L35.1688 40.2613ZM34.2241 40.911L34.5566 41.5306L34.5567 41.5306L34.2241 40.911ZM30.7714 40.8131L30.4033 41.4122L30.4033 41.4122L30.7714 40.8131ZM29.8134 39.84L29.182 40.1496L29.193 40.172L29.2056 40.1936L29.8134 39.84ZM29.6389 39.484L28.9881 39.7504L28.9971 39.7723L29.0075 39.7936L29.6389 39.484ZM29.5384 39.2384H28.8352V39.3768L28.8876 39.5048L29.5384 39.2384ZM29.876 37.7244L29.2465 37.411L29.2465 37.411L29.876 37.7244ZM30.6045 36.5834L30.0426 36.1606L30.0426 36.1606L30.6045 36.5834ZM33.0953 33.8304L32.6008 33.3305L32.6008 33.3305L33.0953 33.8304ZM42.5559 25.5405L42.1116 24.9954L42.1102 24.9965L42.5559 25.5405ZM145.742 15.0229L145.235 15.5099L145.51 15.7966L145.898 15.7088L145.742 15.0229ZM209.938 12.1612L210.033 11.4644L210.024 11.4632L209.938 12.1612ZM209.95 12.1627L209.855 12.8595L209.861 12.8603L209.95 12.1627ZM262.257 20.532L262.14 21.2254L262.32 21.2558L262.493 21.1945L262.257 20.532ZM355.486 10.8243L355.701 10.1549V10.1549L355.486 10.8243ZM362.49 14.6172L362.978 14.1113V14.1113L362.49 14.6172ZM360.247 27.7571L360.65 28.3338L360.65 28.3338L360.247 27.7571ZM347.34 33.2693L347.145 32.5935L347.133 32.5971L347.34 33.2693ZM347.325 33.2739L347.515 33.951L347.523 33.9486L347.531 33.9461L347.325 33.2739ZM247.756 32.6848L247.86 31.9894L247.661 31.9594L247.476 32.0398L247.756 32.6848ZM214.804 55.6505L215.25 56.1944L215.279 56.171L215.304 56.1447L214.804 55.6505ZM214.799 55.6551L214.353 55.1112L214.325 55.1337L214.3 55.1589L214.799 55.6551ZM181.79 99.5175L181.192 99.1466V99.1466L181.79 99.5175ZM155.537 137.894L155.006 137.432L154.53 137.979L155.091 138.438L155.537 137.894ZM155.539 137.896L156.07 138.356L156.544 137.81L155.984 137.352L155.539 137.896ZM132.516 156.647L132.145 156.05L132.138 156.054L132.516 156.647ZM132.499 156.658L132.864 157.259L132.87 157.255L132.877 157.251L132.499 156.658ZM15.3826 172.249L15.7183 171.632L15.6846 171.613L15.6492 171.599L15.3826 172.249ZM15.375 172.246L15.0364 172.863L15.0714 172.882L15.1084 172.897L15.375 172.246ZM5.55017 139.814L5.0557 139.314L5.05567 139.314L5.55017 139.814ZM26.321 137.49L26.7786 136.956L26.7786 136.956L26.321 137.49ZM25.8145 152.817L26.2967 153.329H26.2967L25.8145 152.817ZM10.2036 154.34L9.76368 154.889L9.76372 154.889L10.2036 154.34ZM7.9746 150.518L8.66631 150.391L7.27307 150.469L7.9746 150.518ZM19.668 167.738L19.3278 168.354L19.331 168.356L19.668 167.738ZM18.581 169.058L18.2408 169.674L18.2439 169.675L18.581 169.058ZM141.965 22.3445L142.564 21.9756L142.321 21.5811L141.862 21.6488L141.965 22.3445ZM81.1191 50.4244L80.6721 49.8816V49.8816L81.1191 50.4244ZM58.5594 110.777L58.0849 111.296L58.0913 111.301L58.5594 110.777ZM57.1291 111.854L56.655 112.373L56.6609 112.378L57.1291 111.854ZM143.027 20.5755L143.613 20.1865L143.37 19.8196L142.933 19.8786L143.027 20.5755ZM124.057 92.0809L124.567 92.5654L124.568 92.5642L124.057 92.0809ZM122.524 91.1032L123.034 91.5877L123.035 91.5864L122.524 91.1032ZM357.227 18.4568L357.632 17.8819V17.8819L357.227 18.4568ZM352.365 16.2852L352.577 15.6145L352.568 15.6118L352.365 16.2852ZM351.363 15.9836L351.144 16.6518L351.152 16.6545L351.161 16.657L351.363 15.9836ZM351.354 15.9805L351.573 15.3123L351.562 15.3088L351.551 15.3056L351.354 15.9805ZM274.294 22.5466L274.075 21.8784L274.191 23.2422L274.294 22.5466ZM288.011 24.6062L288.137 23.9144L288.127 23.9125L288.117 23.911L288.011 24.6062ZM288.028 24.6093L287.902 25.3012L287.91 25.3026L287.918 25.3038L288.028 24.6093ZM287.659 26.1716L287.769 25.4771L287.764 25.4763L287.659 26.1716ZM267.474 23.187L267.232 22.5268L267.383 23.8842L267.474 23.187ZM352.006 14.482L351.809 15.1569L351.812 15.1578L352.006 14.482ZM351.855 27.2908L352.063 27.9624L352.072 27.9596L351.855 27.2908ZM351.136 25.8109L351.344 26.4827L351.353 26.4797L351.136 25.8109ZM357.132 23.0176L357.559 23.5767L357.559 23.5766L357.132 23.0176ZM5.98459 152.021H6.6878C6.6878 150.018 6.90295 148.609 7.27714 147.725C7.46115 147.291 7.66807 147.021 7.87083 146.861C8.06313 146.71 8.28429 146.631 8.56458 146.631V145.928V145.224C7.98487 145.224 7.45354 145.4 7.00085 145.756C6.5586 146.104 6.22802 146.596 5.98203 147.177C5.49624 148.324 5.28139 149.962 5.28139 152.021H5.98459ZM8.56458 145.928V146.631C8.60995 146.631 8.6282 146.64 8.65006 146.658C8.68379 146.686 8.7513 146.761 8.82379 146.939C8.97404 147.308 9.07549 147.944 9.07549 148.912H9.77869H10.4819C10.4819 147.891 10.381 147.034 10.1265 146.409C9.99668 146.09 9.81125 145.791 9.54145 145.57C9.25978 145.339 8.92391 145.224 8.56458 145.224V145.928ZM9.77869 148.912H9.07549C9.07549 150.974 9.72576 152.631 11.122 153.751C12.4885 154.847 14.4585 155.336 16.9116 155.336V154.633V153.929C14.6094 153.929 13.0129 153.465 12.0019 152.654C11.0204 151.867 10.4819 150.664 10.4819 148.912H9.77869ZM16.9116 154.633V155.336C20.0141 155.336 22.6686 154.321 24.8303 152.284L24.348 151.772L23.8658 151.261C21.9805 153.037 19.6773 153.929 16.9116 153.929V154.633ZM24.348 151.772L24.8303 152.284C26.9872 150.252 28.0865 147.79 28.0865 144.933H27.3833H26.6801C26.6801 147.382 25.7559 149.48 23.8658 151.261L24.348 151.772ZM27.3833 144.933H28.0865C28.0865 141.975 27.2188 139.637 25.3748 138.057C23.5515 136.494 20.891 135.773 17.5187 135.773V136.476V137.18C20.7227 137.18 22.9945 137.869 24.4595 139.124C25.9037 140.362 26.6801 142.253 26.6801 144.933H27.3833ZM17.5187 136.476V135.773C13.2824 135.773 9.61532 137.3 6.55247 140.329L7.04694 140.829L7.54141 141.329C10.3468 138.555 13.6608 137.18 17.5187 137.18V136.476ZM7.04694 140.829L6.55247 140.329C3.48717 143.36 1.94258 147.022 1.94258 151.275H2.64579H3.34899C3.34899 147.404 4.7385 144.101 7.54141 141.329L7.04694 140.829ZM2.64579 151.275H1.94258C1.94258 159.653 6.76559 166.403 16.1178 171.54L16.4563 170.923L16.7949 170.307C7.73299 165.33 3.34899 158.981 3.34899 151.275H2.64579ZM16.4563 170.923L16.1206 171.541C25.5632 176.672 37.6279 179.212 52.2726 179.212V178.509V177.806C37.7786 177.806 25.9658 175.29 16.792 170.306L16.4563 170.923ZM52.2726 178.509V179.212C79.73 179.212 106.211 171.461 131.707 155.98L131.342 155.379L130.977 154.778C105.682 170.137 79.4502 177.806 52.2726 177.806V178.509ZM131.342 155.379L131.713 155.976C141.364 149.982 148.963 143.804 154.486 137.435L153.954 136.974L153.423 136.513C148.019 142.745 140.542 148.837 130.971 154.781L131.342 155.379ZM153.954 136.974L154.485 137.436C160.092 131.004 168.82 118.232 180.655 99.1671L180.058 98.7962L179.46 98.4253C167.621 117.497 158.947 130.177 153.424 136.512L153.954 136.974ZM180.058 98.7962L180.655 99.1671C192.478 80.123 203.525 65.4564 213.792 55.1456L213.294 54.6494L212.796 54.1532C202.424 64.5686 191.313 79.3332 179.46 98.4253L180.058 98.7962ZM213.294 54.6494L213.794 55.1436C224.056 44.757 235.363 36.9355 247.717 31.6684L247.441 31.0215L247.165 30.3746C234.63 35.7193 223.173 43.6498 212.794 54.1552L213.294 54.6494ZM247.441 31.0215L247.336 31.7168C270.929 35.2847 290.696 37.0721 306.629 37.0721V36.3689V35.6657C290.792 35.6657 271.101 33.8882 247.546 30.3262L247.441 31.0215ZM306.629 36.3689V37.0721C322.454 37.0721 335.877 35.5348 346.885 32.4447L346.695 31.7677L346.505 31.0906C335.658 34.1354 322.371 35.6657 306.629 35.6657V36.3689ZM346.695 31.7677L346.89 32.4433C352.383 30.8596 356.566 29.0927 359.39 27.1213C362.213 25.1506 363.788 22.8921 363.788 20.3268H363.085H362.382C362.382 22.2383 361.225 24.1251 358.585 25.968C355.946 27.8102 351.934 29.5253 346.5 31.092L346.695 31.7677ZM363.085 20.3268H363.788C363.788 16.2803 360.609 13.4438 354.992 11.6363C349.345 9.81951 340.947 8.92885 329.849 8.92885V9.63206V10.3353C340.908 10.3353 349.128 11.2271 354.561 12.9751C360.023 14.7326 362.382 17.2435 362.382 20.3268H363.085ZM329.849 9.63206V8.92885C308.206 8.92885 285.665 13.1336 262.229 21.5301L262.466 22.1921L262.703 22.8541C286.01 14.5039 308.391 10.3353 329.849 10.3353V9.63206ZM262.466 22.1921L262.583 21.4987C234.562 16.774 216.941 13.9524 209.74 13.0382L209.652 13.7358L209.563 14.4335C216.729 15.3432 234.318 18.1591 262.349 22.8856L262.466 22.1921ZM209.652 13.7358L209.737 13.0378C202.925 12.2047 195.409 11.7891 187.191 11.7891V12.4923V13.1955C195.363 13.1955 202.821 13.6089 209.566 14.4339L209.652 13.7358ZM187.191 12.4923V11.7891C171.265 11.7891 157.145 13.2435 144.838 16.1605L145 16.8448L145.163 17.529C157.34 14.6427 171.347 13.1955 187.191 13.1955V12.4923ZM145 16.8448L145.521 16.3722C136.549 6.48564 123.486 1.59177 106.452 1.59177V2.29498V2.99819C123.211 2.99819 135.847 7.80419 144.48 17.3173L145 16.8448ZM106.452 2.29498V1.59177C84.5093 1.59177 63.5145 9.79178 43.4812 26.124L43.9256 26.669L44.3699 27.214C64.2 11.0475 84.8897 2.99819 106.452 2.99819V2.29498ZM43.9256 26.669L43.4799 26.1251C39.3262 29.5286 36.1951 32.2705 34.0975 34.3456C33.0503 35.3816 32.2451 36.2666 31.6968 36.9953C31.4228 37.3595 31.2014 37.6998 31.0459 38.0122C30.8956 38.3141 30.7777 38.6467 30.7777 38.9804H31.4809H32.1841C32.1841 38.9617 32.1959 38.8578 32.3049 38.639C32.4086 38.4306 32.5761 38.1659 32.8206 37.8409C33.3094 37.1914 34.0598 36.3613 35.0867 35.3454C37.1373 33.3167 40.2285 30.6076 44.3713 27.2129L43.9256 26.669ZM31.4809 38.9804L30.8296 39.2454C30.9795 39.6139 31.2218 39.9263 31.568 40.1391C31.908 40.348 32.2972 40.4297 32.6951 40.4297V39.7265V39.0233C32.4859 39.0233 32.3691 38.9807 32.3044 38.9409C32.246 38.905 32.1848 38.8443 32.1323 38.7154L31.4809 38.9804ZM32.6951 39.7265V40.4297C32.9896 40.4297 33.2653 40.3203 33.4924 40.1984C33.7302 40.0708 33.981 39.8929 34.241 39.6797C34.7617 39.2531 35.3835 38.6324 36.1015 37.8339L35.5786 37.3637L35.0557 36.8935C34.3572 37.6703 33.7901 38.231 33.3496 38.5919C33.1291 38.7726 32.9562 38.89 32.8272 38.9593C32.6876 39.0343 32.6534 39.0233 32.6951 39.0233V39.7265ZM35.5786 37.3637L36.0903 37.8461C45.6411 27.7134 56.6976 19.7244 69.2634 13.876L68.9666 13.2384L68.6699 12.6009C55.9417 18.5249 44.7395 26.6195 35.0668 36.8814L35.5786 37.3637ZM68.9666 13.2384L69.2648 13.8753C81.932 7.94408 94.427 4.9879 106.756 4.9879V4.2847V3.58149C94.1954 3.58149 81.4977 6.59447 68.6684 12.6016L68.9666 13.2384ZM106.756 4.2847V4.9879C121.379 4.9879 132.551 9.37284 140.38 18.0616L140.903 17.5909L141.425 17.1202C133.268 8.06738 121.676 3.58149 106.756 3.58149V4.2847ZM140.903 17.5909L140.762 16.902C124.091 20.3171 108.735 26.3576 94.7006 35.0244L95.0701 35.6227L95.4395 36.2211C109.329 27.6437 124.529 21.6629 141.044 18.2798L140.903 17.5909ZM95.0701 35.6227L94.7012 35.024C80.7757 43.6029 69.3767 53.6902 60.5161 65.2903L61.0749 65.7172L61.6337 66.1441C70.3778 54.6966 81.6421 44.721 95.4389 36.2214L95.0701 35.6227ZM61.0749 65.7172L60.5152 65.2915C51.7669 76.7944 47.32 87.3887 47.32 97.0552H48.0232H48.7264C48.7264 87.8195 52.9807 77.5217 61.6346 66.1429L61.0749 65.7172ZM48.0232 97.0552H47.32C47.32 104.129 49.8785 109.961 54.9932 114.494L55.4596 113.968L55.9261 113.442C51.1255 109.187 48.7264 103.744 48.7264 97.0552H48.0232ZM55.4596 113.968L55.0035 114.503C60.2141 118.943 66.9125 121.138 75.0372 121.138V120.434V119.731C67.1761 119.731 60.8228 117.614 55.9158 113.433L55.4596 113.968ZM75.0372 120.434V121.138C94.477 121.138 112.703 113.041 129.7 96.944L129.217 96.4334L128.733 95.9229C111.939 111.827 94.0443 119.731 75.0372 119.731V120.434ZM129.217 96.4334L129.7 96.944C146.696 80.8494 155.265 63.556 155.265 45.0739H154.562H153.858C153.858 63.0699 145.531 80.0163 128.733 95.9229L129.217 96.4334ZM154.562 45.0739H155.265C155.265 35.5801 152.853 27.1127 148.018 19.6941L147.429 20.0781L146.839 20.4621C151.515 27.6347 153.858 35.8312 153.858 45.0739H154.562ZM147.429 20.0781L147.462 20.7805C154.552 20.4485 158.781 20.2838 160.177 20.2838V19.5806V18.8774C158.74 18.8774 154.47 19.0444 147.396 19.3756L147.429 20.0781ZM160.177 19.5806V20.2838C173.772 20.2838 193.402 22.5549 219.09 27.1127L219.213 26.4203L219.336 25.7279C193.626 21.1662 173.899 18.8774 160.177 18.8774V19.5806ZM219.213 26.4203L219.087 27.1121C230.016 29.1022 238.224 30.4725 243.704 31.2208L243.799 30.5241L243.894 29.8273C238.446 29.0834 230.264 27.7178 219.339 25.7285L219.213 26.4203ZM243.799 30.5241L243.544 29.8685C214.949 40.9589 187.584 64.0735 161.434 99.1219L161.998 99.5424L162.562 99.9629C188.618 65.0395 215.788 42.1419 244.053 31.1797L243.799 30.5241ZM161.998 99.5424L161.433 99.1235C145.454 120.67 132.433 136.089 122.365 145.412L122.843 145.928L123.321 146.444C133.488 137.03 146.571 121.525 162.563 99.9613L161.998 99.5424ZM122.843 145.928L122.364 145.413C100.931 165.366 76.7658 175.319 49.8444 175.319V176.022V176.725C77.1533 176.725 101.654 166.615 123.322 146.442L122.843 145.928ZM49.8444 176.022H50.5476V174.43H49.8444H49.1412V176.022H49.8444ZM49.8444 174.43V175.134C76.4823 175.134 100.482 165.296 121.863 145.39L121.384 144.875L120.905 144.361C99.7594 164.046 76.0948 173.727 49.8444 173.727V174.43ZM121.384 144.875L121.83 145.419L121.834 145.416L121.388 144.872L120.942 144.328L120.938 144.331L121.384 144.875ZM121.388 144.872L121.866 145.388C131.913 136.085 144.923 120.681 160.903 99.1343L160.338 98.7154L159.773 98.2965C143.807 119.826 130.859 135.144 120.91 144.356L121.388 144.872ZM160.338 98.7154L160.938 99.0817L160.94 99.0786L160.34 98.7123L159.74 98.346L159.738 98.3491L160.338 98.7154ZM160.34 98.7123L160.904 99.1328C185.476 66.1988 211.17 43.7284 238.042 31.8857L237.759 31.2422L237.475 30.5988C210.308 42.5714 184.437 65.2391 159.776 98.2918L160.34 98.7123ZM237.759 31.2422L237.868 30.5476C232.876 29.7608 226.557 28.6739 218.918 27.2829L218.792 27.9748L218.666 28.6666C226.311 30.0587 232.642 31.1477 237.649 31.9369L237.759 31.2422ZM218.792 27.9748H219.495V27.9732H218.792H218.089V27.9748H218.792ZM218.792 27.9732L218.915 27.2808C193.245 22.7266 173.684 20.4692 160.177 20.4692V21.1724V21.8756C173.558 21.8756 193.022 24.1153 218.669 28.6656L218.792 27.9732ZM160.177 21.1724V20.4692C159.009 20.4692 155.781 20.5882 150.459 20.829L150.49 21.5315L150.522 22.234C155.859 21.9925 159.048 21.8756 160.177 21.8756V21.1724ZM150.49 21.5315L149.88 21.8814C153.835 28.7768 155.801 36.5118 155.801 45.0739H156.504H157.207C157.207 36.2875 155.188 28.3077 151.1 21.1816L150.49 21.5315ZM156.504 45.0739H155.801C155.801 63.5126 147.253 80.8175 130.202 96.9643L130.685 97.4749L131.169 97.9855C148.418 81.6506 157.207 63.9988 157.207 45.0739H156.504ZM130.685 97.4749L130.202 96.9643C113.171 113.092 94.7844 121.323 75.0372 121.323V122.026V122.729C95.2172 122.729 113.936 114.305 131.169 97.9855L130.685 97.4749ZM75.0372 122.026V121.323C66.9629 121.323 60.2562 119.2 55.0184 114.954L54.5756 115.501L54.1328 116.047C59.6696 120.535 66.709 122.729 75.0372 122.729V122.026ZM54.5756 115.501L55.0252 114.96L54.5092 114.531L54.0596 115.071L53.61 115.612L54.126 116.041L54.5756 115.501ZM54.0596 115.071L54.5053 114.528L54.492 114.517L54.0463 115.061L53.6006 115.605L53.6139 115.615L54.0596 115.071ZM54.0463 115.061L54.527 114.547L54.5137 114.535L54.0331 115.048L53.5524 115.561L53.5657 115.574L54.0463 115.061ZM54.0331 115.048L54.4995 114.522C49.3176 109.929 46.7838 104.08 46.7838 97.0552H46.0806H45.3774C45.3774 104.465 48.0704 110.703 53.5666 115.574L54.0331 115.048ZM46.0806 97.0552H46.7838C46.7838 87.4208 51.2179 76.8295 59.9861 65.3004L59.4264 64.8747L58.8667 64.449C50.0041 76.1021 45.3774 86.9899 45.3774 97.0552H46.0806ZM59.4264 64.8747L59.8721 65.4186L59.874 65.417L59.4283 64.8731L58.9826 64.3292L58.9807 64.3308L59.4264 64.8747ZM59.4283 64.8731L59.9848 65.303L60.829 64.2102L60.2725 63.7803L59.716 63.3504L58.8718 64.4432L59.4283 64.8731ZM60.2725 63.7803L60.8259 64.2142C69.5789 53.0483 80.7291 43.2922 94.2703 34.9499L93.9015 34.3512L93.5326 33.7525C79.8669 42.1715 68.5863 52.0349 59.719 63.3465L60.2725 63.7803ZM93.9015 34.3512L94.2674 34.9517L95.5991 34.1403L95.2332 33.5397L94.8673 32.9392L93.5356 33.7507L93.9015 34.3512ZM95.2332 33.5397L95.596 34.1421C108.512 26.3627 122.543 20.7645 137.684 17.3567L137.53 16.6707L137.375 15.9846C122.092 19.4246 107.919 25.078 94.8704 32.9374L95.2332 33.5397ZM137.53 16.6707L138.018 16.1641C130.398 8.82901 120.021 5.17326 106.756 5.17326V5.87647V6.57968C119.753 6.57968 129.747 10.154 137.042 17.1773L137.53 16.6707ZM106.756 5.87647V5.17326C94.5898 5.17326 82.2209 8.08897 69.6321 13.9835L69.9303 14.6203L70.2285 15.2572C82.6552 9.43859 94.8214 6.57968 106.756 6.57968V5.87647ZM69.9303 14.6203L69.6637 13.9696L69.6599 13.9712L69.9265 14.6219L70.1932 15.2726L70.1969 15.2711L69.9303 14.6203ZM69.9265 14.6219L69.6298 13.9844C57.1433 19.7959 46.1315 27.746 36.6035 37.8545L37.1152 38.3368L37.6269 38.8192C47.0331 28.8399 57.8992 20.9954 70.2233 15.2594L69.9265 14.6219ZM37.1152 38.3368L36.5928 37.8661C35.883 38.6537 35.2584 39.2787 34.7231 39.7173L35.1688 40.2613L35.6145 40.8052C36.2296 40.3012 36.9087 39.6164 37.6376 38.8076L37.1152 38.3368ZM35.1688 40.2613L34.7231 39.7173C34.4533 39.9385 34.1745 40.1395 33.8915 40.2915L34.2241 40.911L34.5567 41.5306C34.9494 41.3197 35.3062 41.0578 35.6145 40.8052L35.1688 40.2613ZM34.2241 40.911L33.8916 40.2914C33.6409 40.4259 33.2187 40.6151 32.6951 40.6151V41.3183V42.0215C33.5535 42.0215 34.2167 41.713 34.5566 41.5306L34.2241 40.911ZM32.6951 41.3183V40.6151C32.152 40.6151 31.6036 40.499 31.1396 40.2139L30.7714 40.8131L30.4033 41.4122C31.1427 41.8665 31.9636 42.0215 32.6951 42.0215V41.3183ZM30.7714 40.8131L31.1396 40.214C30.8005 40.0056 30.5737 39.7485 30.4213 39.4864L29.8134 39.84L29.2056 40.1936C29.4665 40.6421 29.8526 41.0738 30.4033 41.4122L30.7714 40.8131ZM29.8134 39.84L30.4448 39.5304L30.2703 39.1745L29.6389 39.484L29.0075 39.7936L29.182 40.1496L29.8134 39.84ZM29.6389 39.484L30.2897 39.2176L30.1891 38.972L29.5384 39.2384L28.8876 39.5048L28.9881 39.7504L29.6389 39.484ZM29.5384 39.2384H30.2416V38.9804H29.5384H28.8352V39.2384H29.5384ZM29.5384 38.9804H30.2416C30.2416 38.6687 30.3522 38.3459 30.5056 38.0377L29.876 37.7244L29.2465 37.411C29.0507 37.8044 28.8352 38.3553 28.8352 38.9804H29.5384ZM29.876 37.7244L30.5055 38.0378C30.6628 37.722 30.8879 37.3764 31.1664 37.0061L30.6045 36.5834L30.0426 36.1606C29.7351 36.5694 29.4558 36.9906 29.2465 37.411L29.876 37.7244ZM30.6045 36.5834L31.1664 37.0062C31.7228 36.2667 32.5374 35.3716 33.5899 34.3303L33.0953 33.8304L32.6008 33.3305C31.5278 34.3921 30.6585 35.3421 30.0426 36.1606L30.6045 36.5834ZM33.0953 33.8304L33.5899 34.3303C35.6982 32.2446 38.8403 29.4942 42.9978 26.0875L42.5521 25.5436L42.1064 24.9997C37.9381 28.4152 34.7561 31.1983 32.6008 33.3305L33.0953 33.8304ZM42.5521 25.5436L42.9978 26.0875L43.0016 26.0844L42.5559 25.5405L42.1102 24.9965L42.1064 24.9997L42.5521 25.5436ZM42.5559 25.5405L43.0003 26.0855C63.0832 9.71295 84.2384 1.40641 106.452 1.40641V0.703206V0C83.8579 0 62.3976 8.45727 42.1116 24.9954L42.5559 25.5405ZM106.452 0.703206V1.40641C123.223 1.40641 136.206 6.10463 145.235 15.5099L145.742 15.0229L146.249 14.536C136.884 4.77932 123.487 0 106.452 0V0.703206ZM145.742 15.0229L145.898 15.7088C157.984 12.9694 171.753 11.6037 187.191 11.6037V10.9005V10.1973C171.673 10.1973 157.797 11.5698 145.587 14.3371L145.742 15.0229ZM187.191 10.9005V11.6037C195.441 11.6037 202.996 12.0206 209.853 12.8592L209.938 12.1612L210.024 11.4632C203.101 10.6165 195.487 10.1973 187.191 10.1973V10.9005ZM209.938 12.1612L209.843 12.8579L209.855 12.8595L209.95 12.1627L210.045 11.466L210.033 11.4644L209.938 12.1612ZM209.95 12.1627L209.861 12.8603C217.033 13.7709 234.475 16.5627 262.14 21.2254L262.257 20.532L262.374 19.8385C234.718 15.1775 217.245 12.3801 210.038 11.4651L209.95 12.1627ZM262.257 20.532L262.493 21.1945C285.798 12.907 308.253 8.74349 329.849 8.74349V8.04029V7.33708C308.071 7.33708 285.455 11.5361 262.021 19.8694L262.257 20.532ZM329.849 8.04029V8.74349C340.978 8.74349 349.493 9.63478 355.27 11.4937L355.486 10.8243L355.701 10.1549C349.71 8.22724 341.018 7.33708 329.849 7.33708V8.04029ZM355.486 10.8243L355.27 11.4937C358.174 12.428 360.45 13.6263 362.001 15.1232L362.49 14.6172L362.978 14.1113C361.214 12.4081 358.713 11.1242 355.701 10.1549L355.486 10.8243ZM362.49 14.6172L362.001 15.1232C363.564 16.6319 364.325 18.3807 364.325 20.3268H365.028H365.731C365.731 17.9669 364.791 15.8619 362.978 14.1113L362.49 14.6172ZM365.028 20.3268H364.325C364.325 22.8403 362.774 25.1358 359.845 27.1805L360.247 27.7571L360.65 28.3338C363.761 26.1622 365.731 23.4952 365.731 20.3268H365.028ZM360.247 27.7571L359.845 27.1805C356.947 29.203 352.682 30.997 347.145 32.5936L347.34 33.2693L347.535 33.945C353.131 32.3314 357.567 30.4856 360.65 28.3338L360.247 27.7571ZM347.34 33.2693L347.133 32.5971L347.118 32.6017L347.325 33.2739L347.531 33.9461L347.546 33.9415L347.34 33.2693ZM347.325 33.2739L347.134 32.5969C336.026 35.7152 322.513 37.2574 306.629 37.2574V37.9606V38.6639C322.595 38.6639 336.245 37.1146 347.515 33.951L347.325 33.2739ZM306.629 37.9606V37.2574C290.781 37.2574 271.186 35.4943 247.86 31.9894L247.756 32.6848L247.651 33.3802C271.016 36.8909 290.686 38.6639 306.629 38.6639V37.9606ZM247.756 32.6848L247.476 32.0398C235.441 37.2646 224.379 44.958 214.304 55.1563L214.804 55.6505L215.304 56.1447C225.264 46.0633 236.179 38.4773 248.036 33.3298L247.756 32.6848ZM214.804 55.6505L214.359 55.1065L214.353 55.1112L214.799 55.6551L215.244 56.1991L215.25 56.1944L214.804 55.6505ZM214.799 55.6551L214.3 55.1589C204.052 65.4501 193.015 80.1035 181.192 99.1466L181.79 99.5175L182.387 99.8884C194.18 80.8933 205.153 66.3378 215.297 56.1513L214.799 55.6551ZM181.79 99.5175L181.192 99.1466C169.361 118.204 160.626 130.985 155.006 137.432L155.537 137.894L156.067 138.356C161.77 131.812 170.561 118.939 182.387 99.8884L181.79 99.5175ZM155.537 137.894L155.091 138.438L155.093 138.44L155.539 137.896L155.984 137.352L155.982 137.35L155.537 137.894ZM155.539 137.896L155.007 137.435C149.462 143.83 141.832 150.034 132.145 156.05L132.516 156.647L132.887 157.245C142.654 151.179 150.406 144.888 156.07 138.356L155.539 137.896ZM132.516 156.647L132.138 156.054L132.121 156.065L132.499 156.658L132.877 157.251L132.894 157.24L132.516 156.647ZM132.499 156.658L132.134 156.057C106.559 171.587 79.9299 179.398 52.2726 179.398V180.101V180.804C80.2097 180.804 107.089 172.91 132.864 157.259L132.499 156.658ZM52.2726 180.101V179.398C37.5116 179.398 25.2941 176.834 15.7183 171.632L15.3826 172.249L15.0469 172.867C24.8916 178.216 37.3608 180.804 52.2726 180.804V180.101ZM15.3826 172.249L15.6492 171.599L15.6416 171.596L15.375 172.246L15.1084 172.897L15.116 172.9L15.3826 172.249ZM15.375 172.246L15.7135 171.63C6.19482 166.402 1.40641 159.587 1.40641 151.275H0.703206H2.27301e-08C2.27301e-08 160.26 5.22787 167.475 15.0364 172.863L15.375 172.246ZM0.703206 151.275H1.40641C1.40641 147.064 2.93021 143.394 6.04466 140.314L5.55017 139.814L5.05567 139.314C1.67871 142.654 2.27301e-08 146.682 2.27301e-08 151.275H0.703206ZM5.55017 139.814L6.04464 140.314C9.16273 137.23 12.9995 135.588 17.5187 135.588V134.885V134.182C12.6207 134.182 8.43091 135.976 5.0557 139.314L5.55017 139.814ZM17.5187 134.885V135.588C21.0453 135.588 23.9098 136.35 25.8633 138.024L26.321 137.49L26.7786 136.956C24.4661 134.974 21.2124 134.182 17.5187 134.182V134.885ZM26.321 137.49L25.8633 138.024C27.7805 139.667 28.6227 142.025 28.6227 144.933H29.3259H30.0291C30.0291 141.748 29.0963 138.943 26.7786 136.956L26.321 137.49ZM29.3259 144.933H28.6227C28.6227 147.745 27.5458 150.219 25.3322 152.305L25.8145 152.817L26.2967 153.329C28.7774 150.991 30.0291 148.152 30.0291 144.933H29.3259ZM25.8145 152.817L25.3322 152.305C23.0993 154.409 20.2714 155.521 16.9116 155.521V156.224V156.928C20.6083 156.928 23.7875 155.693 26.2967 153.329L25.8145 152.817ZM16.9116 156.224V155.521C14.3199 155.521 12.1484 154.998 10.6435 153.792L10.2036 154.34L9.76372 154.889C11.6247 156.381 14.1703 156.928 16.9116 156.928V156.224ZM10.2036 154.34L10.6436 153.792C9.5332 152.901 8.91379 151.743 8.66631 150.391L7.9746 150.518L7.28289 150.645C7.58376 152.288 8.35859 153.762 9.76368 154.889L10.2036 154.34ZM7.9746 150.518L7.27307 150.469C7.24055 150.939 7.22397 151.455 7.22397 152.021H7.92717H8.63038C8.63038 151.482 8.6462 150.998 8.67612 150.567L7.9746 150.518ZM7.92717 152.021H7.22397C7.22397 158.438 11.2049 163.863 19.3278 168.354L19.668 167.738L20.0082 167.123C12.1195 162.762 8.63038 157.721 8.63038 152.021H7.92717ZM19.668 167.738L19.331 168.356C27.5757 172.857 37.7218 175.134 49.8444 175.134V174.43V173.727C37.8942 173.727 27.9939 171.483 20.005 167.121L19.668 167.738ZM49.8444 174.43H49.1412V176.022H49.8444H50.5476V174.43H49.8444ZM49.8444 176.022V175.319C37.5871 175.319 27.2889 173.014 18.9181 168.441L18.581 169.058L18.2439 169.675C26.8706 174.388 37.4147 176.725 49.8444 176.725V176.022ZM18.581 169.058L18.9212 168.443C10.6402 163.864 6.6878 158.378 6.6878 152.021H5.98459H5.28139C5.28139 159.095 9.72658 164.966 18.2408 169.674L18.581 169.058ZM146.7 38.9804H147.403C147.403 32.8677 145.785 27.2027 142.564 21.9756L141.965 22.3445L141.366 22.7134C144.452 27.721 145.997 33.1309 145.997 38.9804H146.7ZM141.965 22.3445L141.862 21.6488C120.057 24.8691 99.6591 34.2428 80.6721 49.8816L81.1191 50.4244L81.5662 50.9672C100.377 35.4732 120.542 26.2191 142.068 23.0401L141.965 22.3445ZM81.1191 50.4244L80.6721 49.8816C61.2798 65.8541 51.6908 81.4883 51.6908 96.8065H52.394H53.0972C53.0972 82.1121 62.2991 66.8367 81.5662 50.9671L81.1191 50.4244ZM52.394 96.8065H51.6908C51.6908 102.615 53.8501 107.424 58.085 111.296L58.5594 110.777L59.0339 110.257C55.0873 106.65 53.0972 102.216 53.0972 96.8065H52.394ZM58.5594 110.777L58.0913 111.301C62.4254 115.168 67.6468 117.059 73.8231 117.059V116.355V115.652C67.963 115.652 63.0831 113.87 59.0276 110.252L58.5594 110.777ZM73.8231 116.355H73.1199V117.947H73.8231H74.5263V116.355H73.8231ZM73.8231 117.947V117.244C67.4047 117.244 62.0108 115.267 57.5972 111.329L57.1291 111.854L56.6609 112.378C61.3531 116.565 67.0886 118.65 73.8231 118.65V117.947ZM57.1291 111.854L57.6031 111.334C53.2957 107.404 51.1546 102.576 51.1546 96.8065H50.4514H49.7482C49.7482 102.975 52.0589 108.179 56.655 112.373L57.1291 111.854ZM50.4514 96.8065H51.1546C51.1546 81.5323 60.7245 65.8769 80.189 49.8448L79.7419 49.302L79.2948 48.7592C59.7054 64.8942 49.7482 80.9085 49.7482 96.8065H50.4514ZM79.7419 49.302L80.189 49.8448C99.626 33.8353 120.601 24.3205 143.122 21.2724L143.027 20.5755L142.933 19.8786C120.127 22.9655 98.9117 32.6016 79.2948 48.7592L79.7419 49.302ZM143.027 20.5755L142.442 20.9645C146.11 26.4892 147.94 32.4893 147.94 38.9804H148.643H149.346C149.346 32.2066 147.432 25.9368 143.613 20.1865L143.027 20.5755ZM148.643 38.9804H147.94C147.94 56.8224 139.854 74.3582 123.546 91.5977L124.057 92.0809L124.568 92.5642C141.041 75.1494 149.346 57.2849 149.346 38.9804H148.643ZM124.057 92.0809L123.547 91.5965C107.236 108.757 90.6635 117.244 73.8231 117.244V117.947V118.65C91.1802 118.65 108.097 109.893 124.567 92.5654L124.057 92.0809ZM73.8231 117.947H74.5263V116.355H73.8231H73.1199V117.947H73.8231ZM73.8231 116.355V117.059C90.3079 117.059 106.723 108.748 123.034 91.5877L122.524 91.1032L122.014 90.6187C105.863 107.611 89.7915 115.652 73.8231 115.652V116.355ZM122.524 91.1032L123.035 91.5864C139.301 74.3903 147.403 56.8606 147.403 38.9804H146.7H145.997C145.997 56.3982 138.113 73.5993 122.013 90.62L122.524 91.1032ZM358.714 20.5755H359.418C359.418 19.6455 358.877 18.7586 357.632 17.8819L357.227 18.4568L356.822 19.0317C357.874 19.7727 358.011 20.2871 358.011 20.5755H358.714ZM357.227 18.4568L357.632 17.8819C356.515 17.0951 354.85 16.3321 352.577 15.6146L352.365 16.2852L352.153 16.9558C354.362 17.6528 355.873 18.363 356.822 19.0317L357.227 18.4568ZM352.365 16.2852L352.568 15.6118L351.566 15.3103L351.363 15.9836L351.161 16.657L352.162 16.9585L352.365 16.2852ZM351.363 15.9836L351.582 15.3154L351.573 15.3123L351.354 15.9805L351.135 16.6487L351.144 16.6518L351.363 15.9836ZM351.354 15.9805L351.551 15.3056C346.08 13.7043 339.063 12.8834 330.456 12.8834V13.5866V14.2898C338.987 14.2898 345.858 15.1048 351.156 16.6554L351.354 15.9805ZM330.456 13.5866V12.8834C311.141 12.8834 292.351 15.8795 274.075 21.8784L274.294 22.5466L274.513 23.2147C292.647 17.2625 311.29 14.2898 330.456 14.2898V13.5866ZM274.294 22.5466L274.191 23.2422C277.619 23.748 282.192 24.4344 287.906 25.3015L288.011 24.6062L288.117 23.911C282.402 23.0438 277.827 22.357 274.396 21.8509L274.294 22.5466ZM288.011 24.6062L287.885 25.2981L287.902 25.3012L288.028 24.6093L288.154 23.9175L288.137 23.9144L288.011 24.6062ZM288.028 24.6093L287.918 25.3038C304.046 27.8643 318.323 29.1381 330.76 29.1381V28.4349V27.7317C318.416 27.7317 304.214 26.467 288.139 23.9148L288.028 24.6093ZM330.76 28.4349H330.056V30.0267H330.76H331.463V28.4349H330.76ZM330.76 30.0267V29.3234C318.26 29.3234 303.931 28.043 287.769 25.4771L287.659 26.1716L287.548 26.8661C303.763 29.4403 318.168 30.7299 330.76 30.7299V30.0267ZM287.659 26.1716L287.764 25.4763C276.84 23.8187 270.103 22.8225 267.565 22.4898L267.474 23.187L267.383 23.8842C269.903 24.2147 276.623 25.2083 287.553 26.8668L287.659 26.1716ZM267.474 23.187L267.716 23.8472C287.975 16.4142 308.887 12.6981 330.456 12.6981V11.9948V11.2916C308.722 11.2916 287.646 15.0369 267.232 22.5268L267.474 23.187ZM330.456 11.9948V12.6981C339.119 12.6981 346.23 13.5242 351.809 15.1569L352.006 14.482L352.204 13.8071C346.451 12.1236 339.195 11.2916 330.456 11.2916V11.9948ZM352.006 14.482L351.812 15.1578C354.665 15.9782 356.741 16.8742 358.089 17.8238C359.437 18.7728 359.954 19.6956 359.954 20.5755H360.657H361.36C361.36 19.0512 360.436 17.7563 358.899 16.674C357.364 15.5925 355.115 14.6439 352.201 13.8062L352.006 14.482ZM360.657 20.5755H359.954C359.954 21.5572 359.403 22.5756 358.03 23.6228C356.654 24.6723 354.54 25.6789 351.637 26.622L351.855 27.2908L352.072 27.9596C355.038 26.9958 357.325 25.9299 358.883 24.7409C360.444 23.5497 361.36 22.1639 361.36 20.5755H360.657ZM351.855 27.2908L351.646 26.6193C345.864 28.4165 338.906 29.3234 330.76 29.3234V30.0267V30.7299C339.003 30.7299 346.109 29.8129 352.063 27.9623L351.855 27.2908ZM330.76 30.0267H331.463V28.4349H330.76H330.056V30.0267H330.76ZM330.76 28.4349V29.1381C338.822 29.1381 345.672 28.2412 351.344 26.4826L351.136 25.8109L350.927 25.1393C345.426 26.8448 338.725 27.7317 330.76 27.7317V28.4349ZM351.136 25.8109L351.353 26.4797C354.208 25.5522 356.249 24.5758 357.559 23.5767L357.132 23.0176L356.706 22.4584C355.579 23.3178 353.71 24.235 350.918 25.1422L351.136 25.8109ZM357.132 23.0176L357.559 23.5766C358.844 22.5965 359.418 21.6052 359.418 20.5755H358.714H358.011C358.011 21.0013 357.799 21.6248 356.706 22.4585L357.132 23.0176Z" fill="var(--stroke-0, #FFC800)" mask="url(#path-10-outside-1_0_32)"/>
</g>
</g>
</svg>
