<svg preserveAspectRatio="none" width="100%" height="100%" overflow="visible" style="display: block;" viewBox="0 0 717.581 172.298" fill="none" xmlns="http://www.w3.org/2000/svg">
<g id="Frame 123265">
<path id="Vector" d="M653.83 52.9336C665.129 52.9336 674.421 54.1302 681.693 56.5362L682.382 56.7559C689.436 59.0599 694.727 62.5044 698.22 67.1084C701.824 71.8598 703.615 77.813 703.615 84.9434C703.615 90.9225 702.272 95.9345 699.562 99.9561C696.87 103.952 693.407 107.159 689.178 109.577L689.177 109.578C685.24 111.798 681.065 113.578 676.655 114.921L713.622 164.425L714.041 164.987H693.195L693.091 164.84L660.304 118.981H633.838V164.987H616.023V52.9336H653.83ZM633.838 106.426H653.83C661.157 106.426 667.134 105.648 671.774 104.106L672.63 103.789C676.83 102.163 679.9 99.9161 681.87 97.0645L681.875 97.0567C684.104 94.0097 685.229 90.1875 685.229 85.5674C685.229 80.7383 684.041 76.9263 681.698 74.0948L681.692 74.0879C679.471 71.2532 675.996 69.1539 671.226 67.8155C666.452 66.4758 660.34 65.8009 652.88 65.8008H633.838V106.426Z" fill="var(--fill-0, #DB1C2E)" stroke="var(--stroke-0, #FFC800)" stroke-width="0.703206"/>
<path id="Vector_2" d="M587.549 52.9336V65.9571H528.495V100.031H584.11V112.898H528.495V151.964H587.549V164.987H510.592V52.9336H587.549Z" fill="var(--fill-0, #DB1C2E)" stroke="var(--stroke-0, #FFC800)" stroke-width="0.703206"/>
<path id="Vector_3" d="M385.853 52.9336L385.958 53.0684L458.095 145.102H458.297C458.183 143.888 458.066 142.296 457.952 140.327V140.326C457.826 138.038 457.699 135.542 457.572 132.838V132.837C457.446 130.03 457.32 127.17 457.193 124.259C457.067 121.344 457.003 118.635 457.003 116.134V52.9336H473.634V164.987H453.202L453.097 164.853L380.77 72.5069H380.558C380.676 74.2808 380.794 76.2355 380.912 78.3711C381.165 80.6624 381.356 83.1595 381.483 85.8624L381.861 93.9727C381.988 96.7851 382.052 99.5978 382.052 102.41V164.987H365.61V52.9336H385.853Z" fill="var(--fill-0, #DB1C2E)" stroke="var(--stroke-0, #FFC800)" stroke-width="0.703206"/>
<path id="Vector_4" d="M244.633 52.9336L244.738 53.0684L316.875 145.102H317.077C316.963 143.888 316.846 142.296 316.732 140.327V140.326C316.606 138.038 316.479 135.542 316.352 132.838V132.837C316.226 130.03 316.1 127.17 315.974 124.259C315.847 121.344 315.783 118.635 315.783 116.134V52.9336H332.414V164.987H311.982L311.877 164.853L239.55 72.5069H239.338C239.456 74.2808 239.574 76.2355 239.692 78.3711C239.945 80.6624 240.136 83.1595 240.263 85.8624L240.642 93.9727C240.768 96.7851 240.832 99.5978 240.832 102.41V164.987H224.391V52.9336H244.633Z" fill="var(--fill-0, #DB1C2E)" stroke="var(--stroke-0, #FFC800)" stroke-width="0.703206"/>
<path id="Stroke" d="M653.635 51.388C664.992 51.3881 674.48 52.5866 682.006 55.0667L682.698 55.2865C689.569 57.5245 694.933 60.8388 698.644 65.2777L699.011 65.7259L699.013 65.7289L699.373 66.1917L699.376 66.1947C703.192 71.2195 705.025 77.4373 705.025 84.7269V84.7318L705.009 85.8587V85.8636C704.847 91.4995 703.468 96.3681 700.759 100.384C697.957 104.537 694.33 107.903 689.878 110.449L689.879 110.45L689.87 110.455L689.86 110.461L689.85 110.467C686.449 112.383 682.87 113.977 679.12 115.257L716.458 165.2L716.879 165.761H691.689L691.584 165.615L658.986 120.077H635.65V165.761H614.153V51.388H653.635ZM616.747 163.509H633.057V117.825H660.432L660.537 117.972L693.134 163.509H712.1L675.469 114.515L675.167 114.111L675.651 113.968C679.881 112.717 683.89 111.059 687.678 108.996L688.436 108.577C692.29 106.375 695.485 103.504 698.023 99.9603L698.521 99.2416C700.958 95.6301 702.262 91.1584 702.416 85.8089L702.433 84.7269L702.427 84.0775C702.321 77.4085 700.574 71.8689 697.21 67.4388C693.738 62.8674 688.389 59.4431 681.129 57.1869L681.123 57.1849C674.434 54.9738 665.966 53.7935 655.709 53.6546V53.6537L653.633 53.64H616.747V163.509ZM652.69 65.0169C660.143 65.017 666.289 65.6895 671.12 67.0433C675.952 68.3975 679.554 70.5428 681.883 73.5062L682.109 73.7875C684.417 76.7248 685.554 80.5888 685.554 85.3451C685.554 90.0494 684.405 93.9981 682.084 97.1673L682.083 97.1664C679.887 100.337 676.418 102.749 671.711 104.416L671.699 104.42L670.81 104.702L670.805 104.702C666.234 106.077 660.507 106.759 653.635 106.759H633.057V65.0169H652.69ZM635.65 104.507H653.635C660.761 104.507 666.431 103.75 670.737 102.326C675.034 100.801 678.015 98.6729 679.866 95.9964L679.878 95.9808L679.887 95.9681L679.891 95.9613L679.895 95.9554C681.891 93.2306 682.96 89.7304 682.96 85.3451C682.96 80.7439 681.823 77.2971 679.775 74.8246V74.8236L679.767 74.8138L679.761 74.807L679.756 74.8001L679.744 74.7845V74.7855C677.932 72.4758 675.123 70.6644 671.133 69.4251V69.4242L670.314 69.1849V69.1839C666.115 68.0076 660.711 67.3539 654.041 67.2767V67.2757L652.688 67.2689H635.65V104.507Z" fill="var(--fill-0, #DB1C2E)" stroke="var(--stroke-0, #FFC800)" stroke-width="0.703206"/>
<path id="Stroke_2" d="M588.486 51.388V67.4232H530.863V98.1566H585.13V114.036H530.863V149.726H588.486V165.761H509.646V51.388H588.486ZM512.215 163.509H585.918V151.978H528.295V111.785H582.561V100.409H528.295V65.1712H585.918V53.64H512.215V163.509Z" fill="var(--fill-0, #DB1C2E)" stroke="var(--stroke-0, #FFC800)" stroke-width="0.703206"/>
<path id="Stroke_3" d="M386.907 51.388L387.013 51.5218L387.571 52.2328L456.018 138.968C455.969 138.083 455.92 137.168 455.872 136.223V136.222L455.683 132.346V132.341L455.304 123.823C455.177 120.912 455.113 118.204 455.112 115.7V51.388H475.529V165.761H452.175L452.069 165.628L451.508 164.918L382.809 77.7943C382.815 77.9001 382.822 78.0062 382.828 78.1126L382.92 78.9808C383.128 81.0286 383.288 83.2274 383.399 85.5765L383.778 93.6341V93.6351C383.905 96.4466 383.969 99.2581 383.969 102.07V165.761H363.74V51.388H386.907ZM366.339 163.509H381.37V102.07C381.37 99.9838 381.334 97.8979 381.263 95.8119L381.181 93.722V93.721L380.802 85.6722C380.676 82.9943 380.487 80.5237 380.236 78.2611L380.234 78.2416C380.107 75.9716 379.981 73.9077 379.855 72.0511L379.829 71.6761H381.133L381.238 71.8099L453.547 163.509H472.931V53.64H457.711V115.698L457.723 117.591L457.747 119.062C457.778 120.554 457.829 122.112 457.9 123.736C458.026 126.626 458.153 129.465 458.279 132.252L458.469 136.122C458.532 137.361 458.595 138.548 458.658 139.683L458.753 141.219C458.847 142.668 458.941 143.854 459.035 144.778L459.074 145.164H457.758L457.653 145.031L385.531 53.64H366.339V163.509Z" fill="var(--fill-0, #DB1C2E)" stroke="var(--stroke-0, #FFC800)" stroke-width="0.703206"/>
<path id="Stroke_4" d="M245.687 51.388L245.793 51.5218L246.352 52.2328L314.798 138.968C314.749 138.083 314.701 137.168 314.652 136.223V136.222L314.463 132.346V132.341L314.084 123.823C313.957 120.912 313.893 118.204 313.893 115.7V51.388H334.31V165.761H310.955L310.849 165.628L310.288 164.918L241.589 77.7943C241.595 77.9001 241.602 78.0062 241.608 78.1126L241.7 78.9808C241.908 81.0286 242.068 83.2274 242.179 85.5765L242.558 93.6341V93.6351C242.685 96.4466 242.749 99.2581 242.749 102.07V165.761H222.52V51.388H245.687ZM225.119 163.509H240.15V102.07C240.15 99.9838 240.114 97.8979 240.043 95.8119L239.961 93.722V93.721L239.582 85.6722C239.456 82.9943 239.267 80.5237 239.016 78.2611L239.014 78.2416C238.887 75.9716 238.761 73.9077 238.635 72.0511L238.609 71.6761H239.913L240.019 71.8099L312.327 163.509H331.711V53.64H316.491V115.698L316.503 117.591L316.527 119.062C316.558 120.554 316.609 122.112 316.68 123.736C316.806 126.626 316.933 129.465 317.06 132.252L317.249 136.122C317.312 137.361 317.375 138.548 317.438 139.683L317.533 141.219C317.627 142.668 317.721 143.854 317.815 144.778L317.854 145.164H316.538L316.433 145.031L244.312 53.64H225.119V163.509Z" fill="var(--fill-0, #DB1C2E)" stroke="var(--stroke-0, #FFC800)" stroke-width="0.703206"/>
<path id="I" d="M286.256 2.67038C287.108 2.67038 287.799 2.7718 288.288 3.00827C288.537 3.12879 288.747 3.2906 288.894 3.50339C289.042 3.71899 289.112 3.96629 289.112 4.2319C289.112 4.73993 288.747 5.22455 288.228 5.67722C287.689 6.14638 286.898 6.65587 285.869 7.20554C283.809 8.30657 280.732 9.60372 276.65 11.0981L276.648 11.0991C268.59 14.0047 259.359 16.626 248.956 18.9653C224.575 33.2943 200.409 58.8546 176.467 95.6831L174.416 98.8403C175.448 98.9537 176.622 99.0122 177.94 99.0122C189.864 99.0122 200.854 96.0033 210.918 89.9848C220.985 83.9644 227.047 76.729 229.179 68.2934L229.183 68.2778C229.385 67.6113 229.636 67.0759 229.949 66.7016C230.27 66.3187 230.67 66.0913 231.141 66.0913C231.498 66.0913 231.829 66.1916 232.063 66.4487C232.293 66.6998 232.376 67.0424 232.376 67.4116C232.376 72.4824 229.044 78.1782 222.543 84.4878C210.876 96.0173 195.802 101.773 177.352 101.773C175.649 101.773 173.991 101.698 172.377 101.549L168.366 108.022L168.364 108.025C161.188 119.329 154.834 127.744 149.306 133.257L149.307 133.258C144.491 138.127 138.035 142.986 129.947 147.837L128.308 148.807C103.6 163.198 78.2906 170.399 52.3838 170.399C37.9037 170.399 25.9052 167.891 16.4082 162.854L16.4072 162.853C7.00606 157.814 2.22171 151.301 2.22168 143.299C2.22168 139.015 3.67992 135.375 6.5957 132.402L6.59668 132.401C9.60873 129.35 13.2352 127.819 17.457 127.819C20.6922 127.819 23.185 128.513 24.8711 129.961C26.567 131.419 27.3876 133.588 27.3877 136.4C27.3877 139.171 26.2574 141.523 24.0283 143.439L24.0293 143.44C21.8951 145.36 19.254 146.314 16.1309 146.314C13.7857 146.314 11.9617 145.854 10.7187 144.876C9.45991 143.886 8.85352 142.41 8.85352 140.515V138.095C8.85352 137.774 8.78768 137.574 8.7002 137.455C8.62193 137.347 8.49895 137.269 8.29004 137.237C7.93493 137.242 7.63502 137.347 7.37598 137.548C7.10455 137.759 6.85941 138.09 6.6543 138.567C6.24089 139.529 6.01953 141.014 6.01953 143.057C6.01953 149.825 10.0325 155.577 18.2207 160.301L18.9941 160.73C27.0467 165.087 36.9921 167.275 48.8467 167.275C78.3093 167.275 104.846 155.181 128.468 130.951L129.802 129.561C136.55 122.447 145.378 111.954 156.29 98.0757C148.131 95.0987 141.962 91.2239 137.812 86.4321C133.578 81.5441 131.463 75.7221 131.463 68.9848C131.463 60.8267 134.26 53.712 139.846 47.6567C145.424 41.6092 153.77 36.6312 164.854 32.7065C176.091 28.6592 193.756 24.985 217.829 21.6762L217.83 21.6753L234.029 19.4985L247.815 17.0893C252.804 14.061 259.161 11.0738 266.881 8.12546L268.449 7.53366C272.728 5.91802 276.349 4.70376 279.311 3.89304C282.266 3.08383 284.587 2.67038 286.256 2.67038ZM242.325 20.3432C240.265 20.7308 237.643 21.243 234.458 21.8823C231.729 22.4882 228.061 23.2541 223.454 24.1772L218.534 25.1528C194.588 29.8277 175.526 36.7144 161.33 45.8003V45.8012C147.222 54.8133 140.272 64.5239 140.271 74.9155C140.271 79.9235 141.758 84.1788 144.721 87.7007C147.649 91.1811 152.04 93.9657 157.923 96.0415C183.414 62.6699 211.548 37.4333 242.325 20.3432Z" fill="var(--fill-0, #DB1C2E)" stroke="var(--stroke-0, #FFC800)" stroke-width="0.703206"/>
<g id="I (Stroke)">
<mask id="path-10-outside-1_0_43" maskUnits="userSpaceOnUse" x="-0.296794" y="-0.296794" width="293" height="173" fill="black">
<rect fill="white" x="-0.296794" y="-0.296794" width="293" height="173"/>
<path d="M5.70028 142.927C5.70028 138.793 6.58734 136.726 8.36145 136.726C8.95282 136.807 9.2485 137.212 9.2485 137.942V140.374C9.2485 144.021 11.5647 145.845 16.1971 145.845C19.2525 145.845 21.8151 144.913 23.8849 143.048C26.0533 141.184 27.1374 138.915 27.1374 136.24C27.1374 130.728 23.9342 127.972 17.5277 127.972C13.3881 127.972 9.83987 129.472 6.88302 132.471C4.02473 135.389 2.59559 138.955 2.59559 143.17C2.59559 151.032 7.27727 157.476 16.6406 162.501C26.1025 167.526 38.0778 170.039 52.5663 170.039C78.4881 170.039 103.818 162.825 128.557 148.398C137.428 143.21 144.426 138.023 149.551 132.836C155.07 127.324 161.428 118.895 168.623 107.547L172.762 100.86C174.438 101.022 176.163 101.103 177.937 101.103C196.368 101.103 211.398 95.3487 223.029 83.8392C229.534 77.517 232.786 71.8839 232.786 66.9396C232.786 66.2912 232.491 65.967 231.899 65.967C231.209 65.967 230.667 66.6154 230.273 67.9123C228.105 76.5039 221.945 83.8392 211.793 89.9181C201.641 95.9971 190.553 99.0366 178.528 99.0366V97.4804C190.134 97.4804 200.835 94.5541 210.678 88.6598C220.521 82.7657 226.363 75.7436 228.419 67.5962L228.438 67.5354C228.657 66.8147 228.957 66.1198 229.416 65.5719C229.891 65.0028 230.709 64.4108 231.899 64.4108C232.657 64.4108 233.499 64.6426 234.078 65.277C234.58 65.8272 234.679 66.4658 234.679 66.9396C234.679 72.4265 231.09 78.4076 224.483 84.8315L224.485 84.8331C212.49 96.7036 196.922 102.66 177.937 102.66C176.552 102.66 175.193 102.611 173.86 102.515L170.31 108.254L170.301 108.266C163.088 119.641 156.66 128.18 151.018 133.816C145.756 139.142 138.619 144.424 129.653 149.667H129.651C104.649 164.248 78.9437 171.595 52.5663 171.595C37.8167 171.595 25.4574 169.036 15.6131 163.808L15.6057 163.805C5.81258 158.549 0.703206 151.654 0.703206 143.17C0.703206 138.647 2.24717 134.724 5.41014 131.495L5.41384 131.491C8.67558 128.183 12.7367 126.416 17.5277 126.416C21.0446 126.416 24.0246 127.176 26.1025 128.963C28.1652 130.738 29.0298 133.261 29.0298 136.24C29.0298 139.299 27.7693 141.957 25.2506 144.123C22.8289 146.291 19.7724 147.401 16.1971 147.401C13.6095 147.401 11.3176 146.893 9.67724 145.601C8.58294 144.74 7.92289 143.642 7.60006 142.396C7.5965 142.568 7.59267 142.744 7.59267 142.927C7.59267 149.285 11.3171 154.721 19.1946 159.275C27.0927 163.759 36.9947 166.051 49.0181 166.051V167.607C36.6979 167.607 26.3982 165.257 18.119 160.556C9.83987 155.774 5.70028 149.897 5.70028 142.927ZM289.706 3.47521C289.706 2.66469 288.868 2.25942 287.192 2.25942C283.94 2.25942 278.026 3.88048 269.451 7.12259C260.975 10.2837 254.076 13.4852 248.753 16.7274L234.856 19.1589L218.593 21.3474C194.446 24.6705 176.754 28.3585 165.518 32.4111C143.342 40.2732 132.253 52.3096 132.253 68.5202C132.253 81.8939 140.631 91.5797 157.387 97.5776C145.559 112.653 136.147 123.798 129.149 131.012C105.395 155.409 78.6852 167.607 49.0181 167.607V166.051C77.9554 166.051 104.168 154.18 127.672 130.039C134.375 123.129 143.344 112.538 154.604 98.2417C146.981 95.2593 141.075 91.4336 136.995 86.7175C132.551 81.5788 130.361 75.4881 130.361 68.5202C130.361 60.1022 133.25 52.7048 139.062 46.3958C144.854 40.108 153.467 34.99 164.758 30.9856L165.851 30.5996C177.341 26.6209 194.856 23.0362 218.281 19.8124L218.289 19.8109L234.505 17.6286L247.966 15.273C253.38 12.0163 260.292 8.82897 268.67 5.70468C272.987 4.07244 276.675 2.834 279.719 1.99955C282.726 1.17529 285.253 0.703206 287.192 0.703206C288.154 0.703206 289.186 0.810098 290.036 1.22144C291.043 1.70849 291.598 2.52805 291.598 3.47521C291.598 4.4292 290.923 5.19922 290.316 5.72899C289.657 6.30312 288.749 6.87638 287.669 7.4539C285.499 8.61511 282.324 9.95141 278.205 11.4615L278.196 11.466C270.1 14.3891 260.855 17.0199 250.474 19.3672C226.369 33.6205 202.329 59.0566 178.423 95.877L177.395 97.4636C177.757 97.4741 178.135 97.4804 178.528 97.4804V99.0366C176.951 99.0366 175.571 98.9555 174.389 98.7934L176.754 95.146C200.803 58.1049 225.099 32.3706 249.64 17.9432C260.088 15.5926 269.353 12.9584 277.435 10.0405C285.615 7.04154 289.706 4.85311 289.706 3.47521ZM245.205 18.9158C213.567 36.099 184.688 61.8333 158.569 96.1187C146.446 91.9039 140.385 84.6902 140.385 74.4775C140.385 63.8596 147.481 54.0117 161.674 44.9338C175.966 35.7748 195.136 28.8448 219.185 24.1437C226.183 22.7658 231.505 21.6716 235.152 20.8611C239.587 19.9695 242.938 19.3211 245.205 18.9158ZM142.277 74.4775C142.277 79.3212 143.709 83.3569 146.487 86.6628C149.031 89.6904 152.784 92.1966 157.845 94.1476C181.567 63.2538 207.595 39.2855 235.958 22.3018C235.847 22.3239 235.736 22.3447 235.625 22.3671C231.952 23.1832 226.615 24.281 219.625 25.6574H219.623C196.493 30.1787 178.037 36.7538 164.165 45.3259L162.836 46.1617C148.913 55.0675 142.277 64.5095 142.277 74.4775Z"/>
</mask>
<path d="M5.70028 142.927C5.70028 138.793 6.58734 136.726 8.36145 136.726C8.95282 136.807 9.2485 137.212 9.2485 137.942V140.374C9.2485 144.021 11.5647 145.845 16.1971 145.845C19.2525 145.845 21.8151 144.913 23.8849 143.048C26.0533 141.184 27.1374 138.915 27.1374 136.24C27.1374 130.728 23.9342 127.972 17.5277 127.972C13.3881 127.972 9.83987 129.472 6.88302 132.471C4.02473 135.389 2.59559 138.955 2.59559 143.17C2.59559 151.032 7.27727 157.476 16.6406 162.501C26.1025 167.526 38.0778 170.039 52.5663 170.039C78.4881 170.039 103.818 162.825 128.557 148.398C137.428 143.21 144.426 138.023 149.551 132.836C155.07 127.324 161.428 118.895 168.623 107.547L172.762 100.86C174.438 101.022 176.163 101.103 177.937 101.103C196.368 101.103 211.398 95.3487 223.029 83.8392C229.534 77.517 232.786 71.8839 232.786 66.9396C232.786 66.2912 232.491 65.967 231.899 65.967C231.209 65.967 230.667 66.6154 230.273 67.9123C228.105 76.5039 221.945 83.8392 211.793 89.9181C201.641 95.9971 190.553 99.0366 178.528 99.0366V97.4804C190.134 97.4804 200.835 94.5541 210.678 88.6598C220.521 82.7657 226.363 75.7436 228.419 67.5962L228.438 67.5354C228.657 66.8147 228.957 66.1198 229.416 65.5719C229.891 65.0028 230.709 64.4108 231.899 64.4108C232.657 64.4108 233.499 64.6426 234.078 65.277C234.58 65.8272 234.679 66.4658 234.679 66.9396C234.679 72.4265 231.09 78.4076 224.483 84.8315L224.485 84.8331C212.49 96.7036 196.922 102.66 177.937 102.66C176.552 102.66 175.193 102.611 173.86 102.515L170.31 108.254L170.301 108.266C163.088 119.641 156.66 128.18 151.018 133.816C145.756 139.142 138.619 144.424 129.653 149.667H129.651C104.649 164.248 78.9437 171.595 52.5663 171.595C37.8167 171.595 25.4574 169.036 15.6131 163.808L15.6057 163.805C5.81258 158.549 0.703206 151.654 0.703206 143.17C0.703206 138.647 2.24717 134.724 5.41014 131.495L5.41384 131.491C8.67558 128.183 12.7367 126.416 17.5277 126.416C21.0446 126.416 24.0246 127.176 26.1025 128.963C28.1652 130.738 29.0298 133.261 29.0298 136.24C29.0298 139.299 27.7693 141.957 25.2506 144.123C22.8289 146.291 19.7724 147.401 16.1971 147.401C13.6095 147.401 11.3176 146.893 9.67724 145.601C8.58294 144.74 7.92289 143.642 7.60006 142.396C7.5965 142.568 7.59267 142.744 7.59267 142.927C7.59267 149.285 11.3171 154.721 19.1946 159.275C27.0927 163.759 36.9947 166.051 49.0181 166.051V167.607C36.6979 167.607 26.3982 165.257 18.119 160.556C9.83987 155.774 5.70028 149.897 5.70028 142.927ZM289.706 3.47521C289.706 2.66469 288.868 2.25942 287.192 2.25942C283.94 2.25942 278.026 3.88048 269.451 7.12259C260.975 10.2837 254.076 13.4852 248.753 16.7274L234.856 19.1589L218.593 21.3474C194.446 24.6705 176.754 28.3585 165.518 32.4111C143.342 40.2732 132.253 52.3096 132.253 68.5202C132.253 81.8939 140.631 91.5797 157.387 97.5776C145.559 112.653 136.147 123.798 129.149 131.012C105.395 155.409 78.6852 167.607 49.0181 167.607V166.051C77.9554 166.051 104.168 154.18 127.672 130.039C134.375 123.129 143.344 112.538 154.604 98.2417C146.981 95.2593 141.075 91.4336 136.995 86.7175C132.551 81.5788 130.361 75.4881 130.361 68.5202C130.361 60.1022 133.25 52.7048 139.062 46.3958C144.854 40.108 153.467 34.99 164.758 30.9856L165.851 30.5996C177.341 26.6209 194.856 23.0362 218.281 19.8124L218.289 19.8109L234.505 17.6286L247.966 15.273C253.38 12.0163 260.292 8.82897 268.67 5.70468C272.987 4.07244 276.675 2.834 279.719 1.99955C282.726 1.17529 285.253 0.703206 287.192 0.703206C288.154 0.703206 289.186 0.810098 290.036 1.22144C291.043 1.70849 291.598 2.52805 291.598 3.47521C291.598 4.4292 290.923 5.19922 290.316 5.72899C289.657 6.30312 288.749 6.87638 287.669 7.4539C285.499 8.61511 282.324 9.95141 278.205 11.4615L278.196 11.466C270.1 14.3891 260.855 17.0199 250.474 19.3672C226.369 33.6205 202.329 59.0566 178.423 95.877L177.395 97.4636C177.757 97.4741 178.135 97.4804 178.528 97.4804V99.0366C176.951 99.0366 175.571 98.9555 174.389 98.7934L176.754 95.146C200.803 58.1049 225.099 32.3706 249.64 17.9432C260.088 15.5926 269.353 12.9584 277.435 10.0405C285.615 7.04154 289.706 4.85311 289.706 3.47521ZM245.205 18.9158C213.567 36.099 184.688 61.8333 158.569 96.1187C146.446 91.9039 140.385 84.6902 140.385 74.4775C140.385 63.8596 147.481 54.0117 161.674 44.9338C175.966 35.7748 195.136 28.8448 219.185 24.1437C226.183 22.7658 231.505 21.6716 235.152 20.8611C239.587 19.9695 242.938 19.3211 245.205 18.9158ZM142.277 74.4775C142.277 79.3212 143.709 83.3569 146.487 86.6628C149.031 89.6904 152.784 92.1966 157.845 94.1476C181.567 63.2538 207.595 39.2855 235.958 22.3018C235.847 22.3239 235.736 22.3447 235.625 22.3671C231.952 23.1832 226.615 24.281 219.625 25.6574H219.623C196.493 30.1787 178.037 36.7538 164.165 45.3259L162.836 46.1617C148.913 55.0675 142.277 64.5095 142.277 74.4775Z" fill="var(--fill-0, #DB1C2E)"/>
<path d="M8.36145 136.726L8.45693 136.029L8.40941 136.023H8.36145V136.726ZM23.8849 143.048L23.4265 142.515L23.4203 142.52L23.4143 142.526L23.8849 143.048ZM6.88302 132.471L6.38227 131.977L6.38067 131.979L6.88302 132.471ZM16.6406 162.501L16.3081 163.121L16.3108 163.122L16.6406 162.501ZM128.557 148.398L128.912 149.005L128.912 149.005L128.557 148.398ZM149.551 132.836L149.054 132.338L149.051 132.341L149.551 132.836ZM168.623 107.547L169.217 107.924L169.221 107.917L168.623 107.547ZM172.762 100.86L172.83 100.16L172.395 100.118L172.164 100.49L172.762 100.86ZM223.029 83.8392L222.539 83.3349L222.534 83.3393L223.029 83.8392ZM230.273 67.9123L229.6 67.7077L229.595 67.7238L229.591 67.7402L230.273 67.9123ZM210.678 88.6598L211.04 89.2631V89.2631L210.678 88.6598ZM228.419 67.5962L227.747 67.3916L227.742 67.4077L227.738 67.4241L228.419 67.5962ZM228.438 67.5354L227.765 67.3308L228.438 67.5354ZM229.416 65.5719L228.876 65.1208L228.876 65.1209L229.416 65.5719ZM234.078 65.277L234.598 64.8032L234.598 64.8032L234.078 65.277ZM224.483 84.8315L223.993 84.3274L223.429 84.8754L224.036 85.3747L224.483 84.8315ZM224.485 84.8331L224.98 85.3329L225.533 84.7848L224.932 84.2899L224.485 84.8331ZM173.86 102.515L173.91 101.814L173.486 101.783L173.262 102.145L173.86 102.515ZM170.31 108.254L170.87 108.679L170.89 108.652L170.908 108.624L170.31 108.254ZM170.301 108.266L169.741 107.84L169.723 107.864L169.707 107.889L170.301 108.266ZM151.018 133.816L150.521 133.318L150.518 133.322L151.018 133.816ZM129.653 149.667V150.37H129.844L130.008 150.274L129.653 149.667ZM129.651 149.667V148.964H129.461L129.297 149.059L129.651 149.667ZM15.6131 163.808L15.943 163.187L15.9125 163.171L15.8805 163.158L15.6131 163.808ZM15.6057 163.805L15.2732 164.425L15.305 164.442L15.3383 164.455L15.6057 163.805ZM5.41014 131.495L5.91249 131.987L5.9356 131.964L5.9564 131.938L5.41014 131.495ZM5.41384 131.491L4.91311 130.997L4.88911 131.021L4.86758 131.048L5.41384 131.491ZM26.1025 128.963L26.5612 128.43L26.5611 128.43L26.1025 128.963ZM25.2506 144.123L24.7921 143.589L24.7816 143.599L25.2506 144.123ZM9.67724 145.601L9.24222 146.154L9.24228 146.154L9.67724 145.601ZM7.60006 142.396L8.28077 142.22L6.897 142.382L7.60006 142.396ZM19.1946 159.275L18.8427 159.883L18.8474 159.886L19.1946 159.275ZM18.119 160.556L17.7673 161.165L17.7718 161.167L18.119 160.556ZM269.451 7.12259L269.697 7.78148L269.7 7.78036L269.451 7.12259ZM248.753 16.7274L248.875 17.42L249.006 17.3971L249.119 17.3279L248.753 16.7274ZM234.856 19.1589L234.95 19.8559L234.964 19.854L234.977 19.8516L234.856 19.1589ZM218.593 21.3474L218.5 20.6504L218.498 20.6507L218.593 21.3474ZM165.518 32.4111L165.753 33.0739L165.757 33.0726L165.518 32.4111ZM157.387 97.5776L157.94 98.0117L158.542 97.2443L157.624 96.9155L157.387 97.5776ZM129.149 131.012L129.653 131.502L129.653 131.502L129.149 131.012ZM127.672 130.039L128.176 130.53L128.177 130.529L127.672 130.039ZM154.604 98.2417L155.156 98.6768L155.742 97.9322L154.86 97.5869L154.604 98.2417ZM136.995 86.7175L136.464 87.1776L136.464 87.1776L136.995 86.7175ZM139.062 46.3958L138.544 45.9193V45.9193L139.062 46.3958ZM164.758 30.9856L164.524 30.3226L164.523 30.3228L164.758 30.9856ZM165.851 30.5996L165.621 29.9351L165.616 29.9365L165.851 30.5996ZM218.281 19.8124L218.377 20.5091L218.4 20.5059L218.423 20.5012L218.281 19.8124ZM218.289 19.8109L218.195 19.114L218.171 19.1172L218.147 19.1221L218.289 19.8109ZM234.505 17.6286L234.599 18.3255L234.613 18.3236L234.626 18.3212L234.505 17.6286ZM247.966 15.273L248.087 15.9656L248.216 15.9431L248.329 15.8756L247.966 15.273ZM268.67 5.70468L268.915 6.36356L268.918 6.36245L268.67 5.70468ZM279.719 1.99955L279.533 1.32136L279.533 1.32136L279.719 1.99955ZM290.036 1.22144L290.343 0.588408L290.343 0.588357L290.036 1.22144ZM290.316 5.72899L290.778 6.25905L290.778 6.25902L290.316 5.72899ZM287.669 7.4539L288.001 8.07394V8.07394L287.669 7.4539ZM278.205 11.4615L277.963 10.8012L277.928 10.8142L277.894 10.8308L278.205 11.4615ZM278.196 11.466L278.435 12.1274L278.472 12.1141L278.507 12.0966L278.196 11.466ZM250.474 19.3672L250.319 18.6813L250.211 18.7056L250.116 18.7619L250.474 19.3672ZM178.423 95.877L177.833 95.4941L177.833 95.4948L178.423 95.877ZM177.395 97.4636L176.805 97.0814L176.126 98.1305L177.375 98.1665L177.395 97.4636ZM174.389 98.7934L173.799 98.4108L173.196 99.3397L174.293 99.4901L174.389 98.7934ZM176.754 95.146L176.164 94.7631L176.164 94.7634L176.754 95.146ZM249.64 17.9432L249.486 17.2571L249.379 17.2812L249.284 17.3369L249.64 17.9432ZM277.435 10.0405L277.674 10.7019L277.677 10.7007L277.435 10.0405ZM245.205 18.9158L245.541 19.5337L245.081 18.2236L245.205 18.9158ZM158.569 96.1187L158.338 96.7829L158.82 96.9502L159.129 96.5448L158.569 96.1187ZM161.674 44.9338L162.053 45.5262L162.054 45.5258L161.674 44.9338ZM219.185 24.1437L219.32 24.8338L219.321 24.8337L219.185 24.1437ZM235.152 20.8611L235.013 20.1716L235.006 20.1731L234.999 20.1746L235.152 20.8611ZM146.487 86.6628L145.949 87.1152L145.949 87.1152L146.487 86.6628ZM157.845 94.1476L157.592 94.8037L158.083 94.9928L158.403 94.5758L157.845 94.1476ZM235.958 22.3018L236.319 22.9051L235.819 21.6123L235.958 22.3018ZM235.625 22.3671L235.486 21.6777L235.479 21.6791L235.472 21.6807L235.625 22.3671ZM219.625 25.6574V26.3606H219.693L219.76 26.3473L219.625 25.6574ZM219.623 25.6574V24.9542H219.555L219.488 24.9672L219.623 25.6574ZM164.165 45.3259L163.796 44.7276L163.791 44.7306L164.165 45.3259ZM162.836 46.1617L162.462 45.5665L162.458 45.5693L162.836 46.1617ZM5.70028 142.927H6.40349C6.40349 140.889 6.62535 139.454 7.01178 138.554C7.20174 138.111 7.41614 137.834 7.62853 137.669C7.83096 137.512 8.06524 137.429 8.36145 137.429V136.726V136.023C7.7706 136.023 7.2287 136.199 6.76584 136.558C6.31294 136.91 5.97293 137.408 5.71937 137.999C5.21874 139.165 4.99708 140.831 4.99708 142.927H5.70028ZM8.36145 136.726L8.26596 137.423C8.41111 137.443 8.44462 137.486 8.45866 137.505C8.48692 137.544 8.54529 137.661 8.54529 137.942H9.2485H9.95171C9.95171 137.493 9.86224 137.043 9.59481 136.676C9.31317 136.29 8.90315 136.091 8.45693 136.029L8.36145 136.726ZM9.2485 137.942H8.54529V140.374H9.2485H9.95171V137.942H9.2485ZM9.2485 140.374H8.54529C8.54529 142.356 9.18332 143.953 10.5506 145.029C11.8859 146.081 13.8077 146.548 16.1971 146.548V145.845V145.141C13.9541 145.141 12.4016 144.697 11.4207 143.924C10.4718 143.177 9.95171 142.038 9.95171 140.374H9.2485ZM16.1971 145.845V146.548C19.4081 146.548 22.1436 145.563 24.3555 143.571L23.8849 143.048L23.4143 142.526C21.4866 144.262 19.0969 145.141 16.1971 145.141V145.845ZM23.8849 143.048L24.3433 143.582C26.6549 141.594 27.8406 139.135 27.8406 136.24H27.1374H26.4342C26.4342 138.694 25.4516 140.774 23.4265 142.515L23.8849 143.048ZM27.1374 136.24H27.8406C27.8406 133.346 26.9947 131.056 25.1936 129.506C23.4128 127.974 20.8156 127.269 17.5277 127.269V127.972V128.676C20.6463 128.676 22.854 129.349 24.2764 130.572C25.6785 131.779 26.4342 133.622 26.4342 136.24H27.1374ZM17.5277 127.972V127.269C13.1962 127.269 9.4687 128.847 6.38228 131.977L6.88302 132.471L7.38377 132.965C10.211 130.097 13.58 128.676 17.5277 128.676V127.972ZM6.88302 132.471L6.38067 131.979C3.38914 135.033 1.89238 138.778 1.89238 143.17H2.59559H3.2988C3.2988 139.133 4.66033 135.745 7.38537 132.963L6.88302 132.471ZM2.59559 143.17H1.89238C1.89238 151.381 6.80865 158.022 16.3081 163.121L16.6406 162.501L16.9732 161.881C7.74589 156.929 3.2988 150.683 3.2988 143.17H2.59559ZM16.6406 162.501L16.3108 163.122C25.9037 168.217 38.0015 170.742 52.5663 170.742V170.039V169.336C38.1541 169.336 26.3014 166.836 16.9705 161.88L16.6406 162.501ZM52.5663 170.039V170.742C78.6253 170.742 104.077 163.489 128.912 149.005L128.557 148.398L128.203 147.79C103.56 162.162 78.3508 169.336 52.5663 169.336V170.039ZM128.557 148.398L128.912 149.005C137.816 143.798 144.869 138.575 150.051 133.33L149.551 132.836L149.051 132.341C143.982 137.471 137.04 142.623 128.202 147.791L128.557 148.398ZM149.551 132.836L150.048 133.333C155.621 127.768 162.011 119.288 169.217 107.924L168.623 107.547L168.029 107.171C160.845 118.501 154.52 126.88 149.054 132.338L149.551 132.836ZM168.623 107.547L169.221 107.917L173.36 101.23L172.762 100.86L172.164 100.49L168.025 107.177L168.623 107.547ZM172.762 100.86L172.695 101.56C174.394 101.725 176.141 101.807 177.937 101.807V101.103V100.4C176.184 100.4 174.482 100.32 172.83 100.16L172.762 100.86ZM177.937 101.103V101.807C196.528 101.807 211.744 95.9957 223.523 84.339L223.029 83.8392L222.534 83.3393C211.053 94.7016 196.208 100.4 177.937 100.4V101.103ZM223.029 83.8392L223.519 84.3434C230.057 77.9894 233.49 72.1811 233.49 66.9396H232.786H232.083C232.083 71.5866 229.011 77.0447 222.539 83.3349L223.029 83.8392ZM232.786 66.9396H233.49C233.49 66.5222 233.396 66.078 233.084 65.7363C232.761 65.3823 232.321 65.2638 231.899 65.2638V65.967V66.6702C231.985 66.6702 232.029 66.6821 232.046 66.6883C232.059 66.6929 232.053 66.693 232.045 66.684C232.029 66.6665 232.083 66.7086 232.083 66.9396H232.786ZM231.899 65.967V65.2638C231.3 65.2638 230.807 65.5576 230.436 66.0023C230.079 66.4294 229.81 67.0171 229.6 67.7077L230.273 67.9123L230.946 68.1168C231.13 67.5105 231.33 67.1256 231.515 66.9043C231.685 66.7006 231.809 66.6702 231.899 66.6702V65.967ZM230.273 67.9123L229.591 67.7402C227.482 76.0972 221.479 83.2984 211.431 89.3148L211.793 89.9181L212.154 90.5214C222.41 84.3799 228.727 76.9106 230.955 68.0843L230.273 67.9123ZM211.793 89.9181L211.431 89.3148C201.391 95.3273 190.428 98.3334 178.528 98.3334V99.0366V99.7398C190.678 99.7398 201.891 96.6669 212.154 90.5214L211.793 89.9181ZM178.528 99.0366H179.231V97.4804H178.528H177.825V99.0366H178.528ZM178.528 97.4804V98.1836C190.259 98.1836 201.085 95.2239 211.04 89.2631L210.678 88.6598L210.317 88.0565C200.585 93.8843 190.009 96.7771 178.528 96.7771V97.4804ZM210.678 88.6598L211.04 89.2631C220.987 83.3064 226.986 76.1503 229.101 67.7682L228.419 67.5962L227.738 67.4241C225.74 75.337 220.056 82.225 210.317 88.0565L210.678 88.6598ZM228.419 67.5962L229.092 67.8007L229.111 67.7399L228.438 67.5354L227.765 67.3308L227.747 67.3916L228.419 67.5962ZM228.438 67.5354L229.111 67.7399C229.317 67.0609 229.583 66.4676 229.955 66.0228L229.416 65.5719L228.876 65.1209C228.332 65.772 227.997 66.5684 227.765 67.3308L228.438 67.5354ZM229.416 65.5719L229.955 66.0229C230.333 65.571 230.967 65.114 231.899 65.114V64.4108V63.7076C230.45 63.7076 229.45 64.4346 228.876 65.1208L229.416 65.5719ZM231.899 64.4108V65.114C232.533 65.114 233.156 65.3095 233.559 65.7509L234.078 65.277L234.598 64.8032C233.843 63.9757 232.78 63.7076 231.899 63.7076V64.4108ZM234.078 65.277L233.558 65.7508C233.896 66.1215 233.975 66.5591 233.975 66.9396H234.679H235.382C235.382 66.3726 235.263 65.5329 234.598 64.8032L234.078 65.277ZM234.679 66.9396H233.975C233.975 72.1292 230.567 77.9352 223.993 84.3274L224.483 84.8315L224.973 85.3357C231.613 78.8799 235.382 72.7237 235.382 66.9396H234.679ZM224.483 84.8315L224.036 85.3747L224.038 85.3762L224.485 84.8331L224.932 84.2899L224.93 84.2884L224.483 84.8315ZM224.485 84.8331L223.99 84.3332C212.144 96.0566 196.762 101.956 177.937 101.956V102.66V103.363C197.082 103.363 212.836 97.3507 224.98 85.3329L224.485 84.8331ZM177.937 102.66V101.956C176.569 101.956 175.226 101.908 173.91 101.814L173.86 102.515L173.81 103.217C175.16 103.313 176.535 103.363 177.937 103.363V102.66ZM173.86 102.515L173.262 102.145L169.712 107.884L170.31 108.254L170.908 108.624L174.458 102.885L173.86 102.515ZM170.31 108.254L169.75 107.828L169.741 107.84L170.301 108.266L170.861 108.691L170.87 108.679L170.31 108.254ZM170.301 108.266L169.707 107.889C162.505 119.247 156.11 127.736 150.521 133.318L151.018 133.816L151.515 134.313C157.211 128.624 163.671 120.035 170.895 108.643L170.301 108.266ZM151.018 133.816L150.518 133.322C145.313 138.59 138.231 143.836 129.298 149.06L129.653 149.667L130.008 150.274C139.007 145.011 146.199 139.694 151.519 134.31L151.018 133.816ZM129.653 149.667V148.964H129.651V149.667V150.37H129.653V149.667ZM129.651 149.667L129.297 149.059C104.39 163.585 78.8064 170.892 52.5663 170.892V171.595V172.298C79.0809 172.298 104.907 164.911 130.006 150.274L129.651 149.667ZM52.5663 171.595V170.892C37.893 170.892 25.6563 168.346 15.943 163.187L15.6131 163.808L15.2833 164.429C25.2586 169.727 37.7404 172.298 52.5663 172.298V171.595ZM15.6131 163.808L15.8805 163.158L15.8731 163.155L15.6057 163.805L15.3383 164.455L15.3457 164.458L15.6131 163.808ZM15.6057 163.805L15.9383 163.185C6.28095 158.002 1.40641 151.304 1.40641 143.17H0.703206H1.46683e-08C1.46683e-08 152.003 5.34421 159.096 15.2732 164.425L15.6057 163.805ZM0.703206 143.17H1.40641C1.40641 138.824 2.88275 135.08 5.91249 131.987L5.41014 131.495L4.90779 131.003C1.61159 134.368 1.46683e-08 138.469 1.46683e-08 143.17H0.703206ZM5.41014 131.495L5.9564 131.938L5.96009 131.933L5.41384 131.491L4.86758 131.048L4.86389 131.052L5.41014 131.495ZM5.41384 131.491L5.91457 131.984C9.04695 128.808 12.9288 127.119 17.5277 127.119V126.416V125.713C12.5445 125.713 8.3042 127.558 4.91311 130.997L5.41384 131.491ZM17.5277 126.416V127.119C20.9606 127.119 23.7456 127.864 25.644 129.496L26.1025 128.963L26.5611 128.43C24.3037 126.488 21.1286 125.713 17.5277 125.713V126.416ZM26.1025 128.963L25.6439 129.496C27.5069 131.099 28.3266 133.399 28.3266 136.24H29.0298H29.733C29.733 133.123 28.8236 130.377 26.5612 128.43L26.1025 128.963ZM29.0298 136.24H28.3266C28.3266 139.078 27.1679 141.547 24.7922 143.59L25.2506 144.123L25.709 144.656C28.3707 142.368 29.733 139.52 29.733 136.24H29.0298ZM25.2506 144.123L24.7816 143.599C22.5015 145.64 19.6172 146.698 16.1971 146.698V147.401V148.104C19.9276 148.104 23.1562 146.941 25.7196 144.647L25.2506 144.123ZM16.1971 147.401V146.698C13.6821 146.698 11.5751 146.2 10.1122 145.049L9.67724 145.601L9.24228 146.154C11.0601 147.585 13.537 148.104 16.1971 148.104V147.401ZM9.67724 145.601L10.1123 145.049C9.14803 144.29 8.5681 143.329 8.28077 142.22L7.60006 142.396L6.91934 142.573C7.27769 143.955 8.01784 145.19 9.24222 146.154L9.67724 145.601ZM7.60006 142.396L6.897 142.382C6.89347 142.551 6.88946 142.736 6.88946 142.927H7.59267H8.29587C8.29587 142.753 8.29952 142.584 8.30311 142.411L7.60006 142.396ZM7.59267 142.927H6.88946C6.88946 149.625 10.8384 155.256 18.8427 159.883L19.1946 159.275L19.5465 158.666C11.7959 154.186 8.29587 148.944 8.29587 142.927H7.59267ZM19.1946 159.275L18.8474 159.886C26.878 164.446 36.9079 166.754 49.0181 166.754V166.051V165.348C37.0816 165.348 27.3075 163.073 19.5418 158.663L19.1946 159.275ZM49.0181 166.051H48.3149V167.607H49.0181H49.7213V166.051H49.0181ZM49.0181 167.607V166.904C36.7847 166.904 26.6129 164.57 18.4663 159.944L18.119 160.556L17.7718 161.167C26.1836 165.944 36.6111 168.311 49.0181 168.311V167.607ZM18.119 160.556L18.4708 159.947C10.318 155.238 6.40349 149.556 6.40349 142.927H5.70028H4.99708C4.99708 150.238 9.36169 156.309 17.7673 161.165L18.119 160.556ZM289.706 3.47521H290.409C290.409 3.14466 290.321 2.82509 290.128 2.5443C289.938 2.26907 289.675 2.07111 289.384 1.93034C288.821 1.65805 288.064 1.55622 287.192 1.55622V2.25942V2.96263C287.996 2.96263 288.496 3.06342 288.771 3.1964C288.899 3.25827 288.95 3.31359 288.97 3.34231C288.985 3.36547 289.002 3.4005 289.002 3.47521H289.706ZM287.192 2.25942V1.55622C285.47 1.55622 283.106 1.98179 280.132 2.79703C277.146 3.61546 273.502 4.83939 269.203 6.46483L269.451 7.12259L269.7 7.78036C273.976 6.16368 277.576 4.95602 280.504 4.1534C283.443 3.34758 285.662 2.96263 287.192 2.96263V2.25942ZM269.451 7.12259L269.206 6.46371C260.704 9.63405 253.761 12.8537 248.387 16.1268L248.753 16.7274L249.119 17.3279C254.391 14.1168 261.246 10.9333 269.697 7.78147L269.451 7.12259ZM248.753 16.7274L248.632 16.0347L234.735 18.4663L234.856 19.1589L234.977 19.8516L248.875 17.42L248.753 16.7274ZM234.856 19.1589L234.762 18.462L218.5 20.6505L218.593 21.3474L218.687 22.0443L234.95 19.8559L234.856 19.1589ZM218.593 21.3474L218.498 20.6507C194.341 23.9752 176.588 27.6708 165.279 31.7496L165.518 32.4111L165.757 33.0726C176.92 29.0461 194.551 25.3659 218.689 22.044L218.593 21.3474ZM165.518 32.4111L165.283 31.7483C154.131 35.702 145.7 40.7274 140.052 46.8585C134.39 53.0051 131.55 60.2365 131.55 68.5202H132.253H132.957C132.957 60.5933 135.661 53.7011 141.087 47.8114C146.527 41.9061 154.729 36.9823 165.753 33.0739L165.518 32.4111ZM132.253 68.5202H131.55C131.55 75.3678 133.7 81.2981 138.005 86.2748C142.298 91.2382 148.7 95.215 157.15 98.2397L157.387 97.5776L157.624 96.9155C149.318 93.9423 143.153 90.0772 139.069 85.3548C134.995 80.6457 132.957 75.0462 132.957 68.5202H132.253ZM157.387 97.5776L156.833 97.1436C145.01 112.214 135.616 123.336 128.644 130.522L129.149 131.012L129.653 131.502C136.678 124.261 146.108 113.093 157.94 98.0117L157.387 97.5776ZM129.149 131.012L128.645 130.521C105.003 154.804 78.4669 166.904 49.0181 166.904V167.607V168.311C78.9035 168.311 105.788 156.013 129.653 131.502L129.149 131.012ZM49.0181 167.607H49.7213V166.051H49.0181H48.3149V167.607H49.0181ZM49.0181 166.051V166.754C78.1736 166.754 104.561 154.785 128.176 130.53L127.672 130.039L127.168 129.549C103.775 153.575 77.7372 165.348 49.0181 165.348V166.051ZM127.672 130.039L128.177 130.529C134.905 123.593 143.892 112.978 155.156 98.6768L154.604 98.2417L154.051 97.8067C142.796 112.097 133.845 122.666 127.167 129.55L127.672 130.039ZM154.604 98.2417L154.86 97.5869C147.308 94.6321 141.51 90.8622 137.527 86.2575L136.995 86.7175L136.464 87.1776C140.639 92.005 146.654 95.8866 154.347 98.8966L154.604 98.2417ZM136.995 86.7175L137.527 86.2575C133.198 81.2526 131.064 75.3274 131.064 68.5202H130.361H129.658C129.658 75.6489 131.903 81.905 136.464 87.1776L136.995 86.7175ZM130.361 68.5202H131.064C131.064 60.2806 133.885 53.0528 139.579 46.8722L139.062 46.3958L138.544 45.9193C132.614 52.3568 129.658 59.9238 129.658 68.5202H130.361ZM139.062 46.3958L139.579 46.8722C145.267 40.6973 153.766 35.6302 164.993 31.6483L164.758 30.9856L164.523 30.3228C153.168 34.3499 144.441 39.5187 138.544 45.9193L139.062 46.3958ZM164.758 30.9856L164.993 31.6486L166.085 31.2626L165.851 30.5996L165.616 29.9365L164.524 30.3226L164.758 30.9856ZM165.851 30.5996L166.081 31.2641C177.503 27.3089 194.962 23.7314 218.377 20.5091L218.281 19.8124L218.185 19.1158C194.749 22.341 177.178 25.933 165.621 29.9351L165.851 30.5996ZM218.281 19.8124L218.423 20.5012L218.43 20.4997L218.289 19.8109L218.147 19.1221L218.14 19.1236L218.281 19.8124ZM218.289 19.8109L218.382 20.5078L234.599 18.3255L234.505 17.6286L234.411 16.9316L218.195 19.114L218.289 19.8109ZM234.505 17.6286L234.626 18.3212L248.087 15.9656L247.966 15.273L247.845 14.5803L234.384 16.9359L234.505 17.6286ZM247.966 15.273L248.329 15.8756C253.693 12.6485 260.562 9.47865 268.915 6.36356L268.67 5.70468L268.424 5.0458C260.021 8.17929 253.067 11.3841 247.604 14.6704L247.966 15.273ZM268.67 5.70468L268.918 6.36245C273.224 4.73466 276.89 3.50431 279.905 2.67773L279.719 1.99955L279.533 1.32136C276.46 2.16368 272.75 3.41022 268.421 5.0469L268.67 5.70468ZM279.719 1.99955L279.905 2.67773C282.895 1.85819 285.349 1.40641 287.192 1.40641V0.703206V9.56425e-09C285.157 9.56425e-09 282.557 0.492398 279.533 1.32136L279.719 1.99955ZM287.192 0.703206V1.40641C288.119 1.40641 289.024 1.51276 289.73 1.85452L290.036 1.22144L290.343 0.588357C289.348 0.107435 288.188 9.56425e-09 287.192 9.56425e-09V0.703206ZM290.036 1.22144L289.73 1.85447C290.539 2.24547 290.895 2.84358 290.895 3.47521H291.598H292.301C292.301 2.21251 291.548 1.17151 290.343 0.588408L290.036 1.22144ZM291.598 3.47521H290.895C290.895 4.0991 290.441 4.68696 289.853 5.19896L290.316 5.72899L290.778 6.25902C291.406 5.71148 292.301 4.75931 292.301 3.47521H291.598ZM290.316 5.72899L289.853 5.19893C289.253 5.72201 288.399 6.26607 287.337 6.83386L287.669 7.4539L288.001 8.07394C289.099 7.48668 290.061 6.88423 290.778 6.25905L290.316 5.72899ZM287.669 7.4539L287.337 6.83386C285.211 7.97159 282.073 9.29453 277.963 10.8012L278.205 11.4615L278.447 12.1217C282.576 10.6083 285.787 9.25863 288.001 8.07394L287.669 7.4539ZM278.205 11.4615L277.894 10.8308L277.885 10.8354L278.196 11.466L278.507 12.0966L278.517 12.0921L278.205 11.4615ZM278.196 11.466L277.957 10.8046C269.894 13.7157 260.678 16.3389 250.319 18.6813L250.474 19.3672L250.629 20.053C261.032 17.7008 270.305 15.0625 278.435 12.1274L278.196 11.466ZM250.474 19.3672L250.116 18.7619C225.881 33.0925 201.769 58.6278 177.833 95.4941L178.423 95.877L179.013 96.26C202.889 59.4854 226.858 34.1485 250.832 19.9725L250.474 19.3672ZM178.423 95.877L177.833 95.4948L176.805 97.0814L177.395 97.4636L177.986 97.8459L179.013 96.2593L178.423 95.877ZM177.395 97.4636L177.375 98.1665C177.743 98.1772 178.127 98.1836 178.528 98.1836V97.4804V96.7771C178.142 96.7771 177.772 96.771 177.416 96.7607L177.395 97.4636ZM178.528 97.4804H177.825V99.0366H178.528H179.231V97.4804H178.528ZM178.528 99.0366V98.3334C176.974 98.3334 175.627 98.2534 174.484 98.0967L174.389 98.7934L174.293 99.4901C175.516 99.6577 176.929 99.7398 178.528 99.7398V99.0366ZM174.389 98.7934L174.979 99.176L177.344 95.5287L176.754 95.146L176.164 94.7634L173.799 98.4108L174.389 98.7934ZM176.754 95.146L177.344 95.529C201.363 58.5337 225.587 32.8993 249.997 18.5494L249.64 17.9432L249.284 17.3369C224.61 31.8418 200.243 57.676 176.164 94.7631L176.754 95.146ZM249.64 17.9432L249.795 18.6292C260.264 16.2737 269.558 13.6319 277.674 10.7019L277.435 10.0405L277.196 9.37908C269.147 12.2849 259.912 14.9115 249.486 17.2571L249.64 17.9432ZM277.435 10.0405L277.677 10.7007C281.776 9.19794 284.881 7.88772 286.97 6.77C288.011 6.21284 288.831 5.68725 289.401 5.19064C289.933 4.72685 290.409 4.14961 290.409 3.47521H289.706H289.002C289.002 3.47074 289.004 3.5238 288.924 3.64793C288.843 3.77203 288.703 3.93356 288.477 4.13058C288.024 4.52556 287.31 4.99287 286.306 5.52992C284.305 6.60063 281.274 7.8841 277.193 9.38026L277.435 10.0405ZM245.205 18.9158L244.869 18.2978C213.128 35.5369 184.177 61.3435 158.01 95.6925L158.569 96.1187L159.129 96.5448C185.199 62.3231 214.005 36.6611 245.541 19.5337L245.205 18.9158ZM158.569 96.1187L158.8 95.4545C152.817 93.3742 148.394 90.5758 145.469 87.0949C142.554 83.6258 141.088 79.4333 141.088 74.4775H140.385H139.682C139.682 79.7344 141.246 84.2552 144.393 87.9997C147.529 91.7326 152.199 94.6484 158.338 96.7829L158.569 96.1187ZM140.385 74.4775H141.088C141.088 64.2163 147.939 54.5538 162.053 45.5262L161.674 44.9338L161.295 44.3414C147.024 53.4695 139.682 63.5029 139.682 74.4775H140.385ZM161.674 44.9338L162.054 45.5258C176.245 36.4309 195.322 29.5248 219.32 24.8338L219.185 24.1437L219.05 23.4536C194.949 28.1647 175.686 35.1187 161.295 44.3417L161.674 44.9338ZM219.185 24.1437L219.321 24.8337C226.32 23.4555 231.649 22.3599 235.304 21.5475L235.152 20.8611L234.999 20.1746C231.361 20.9832 226.045 22.0761 219.049 23.4537L219.185 24.1437ZM235.152 20.8611L235.29 21.5505C239.724 20.6591 243.07 20.0119 245.329 19.608L245.205 18.9158L245.081 18.2236C242.807 18.6302 239.45 19.2798 235.013 20.1716L235.152 20.8611ZM142.277 74.4775H141.574C141.574 79.4718 143.055 83.6715 145.949 87.1152L146.487 86.6628L147.025 86.2105C144.363 83.0422 142.98 79.1707 142.98 74.4775H142.277ZM146.487 86.6628L145.949 87.1152C148.59 90.2584 152.454 92.8234 157.592 94.8037L157.845 94.1476L158.098 93.4914C153.113 91.5699 149.472 89.1224 147.025 86.2104L146.487 86.6628ZM157.845 94.1476L158.403 94.5758C182.081 63.7396 208.045 39.8358 236.319 22.9051L235.958 22.3018L235.596 21.6985C207.146 38.7351 181.054 62.768 157.287 93.7193L157.845 94.1476ZM235.958 22.3018L235.819 21.6123C235.767 21.6229 235.714 21.6332 235.658 21.644C235.602 21.6547 235.545 21.666 235.486 21.6777L235.625 22.3671L235.763 23.0565C235.817 23.0459 235.87 23.0355 235.926 23.0246C235.981 23.0139 236.038 23.0028 236.096 22.9912L235.958 22.3018ZM235.625 22.3671L235.472 21.6807C231.808 22.4948 226.477 23.5914 219.489 24.9674L219.625 25.6574L219.76 26.3473C226.752 24.9707 232.096 23.8715 235.777 23.0536L235.625 22.3671ZM219.625 25.6574V24.9542H219.623V25.6574V26.3606H219.625V25.6574ZM219.623 25.6574L219.488 24.9672C196.308 29.4985 177.763 36.0964 163.796 44.7277L164.165 45.3259L164.535 45.9241C178.311 37.4112 196.678 30.859 219.758 26.3475L219.623 25.6574ZM164.165 45.3259L163.791 44.7306L162.462 45.5665L162.836 46.1617L163.211 46.7569L164.54 45.9211L164.165 45.3259ZM162.836 46.1617L162.458 45.5693C148.455 54.5256 141.574 64.153 141.574 74.4775H142.277H142.98C142.98 64.866 149.37 55.6095 163.215 46.7541L162.836 46.1617Z" fill="var(--stroke-0, #FFC800)" mask="url(#path-10-outside-1_0_43)"/>
</g>
</g>
</svg>
